<?xml version="1.0" encoding="utf-8"?>
<!-- Generator: Adobe Illustrator 19.1.0, SVG Export Plug-In . SVG Version: 6.00 Build 0)  -->
<!DOCTYPE svg PUBLIC "-//W3C//DTD SVG 1.1//EN" "http://www.w3.org/Graphics/SVG/1.1/DTD/svg11.dtd">
<svg version="1.1" id="Layer_1" xmlns="http://www.w3.org/2000/svg" xmlns:xlink="http://www.w3.org/1999/xlink" x="0px" y="0px"
	 viewBox="0 0 300 350" style="enable-background:new 0 0 300 350;" xml:space="preserve">
<g>
	<g>
		<g>
			<path d="M25.4,42.3c0.5,3.7,0.9,7.4,1.4,11.1c0.2,1.9,3.2,1.9,3,0c-0.5-3.7-0.9-7.4-1.4-11.1C28.1,40.4,25.1,40.4,25.4,42.3
				L25.4,42.3z"/>
		</g>
	</g>
	<g>
		<g>
			<path d="M28.2,49.5c2.1-0.3,4.2-0.4,6.2-1c1.8-0.6,1.1-3.5-0.8-2.9c-1.7,0.5-3.6,0.6-5.4,0.8c-0.8,0.1-1.5,0.6-1.5,1.5
				C26.7,48.7,27.4,49.6,28.2,49.5L28.2,49.5z"/>
		</g>
	</g>
	<g>
		<g>
			<path d="M38.7,52.6c-0.5-4-1-8-1.5-12c-0.2-1.9-3.2-1.9-3,0c0.5,4,1,8,1.5,12C35.9,54.5,38.9,54.5,38.7,52.6L38.7,52.6z"/>
		</g>
	</g>
	<g>
		<g>
			<path d="M41.2,45.5c0.1,1.1,0.1,2.5,0.8,3.3c0.3,0.3,0.7,0.5,1.1,0.7c0.2,0.1,0.4,0.1,0.6,0.2c0.1,0,0.6,0.2,0.3,0.1
				c0.7,0.3,1.6,0.2,2.1-0.5c0.4-0.6,0.2-1.7-0.5-2.1c-0.3-0.1-0.6-0.2-0.9-0.3c-0.1,0-0.3-0.1-0.4-0.1c0.2,0.1,0,0-0.1,0
				c-0.1,0-0.1,0,0,0c0.1,0.1,0.2,0.2,0.2,0.3c0,0,0-0.3,0-0.3c0-0.4-0.1-0.8-0.2-1.2c-0.1-0.8-0.6-1.5-1.5-1.5
				C42,44,41.1,44.7,41.2,45.5L41.2,45.5z"/>
		</g>
	</g>
	<g>
		<g>
			<path d="M41.9,42.1C41.9,42.1,41.9,42.1,41.9,42.1c-0.2-0.7-0.5-1.5-0.8-2.2c0,0,0,0,0,0.1c-0.4,0.7-0.2,1.6,0.5,2.1
				c0.7,0.4,1.6,0.2,2.1-0.5c0,0,0,0,0-0.1c0.4-0.8,0.1-2-0.9-2.2c0,0,0,0-0.1,0c-0.8-0.1-1.7,0.2-1.8,1C40.6,41,41,42,41.9,42.1
				L41.9,42.1z"/>
		</g>
	</g>
	<g>
		<g>
			<path d="M50.8,50.6c0.1,0.8,0.2,1.7,0.3,2.5c0.1,0.7,0.3,1.5,0,2.2c-0.6,1.8,2.3,2.6,2.9,0.8c0.5-1.7,0-3.8-0.3-5.6
				c-0.1-0.8-0.6-1.5-1.5-1.5C51.6,49.1,50.7,49.8,50.8,50.6L50.8,50.6z"/>
		</g>
	</g>
	<g>
		<g>
			<path d="M30.2,75.7c0.5,4,1,8,1.5,12c1-0.1,2-0.3,2.9-0.4c-0.3-2.4-0.1-4.9-0.5-7.3c-0.1,0.5-0.3,1-0.4,1.5
				c0.1-0.1,0.2-0.2,0.2-0.2c-0.6,0.1-1.2,0.2-1.8,0.2c2.3,1.2,4.2,2.9,6.5,3.8c0.5,0.2,1.1,0,1.5-0.4c1.5-1.5,0.4-4.8,0.3-6.6
				c-0.8,0.4-1.5,0.9-2.3,1.3c2.8,2.1,4.7,5.3,7.5,7.5c1.5,1.2,3-1.4,1.5-2.6c-2.8-2.1-4.6-5.3-7.5-7.5c-0.9-0.7-2.3,0.2-2.3,1.3
				c0,0.5,0.8,4.3,0.6,4.5c0.5-0.1,1-0.3,1.5-0.4c-2.1-0.9-3.8-2.5-5.8-3.5c-0.6-0.3-1.4-0.3-1.8,0.2c-1.8,1.9-0.4,6.7-0.1,9
				c0.2,1.7,3.2,1.3,2.9-0.4c-0.5-4-1-8-1.5-12C33,73.8,30,73.7,30.2,75.7L30.2,75.7z"/>
		</g>
	</g>
	<g>
		<g>
			<path d="M49.6,84.3c3,0.9,6,1.3,7.5-1.8c-0.9,0-1.7,0-2.6,0c1,1.8,0.8,4.9,1,6.8c0.3,2.4,0.6,4.9,0.9,7.3c0.2,1.9,3.2,1.9,3,0
				c-0.4-3.2-0.8-6.3-1.2-9.5c-0.3-2-0.2-4.3-1.2-6.1c-0.5-1-2.1-1-2.6,0c-0.8,1.7-2.7,0.8-4.1,0.4C48.6,80.8,47.8,83.7,49.6,84.3
				L49.6,84.3z"/>
		</g>
	</g>
	<g>
		<g>
			<path d="M67.4,77.5c0,0.3,0.1,0.6,0.1,0.9c0.1,1.9,3,1.9,3,0c0-1.1,0.8-7.2,2.4-7.3c0.8-0.1,1.6,1.5,2.1,2.1
				c0.8,1.2,1.6,2.4,2.3,3.7c0.9,1.7,3.5,0.2,2.6-1.5c-1.3-2.4-4.1-8.3-7.7-7.4c-1.7,0.4-2.6,2-3.1,3.6c-0.8,2.2-1.4,4.5-1.5,6.9
				c1,0,2,0,3,0c0-0.6-0.1-1.1-0.2-1.7C70,74.8,67.1,75.6,67.4,77.5L67.4,77.5z"/>
		</g>
	</g>
	<g>
		<g>
			<path d="M85.7,67.1c-2.4,0.3-4.1,0.7-4.3,3.4c-0.2,1.7-0.3,4.7,1.8,5.3c2,0.6,3.6-1.6,4.6-3c0.2-0.4,0.5-1.1,0.9-1.2
				c0.3-0.1,1.5,0.9,1.9,1.1c1.2,0.6,2.3,0.9,3.6,0.6c1.9-0.5,1.1-3.3-0.8-2.9c-1.4,0.3-3-1.5-4.3-2c-1.1-0.4-2-0.1-2.7,0.8
				c-1,1.1-1.4,2.7-2.7,3.6c0.2,0,0.4,0.1,0.6,0.1c-0.1-0.4-0.1-0.9,0-1.4c0-1.2,0.2-1.3,1.4-1.5C87.6,69.8,87.6,66.8,85.7,67.1
				L85.7,67.1z"/>
		</g>
	</g>
	<g>
		<g>
			<path d="M91.4,67.5c0.1,1.1,0.3,2.2,0.4,3.3c1,0,2,0,3,0c-0.2-1.4-0.4-2.9-0.4-4.4c0-0.9,0.2-1.8,0.2-2.6c0-1,0.7-0.9-0.4-1.2
				c-1.2-0.3-0.2,0.6,0.1,1.1c0.4,0.7,0.8,1.5,1.1,2.3c1.2,2.6,2,5.4,3.3,8c0.5,1,2.1,0.9,2.6,0c1.1-2.1,0.7-4.7,1.7-6.9
				c-0.6,0.2-1.1,0.5-1.7,0.7c0.1,0.1,0.3,0.1,0.4,0.2c-0.3-0.3-0.7-0.7-1-1c1.1,3.5,2.2,7,3.3,10.6c0.6,1.8,3.5,1.1,2.9-0.8
				c-0.8-2.7-1.6-5.5-2.5-8.2c-0.5-1.6-0.7-2.9-2.3-3.5c-0.6-0.2-1.4,0.1-1.7,0.7c-0.5,1.3-0.9,2.5-1.2,3.8c-0.2,0.8-0.1,2.3-0.5,3
				c0.9,0,1.7,0,2.6,0c-1.7-3.7-2.5-8.6-5.3-11.7c-1-1.1-2.3-1.6-3.4-0.3c-2,2.4-1,7.5-0.7,10.2c0.3,1.9,3.2,1.9,3,0
				c-0.1-1.1-0.3-2.2-0.4-3.3C94.2,65.6,91.1,65.6,91.4,67.5L91.4,67.5z"/>
		</g>
	</g>
	<g>
		<g>
			<path d="M110.7,68.7c2.5-0.5,5.4-4.5,2.9-6.7c-2.8-2.4-6.3,0.6-7.1,3.4c-0.9,3-1.3,8.8,1.7,10.8c3.1,2,7.8,1,10.3-1.4
				c1.4-1.4-0.8-3.5-2.1-2.1c-1.1,1.1-2.4,1.6-4,1.5c-1,0-1.7-0.1-2.4-0.8c-0.9-0.9-0.9-1.3-0.9-2.5c-0.1-1.4-0.1-2.8,0.2-4.2
				c0.2-0.6,0.6-1.9,1.3-2.2c1.3-0.5,0.4,1.2-0.6,1.4C108,66.2,108.8,69.1,110.7,68.7L110.7,68.7z"/>
		</g>
	</g>
	<g>
		<g>
			<path d="M131,59.7c0.1,1,0.3,2.1,0.4,3.1c0.1,0.8,0.6,1.5,1.5,1.5c0.7,0,1.6-0.7,1.5-1.5c-0.1-1-0.3-2.1-0.4-3.1
				c-0.1-0.8-0.6-1.5-1.5-1.5C131.7,58.2,130.9,58.9,131,59.7L131,59.7z"/>
		</g>
	</g>
	<g>
		<g>
			<path d="M130.7,55.5c1.9,0,1.9-3,0-3C128.7,52.5,128.7,55.5,130.7,55.5L130.7,55.5z"/>
		</g>
	</g>
	<g>
		<g>
			<path d="M141.4,51.3c-1.4,0.1-3,0.1-3.4,1.7c-0.3,1.2-0.2,2.9,0.7,3.9c1,1.1,2.3,1,3.7,1.2c0.3,0.1,1.1,0.1,1.2,0.4
				c0.1,0.1-0.1,0.2-0.5,0.4c-0.7,0.3-1.3,0.8-2,1c-1.9,0.5-1.1,3.4,0.8,2.9c2.1-0.5,5.6-2.2,4.7-4.9c-0.4-1.1-1.5-2.2-2.7-2.5
				c-1.2-0.3-3.7,0.3-2.8-1.7c-0.2,0.3-0.5,0.6-0.7,0.9c0.4-0.1,0.7-0.2,1.1-0.2C143.4,54.2,143.4,51.2,141.4,51.3L141.4,51.3z"/>
		</g>
	</g>
	<g>
		<g>
			<path d="M168.2,39.3c-1.6-2-5.6-1.2-7.1,0.5c-2.4,2.5-1.8,7.5-1.3,10.5c0.6,3.7,2.3,8.3,5.5,10.5c3.4,2.4,6.7,0.1,9.5-2.2
				c1.5-1.2-0.6-3.3-2.1-2.1c-2.8,2.3-5.7,2.6-7.7-0.5c-1-1.6-1.7-3.3-2.1-5.1c-0.4-1.7-0.7-4-0.4-5.8c0.2-1.2,2.2-5.4,3.6-3.6
				C167.3,42.9,169.4,40.8,168.2,39.3L168.2,39.3z"/>
		</g>
	</g>
	<g>
		<g>
			<path d="M172.3,44.8c0,2,0.3,3.9,0.6,5.9c0.2,1.6,0.4,3.2,1,4.7c0.5,1.1,2,0.8,2.6,0c1.3-1.9,2.2-4,3.6-5.9
				c-0.3,0.2-0.6,0.5-0.9,0.7c0.1,0,0.2-0.1,0.3-0.1c-0.4-0.1-0.8-0.1-1.2-0.2c0.3,0.2,0.9,0.9,0.9,1.2c0.5,1.9,3.4,1.1,2.9-0.8
				c-0.4-1.4-2.1-3.7-3.8-3.1c-1,0.4-1.6,1.7-2.1,2.5c-0.8,1.3-1.5,2.7-2.4,4.1c0.9,0,1.7,0,2.6,0c-0.5-1.1-0.5-2.7-0.7-4
				c-0.3-1.7-0.5-3.4-0.5-5.1C175.3,42.9,172.3,42.9,172.3,44.8L172.3,44.8z"/>
		</g>
	</g>
	<g>
		<g>
			<path d="M183.3,47.5c0.2,1.3,0.3,2.7,0.7,4c0.4,1.3,1.1,2.5,1.2,3.8c0.2,1.9,3.2,1.9,3,0c-0.1-1.3-0.4-2.4-0.9-3.6
				c-0.5-1.4-0.8-2.7-1-4.2C186,45.6,183,45.6,183.3,47.5L183.3,47.5z"/>
		</g>
	</g>
	<g>
		<g>
			<path d="M188,52.6c-0.1-1-0.6-2.4-0.3-3.3c0.3-1.2,1.5-1.9,2.7-2c1.9-0.2,1.9-3.2,0-3c-2,0.2-3.8,1-4.9,2.8
				c-1.2,1.8-0.7,3.6-0.4,5.6C185.2,54.5,188.2,54.5,188,52.6L188,52.6z"/>
		</g>
	</g>
	<g>
		<g>
			<path d="M193.6,44.2c0.3,2.4,0.6,4.8,0.9,7.2c0.2,1.9,3.2,1.9,3,0c-0.3-2.4-0.6-4.8-0.9-7.2C196.4,42.4,193.4,42.3,193.6,44.2
				L193.6,44.2z"/>
		</g>
	</g>
	<g>
		<g>
			<path d="M203.8,39.5c-1.1,0.1-1.8,0.5-2.2,1.4c-0.5,1.1-1.4,2.7-1.1,3.9c0.3,1.2,1.6,1.7,2.6,2.1c1.1,0.4,3.2,0.7,3.9,1.6
				c-0.1-0.4-0.3-0.7-0.4-1.1c0.3-0.5,0.3-0.6,0-0.5c-0.2,0-0.3,0.1-0.5,0.1c-1.9,0.5-1.1,3.4,0.8,2.9c0.9-0.3,1.9-0.6,2.4-1.4
				c0.7-1,0.2-2.2-0.8-2.8c-1.1-0.8-2.5-1.1-3.7-1.5c-0.3-0.1-0.7-0.2-1-0.4c-0.2-0.1-0.5-0.2-0.7-0.4c0.2,0.1,0.3,0.2,0.5,0.3
				c0.2-0.3,0.3-0.7,0.4-1c0.4-1,0.4-0.5-0.2-0.5C205.7,42.3,205.7,39.3,203.8,39.5L203.8,39.5z"/>
		</g>
	</g>
	<g>
		<g>
			<path d="M210.9,49.7C211.2,49.7,210.6,49.6,210.9,49.7c0,0,0,0-0.1,0c-0.4-0.1-0.6-0.5-0.6-1c0.1-0.3,0.1-0.5,0.2-0.8
				c0.1-0.1,0.2-0.2,0.3-0.3c-0.7,0.5-1,1.3-0.5,2.1c0.4,0.7,1.4,1,2.1,0.5c0.8-0.6,1.3-1.5,0.7-2.5c-0.4-0.7-1.2-1-2-1
				c-0.8,0-1.5,0.7-1.5,1.5C209.5,49,210.1,49.7,210.9,49.7L210.9,49.7z"/>
		</g>
	</g>
	<g>
		<g>
			<path d="M34.3,105.6c-0.4,2.9,0.3,5.8,0.7,8.7c0.3,2.5,0,6.1,1.4,8.3c1,1.6,3.6,0.1,2.6-1.5c-1.1-1.8-0.9-5.9-1.2-7.9
				c-0.3-2.2-1-4.5-0.7-6.7C37.4,104.5,34.5,103.7,34.3,105.6L34.3,105.6z"/>
		</g>
	</g>
	<g>
		<g>
			<path d="M53.7,108.4c-2.8,1.3-1.1,7.3,2.5,5.7c0.8-0.3,1.3-1.1,2-1.5c0.8-0.4-0.7-0.1,0.1,0.1c0.5,0.1,0.9,0.4,1.4,0.5
				c0.9,0.2,1.9,0.3,2.6-0.4c0.5-0.5,0.4-1.4,0.8-1.8c-0.5,0.1-1,0.3-1.5,0.4c0.9,0.4,1,1,2,1.2c0.7,0.1,1.3-0.1,1.7-0.7
				c0.7-1,1.2-3,2.2-3.7c-0.5,0-1,0-1.5,0c1.1,0.8,1.6,2.5,2.5,3.5c1.2,1.5,3.4-0.6,2.1-2.1c-1.1-1.4-1.6-2.9-3.1-4
				c-0.4-0.3-1.1-0.3-1.5,0c-1.7,1.2-2,3.2-3.3,4.8c0.6-0.2,1.1-0.5,1.7-0.7c-0.7-0.1-1.3-0.9-2-1.2c-0.5-0.2-1.1,0-1.5,0.4
				c-0.6,0.7-0.7,1.5-1.1,2.3c0.3-0.3,0.7-0.7,1-1c-1.4,0.6-2.6-1.4-4.2-0.6c-0.5,0.3-0.6,0.9-1,1.2c-1.7,1.3,0.4-0.3-0.7,0.2
				C56.9,110.2,55.4,107.6,53.7,108.4L53.7,108.4z"/>
		</g>
	</g>
	<g>
		<g>
			<path d="M86.8,100.3c-1.3,0.4-1.7,1.5-1.9,2.7c-0.3,1.5-0.9,3.9-0.2,5.3c0.6,1.2,2.2,1.5,3.2,0.7c1.2-1,1.3-2.8,1.8-4.2
				c-0.2,0.3-0.5,0.6-0.7,0.9c0.1,0,0.1-0.1,0.2-0.1c-0.4,0.1-0.8,0.1-1.2,0.2c2.7,0.8,4.9,1.1,7.7,1c1.9,0,1.9-3,0-3
				c-1.3,0-2.6,0.1-3.9,0c-1.1-0.1-2.5-1.1-3.7-0.9c-0.8,0.1-1.2,0.6-1.5,1.3c-0.2,0.6-0.3,2.3-0.8,2.5c0.4-0.1,0.8-0.1,1.2-0.2
				c0,0,0,0,0-0.1c0.1,0.4,0.3,0.7,0.4,1.1c-0.1-0.8,0-1.7,0.1-2.5c0-0.3,0.5-2,0-1.8C89.4,102.6,88.6,99.7,86.8,100.3L86.8,100.3z"
				/>
		</g>
	</g>
	<g>
		<g>
			<path d="M119.2,91.5c-3,0.2-2.5,2.5-2.3,4.9c0.1,1.6,0.2,3.5,1.3,4.8c1.1,1.4,3.2,1.5,4.5,0.3c1.7-1.5,1.4-3.6,1-5.5
				c-0.3,0.6-0.7,1.2-1,1.8c1.8-0.5,3.7-0.2,5.5-0.4c1.9-0.2,1.9-3.2,0-3c-2.1,0.2-4.3,0-6.3,0.5c-0.8,0.2-1.2,1.1-1,1.8
				c0.1,0.6,0.4,1.1,0.2,1.8c-0.4,1.3-0.8,0.3-0.9-0.5c-0.3-1.5-0.5-3.2-0.3-4.7c-0.2,0.4-0.5,0.9-0.7,1.3c0.1,0,0.1,0,0.2-0.1
				C121.2,94.3,121.2,91.3,119.2,91.5L119.2,91.5z"/>
		</g>
	</g>
	<g>
		<g>
			<path d="M128.5,95.3c0,0,0.1,0,0.1,0.1c0.9,0.4,1.9-0.5,1.9-1.4c-0.1-1.4-0.3-2.8-0.5-4.2c0-0.3,0-0.7-0.2-0.5
				c-0.3,0.3,0.3,0,0.3,0c0.5-0.1,0.9-0.4,1.4-0.4c1.9-0.2,1.9-3.2,0-3c-1.4,0.2-3.5,0.6-4.3,1.8c-0.6,0.8-0.3,1.8-0.2,2.7
				c0.2,1.2,0.4,2.3,0.4,3.5c0.6-0.5,1.3-1,1.9-1.4c0,0-0.1,0-0.1-0.1C127.5,91.7,126.7,94.6,128.5,95.3L128.5,95.3z"/>
		</g>
	</g>
	<g>
		<g>
			<path d="M138,80.2c0.5,3.9,1,7.8,1.5,11.8c0.2,1.9,3.2,1.9,3,0c-0.5-3.9-1-7.8-1.5-11.8C140.7,78.3,137.7,78.3,138,80.2L138,80.2
				z"/>
		</g>
	</g>
	<g>
		<g>
			<path d="M137.3,89.6c1-0.1,2-0.2,3.1-0.4c0.9-0.1,1.8-0.4,2.7-0.5c0.8-0.1,1.2-1.1,1-1.8c-0.2-0.9-1-1.2-1.8-1
				c-1.6,0.3-3.3,0.6-4.9,0.8c-0.8,0.1-1.5,0.6-1.5,1.5C135.8,88.9,136.5,89.7,137.3,89.6L137.3,89.6z"/>
		</g>
	</g>
	<g>
		<g>
			<path d="M152.9,78.3c0.2,1.3,0.3,2.7,0.7,4c0.4,1.1,1,1.7,2,2.3c1.6,1.1,3.1-1.5,1.5-2.6c-1.1-0.7-1-2.5-1.2-3.7
				c-0.1-0.8-0.6-1.5-1.5-1.5C153.6,76.8,152.8,77.5,152.9,78.3L152.9,78.3z"/>
		</g>
	</g>
	<g>
		<g>
			<path d="M152.1,83.1c2.3-0.3,4.6-0.7,6.9-1c1.9-0.2,1.9-3.3,0-3c-2.3,0.3-4.6,0.7-6.9,1C150.2,80.4,150.2,83.4,152.1,83.1
				L152.1,83.1z"/>
		</g>
	</g>
	<g>
		<g>
			<path d="M166.9,73.8c0.5,4.3,1.1,8.7,1.6,13c0.2,1.9,3.2,1.9,3,0c-0.5-4.3-1.1-8.7-1.6-13C169.6,71.9,166.6,71.9,166.9,73.8
				L166.9,73.8z"/>
		</g>
	</g>
	<g>
		<g>
			<path d="M171.8,80.5c0.1,0.6,0.2,1.3,0.2,1.9c0.1,0.8,0.6,1.5,1.5,1.5c0.7,0,1.6-0.7,1.5-1.5c-0.1-0.6-0.2-1.3-0.2-1.9
				c-0.1-0.8-0.6-1.5-1.5-1.5C172.6,79.1,171.7,79.7,171.8,80.5L171.8,80.5z"/>
		</g>
	</g>
	<g>
		<g>
			<path d="M172.9,79.4c1.9,0,1.9-3,0-3C171,76.4,171,79.4,172.9,79.4L172.9,79.4z"/>
		</g>
	</g>
	<g>
		<g>
			<path d="M177.9,77.4c0.3,2.3,0.3,4.7,0.9,7c0.3,1.4,2.6,1.5,2.9,0c0.3-1.5,0.7-3.1,1.4-4.5c0.1-0.2,1-1.5,0.9-1.7
				c-0.1-0.2-1.5-0.1-1.5-0.1c0,0.1,0.2,0.4,0.3,0.5c0.6,1.4,0.8,3,1.4,4.4c0.8,1.8,3.3,0.2,2.6-1.5c0.2,0.4-0.1-0.3-0.1-0.4
				c-0.1-0.2-0.1-0.5-0.2-0.7c-0.2-0.6-0.4-1.3-0.6-1.9c-0.3-1-0.7-2.3-1.7-2.8c-1.5-0.9-2.5,0.6-3.1,1.7c-1.1,2-1.8,4-2.3,6.2
				c1,0,1.9,0,2.9,0c-0.5-2-0.5-4.2-0.8-6.2C180.6,75.5,177.6,75.4,177.9,77.4L177.9,77.4z"/>
		</g>
	</g>
	<g>
		<g>
			<path d="M191.3,76c-3.9,0.2-3.6,5.2-2.5,8c0.3,0.7,0.7,1.1,1.4,1.1c1.7,0.1,2-0.7,3-2.1c-0.9,0-1.7,0-2.6,0
				c1.4,2,2.3,4.3,2.9,6.7c0.9,3.4,0.5,10.2-5.2,8.6c-1.9-0.5-2.7,2.4-0.8,2.9c3.8,1.1,7.9-1.1,9.2-4.9c1.6-4.6-0.9-11.1-3.5-14.8
				c-0.7-1-1.9-0.9-2.6,0c-0.6,0.6-0.7,0.8-0.4,0.6c0.5,0.4,1,0.7,1.4,1.1c-0.1-0.3-0.7-4.2-0.4-4.2C193.2,78.9,193.2,75.9,191.3,76
				L191.3,76z"/>
		</g>
	</g>
	<g>
		<g>
			<path d="M194.5,77.8c0.1,1.2,0.3,2.2,1.5,2.8c1,0.5,2.5,0.6,3.4,0c1-0.7,1.2-2.1,1.3-3.3c0.2-1.8-0.2-3.7-0.2-5.6
				c0-1.9-3-1.9-3,0c0,1.5,0.2,2.9,0.2,4.4c0,0.6,0.1,1.5-0.2,2c0.4-0.1,0.4-0.2,0-0.1c0,0.4,0,0.3,0-0.1
				C197.3,75.9,194.3,75.9,194.5,77.8L194.5,77.8z"/>
		</g>
	</g>
	<g>
		<g>
			<path d="M204.5,76.3c0.1-1.2-0.1-2.4-0.3-3.6c-0.1-0.8-0.6-1.5-1.5-1.5c-0.7,0-1.6,0.7-1.5,1.5c0.2,1.2,0.4,2.4,0.3,3.6
				C201.4,78.3,204.4,78.3,204.5,76.3L204.5,76.3z"/>
		</g>
	</g>
	<g>
		<g>
			<path d="M210.3,69.8c-1.1-0.5-2.5-0.4-2.9,1c-0.3,1,0,2.2,0.1,3.2c0.2,1.3,0.5,2.4,1.9,2.9c0.6,0.2,1.6,0.5,2.3,0.4
				c0.1,0,0.3,0,0.4,0c-0.2-0.1-0.4-0.3-0.5-0.4c0,0-0.9,0.7-1.1,0.7c-1.9,0.5-1.1,3.3,0.8,2.9c2.2-0.5,4.4-3.1,2.8-5.3
				c-0.9-1.3-2.2-0.5-3.4-1.1c-0.2-0.1-0.2,0.3-0.2-0.4c0-0.3-0.1-0.6-0.1-0.9c0-0.2-0.2-1-0.1-1.1c-0.3,0.2-0.6,0.5-0.9,0.7
				c0.1,0,0.2,0,0.3-0.1c-0.4-0.1-0.8-0.1-1.2-0.2c0.1,0,0.2,0.1,0.3,0.1C210.6,73.2,212.1,70.6,210.3,69.8L210.3,69.8z"/>
		</g>
	</g>
	<g>
		<g>
			<path d="M214.9,67.1c0.4,2.9,0.7,5.8,1.1,8.7c0.2,1.9,3.2,1.9,3,0c-0.4-2.9-0.7-5.8-1.1-8.7C217.7,65.2,214.7,65.2,214.9,67.1
				L214.9,67.1z"/>
		</g>
	</g>
	<g>
		<g>
			<path d="M214.6,72.3c1.3-0.2,2.6-0.3,3.9-0.5c0.8-0.1,1.5-0.6,1.5-1.5c0-0.7-0.7-1.6-1.5-1.5c-1.3,0.2-2.6,0.3-3.9,0.5
				c-0.8,0.1-1.5,0.6-1.5,1.5C213.1,71.5,213.8,72.4,214.6,72.3L214.6,72.3z"/>
		</g>
	</g>
	<g>
		<g>
			<path d="M221.6,69.9c0.1,0.9,0.1,1.9,0.4,2.8c0.3,1,0.9,1.7,1.6,2.4c1.4,1.3,3.5-0.8,2.1-2.1c-0.4-0.4-0.8-0.7-0.9-1.3
				c-0.1-0.6-0.2-1.2-0.2-1.8c-0.1-0.8-0.6-1.5-1.5-1.5C222.4,68.4,221.5,69.1,221.6,69.9L221.6,69.9z"/>
		</g>
	</g>
	<g>
		<g>
			<path d="M231.9,62.2c-1.4,0.1-2.7,0.2-3.6,1.3c-1,1.3-1,3.1-1.2,4.6c-0.2,1.3-0.7,3.3,0.2,4.4c1,1.3,2.8,1.4,4.2,1.7
				c1.9,0.3,2.7-2.6,0.8-2.9c-0.6-0.1-1.6-0.1-2.2-0.4c-0.1,0-0.2,0-0.3,0.1c0-0.2,0-0.5,0-0.7c0-0.5,0.1-1.1,0.1-1.6
				c0.1-0.8,0.2-1.6,0.3-2.4c0.2-1.1,0.5-1,1.5-1.2C233.8,65,233.9,62,231.9,62.2L231.9,62.2z"/>
		</g>
	</g>
	<g>
		<g>
			<path d="M238.6,63.3c-3,0.5-2,4.7,0.4,5.3c0.9,0.2,1.9-0.2,2.6,0.7c0.3,0.5,0.4,1.8,0.5,2.4c0.4,2,0,3-1.9,3.7
				c-1.2,0.4-2.5,0.6-3.7,0.9c-1.9,0.5-1.1,3.4,0.8,2.9c3.8-1,8.5-1.7,8-6.7c-0.2-1.6-0.5-3.7-1.3-5.2c-0.3-0.6-0.7-1-1.3-1.3
				c-1.2-0.6-2.1,0-3.3,0.2C241.3,65.8,240.5,63,238.6,63.3L238.6,63.3z"/>
		</g>
	</g>
	<g>
		<g>
			<path d="M36.9,139.5c0.2,1.4,0.4,2.8,0.5,4.3c0.1,1.9,2.9,1.9,3,0c0.1-1.2,1.4-3.2,2.2-4c-0.4,0.1-0.7,0.3-1.1,0.4
				c0.2,0,1.1,1.8,1.2,2.1c0.5,1.1,0.9,2.1,1.7,2.9c0.4,0.4,1.3,0.6,1.8,0.2c0.5-0.4,0.9-0.7,1.2-1.2c0.4-0.5,0.5-1.5,1-1.9
				c-0.6-0.1-1.2-0.2-1.8-0.2c0.5,0.5,0.8,1.2,1.2,1.8c1.1,1.6,3.7,0.1,2.6-1.5c-0.5-0.8-1-1.7-1.6-2.4c-0.4-0.4-1.3-0.6-1.8-0.2
				c-0.6,0.4-1,0.8-1.4,1.4c-0.3,0.5-0.4,1.4-0.9,1.7c0.6,0.1,1.2,0.2,1.8,0.2c-1.5-1.6-1.9-5.5-4.6-5.9c-2.5-0.3-4.5,4.7-4.6,6.6
				c1,0,2,0,3,0c-0.1-1.7-0.4-3.4-0.6-5.1C39.6,136.8,36.7,137.6,36.9,139.5L36.9,139.5z"/>
		</g>
	</g>
	<g>
		<g>
			<path d="M56.6,136.7c-0.6-1.4-2.7-1.6-3.9-0.9c-1.5,0.9-1.8,3.1-1.8,4.7c0.1,1.9,1.9,2.7,3.6,2.2c0.5-0.1,0.9-0.4,1.2-0.7
				c0.2-0.2,0.4-0.3,0.5-0.5c0.3-0.3,0.3-0.4,0-0.1c-0.4,0.1-0.4,0.2,0,0.3c0.3,0.1,0.6,0.2,0.8,0.2c0.6,0.1,1.1,0.2,1.7,0.3
				c1.9,0.2,1.9-2.8,0-3c-1.5-0.2-3.1-1.4-4.5-0.1c-0.1,0.1-0.8,0.9-0.8,0.9c0.1,0.2,0.3,0.3,0.4,0.5c0-0.2,0-0.5,0-0.7
				c0-0.3,0.1-0.6,0.1-0.9c0.1-0.6,0.1-0.1-0.1-0.5C54.8,139.9,57.4,138.4,56.6,136.7L56.6,136.7z"/>
		</g>
	</g>
	<g>
		<g>
			<path d="M63.2,136.6c0.2,1.3,1.8,9.1,0.2,9.2c-1.9,0.1-1.9,3.1,0,3c5.9-0.2,3.3-8.5,2.8-12.2C66,134.8,63,134.7,63.2,136.6
				L63.2,136.6z"/>
		</g>
	</g>
	<g>
		<g>
			<path d="M62.3,131.9c0.4-0.1-0.2,0-0.3,0c-0.3-0.2-0.6-0.5-0.9-0.7c0,0,0,0,0,0.1c0.1-0.6,0.2-1.2,0.2-1.8c0.3-0.2,0.6-0.3,1-0.3
				c0.2,0.1,0.4,0.3,0.7,0.4c0.1,0.2,0.2,0.3,0.3,0.5c0,0.3,0,0.5,0,0.8c-0.1,0.3-0.3,0.5-0.6,0.6c-0.3,0-0.5,0-0.8,0
				c0,0,0.1,0,0.1,0c-0.2-0.1-0.4-0.3-0.7-0.4c-0.2-0.2-0.1-0.2,0,0c0.4,0.7,1.3,1,2.1,0.5c0.7-0.4,1-1.4,0.5-2.1
				c-0.5-0.7-1.1-1.3-2-1c-0.7,0.2-1.3,0.8-1.4,1.5c-0.4,1.9,1.8,2.9,3.1,1.6c0.4-0.4,0.6-1.3,0.2-1.8c-0.6-0.9-1.3-0.9-2.3-0.7
				c-0.8,0.1-1.2,1.1-1,1.8C60.7,131.7,61.5,132,62.3,131.9L62.3,131.9z"/>
		</g>
	</g>
	<g>
		<g>
			<path d="M71.9,132.9c0-0.4-0.1-0.4-0.4,0.2c0.1,0,0.2-0.1,0.3-0.1c0.2,0-0.2-0.2,0,0c0.3,0.3,0.4,1,0.5,1.4
				c0,0.2-0.1,0.2,0.1,0.1c-0.1,0.1-0.3,0.1-0.4,0.1c-0.5,0.1-0.5,0-0.7-0.3c-0.3-0.8-1-1.3-1.8-1c-0.7,0.2-1.3,1.1-1,1.8
				c0.3,0.8,0.6,1.5,1.3,2c0.8,0.5,1.9,0.7,2.9,0.5c2-0.4,2.9-2,2.6-3.9c-0.3-1.6-1.3-3.4-3.1-3.6c-0.9-0.1-2,0.2-2.6,0.9
				c-0.8,0.8-0.7,1.8-0.5,2.8c0.1,0.8,1.1,1.2,1.8,1C71.7,134.5,72,133.7,71.9,132.9L71.9,132.9z"/>
		</g>
	</g>
	<g>
		<g>
			<path d="M75.9,131.6c0.1,1.4,0.6,2.7,2.2,2.9c1,0.2,1.8-0.4,1.9-1.4c0.1-0.7,0-1.3,0-2c0-0.5-0.4-1.6-0.1-2
				c0.2-0.3,1.1-0.5,1.4-0.6c0.8-0.2,1.7-0.5,2.5-0.6c1.9-0.2,1.9-3.2,0-3c-1.9,0.2-4.6,0.6-6.1,2.1c-1.6,1.6-0.5,4.1-0.7,6.1
				c0.6-0.5,1.3-1,1.9-1.4c0,0,0,0,0-0.1C78.8,129.7,75.8,129.7,75.9,131.6L75.9,131.6z"/>
		</g>
	</g>
	<g>
		<g>
			<path d="M98.4,126.2c-1.7,0.2-2.7,0.6-3.5,2.3c-0.6,1.4-0.5,3.1,1.1,3.7c1.2,0.4,2.9,0.3,3.8-0.7c0.1-0.1,0.2-0.3,0.3-0.4
				c0.2-0.3,0-0.3-0.5,0c0,0.1,0.8,0.3,0.9,0.4c0.9,0.3,1.9,0.4,2.9,0.6c1.9,0.3,2.7-2.6,0.8-2.9c-1-0.2-2.1-0.3-3.1-0.7
				c-0.7-0.3-1.4-0.6-2.2-0.4c-0.4,0.1-0.7,0.3-1,0.7c0,0.1-0.6,0.8-0.3,0.6c-0.2,0-0.5,0-0.7,0c0.2,0.2,0.4,0.4,0.6,0.6
				c0.1-0.3,0.2-0.5,0.4-0.7c-0.1,0.3,0,0.3,0.4,0.1C100.3,129,100.4,126,98.4,126.2L98.4,126.2z"/>
		</g>
	</g>
	<g>
		<g>
			<path d="M104.6,118.8c0.3,2.6,0.2,5.8,1.2,8.3c1,2.5,3.1,3.1,5.4,3.9c1.8,0.6,2.6-2.3,0.8-2.9c-2.3-0.7-3.4-1.2-3.8-3.8
				c-0.2-1.8-0.4-3.7-0.7-5.5C107.4,116.9,104.4,116.9,104.6,118.8L104.6,118.8z"/>
		</g>
	</g>
	<g>
		<g>
			<path d="M103.8,124.5c1.3-0.2,2.6-0.3,3.9-0.5c0.8-0.1,1.5-0.6,1.5-1.5c0-0.7-0.7-1.6-1.5-1.5c-1.3,0.2-2.6,0.3-3.9,0.5
				c-0.8,0.1-1.5,0.6-1.5,1.5C102.3,123.7,103,124.6,103.8,124.5L103.8,124.5z"/>
		</g>
	</g>
	<g>
		<g>
			<path d="M121.6,119.9c1,2,4.6,2.1,6.4,2c3.3-0.2,4.5-3.2,5.1-6.1c0.4-1.9-2.5-2.7-2.9-0.8c-0.3,1.6-0.6,3.7-2.5,3.9
				c-0.5,0-3.1,0.1-3.4-0.5C123.3,116.7,120.7,118.2,121.6,119.9L121.6,119.9z"/>
		</g>
	</g>
	<g>
		<g>
			<path d="M126.1,119.9c0.4,3.4,1.1,6.7,1.6,10.1c0.3,1.9,3.2,1.1,2.9-0.8c-0.5-3.1-1.1-6.2-1.5-9.3
				C128.9,118,125.9,118,126.1,119.9L126.1,119.9z"/>
		</g>
	</g>
	<g>
		<g>
			<path d="M137.2,121.8c-1.8,0.2-2.2,1.5-2.4,3.1c-0.1,0.8-0.3,1.6,0.2,2.4c0.4,0.6,1.1,0.9,1.8,0.9c1.3,0.1,2.8-0.6,2.7-2.1
				c0-0.1,0-0.3,0-0.4c-0.3,0.3-0.6,0.5-0.9,0.8c0,0,0.7,0.2,0.7,0.2c0.7,0.2,1.3,0.2,2,0.3c1.9,0.3,2.7-2.6,0.8-2.9
				c-0.8-0.1-1.6-0.2-2.4-0.4c-0.8-0.2-1.6-0.3-2.3,0.1c-0.4,0.3-0.6,0.6-0.8,1.1c-0.1,0.2-0.1,0.5-0.1,0.7c0,0.4-0.2,0.5,0.4,0
				c1-0.8,0.2-0.1,0-0.3c0.3,0.3,0.5,0.6,0.8,0.9c0-0.1,0-0.3,0.1-0.4c0.1-0.2,0.1-0.6,0.1-0.9c0-0.1,0-0.2,0.1-0.4
				c0.2-0.5-0.1-0.3-0.7,0.4C139.1,124.6,139.1,121.6,137.2,121.8L137.2,121.8z"/>
		</g>
	</g>
	<g>
		<g>
			<path d="M141,115.3c0.6,3.8,2.1,7.4,3.7,10.9c0.8,1.8,3.4,0.2,2.6-1.5c-1.5-3.3-2.9-6.6-3.4-10.2
				C143.6,112.6,140.7,113.4,141,115.3L141,115.3z"/>
		</g>
	</g>
	<g>
		<g>
			<path d="M148.8,123.3c2.3-0.2,4.5-0.5,4.6-3.2c0.1-1.9-1.8-3.8-3.4-1.9c-0.7,0.8-0.8,2.1-0.8,3.1c0,1,0,2.5,0.9,3.3
				c1.8,1.6,5.2,0.1,7-0.9c1.7-0.9,0.2-3.5-1.5-2.6c-0.9,0.5-1.8,0.9-2.9,1.1c-0.1,0-0.9,0.1-0.5,0.2c0.2,0.3,0.2,0.2,0.1-0.3
				c0-0.3-0.1-0.5-0.1-0.8c0-0.3,0.1-0.7,0.1-1c-1.3-1-1.9-1.1-1.8-0.4c0,0.1,0,0.3,0,0.4c0,0,0,0,0,0c-0.1,0.2,0,0.2,0.2-0.1
				c-0.5,0.2-1.2,0.2-1.7,0.2C146.9,120.4,146.9,123.4,148.8,123.3L148.8,123.3z"/>
		</g>
	</g>
	<g>
		<g>
			<path d="M161.6,123c0.1,0,0.1,0,0.2,0c-0.3,0-0.5,0-0.8,0c0.1,0,0.1,0,0.2,0c-0.2-0.8-0.4-1.7-0.7-2.5c1.2-0.5,1.8-0.2,2,0.8
				c-0.1,0.3-0.1,0.5-0.2,0.8c-0.1,0.1-0.2,0.3-0.4,0.4c-0.3,0.1-0.5,0.1-0.8,0.2c-0.1,0-0.2,0-0.3,0c-0.2-0.1-0.4-0.3-0.7-0.4
				c0.1,0.1,0.1,0.1-0.1-0.1c-0.1-0.2-0.1-0.2-0.1-0.1c0,0.1,0.1,0.2,0.1,0.3c0.2,0.8,1.1,1.3,1.8,1c0.8-0.2,1.3-1.1,1-1.8
				c-0.1-0.5-0.3-1-0.7-1.4c-0.8-0.8-2.1-0.5-2.6,0.4c-1,1.7,1.7,3.7,2.9,2.1c0.3-0.4,0.5-0.9,0.4-1.5c-0.1-0.5-0.5-1-1-1
				c-0.4-0.1-0.7-0.1-1.1,0c-0.8,0.2-1.3,1.1-1,1.8C159.9,122.7,160.8,123.1,161.6,123L161.6,123z"/>
		</g>
	</g>
	<g>
		<g>
			<path d="M40.8,163.7c0.4,2.6-1,5.3-0.9,7.9c0.1,1.9,3.1,1.9,3,0c-0.1-2.9,1.3-5.7,0.8-8.7C43.4,161,40.5,161.8,40.8,163.7
				L40.8,163.7z"/>
		</g>
	</g>
	<g>
		<g>
			<path d="M57.8,165.1c-1.3-0.4-2.6,0.3-3,1.7c-0.3,1-0.3,2.8,0.5,3.6c0.8,0.8,2.3,0.9,3.3,0.4c0.3-0.1,0.6-0.3,0.8-0.5
				c0.2-0.2,0.5-0.4,0.2-0.3c0.3-0.1,0.8,0.1,1.1,0.1c0.4,0,0.8,0,1.3,0c1.9,0,1.9-3,0-3c-1.3,0-2.8-0.4-4,0.4
				c-0.1,0.1-0.7,0.5-0.7,0.6c-0.3,0-0.1,0.2,0.5,0.5c0-0.1,0-0.2,0-0.3c0-0.1,0-0.2,0-0.3c0.1-0.5-0.2-0.5-0.7,0
				C58.8,168.6,59.6,165.7,57.8,165.1L57.8,165.1z"/>
		</g>
	</g>
	<g>
		<g>
			<path d="M64.3,165.5c0.1,0.5,0.1,1,0.2,1.5c0.2,1,1.8,1.5,2.5,0.7c0.2-0.2,1.5-2.3,1.4-2.5c-0.7-0.3-0.9-0.3-0.7,0
				c0.1,0.1,0.2,0.3,0.2,0.4c0.2,0.4,0.3,0.7,0.6,1c0.5,0.5,1.6,0.6,2.1,0c0.4-0.6,1-1.8,1.6-2.1c-0.4,0.1-0.8,0.1-1.2,0.2
				c-0.4-0.4-0.4-0.4-0.1,0c0.2,0.2,0.3,0.5,0.5,0.7c1.1,1.6,3.7,0.1,2.6-1.5c-0.7-1-1.4-2.3-2.8-2.1c-1.3,0.2-2.1,1.9-2.8,2.8
				c0.7,0,1.4,0,2.1,0c0.5,0.5,0-0.2-0.1-0.4c-0.2-0.3-0.4-0.6-0.6-0.9c-0.5-0.6-1.1-1-1.9-0.9c-0.8,0-1.4,0.4-1.9,1
				c-0.6,0.7-0.7,1.7-1.2,2.3c0.8,0.2,1.7,0.4,2.5,0.7c-0.1-0.2-0.1-0.5-0.1-0.7C67.1,163.6,64.1,163.6,64.3,165.5L64.3,165.5z"/>
		</g>
	</g>
	<g>
		<g>
			<path d="M86.7,161.8c0.3,0.7,0.2,1.5,0.4,2.2c0.3,0.9,1.1,1.2,1.9,1.6c0.8,0.3,1.6-0.3,1.8-1c0.2-0.9-0.3-1.5-1-1.8
				c-0.1,0-0.2-0.1-0.3-0.1c0.2,0.1,0.2,0.1,0,0c0.5,0.4,0.4,0.7,0.4,0.1c-0.1-0.6-0.1-1.2-0.3-1.7c-0.3-0.8-1-1.3-1.8-1
				C87,160.1,86.4,161,86.7,161.8L86.7,161.8z"/>
		</g>
	</g>
	<g>
		<g>
			<path d="M87.2,157.7c1.9,0,1.9-3,0-3C85.3,154.7,85.3,157.7,87.2,157.7L87.2,157.7z"/>
		</g>
	</g>
	<g>
		<g>
			<path d="M93.7,159.9c0.1,0.8,0.3,1.5-0.3,2.2c0.8,0.5,1.7,1,2.5,1.5c0.3-1.1,2.2-4.9,3.5-4.7c0.6,0.1,1.1,1.1,1.5,1.6
				c0.5,0.7,0.9,1.2,1.7,1.6c1.6,1,3.1-1.6,1.5-2.6c-1.1-0.7-1.5-2.1-2.5-2.9c-1-0.9-2.3-1-3.6-0.6c-2.3,0.7-4.6,4.5-5.1,6.7
				c-0.3,1.3,1.5,2.7,2.5,1.5c1.1-1.4,1.4-2.6,1.2-4.4C96.5,158,93.5,158,93.7,159.9L93.7,159.9z"/>
		</g>
	</g>
	<g>
		<g>
			<path d="M104.8,150.8c0.3,2.7,0.3,5.7,1.3,8.2c1,2.4,2.5,2.8,5,2.6c1.9-0.1,1.9-3.1,0-3c-1,0.1-1.6,0.2-2.1-0.6
				c-0.4-0.6-0.4-1.5-0.5-2.1c-0.2-1.7-0.4-3.4-0.6-5.1C107.6,148.9,104.6,148.8,104.8,150.8L104.8,150.8z"/>
		</g>
	</g>
	<g>
		<g>
			<path d="M104.3,156.2c1.8-0.2,3.7-0.5,5.5-0.7c0.8-0.1,1.5-0.6,1.5-1.5c0-0.7-0.7-1.6-1.5-1.5c-1.8,0.2-3.7,0.5-5.5,0.7
				c-0.8,0.1-1.5,0.6-1.5,1.5C102.8,155.4,103.5,156.3,104.3,156.2L104.3,156.2z"/>
		</g>
	</g>
	<g>
		<g>
			<path d="M115.9,158c0.9-0.1,1.6-0.3,2-1.2c0.3-0.6,0.5-1.6,0.1-2.2c-0.5-0.8-1.6-1.1-2.4-0.7c-0.8,0.4-1,1.4-1.1,2.2
				c-0.1,2,0.7,3.1,2.6,3.7c1.9,0.6,3.9,0.5,5.7-0.3c1.8-0.8,0.2-3.4-1.5-2.6c-0.9,0.4-1.9,0.4-2.9,0.2c-0.2-0.1-0.5-0.1-0.7-0.2
				c-0.4-0.2-0.4-0.2-0.2,0.1c-0.1-0.3-0.1-0.9,0.1-1.3c-0.2,0.3-0.5,0.6-0.7,0.9c-0.1,0-0.2,0.1-0.4,0.1c-0.4-0.1-0.7-0.3-1.1-0.4
				c0.1,0.1,0.1,0.1,0.2,0.2c-0.1-0.4-0.3-0.7-0.4-1.1c0,0.3,0.2,0.2,0.6-0.4C114,155.2,114,158.2,115.9,158L115.9,158z"/>
		</g>
	</g>
	<g>
		<g>
			<path d="M123.9,156.6c-0.2-1.5-0.4-2.9-0.4-4.4c0-0.3,0.2-1.2,0-1.5c-0.1,0.1-0.2,0.3-0.2,0.4c0.1,0,0.2,0,0.3,0.1
				c0.2,0.1,0.5,0.1,0.7,0.3c1.7,0.9,3.2-1.7,1.5-2.6c-1.5-0.8-4.1-1.3-5,0.7c-0.4,0.8-0.3,2-0.3,2.9c0,1.4,0.2,2.8,0.4,4.2
				C121.2,158.5,124.2,158.5,123.9,156.6L123.9,156.6z"/>
		</g>
	</g>
	<g>
		<g>
			<path d="M132.1,154.5c1.1-0.5,1.9-1.9,1.9-3c0-0.7-0.5-1.3-1.1-1.4c-1.4-0.4-2.9,0-3.4,1.4c-0.3,1-0.3,2.4,0.2,3.3
				c0.9,1.8,3.4,2,5.2,1.8c0.8-0.1,1.5-0.6,1.5-1.5c0-0.8-0.7-1.6-1.5-1.5c-0.8,0.1-1.9,0.1-2.3-0.1c-0.1-0.1-0.2-0.1-0.1-0.1
				c0,0.1,0-0.1,0-0.2c0-0.1,0.1-0.7,0-0.8c0.2,0.2-0.8,0.3-0.2,0.5c-0.4-0.5-0.7-1-1.1-1.4c0-0.3,0-0.1-0.1,0.1
				c-0.2,0.2-0.2,0.2-0.3,0.3c-0.7,0.3-0.9,1.4-0.5,2.1C130.5,154.7,131.3,154.8,132.1,154.5L132.1,154.5z"/>
		</g>
	</g>
	<g>
		<g>
			<path d="M142.8,147.8c-1,0.1-2.4,0-3,1.1c-0.5,0.8-0.4,1.8,0.2,2.5c0.5,0.6,1.3,0.9,2,1c0.7,0.1,1.5,0.1,1.6,0.9
				c0-0.3,0-0.5,0-0.8c0-0.2,0.3-0.1,0-0.1c-0.2,0-0.5,0.1-0.6,0.2c-0.5,0.1-1,0.3-1.6,0.4c-1.9,0.4-1.1,3.3,0.8,2.9
				c1.1-0.3,2.5-0.4,3.4-1.2c1-0.8,1.1-2.1,0.5-3.3c-0.6-1.1-1.6-1.6-2.8-1.8c-0.3-0.1-0.9-0.3-1.1-0.2c0.6-0.2,0.2,2.1-0.4,1.5
				c0.1,0.1,0.9-0.1,1.1-0.1c0.8-0.1,1.5-0.6,1.5-1.5C144.3,148.6,143.6,147.7,142.8,147.8L142.8,147.8z"/>
		</g>
	</g>
	<g>
		<g>
			<path d="M146.9,139.3c0.2,1.8,0.5,3.7,0.7,5.5c0.2,1.4,0.1,3.2,0.6,4.6c0.7,2.1,3.7,2.8,5.7,2.8c1.9,0,1.9-3,0-3
				c-1.2,0-2.4-0.2-2.9-1.4c-0.3-0.7-0.2-1.8-0.3-2.6c-0.2-2-0.5-4-0.8-6C149.7,137.4,146.7,137.4,146.9,139.3L146.9,139.3z"/>
		</g>
	</g>
	<g>
		<g>
			<path d="M144.5,146c2.4-0.3,4.8-0.6,7.2-0.9c1.9-0.2,1.9-3.2,0-3c-2.4,0.3-4.8,0.6-7.2,0.9C142.6,143.2,142.5,146.2,144.5,146
				L144.5,146z"/>
		</g>
	</g>
	<g>
		<g>
			<path d="M157.9,148.3c0.8-0.1,1.5-0.1,2.1-0.6c0.7-0.5,1-1.4,0.8-2.2c-0.4-1.9-2.6-2.3-3.7-0.6c-0.7,1.1-1,3.2-0.6,4.5
				c0.5,1.8,2.9,2.3,4.5,2.5c1.9,0.1,1.9-2.9,0-3c-0.4,0-0.8-0.2-1.2-0.3c-0.2-0.1-0.5-0.1-0.6-0.2c0.2,0.2,0,0.1,0.1-0.1
				c0.2-0.5,0-1.5,0.4-1.9c-0.2,0.1-0.4,0.3-0.7,0.4c0.1,0,0.1,0,0.2,0c-0.3,0-0.5,0-0.8,0c0,0,0.1,0,0.1,0
				c-0.2-0.1-0.4-0.3-0.7-0.4c-0.6-0.6,0.9-1.1-0.2-1c-0.8,0.1-1.5,0.6-1.5,1.5C156.4,147.6,157.1,148.4,157.9,148.3L157.9,148.3z"
				/>
		</g>
	</g>
	<g>
		<g>
			<path d="M167.6,143.4c-0.3,0-0.6,0-1,0.1c-0.7,0.2-1,0.8-1.1,1.4c-0.3,4.3,1.3,6.7,5.8,6.2c0.6-0.1,1.3-0.4,1.4-1.1
				c0.8-5.8-1.2-13.9-3.6-19.2c-0.8-1.8-3.4-0.2-2.6,1.5c1.1,2.3,1.6,5.2,2.1,7.7c0.6,2.8,1.5,6.3,1.1,9.2c0.5-0.4,1-0.7,1.4-1.1
				c-2.3,0.3-3-1.1-2.8-3.2c-0.4,0.5-0.7,1-1.1,1.4c0.1,0,0.1,0,0.2,0C169.6,146.4,169.6,143.4,167.6,143.4L167.6,143.4z"/>
		</g>
	</g>
	<g>
		<g>
			<path d="M187,139.8c0.2,1.3,0.3,2.6,0.5,4c0.1,1.1,0.2,2.1,0.6,3.1c0.8,1.8,3.4,0.2,2.6-1.5c-0.3-0.7-0.2-1.8-0.3-2.6
				c-0.1-1-0.2-2-0.4-3c-0.1-0.8-0.6-1.5-1.5-1.5C187.8,138.3,186.9,139,187,139.8L187,139.8z"/>
		</g>
	</g>
	<g>
		<g>
			<path d="M192.9,140.4c0.8,1.4,0.1,3.5,0.9,5c0.6,1.1,2.5,0.9,2.7-0.4c0.1-0.3,0.6-4.8,0.9-4.8c0.6-0.1,1.7,2.1,2.1,2.5
				c2.1,1.7,4.2,0.9,6.1-0.5c1.6-1.1,0.1-3.7-1.5-2.6c-0.8,0.6-1.6,1.5-2.7,0.8c-0.6-0.4-1-1.5-1.4-2.1c-0.7-1-1.6-1.7-2.8-1.5
				c-3.3,0.4-3.1,5.1-3.6,7.4c0.9-0.1,1.8-0.2,2.7-0.4c-0.8-1.5-0.1-3.5-0.9-5C194.6,137.2,192,138.7,192.9,140.4L192.9,140.4z"/>
		</g>
	</g>
	<g>
		<g>
			<path d="M211.6,134.4c0.2,0.1,0.2,0-0.1-0.2c-0.3-0.1-0.4-0.3-0.4-0.6c0.2-0.4,0.5-0.9,0.7-1.3c0.2,0,0.3-0.1,0.5-0.1
				c0.4,0.1,0.7,0.3,1.1,0.4c0.1,0.1,0.2,0.3,0.3,0.4c-0.2,0.6-0.5,1.1-0.7,1.7C212.4,134.6,212,134.4,211.6,134.4
				c0.4,0.7,1.3,0.9,2,0.5c0.7-0.4,1-1.4,0.5-2.1c-0.6-0.9-1.7-1.4-2.7-0.7c-0.6,0.4-0.8,1-0.7,1.7c0.3,1.2,1.6,1.7,2.6,1.1
				c0.4-0.3,0.8-0.8,0.7-1.3c-0.1-1-0.6-1.8-1.7-2.1c-0.8-0.2-1.7,0.2-1.8,1C210.3,133.3,210.7,134.2,211.6,134.4L211.6,134.4z"/>
		</g>
	</g>
	<g>
		<g>
			<path d="M214,141.3c-0.6,0.1-1.2-0.8-1-1.3c0.1-0.3,0.3-0.4,0.5-0.6c0.1,0,0.1,0,0.2,0c-0.2,0-0.1,0,0.1,0
				c0.3,0.1,0.4,0.2,0.5,0.6c-0.3-0.7-1-1.3-1.8-1c-0.7,0.2-1.4,1.1-1,1.8c0.3,0.8,0.8,1.3,1.6,1.5c0.8,0.2,1.6,0,2.2-0.6
				c0.7-0.6,0.8-1.7,0.3-2.5c-0.5-0.8-1.5-1.1-2.4-0.8c-0.8,0.2-1.3,1.1-1,1.8C212.4,141.1,213.2,141.5,214,141.3L214,141.3z"/>
		</g>
	</g>
	<g>
		<g>
			<path d="M93.8,102.5c0.1,1.1,0.3,2.2,0.4,3.2c1,0,2,0,3,0c-0.1-1.1-0.2-2.2,0.2-3.3c0.4-1.2,1.1-0.3,1.5,0.4c1,1.5,1.3,3.4,3,4.4
				c1.7,1,3.2-1.6,1.5-2.6c-0.6-0.4-0.8-1.3-1.1-1.9c-0.3-0.5-0.5-1.1-0.9-1.6c-0.8-1.2-1.8-2.3-3.3-2.3c-3.6-0.2-4.3,4.2-3.9,6.9
				c0.2,1.9,3.2,1.9,3,0c-0.1-1.1-0.3-2.2-0.4-3.2C96.5,100.6,93.5,100.6,93.8,102.5L93.8,102.5z"/>
		</g>
	</g>
	<g>
		<g>
			<path d="M44.1,196.2c0,2.2,0,4.5,0,6.7c0,1.5-0.1,2.8,0.9,4c1.1,1.5,3.7,0,2.6-1.5c-0.8-1.1-0.4-2.8-0.4-4.1c0-1.7,0-3.4,0-5.1
				C47.1,194.3,44.1,194.3,44.1,196.2L44.1,196.2z"/>
		</g>
	</g>
	<g>
		<g>
			<path d="M47.1,204c2,0,3.9,0,5.9,0c1.9,0,1.9-3,0-3c-2,0-3.9,0-5.9,0C45.2,201,45.2,204,47.1,204L47.1,204z"/>
		</g>
	</g>
	<g>
		<g>
			<path d="M60,198.8c0.4,0,0.8,0,1.2,0c0.3,0,0.9,0.2,0.6-0.1c-0.3-0.3,0,0.4,0,0.5c0.1,0.3,0.2,0.6,0.3,1c0.1,0.3,0.2,0.6,0.2,0.8
				c0,0.3,0.2-0.1,0,0.1c-0.2,0.3-0.8,0.3-1.2,0.4c-0.3,0.1-0.9,0.2-1.2,0.4c-0.1,0-0.2,0-0.3,0.1c0.2,0.1,0.5,0.3,0.7,0.4
				c0,0,0-0.7,0-0.7c0-1-0.1-1.9,0.8-2.5c1.7-1,0.2-3.6-1.5-2.6c-2.1,1.2-2.4,3.5-2.3,5.8c0.1,1.1,0.6,2.2,1.7,2.5
				c1,0.2,2-0.2,2.9-0.5c0.9-0.3,1.9-0.6,2.6-1.4c0.9-0.9,0.7-2.2,0.4-3.3c-0.3-1-0.6-2.4-1.3-3.2c-1-1-2.5-0.7-3.8-0.7
				C58,195.8,58,198.8,60,198.8L60,198.8z"/>
		</g>
	</g>
	<g>
		<g>
			<path d="M65,197.3c0.3,1.5,2.2,4.2,3.8,4.3c0.8,0.1,1.8-0.4,2.2-1.2c0.1-0.2,0.3-0.4,0.4-0.7c-0.7-0.1-0.8,0.1-0.3,0.4
				c0.2,0.4,0.7,0.7,1,1c1.2,1.2,3.4,3.2,5.1,1.7c1.4-1.2,1.5-4.6,1.4-6.2c0-1.9-3-1.9-3,0c0,0.9-0.2,1.8-0.3,2.8
				c0,0.2-0.1,0.6-0.1,0.8c0,0.1-0.1,0.3-0.1,0.4c0.2-0.1,0.3-0.3,0.5-0.4c-0.1-0.3-1.5-1.2-1.8-1.6c-0.5-0.5-0.9-1-1.5-1.4
				c-1-0.7-2.1-0.7-3,0.2c-0.2,0.2-0.4,0.4-0.4,0.6c-0.5,1.1,0.3,0.1,0.3,0.4c-0.2-0.8-1.1-1.2-1.3-2
				C67.5,194.6,64.6,195.4,65,197.3L65,197.3z"/>
		</g>
	</g>
	<g>
		<g>
			<path d="M46.4,223.2c0,2-0.4,6.4,2.9,5.8c1.1-0.2,1.9-1.1,2.4-2c0.4-0.6,0.7-1.1,1.1-1.7c0.4-0.7,0.7-1.8,1.2-2.4
				c-0.7,0-1.4,0-2.1,0c1,1,1.4,2.3,2.7,2.9c0.6,0.3,1.3,0.3,1.8-0.2c2-2.1,2.7-5.4,3-8.2c0.2-1.9-2.8-1.9-3,0
				c-0.2,1.9-0.7,4.6-2.1,6.1c0.6-0.1,1.2-0.2,1.8-0.2c-0.9-0.4-1.4-1.8-2.1-2.5c-0.6-0.5-1.6-0.6-2.1,0c-1,1.1-1.6,2.9-2.4,4.2
				c-0.1,0.2-0.4,0.5-0.4,0.7c-0.1,0.1-0.2,0.3-0.3,0.4c0.2,0.1,0.5,0.2,0.7,0.3c0.3-0.3,0-2.7,0-3.1
				C49.4,221.3,46.4,221.3,46.4,223.2L46.4,223.2z"/>
		</g>
	</g>
	<g>
		<g>
			<path d="M62.1,214.2c-0.5,1.9-0.2,3.8-0.3,5.8c0,1.1-0.3,2.5,0.6,3.4c0.6,0.6,1.5,0.5,2.1,0c0.5-0.4,2-1.2,2.7-0.8
				c0.2,0.1,0.5,1.2,0.6,1.4c0.9,1.7,3.5,0.2,2.6-1.5c-0.8-1.5-1.1-2.7-3-2.9c-1.9-0.2-3.6,0.4-5,1.6c0.7,0,1.4,0,2.1,0
				c0.2,0.4,0.2,0.4,0.2,0.1c0-0.2,0-0.5,0-0.7c0-0.4,0-0.7,0-1.1c0-1.5-0.2-3,0.2-4.5C65.4,213.1,62.5,212.3,62.1,214.2L62.1,214.2
				z"/>
		</g>
	</g>
	<g>
		<g>
			<path d="M69.6,215.9c0,1.4,0,3.1,1.4,3.9c1.2,0.7,3.1,0.3,3.7-1c0.3-0.7-0.6-0.3-0.6,0c-0.1,0.6,0.5,1.6,0.6,2.2
				c0.5,2,0.9,4,1.1,6.1c0.2,1.6,0.8,4.4-0.1,5.8c-0.8,1.1-1,0.3-1.8,0.9c-1,0.7-0.7-0.8-0.5,0.6c-0.3-1.9-3.3-1.9-3,0
				c0.4,2.8,2.5,2.6,4.8,2.2c4.4-0.8,4-3.5,3.7-7.4c-0.3-3.7-0.3-9.9-2.8-12.9c-0.5-0.6-1.2-1-2.1-0.9c-0.5,0.1-0.8,0.5-1.2,0.7
				c-0.9,0.3-0.4,1.6-0.4-0.2C72.6,214,69.6,214,69.6,215.9L69.6,215.9z"/>
		</g>
	</g>
	<g>
		<g>
			<path d="M55.3,298.7c-0.1-1.9-1.3-3.8-3.4-3.7c-2,0-2.9,2.2-3.3,3.9c-0.5,1.8-0.8,3.5,1,4.4c1.3,0.7,3.1,0.5,4,1.9
				c0.4,0.6,1.2,2.9-0.8,2.1c-0.4-0.2-0.8-1.3-1-1.6c-0.9-1.7-3.5-0.2-2.6,1.5c1,1.8,2.1,3.5,4.5,3.3c2.2-0.2,3.5-1.7,3.3-3.8
				c-0.1-2.2-1.3-4.1-3.2-5.1c-0.9-0.5-2.2-0.4-3-1c0.3,0.6,0.4,0.6,0.4,0.1c0.1-0.3,0.1-0.7,0.2-1c0.1-0.2,0.8-2.1,0.8-1
				C52.4,300.6,55.4,300.7,55.3,298.7L55.3,298.7z"/>
		</g>
	</g>
	<g>
		<g>
			<path d="M57.4,296.4c0,4.6-0.3,9.1,0.9,13.6c0.4,1.3,2,1.4,2.7,0.4c0.4-0.6,0.6-1.1,0.8-1.8c0.2-0.5,0.4-1.1,0.7-1.6
				c-0.8-1-1-1.1-0.5-0.2c0.1,0.9,1,2.6,1.8,3.2c1.9,1.4,3.3-0.5,3.9-2.2c0.6-1.8-2.3-2.6-2.9-0.8c-0.4,0.6-0.2,0.8,0.7,0.4
				c-0.1-0.1-0.1-0.3-0.2-0.4c0-0.2-0.8-1.9-1-2.2c-0.5-0.7-1.1-1.2-2-1.2c-2.5,0.2-3,3.7-4,5.3c0.9,0.1,1.8,0.2,2.7,0.4
				c-1.1-4.2-0.8-8.5-0.8-12.8C60.4,294.5,57.4,294.5,57.4,296.4L57.4,296.4z"/>
		</g>
	</g>
	<g>
		<g>
			<path d="M70.8,304.6c0.8,0,1.8,0.4,1,1.3c-0.1,0.1-0.9,0.5-0.9,0.5c0.2,0.1,0.4,0.2,0.5,0.4c0-0.1-0.1-0.2-0.1-0.4
				c0-0.4-0.2-0.8-0.2-1.2c0-0.4,0-0.8,0.1-1.2c0.3-1.9-2.6-2.7-2.9-0.8c-0.3,1.6-0.4,3.9,0.6,5.3c1.1,1.7,3.5,0.9,4.8-0.2
				c1.1-1,1.6-2.7,1.1-4.1c-0.6-1.8-2.4-2.5-4.1-2.5C68.9,301.6,68.9,304.6,70.8,304.6L70.8,304.6z"/>
		</g>
	</g>
	<g>
		<g>
			<path d="M75.5,303c-0.1,2.1,2.7,3.2,4.5,3.3c2.9,0.2,3.1-4.1,3.3-6c0.1-0.8-0.8-1.5-1.5-1.5c-0.9,0-1.4,0.7-1.5,1.5
				c-0.1,1-0.2,2.6-0.9,3.4c0.2-0.1,0.4-0.3,0.7-0.4c-0.2,0.1-0.8-0.2-1.1-0.3c-0.1,0-0.3-0.1-0.5-0.2c-0.4-0.1,0-0.4,0,0.2
				C78.5,301,75.5,301,75.5,303L75.5,303z"/>
		</g>
	</g>
	<g>
		<g>
			<path d="M84.1,293.4c0,3.8,0,7.6,0,11.4c0,1.9,3,1.9,3,0c0-3.8,0-7.6,0-11.4C87.1,291.4,84.1,291.4,84.1,293.4L84.1,293.4z"/>
		</g>
	</g>
	<g>
		<g>
			<path d="M88.6,298.2c-1,1.5-1.2,3.7-0.5,5.3c0.6,1.4,2.1,2,3.4,1.1c3.6-2.5,2.3-9.2,2.4-12.8c0.1-1.9-2.9-1.9-3,0
				c-0.1,2.4,0.2,4.9-0.1,7.3c-0.1,0.6-0.2,1.3-0.4,1.9c-0.1,0.2-1,2,0.4,1.3c-0.2,0.1,0.2-2.4,0.3-2.6
				C92.2,298.1,89.6,296.6,88.6,298.2L88.6,298.2z"/>
		</g>
	</g>
	<g>
		<g>
			<path d="M54.5,256.4c0.1-1.8-1.7-2.8-3.4-2.3c-2.3,0.7-2.3,4.3-2.5,6.3c-0.2,2.8-0.6,6.3,0.9,8.8c1.5,2.6,4.2,2.8,6.8,1.9
				c1.8-0.6,1-3.5-0.8-2.9c-4.4,1.5-4.1-3.1-4-5.9c0-1.1,0.1-2.2,0.2-3.3c0.1-0.6,0.2-1.2,0.4-1.8c-0.6-0.3-0.5-0.3,0.4,0
				c-0.3-0.3-0.7-0.7-1-1c0,0.1,0,0.2,0,0.2C51.4,258.3,54.4,258.3,54.5,256.4L54.5,256.4z"/>
		</g>
	</g>
	<g>
		<g>
			<path d="M61.4,261.8c0,0-0.1,0-0.1-0.1c-0.9-0.5-1.8,0-2.2,0.9c-0.9,2.2-0.5,6.4,2.3,7c1.3,0.3,2.8-0.4,3.5-1.5
				c0.1-0.2,0.3-0.5,0.4-0.8c0.2-1.1-0.5,0.4-0.7,0.1c0.1,0.3,2.2,0.3,2.4,0.3c1.9,0.2,1.9-2.8,0-3c-1.6-0.2-3.7-1-4.5,1.1
				c-0.2,0.5-0.4,1.4-0.7,0.4c-0.3-0.8-0.2-2.1,0.1-2.9c-0.7,0.3-1.5,0.6-2.2,0.9c0,0,0.1,0,0.1,0.1
				C61.6,265.3,63.1,262.7,61.4,261.8L61.4,261.8z"/>
		</g>
	</g>
	<g>
		<g>
			<path d="M68.8,264.6c0,0.1,0,0.2,0,0.2c0,1.9,3,1.9,3,0c0-1.6-0.6-3.9,1.5-4.3c2.1-0.4,3.3,3,4,4.4c0.9,1.7,3.5,0.2,2.6-1.5
				c-1.4-2.9-3.5-6.8-7.4-5.8c-1.3,0.3-2.7,1.2-3.3,2.4c-0.7,1.4-0.4,3.3-0.4,4.8c1,0,2,0,3,0c0-0.1,0-0.2,0-0.2
				C71.8,262.7,68.8,262.7,68.8,264.6L68.8,264.6z"/>
		</g>
	</g>
	<g>
		<g>
			<path d="M47.1,240.4c0,3,0.3,5.8,0.9,8.7c0.4,1.9,3.3,1.1,2.9-0.8c-0.6-2.6-0.8-5.2-0.8-7.9C50.1,238.5,47.1,238.5,47.1,240.4
				L47.1,240.4z"/>
		</g>
	</g>
	<g>
		<g>
			<path d="M48.3,240.7c2.8-0.2,7.7-1.5,7.7,2.9c0,3.1-4.1,5.1-6.6,6c-1.8,0.7-1,3.6,0.8,2.9c3.9-1.4,9.4-4.6,8.9-9.5
				c-0.2-1.9-1.3-3.9-2.9-5c-2.3-1.4-5.2-0.6-7.7-0.3C46.4,237.9,46.3,240.9,48.3,240.7L48.3,240.7z"/>
		</g>
	</g>
	<g>
		<g>
			<path d="M61.7,245.2c0.3,0,0.5,0,0.8,0c0.3,0,0.3,0,0,0c-0.1-0.1-0.1-0.1-0.2-0.2c0.1-0.1,0.1,0.6,0.1,0.5c0,0.1-0.1,0.1-0.2,0.2
				c-0.4,0.3-0.8,0.3-1.3,0.4c-0.1,0-0.2,0-0.3,0c0.5,0,0.7,0.2,0.6,0.4c0.1-0.1,0.3-0.7,0.4-0.8c1-1.6-1.6-3.2-2.6-1.5
				c-0.9,1.4-1.3,3.5,0.3,4.5c1.2,0.8,3.2,0.3,4.3-0.4c1.4-0.8,2-2.4,1.6-4c-0.2-0.8-0.7-1.4-1.4-1.8c-0.7-0.3-1.4-0.3-2.2-0.3
				C59.7,242.2,59.7,245.2,61.7,245.2L61.7,245.2z"/>
		</g>
	</g>
	<g>
		<g>
			<path d="M67.7,244.1c1.6,0,3.3-1.5,3.7-3.1c0.5-2-1.7-2.9-3.2-2c-1.6,1-2.1,2.9-1.2,4.5c0.9,1.7,2.3,2.6,4,3.3
				c1.8,0.7,2.6-2.2,0.8-2.9c-0.9-0.3-1.7-0.8-2.1-1.8c0-0.1-0.1-0.3-0.1-0.3c0.1-0.1,0.1-0.2,0.2-0.3c-0.4-0.4-0.9-0.9-1.3-1.3
				c-0.3,0.1-0.4,0.8-0.8,0.8C65.8,241.2,65.8,244.2,67.7,244.1L67.7,244.1z"/>
		</g>
	</g>
	<g>
		<g>
			<path d="M77.8,237.8c-1.4,0-2.3,0.3-2.7,1.7c-0.3,1.1-0.4,2.2,0.5,3c0.9,0.7,2.2,0.6,3.1,1.4c0.4,0.4,0.3,0.3-0.3,0.5
				c-0.7,0.2-1.3-0.1-1.9-0.5c-1.6-1.1-3.1,1.5-1.5,2.6c2.2,1.5,6.9,1.3,6.9-2.2c0-1.4-0.9-2.4-2-3.2c-0.5-0.3-1.4-0.9-1.9-0.9
				c-0.1,0-0.3-0.1-0.4-0.1c0.1,0.8,0.2,1,0.3,0.6c0-0.1,0.1-0.3,0.1-0.4c-0.7,0.4-0.8,0.6-0.2,0.5
				C79.8,240.8,79.7,237.8,77.8,237.8L77.8,237.8z"/>
		</g>
	</g>
	<g>
		<g>
			<path d="M107.1,291.7c-2.6,0.2-3.2,3.6-1.2,5.1c0.6,0.4,1.2,0.8,1.8,1.1c0.6,0.3,1.5,0.6,2,1.1c0.2,0.2,0.3,0.7,0.4,0.5
				c0.2-0.2-0.3,0-0.4,0c-0.4-0.1-1,0-1.3-0.3c-1.4-1.3-3.6,0.8-2.1,2.1c1.7,1.5,5.8,1.9,6.7-0.8c0.4-1.3-0.1-3-1.1-3.8
				c-0.7-0.5-1.5-0.8-2.2-1.2c-0.4-0.2-1.1-0.8-1.5-0.9c-0.1-0.1-0.2-0.1-0.3-0.2c-0.2,0.1-0.4,0.2-0.6,0.3
				C109,294.5,109,291.5,107.1,291.7L107.1,291.7z"/>
		</g>
	</g>
	<g>
		<g>
			<path d="M114.2,287.4c0,3.1-0.6,6.9,0.5,9.8c0.9,2.6,3.1,3,5.6,3c1.9,0,1.9-3,0-3c-1.3,0-2.4,0-2.9-1.4c-0.3-0.8-0.2-1.9-0.2-2.8
				c0-1.9,0-3.8,0-5.7C117.2,285.5,114.2,285.5,114.2,287.4L114.2,287.4z"/>
		</g>
	</g>
	<g>
		<g>
			<path d="M113.8,294.6c1.1,0,2.1,0,3.2,0c1.9,0,1.9-3,0-3c-1.1,0-2.1,0-3.2,0C111.9,291.6,111.9,294.6,113.8,294.6L113.8,294.6z"
				/>
		</g>
	</g>
	<g>
		<g>
			<path d="M121.6,293.1c0,1.1-0.2,2.5,0.3,3.5c0.5,1.1,1.7,1.5,2.8,1.2c2.3-0.6,3.2-3.1,3.6-5.1c0.5-1.9-2.4-2.7-2.9-0.8
				c-0.2,0.9-0.4,2.2-1.3,2.9c0,0-0.3,0.2-0.3,0.2c0.2,0.1,0.4,0.3,0.7,0.4c0,0,0-0.1,0-0.1c0.1-0.1,0-0.7,0-0.9c0-0.4,0-0.8,0-1.2
				C124.6,291.2,121.6,291.2,121.6,293.1L121.6,293.1z"/>
		</g>
	</g>
	<g>
		<g>
			<path d="M138,280.7c-3.1-2.1-5.3,0.7-5.9,3.5c-1,4.3-0.6,9.1,0.9,13.1c0.7,1.8,3.6,1,2.9-0.8c-0.7-1.9-1.3-4.3-1.3-6.4
				c0-0.9,0.3-8,1.9-6.9C138,284.4,139.5,281.8,138,280.7L138,280.7z"/>
		</g>
	</g>
	<g>
		<g>
			<path d="M131.5,290.9c0.9,0,1.8,0,2.8-0.1c0.8-0.1,1.5-0.6,1.5-1.5c0-0.7-0.7-1.6-1.5-1.5c-0.9,0.1-1.8,0.1-2.8,0.1
				C129.6,287.9,129.6,290.9,131.5,290.9L131.5,290.9z"/>
		</g>
	</g>
	<g>
		<g>
			<path d="M146.2,284.3c-0.3-1.3-1.5-2-2.8-1.7c-1.5,0.3-2.3,1.9-2.7,3.2c-1,3.6-0.5,8.4,1,11.8c0.8,1.8,3.4,0.2,2.6-1.5
				c-0.6-1.4-1-3.6-1-5.2c0-0.8,0-1.6,0.1-2.4c0-0.6,0.1-1.3,0.2-1.9c0.7-0.7,0.6-1.2-0.3-1.5C143.7,286.9,146.6,286.1,146.2,284.3
				L146.2,284.3z"/>
		</g>
	</g>
	<g>
		<g>
			<path d="M138.9,293.4c1.8,0,3.5,0.1,5.3-0.2c1.9-0.4,1.1-3.2-0.8-2.9c-1.5,0.3-3,0.1-4.5,0.1C137,290.4,137,293.4,138.9,293.4
				L138.9,293.4z"/>
		</g>
	</g>
	<g>
		<g>
			<path d="M155.9,289.4c0.3,0.8,0,1.7,0.3,2.6c0.2,0.7,0.5,1.5,0.9,2c0.6,0.8,2,1.1,2.6,0c0.5-1,0.5-2.1,0.7-3.2
				c0.1-0.3,0.1-0.5,0.2-0.8c0.1-0.6,0.2-0.6,0.1,0c0.2,0.4,0.3,1,0.6,1.4c0.5,1.1,2,0.8,2.6,0c0.4-0.5,0.5-1.1,0.8-1.7
				c0.2-0.4,0.7-1.1,0.5-1.1c0.8,0.3,1,2.9,1.3,3.5c0.7,1.8,3.6,1,2.9-0.8c-0.8-1.8-1-5.2-3.4-5.8c-2.9-0.7-3.5,2.8-4.6,4.4
				c0.9,0,1.7,0,2.6,0c-0.9-1.8-1.5-4.5-4.2-3.4c-2.5,1-1.6,4-2.6,5.9c0.9,0,1.7,0,2.6,0c-0.9-1.2-0.4-2.6-0.9-3.9
				C158.1,286.8,155.2,287.6,155.9,289.4L155.9,289.4z"/>
		</g>
	</g>
	<g>
		<g>
			<path d="M171.1,291.2c1.1,0.1,2-0.1,2.6-1.1c0.4-0.6,0.8-1.7,0.7-2.4c-0.2-2.2-3.5-2.5-4.6-1c-1.2,1.6-1,4.3,0.7,5.3
				c0.9,0.5,2,0.7,3.1,0.7c1.2,0,2.3-0.5,3.5-0.7c0.8-0.1,1.5-0.6,1.5-1.5c0-0.7-0.7-1.6-1.5-1.5c-1.5,0.2-3.7,1.3-5.2,0.3
				c0.2,0.4,0.2,0.4,0.2,0c0-0.2,0.1-0.4,0.1-0.6c0-0.1,0-0.2,0-0.3c-0.4,0.2-0.5,0.2-0.2,0.2c-0.3-1.2-0.5-1.4-0.6-0.8
				c-0.1,0.1-0.1,0.3-0.2,0.4c-0.2,0.4,0,0.3,0.5-0.2c-0.2,0-0.4,0-0.6,0C169.1,288.1,169.2,291.1,171.1,291.2L171.1,291.2z"/>
		</g>
	</g>
	<g>
		<g>
			<path d="M182,287c-0.3-1.9-3.1-2-3.6-0.2c-0.3,1.3-0.5,3.3,0.8,4.1c1.3,0.8,3.1,1,3.7-0.6c0.1-0.2,0.2-0.4,0.2-0.6
				c0.2-0.6-0.1-0.5-1.1,0.1c0.2,0.1,0.3,0.2,0.4,0.3c0.6,0.4,1.2,0.7,1.7,1.1c0.6,0.5,1.7,0.1,2.1-0.5c0.5-0.8,0.1-1.6-0.5-2.1
				c-0.5-0.4-1-0.6-1.5-1c-0.5-0.4-1.1-0.7-1.8-0.7c-0.7,0-1.4,0.4-1.8,1c-0.2,0.4-0.3,1.2-0.5,1.4c0.3-0.2,0.6-0.5,0.9-0.7
				c0.5,0,0.6,0,0.3,0c-0.1,0-0.2-0.1-0.3-0.1c-0.3-0.2-0.3-0.1,0,0.2c0.2,0.4,0.2,0.4,0.2,0.1c0.2-0.4,0-1,0.1-1.4
				c-0.3,0.3-0.7,0.7-1,1c-0.4-0.2-0.8-0.5-1.2-0.7c0.1,0.8,1.1,1.2,1.8,1C181.9,288.6,182.2,287.8,182,287L182,287z"/>
		</g>
	</g>
	<g>
		<g>
			<path d="M185.8,285.8c0,0.9,0.3,1.5,0.7,2.2c0.3,0.6,0.4,1.3,0.9,1.8c0.7,0.8,1.9,0.5,2.4-0.3c0.3-0.4,0.5-0.9,0.6-1.4
				c0.1-0.2,0.3-0.6,0.2-0.8c0-0.1,0-0.1,0.1-0.2c-0.7-0.1-0.9,0-0.6,0.1c0.2,0.3,0.8,0.6,1,0.9c0.4,0.5,0.6,1,0.9,1.5
				c1,1.6,3.6,0.1,2.6-1.5c-1-1.6-2.1-3.6-4.1-3.9c-1-0.2-1.8,0.3-2.4,1.1c-0.5,0.8-0.5,1.9-1,2.7c0.8-0.1,1.6-0.2,2.4-0.3
				c0.2,0.2,0.2,0.4,0.1,0c0-0.3-0.2-0.5-0.3-0.8c-0.2-0.3-0.6-0.8-0.6-1.2C188.9,283.9,185.9,283.9,185.8,285.8L185.8,285.8z"/>
		</g>
	</g>
	<g>
		<g>
			<path d="M205.3,278.9c-1.9,0.1-3.3,1.7-3.1,3.7c0.1,1,0.7,1.7,1.3,2.3c0.7,0.6,2.5,1.6,2.7,2.5c0.1-0.4,0.1-0.8,0.2-1.2
				c0.2-0.3-0.7,0.1-1.1,0.1c-0.8,0.1-1.6,0.1-2.4,0.3c-1.9,0.5-1.1,3.4,0.8,2.9c1.6-0.4,4.8-0.1,5.4-2.2c0.3-1.2-0.8-2.2-1.6-2.9
				c-0.5-0.5-1.1-0.9-1.7-1.4c-0.2-0.2-0.5-0.4-0.7-0.7c-0.2-0.3,0.1-0.4,0-0.4C207.2,281.7,207.2,278.7,205.3,278.9L205.3,278.9z"
				/>
		</g>
	</g>
	<g>
		<g>
			<path d="M211.1,274.2c0,4-0.8,9.4,1.4,13c1,1.6,3.6,0.1,2.6-1.5c-1.9-3.1-1-8.1-1-11.5C214.1,272.2,211.1,272.2,211.1,274.2
				L211.1,274.2z"/>
		</g>
	</g>
	<g>
		<g>
			<path d="M211,283.4c1.3,0,2.6,0,4-0.2c0.8-0.1,1.2-1.1,1-1.8c-0.2-0.8-1-1.2-1.8-1c-1,0.2-2.1,0.1-3.2,0.1
				C209.1,280.4,209.1,283.4,211,283.4L211,283.4z"/>
		</g>
	</g>
	<g>
		<g>
			<path d="M216.8,281.3c-0.1,2.6,2.7,4.8,5.3,4.4c2.7-0.5,2.3-4.9,2.9-6.8c0.6-1.9-2.3-2.6-2.9-0.8c-0.2,0.8-0.3,1.5-0.4,2.3
				c0,0.4-0.1,0.8-0.2,1.1c-0.1,0.3-0.3,0.8-0.3,1.1c0,0.1-0.1,0.2-0.1,0.3c0.7,0,0.8-0.1,0.5-0.2c-0.3-0.1-0.6-0.1-0.9-0.2
				c-0.6-0.2-1-0.6-1-1.2C219.9,279.4,216.9,279.4,216.8,281.3L216.8,281.3z"/>
		</g>
	</g>
	<g>
		<g>
			<path d="M233.3,272.5c0-0.5,0-0.9-0.1-1.3c-0.2-1-1.4-1.3-2.2-0.9c-2.2,1-2.1,5.4-2.2,7.4c-0.2,2.7-0.1,6.5,1.1,9
				c0.8,1.7,3.4,0.2,2.6-1.5c-0.5-1.1-0.7-4.1-0.7-5.4c0-1.2-0.2-6.5,0.8-6.9c-0.7-0.3-1.5-0.6-2.2-0.9c0,0.2,0,0.4,0,0.5
				C230.2,274.4,233.2,274.4,233.3,272.5L233.3,272.5z"/>
		</g>
	</g>
	<g>
		<g>
			<path d="M229,282c1.3,0,2.6,0,3.9,0c1.9,0,1.9-3,0-3c-1.3,0-2.6,0-3.9,0C227.1,279,227.1,282,229,282L229,282z"/>
		</g>
	</g>
	<g>
		<g>
			<path d="M243.3,270.2c-2.6-2.4-5.3-0.3-5.9,2.6c-0.4,2.3-0.6,5-0.3,7.3c0.3,2.6,1.6,4.8,2.2,7.2c0.5,1.9,3.4,1.1,2.9-0.8
				c-0.7-2.8-2.1-5.1-2.2-8.1c0-0.6,0.4-6.8,1.1-6.1C242.6,273.6,244.7,271.5,243.3,270.2L243.3,270.2z"/>
		</g>
	</g>
	<g>
		<g>
			<path d="M236.6,277.3c1,0,2.1,0,3.1,0c1.9,0,1.9-3,0-3c-1,0-2.1,0-3.1,0C234.7,274.3,234.7,277.3,236.6,277.3L236.6,277.3z"/>
		</g>
	</g>
	<g>
		<g>
			<path d="M251.6,269.4c-0.1-2.2,2-2.3,3.8-1.9c1.7,0.4,2.5,1.8,2.6,3.6c0.1,2.5-1.1,3-3.1,3.8c-3,1.2-2.8,4.1-2.3,7
				c0.3,1.9,3.2,1.1,2.9-0.8c-0.1-0.4-0.5-2.5-0.1-3c0.4-0.6,1.5-0.6,2.1-0.9c1.1-0.4,1.9-1,2.5-2c1.3-2,1.5-5.9,0.3-7.9
				c-1.4-2.4-4.8-3.2-7.4-2.9c-3,0.4-4.4,2-4.3,5C248.6,271.3,251.6,271.3,251.6,269.4L251.6,269.4z"/>
		</g>
	</g>
	<g>
		<g>
			<path d="M255.6,289c-0.2,0.1-0.5,0.1-0.8,0c-0.2-0.2-0.4-0.4-0.5-0.5c0.2,0.4,0.3,0.1,0.1-0.8c0.7-0.6,1.3-0.7,1.7-0.2
				c0.4,0.4,0.4,0.9,0,1.3c0.6-0.6,0.6-1.5,0-2.1c-0.6-0.6-1.5-0.6-2.1,0c-0.7,0.7-0.8,1.7-0.3,2.5c0.5,0.9,1.7,1.3,2.6,0.7
				c0.9-0.6,1.3-1.8,0.7-2.8c-0.3-0.5-0.7-0.8-1.2-1c-0.6-0.1-1.1,0.1-1.6,0.3c-0.7,0.3-0.9,1.4-0.5,2.1
				C254,289.2,254.8,289.3,255.6,289L255.6,289z"/>
		</g>
	</g>
	<g>
		<g>
			<path d="M118.8,38.9c0,7.6-0.3,14.7,2.1,22c2.1,6.3,5,12.3,8.4,18c0.4,0.7,1.7,0.6,1.8-0.2c0.4-1.8,0.3-1.7,0.4-3.6
				c-0.7,0-1.3,0-2,0c-0.3,0.5-0.6,1.1-0.9,1.6c-1.3,0-1.3,2,0,2c2.5,0,3-1.3,2.9-3.6c-0.1-1.3-2-1.3-2,0c-0.1,1-0.2,2.1-0.3,3.1
				c0.6-0.1,1.2-0.2,1.8-0.2c-3.3-5.5-6.2-11.5-8.2-17.5c-2.4-7.1-2-14.1-2-21.4C120.8,37.7,118.8,37.7,118.8,38.9L118.8,38.9z"/>
		</g>
	</g>
	<g>
		<g>
			<path d="M110.8,13.3c-2.4-0.1-4,3.2-2.9,5.2c0.4,0.9,1.5,1.7,2.5,1.5c1.2-0.2,1.5-1.6,1.8-2.6c-0.6,0.1-1.1,0.3-1.7,0.4
				c1,0.9,2,2.7,2.4,4c0.3,1.1,0.7,5.3-1.7,5c-1.3-0.2-1.8,1.7-0.5,1.9c2.6,0.4,4.2-1.7,4.5-4.3c0.3-2.7-1.2-6.2-3.3-8
				c-0.5-0.5-1.5-0.3-1.7,0.4c-0.4,1.7-0.9-1.6,0.6-1.6C112.1,15.4,112.1,13.4,110.8,13.3L110.8,13.3z"/>
		</g>
	</g>
	<g>
		<g>
			<path d="M116.9,18.6c0-0.4,0-0.8,0-1.2c0-0.2,0-0.3,0-0.5c0-0.3-0.1,0,0.1-0.1c0.6-0.3,1.2-0.2,1.9-0.4c1.2-0.4,0.7-2.3-0.5-1.9
				c-0.5,0.1-1,0.1-1.4,0.3c-0.5,0.1-1,0.4-1.4,0.7c-0.8,0.8-0.6,2.1-0.6,3.1C114.9,19.9,116.9,19.9,116.9,18.6L116.9,18.6z"/>
		</g>
	</g>
	<g>
		<g>
			<path d="M122,14.5c0,0-0.1,0-0.1,0c-0.5,0-0.8,0.3-1,0.7c-0.4,1-0.4,2.6,0.4,3.3c0.5,0.4,1.2,0.7,1.8,0.5
				c0.3-0.1,0.7-0.3,0.9-0.6c0.1-0.2,0.2-0.5,0.3-0.6c-0.4,0.1-0.8,0.1-1.2,0.2c0.3,0.2,0.6,0.3,0.9,0.5c1.1,0.6,2.2-1.1,1-1.7
				c-0.3-0.2-0.6-0.3-0.9-0.5c-0.4-0.2-0.9-0.2-1.2,0.2c-0.1,0.1-0.5,0.6-0.5,0.8c0,0.1,0,0.1,0,0c0.1,0,0.2-0.1,0.3-0.1
				c-0.2,0-0.1-0.2,0,0.1c-0.1-0.4-0.1-1,0.1-1.4c-0.3,0.2-0.6,0.5-1,0.7c0,0,0.1,0,0.1,0C123.3,16.4,123.3,14.4,122,14.5L122,14.5z
				"/>
		</g>
	</g>
	<g>
		<g>
			<path d="M125.8,15.3c0,2.6,0.8,5.2,0.9,7.9c0,1.3,2,1.3,2,0c-0.1-2.6-0.9-5.2-0.9-7.9C127.8,14,125.8,14,125.8,15.3L125.8,15.3z"
				/>
		</g>
	</g>
	<g>
		<g>
			<path d="M126.4,12.9c0.9,0,1.8,0,2.2,1c0.4,0.9-0.2,1.7-0.9,2.2c-1,0.7-0.1,2.5,1,1.7c1.5-1,2.4-2.7,1.8-4.5
				c-0.6-1.9-2.3-2.5-4.2-2.5C125.1,10.9,125.1,12.9,126.4,12.9L126.4,12.9z"/>
		</g>
	</g>
	<g>
		<g>
			<path d="M130.9,8c0,1.3,0,2.7,0,4c0,1-0.2,2.2,0.1,3.2c0.1,0.5,0.7,0.8,1.2,0.7c0.6-0.2,1.5-1.3,2-1.3c-0.2-0.1-0.5-0.2-0.7-0.3
				c0.3,0.3,0.5,0.8,0.7,1.1c0.5,1.2,2.4,0.7,1.9-0.5c-0.4-0.8-0.7-2.1-1.7-2.3c-1.3-0.3-1.7,1.1-2.7,1.3c0.4,0.2,0.8,0.5,1.2,0.7
				c-0.2-0.9,0-2.2,0-3.2c0-1.2,0-2.3,0-3.5C132.9,6.8,130.9,6.8,130.9,8L130.9,8z"/>
		</g>
	</g>
	<g>
		<g>
			<path d="M138.4,11.8c-0.1,0.9-0.1,1.9-0.1,2.8c0,1.3,2,1.3,2,0c0-0.9,0-1.9,0.1-2.8c0.1-0.5-0.5-1-1-1
				C138.8,10.8,138.5,11.2,138.4,11.8L138.4,11.8z"/>
		</g>
	</g>
	<g>
		<g>
			<path d="M137.9,10.4c1.3,0,1.3-2,0-2C136.6,8.4,136.6,10.4,137.9,10.4L137.9,10.4z"/>
		</g>
	</g>
	<g>
		<g>
			<path d="M144.7,8.3c-1.2-0.1-1.9,0.3-2.3,1.5c-0.3,1.1-0.4,2.4-0.3,3.5c0.3,2.8,3.2,2.9,5.4,2.3c1.2-0.4,0.7-2.3-0.5-1.9
				c-0.6,0.2-1.2,0.4-1.9,0.3c-0.8-0.1-1-0.5-1-1.2c0-0.5,0-1.1,0.1-1.6c0-0.3,0.1-0.7,0.2-1c-0.1,0-0.2,0.1-0.2,0.1
				c0.2,0,0.4,0,0.5,0C146,10.3,146,8.3,144.7,8.3L144.7,8.3z"/>
		</g>
	</g>
	<g>
		<g>
			<path d="M122.4,25.9c0,0.9,0,1.9,0,2.8c0,0.6,0.3,1.5,0.1,2.1c0.5-0.2,1-0.4,1.5-0.6c-1.2-0.6-2.5-2.1-4-1.4
				c-1,0.5-1.7,2.1-1.5,3.1c0.2,1.3,1.7,1.5,2.8,1.5c1.7,0.1,3.1-0.5,4.6-1.1c1.2-0.5,0.2-2.2-1-1.7c-0.8,0.3-1.6,0.7-2.4,0.8
				c-0.5,0.1-1.9,0.2-2.2-0.2c0.1,0.2,0.2,0.5,0.3,0.7c-0.1-0.7,0.2-1.3,1-1c0.5,0.2,1,0.7,1.5,1c0.5,0.3,1.3,0.1,1.5-0.6
				c0.2-0.7,0-1.5,0-2.2c0-1.1,0-2.2,0-3.3C124.4,24.7,122.4,24.7,122.4,25.9L122.4,25.9z"/>
		</g>
	</g>
	<g>
		<g>
			<path d="M128.9,31.3c0.6-0.2,1.2-0.3,1.6-0.9c0.4-0.7,0.6-1.5,0.6-2.3c0-0.3-0.2-0.7-0.5-0.9c-2-1-2.7,2-2.9,3.3
				c-0.2,1,0,1.8,1,2.2c1.1,0.5,2.3,0.6,3.5,0.8c1.3,0.1,1.3-1.9,0-2c-0.5-0.1-1.1-0.1-1.6-0.2c-0.2,0-0.5-0.1-0.7-0.2
				c-0.3-0.2-0.1,0.2-0.2-0.3c0-0.4,0.2-0.9,0.3-1.3c0-0.1,0.1-0.3,0.2-0.4c0.1-0.6,0.6,0.4-0.6-0.2c-0.2-0.3-0.3-0.6-0.5-0.9
				c0,0.3,0,0.8-0.2,1.1c-0.1,0.2-0.2,0.2-0.5,0.2C127.2,29.7,127.7,31.6,128.9,31.3L128.9,31.3z"/>
		</g>
	</g>
	<g>
		<g>
			<path d="M135.6,27.5c-0.6,0-1.3-0.1-1.7,0.4c-0.5,0.4-0.6,1.2-0.5,1.8c0.1,0.7,0.5,1.2,1.2,1.5c0.3,0.2,0.6,0.2,1,0.4
				c0.1,0,0.2,0.1,0.3,0.1c0.1,0,0.1,0.1,0.1,0.1c0.1,0.2,0.2,0,0.2-0.4c-1,0.8,0,2.5,1,1.7c0.5-0.4,0.9-0.8,0.9-1.5
				c-0.1-0.6-0.5-1.2-1-1.5c-0.4-0.3-1-0.5-1.5-0.6c-0.1,0-0.1-0.1-0.2-0.1c0.1,0.1,0.1,0.2,0.1,0.1c0-0.1,0-0.1-0.1,0.1
				c-0.1,0.2-0.2,0,0.1,0.1c0.1,0,0.3,0,0.4,0C136.8,29.6,136.8,27.6,135.6,27.5L135.6,27.5z"/>
		</g>
	</g>
	<g>
		<g>
			<path d="M137.6,29.5c0,0.3,0,0.6,0.1,0.8c0.1,0.5,0.4,1,1,1c0.5,0,1.1-0.5,1-1c0-0.3-0.1-0.6-0.1-0.8
				C139.5,28.2,137.5,28.2,137.6,29.5L137.6,29.5z"/>
		</g>
	</g>
	<g>
		<g>
			<path d="M143.4,26.7c-1.9-2.1-2.6,2.1-2.2,3.3c0.3,0.9,1.2,1.7,2.3,1.5c0.1,0,0.5-0.3,0.6-0.3c-0.7-0.2-0.1,0.8-0.1,1
				c0.3,1.5-0.3,2.5-1.6,3c-1.2,0.5-0.7,2.4,0.5,1.9c2.6-1,3.6-2.7,3-5.5c-0.2-0.9-0.6-2.1-1.5-2.4c-0.3-0.1-1.1,0.2-1.2,0.2
				c-0.1,0-0.2-1.4,0-1.8c-0.3,0.2-0.6,0.3-0.9,0.5c-0.1-0.1-0.2-0.1-0.3-0.2C142.8,29,144.2,27.6,143.4,26.7L143.4,26.7z"/>
		</g>
	</g>
	<g>
		<g>
			<path d="M145.4,26.8c0,0.5,0,0.9,0.1,1.4c0.3,1,1.6,0.9,1.9,0c0.2-0.6,0.4-1.3,0.6-1.9c0.1-0.3,0.2-0.6,0.4-0.9
				c0.1-0.2,0.5-0.6,0.5-0.8c0.2-0.1,0.1-0.2-0.2-0.1c0,0.1,0.1,0.1,0.1,0.2c0,0.1,0.2,0.4,0.2,0.5c0.3,0.6,0.4,1.2,0.7,1.7
				c0.5,1.2,2.4,0.7,1.9-0.5c-0.5-1.2-1.1-4.1-2.9-3.8c-2.1,0.2-2.8,3.5-3.3,5.1c0.6,0,1.3,0,1.9,0c-0.1-0.3-0.1-0.5,0-0.8
				C147.4,25.5,145.4,25.5,145.4,26.8L145.4,26.8z"/>
		</g>
	</g>
	<g>
		<g>
			<path d="M144.8,95.6c-7.4,0-14.1,3.9-20.3,7.6c-1.1,0.7-0.1,2.4,1,1.7c5.9-3.5,12.3-7.3,19.3-7.3
				C146.1,97.6,146.1,95.6,144.8,95.6L144.8,95.6z"/>
		</g>
	</g>
	<g>
		<g>
			<path d="M235,81.2c-20.2,0-40.1-0.5-59.1,7.8c-1.2,0.5-0.2,2.2,1,1.7c18.5-8.1,38.3-7.6,58.1-7.6C236.3,83.2,236.3,81.2,235,81.2
				L235,81.2z"/>
		</g>
	</g>
	<g>
		<g>
			<path d="M48.1,276.2c0,4,0.2,8.5,1.3,12.4c0.5,1.7,2.8,1.2,2.9-0.4c0.3-3.4,0.1-7,0-10.4c-0.6,0.5-1.3,1-1.9,1.4
				c2.6,0.8,4.5,3.1,6.8,0.7c0.6-0.6-0.1-1.4,0.7,0c0.6,1,1,2.2,1.5,3.3c0.6,1.4,1.1,3.1,1.9,4.3c1.1,1.6,3.7,0.1,2.6-1.5
				c-1.1-1.7-1.7-3.8-2.5-5.6c-0.6-1.5-1.5-4-3.3-4.4c-1.2-0.3-2.7,0.6-3.2,1.7c-0.1,0.4-0.1,0.5,0.3,0.4c-0.2,0.1-0.9-0.3-1.1-0.3
				c-1.1-0.4-1.9-1.1-3-1.4c-0.9-0.3-1.9,0.5-1.9,1.4c0.1,3.4,0.3,7,0,10.4c1-0.1,2-0.3,2.9-0.4c-1-3.7-1.2-7.8-1.2-11.6
				C51.1,274.3,48.1,274.3,48.1,276.2L48.1,276.2z"/>
		</g>
	</g>
	<g>
		<g>
			<path d="M63.5,279.6c0,1.5,0.2,2.6,1.3,3.7c1,1,2.4,1.6,3.8,1.2c2.6-0.7,4.4-4.7,4.3-7.1c-0.1-1.9-3.1-1.9-3,0
				c0.1,1.3-0.7,2.9-1.6,3.8c-0.4,0.4-0.7,0.4-1.2,0.1c-0.6-0.5-0.6-1-0.6-1.7C66.5,277.7,63.5,277.7,63.5,279.6L63.5,279.6z"/>
		</g>
	</g>
	<g>
		<g>
			<path d="M76.2,273.7c-1.4,1.2-4,4.3-2.3,6.1c0.9,0.9,2.2,1.3,3.2,2.2c1.8,1.8-0.4,2.3-2,2.4c-1.9,0.1-1.9,3.1,0,3
				c2.5-0.2,6.2-1.3,5.9-4.4c-0.2-1.7-1.4-3-2.8-3.9c-0.4-0.3-0.9-0.7-1.4-0.9c-0.1-0.1-0.3-0.2-0.5-0.3c-0.3-0.2-0.3-0.1,0,0.6
				c0.7-0.3,1.3-2.1,1.9-2.7C79.8,274.6,77.7,272.5,76.2,273.7L76.2,273.7z"/>
		</g>
	</g>
	<g>
		<g>
			<path d="M84.5,267.2c-0.3,4.3-0.3,8.6-0.2,12.9c0.1,2.6,1.7,3.6,4.2,3.9c1.9,0.2,1.9-2.8,0-3c-2-0.2-1.1-4.1-1.1-5.6
				c0-2.7,0-5.4,0.2-8.1C87.7,265.2,84.7,265.3,84.5,267.2L84.5,267.2z"/>
		</g>
	</g>
	<g>
		<g>
			<path d="M83.7,277.4c2.2,0,4.2-0.4,6.4-0.6c1.9-0.2,1.9-3.2,0-3c-2.1,0.2-4.2,0.6-6.4,0.6C81.8,274.4,81.8,277.4,83.7,277.4
				L83.7,277.4z"/>
		</g>
	</g>
	<g>
		<g>
			<path d="M255.4,44c-3-0.1-5.1,0-7.7,1.7c-3,2-4.9,4.8-7.1,7.5c-0.8,0.9-2.1,2.3-0.9,3.4c1,0.9,2.2,0.4,3-0.5
				c0.6-0.6,0.1-1.7-0.7-1.7c-1.2-0.1-2.3,0.1-2.9-1.3c-0.5-1.2-2.4-0.7-1.9,0.5c0.5,1.1,0.7,2.5,1.9,3c1.1,0.5,1.8-0.3,2.9-0.2
				c-0.2-0.6-0.5-1.1-0.7-1.7c0.4,0.6,0.7,0.4,1.1-0.6c0.3-0.4,0.6-0.7,0.9-1.1c0.9-1.2,1.8-2.4,2.8-3.4c2.7-2.7,5.5-3.7,9.3-3.6
				C256.7,46,256.7,44,255.4,44L255.4,44z"/>
		</g>
	</g>
	<g>
		<g>
			<path d="M250.5,27.6c-1.7-0.5-3.9-0.9-3.6,1.7c0.1,1.3,1,2.5,1.1,3.8c0.1,1.1-0.4,1.8-1.4,2.3c-0.5,0.3-1,0.4-1.5,0.4
				c0,0.5,0,0.4,0.1,0c0.2-1.3-1.8-1.3-2,0c-0.4,3.2,3.9,1.9,5.3,0.7c1.1-0.9,1.8-2.2,1.6-3.7c-0.1-0.9-0.6-1.6-0.9-2.4
				c0-0.1-0.5-1.3-0.4-1.4c-0.5,0.4,1,0.5,1.1,0.6C251.2,29.9,251.7,27.9,250.5,27.6L250.5,27.6z"/>
		</g>
	</g>
	<g>
		<g>
			<path d="M252.4,34.6c1.2,0.4,2.5-0.7,1.7-1.9c-0.7-0.9-2.2-1.3-3-0.3c-0.7,0.9-1,2.3-0.3,3.3c0.9,1.1,2.3,1.3,3.5,1.9
				c1.2,0.5,2.2-1.2,1-1.7c-0.8-0.4-1.8-0.6-2.6-1.1c-0.4-0.3-0.4-0.3-0.3-0.7c0.1-0.2,0.4-0.8-0.4-0.3c0.1-0.1,0.3,0.3,0.2,0
				c0-0.3,0.1-0.5,0.1-0.8c0.1-0.1,0.3-0.2,0.4-0.3C251.7,32.3,251.2,34.2,252.4,34.6L252.4,34.6z"/>
		</g>
	</g>
	<g>
		<g>
			<path d="M256.1,35c-0.2,0.6-0.4,1.2-0.4,1.9c0,0.5,0.5,1.1,1,1c1.6-0.2,2.5-2.1,3.6-3c-0.2,0.1-0.5,0.2-0.7,0.3
				c0.1,0,0.1,0,0.2,0c-0.2-0.1-0.5-0.2-0.7-0.3c-0.2-0.2-0.2,0.8-0.2,1c-0.1,0.3-0.2,0.5-0.2,0.7c-0.1,0.3,0,0.7,0.3,1
				c0.6,0.5,1.1,0.5,1.8,0.2c0.3-0.1,0.6-0.3,0.8-0.4c0.1-0.1,0.2-0.1,0.3-0.2c0.3-0.1,0.3-0.2,0-0.1c-0.2-0.2-0.5-0.5-0.7-0.7
				c0.2,0.5-0.2,1.5-0.4,1.9c-0.2,0.7-0.5,1.3-0.7,2.1c-0.3,1.3,1.6,1.8,1.9,0.5c0.3-1.1,0.8-2.1,1-3.2c0.1-0.6,0.4-1.5,0-2.1
				c-1-1.5-2.2,0.4-3.3,0.4c0.2,0.1,0.5,0.2,0.7,0.3c0,0-0.1-0.1-0.1-0.1c0.1,0.3,0.2,0.6,0.3,1c0.2-1.1,1-3.2-0.4-3.9
				c-0.8-0.3-1.4,0.2-1.8,0.8c-0.3,0.4-0.7,0.7-1.1,1.1c-0.1,0.2-0.7,0.8-0.6,0.8c0.3,0.3,0.7,0.7,1,1c0-0.4,0.2-0.9,0.4-1.4
				C258.4,34.3,256.4,33.7,256.1,35L256.1,35z"/>
		</g>
	</g>
	<g>
		<g>
			<path d="M265.9,38c-0.9-0.2-2-0.2-2.5,0.7c-0.4,0.7-0.6,1.8-0.1,2.5c0.3,0.4,0.7,0.6,1.1,0.6c0.2,0,0.5,0,0.7-0.1
				c0.3-0.1,0.3-0.1-0.2-0.1c0.1,0.1,0.1,0.2,0.1,0.3c0.2,1,1.3,1.6,2.1,1.9c1.2,0.5,2.2-1.2,1-1.7c-0.6-0.2-1-0.4-1.3-0.9
				c-0.3-0.4-0.5-0.9-0.9-1.2c-0.2-0.2-1.3-0.5-1.5-0.2c0.3,0.5,0.4,0.6,0.4,0.4c0-0.1,0-0.2,0.1-0.3c0,0,0.4,0.1,0.3,0.1
				C266.6,40.2,267.1,38.3,265.9,38L265.9,38z"/>
		</g>
	</g>
	<g>
		<g>
			<path d="M270.5,41.1c-0.3,1.2-0.7,2.5-1,3.7c-0.2,0.7,0.5,1.4,1.2,1.2c2-0.5,3.3-2.7,5.4-3.2c-0.4-0.3-0.8-0.6-1.3-1
				c-0.1,2.1-0.9,4.2-1.4,6.2c-0.3,1.2,1.6,1.8,1.9,0.5c0.6-2.2,1.4-4.5,1.5-6.8c0-0.7-0.7-1.1-1.3-1c-0.9,0.2-1.9,0.8-2.7,1.3
				c-0.8,0.5-1.8,1.6-2.8,1.9c0.4,0.4,0.8,0.8,1.2,1.2c0.3-1.3,0.7-2.5,1-3.7C272.8,40.4,270.8,39.9,270.5,41.1L270.5,41.1z"/>
		</g>
	</g>
	<g>
		<g>
			<path d="M282.2,40.2c-1.8,1.4-2.6,3.5-3.2,5.7c-0.6,2-1.4,3.5,0,5.2c0.8,1,2.2-0.4,1.4-1.4c-0.6-0.8,0.6-3.5,0.9-4.3
				c0.5-1.6,1.1-2.7,2.4-3.8C284.6,40.8,283.2,39.4,282.2,40.2L282.2,40.2z"/>
		</g>
	</g>
	<g>
		<g>
			<path d="M278.4,45c1.3,0.4,2.6,0.7,4,1.1c1.2,0.3,1.8-1.6,0.5-1.9c-1.3-0.4-2.6-0.7-4-1.1C277.7,42.7,277.2,44.6,278.4,45
				L278.4,45z"/>
		</g>
	</g>
	<g>
		<g>
			<path d="M282.2,48.8c-0.1,0.5-0.3,1-0.4,1.5c-0.3,1.2,1.6,1.8,1.9,0.5c0.1-0.5,0.3-1,0.4-1.5C284.4,48.1,282.5,47.5,282.2,48.8
				L282.2,48.8z"/>
		</g>
	</g>
	<g>
		<g>
			<path d="M289.3,51.5c0.4-1.1-0.2-2.2-1.5-2.1c-1.2,0-2.4,0.7-3.3,1.4c-1,0.8-1.3,1.6-0.8,2.9c0.4,1,0.8,2.1,1.7,2.6
				c1.1,0.6,2.1-1.1,1-1.7c-0.4-0.2-0.5-0.6-0.7-1c-0.1-0.2-0.2-0.5-0.3-0.7c-0.1-0.3-0.1-0.1,0-0.3c0.2-0.4,2-1.5,2.4-1.2
				c-0.2-0.2-0.3-0.4-0.5-0.6c0.1-0.1,0.1-0.1,0,0.2C287,52.2,288.9,52.8,289.3,51.5L289.3,51.5z"/>
		</g>
	</g>
	<g>
		<g>
			<path d="M293.6,53.8c0.3-1,0.7-2.4-0.6-2.8c-1.3-0.4-2.5,1-3,2c-0.7,1.4,0.1,2.5,0.4,4c0,0.2,0,0.8,0.3,0.4
				c-0.1,0.1-0.5,0.1-0.7,0.1c-0.1,0-0.2,0-0.4,0c-0.3,0-0.3,0,0,0.1c0.2,0.2,0.3,0.1,0.3-0.2c0-0.2,0-0.3,0-0.5c0-1.3-2-1.3-2,0
				c0,0.9-0.2,1.9,0.8,2.4c0.7,0.3,1.9,0.2,2.6-0.1c1-0.4,1.2-1.3,1-2.3c-0.1-0.6-0.3-1.3-0.5-1.9c-0.1-0.4-0.3-0.6-0.3-1.1
				c0.1-0.3,0.7-1.1,1-1.1c-0.2-0.1-0.5-0.2-0.7-0.3c-0.1-0.1-0.3,0.6-0.3,0.6C291.2,54.5,293.2,55,293.6,53.8L293.6,53.8z"/>
		</g>
	</g>
	<g>
		<g>
			<path d="M90.9,194.6c-1.9,0-4,0.7-3.9,3c0.1,1.8,1.8,3.5,3.7,2.9c1.9-0.5,2.4-2.8,2.6-4.4c0.3-2.6-0.3-4.9-1-7.3
				c-0.5-1.9-3.4-1.1-2.9,0.8c0.4,1.5,1,3,1,4.6c0,0.7-0.1,1.4-0.2,2c-0.2,1.1-0.8,1.4,0.6,1.4C92.9,197.6,92.9,194.6,90.9,194.6
				L90.9,194.6z"/>
		</g>
	</g>
	<g>
		<g>
			<path d="M97,195.7c0.1,0,0.1-0.1,0.2-0.1c0,0,0.3-0.2,0.2-0.1c-0.2,0.1,0.1,0,0.1,0c0.1,0,0.1,0-0.2,0c-0.1,0-0.3,0-0.4-0.1
				c-0.2-0.2-0.4-0.4-0.5-0.5c0-0.1-0.1-0.2-0.1-0.3c0-0.1,0-0.1,0,0c0,0.1,0,0.2,0,0.3c0,0.1,0,0.2,0,0.4c0,0.1,0,0.1,0,0.2
				c0,0.1,0,0.1,0,0c0,0,0.1-0.2,0.1-0.2c0.1-0.1,0.1-0.1,0,0c0,0-0.1,0.1-0.1,0.1c-0.1,0-0.1,0,0,0c0,0-0.1,0-0.1,0
				c0.1,0,0.4,0.1,0.1-0.1c0.2,0.1,0.4,0.3,0.7,0.4c0.1,0.1,0.1,0.3,0.2,0.3c0,0.1,0,0.1,0,0C97.1,195.9,97.1,195.8,97,195.7
				C97,195.8,97.1,195.7,97,195.7c0.1-0.2,0.1-0.4,0.2-0.6c0-0.8-0.7-1.5-1.5-1.5c-0.8,0-1.5,0.7-1.5,1.5c0-0.2,0-0.2,0,0
				c0,0.2-0.1,0.4-0.1,0.7c0,0.3,0,0.6,0.1,0.9c0.2,0.7,0.6,1.3,1.4,1.5c1.2,0.4,2.8-0.3,3.4-1.4c0.3-0.6,0.3-1.2,0.4-1.8
				c0-0.6,0-1.1-0.3-1.6c-0.8-1.2-2.4-1-3.4-0.2c-0.7,0.5-1,1.3-0.5,2.1C95.3,195.8,96.3,196.2,97,195.7L97,195.7z"/>
		</g>
	</g>
	<g>
		<g>
			<path d="M101.3,195.6c1.8,0,3.8-1.9,3.3-3.8c-0.5-2.1-3.2-1.9-4.3-0.5c-0.8,1.1-1.2,2.9-0.8,4.2c0.5,1.8,2.3,2.5,4,2.6
				c1.9,0.1,1.9-2.9,0-3c-0.3,0-0.9-0.1-1.1-0.3c0,0,0,0.1,0-0.2c0-0.2,0-0.4,0-0.6c0-0.2,0.3-0.7,0.3-0.9c0,0-1-1-1-1
				c-0.2,0.1-0.1,0.4-0.4,0.4C99.3,192.6,99.3,195.6,101.3,195.6L101.3,195.6z"/>
		</g>
	</g>
	<g>
		<g>
			<path d="M110.1,189.4c-1.3,0-2.6-0.1-3.3,1.2c-0.6,1-0.6,2.3,0.3,3.1c0.4,0.4,0.8,0.6,1.2,0.8c0.3,0.2,0.5,0.3,0.8,0.5
				c0.1,0.1,0.2,0.3,0.2,0.4c0-0.1,0.1-0.2,0.1-0.4c-1.3,0.4-2.6,0.4-3.9,0.6c-1.9,0.3-1.1,3.2,0.8,2.9c2-0.3,5.6,0,6-2.7
				c0.2-1.1-0.4-2.2-1.2-3c-0.4-0.4-1.1-0.9-1.6-1c-0.4-0.1-0.1-0.1,0,0.3c-0.4,0.2-0.4,0.3,0,0.3c0.2,0,0.5,0,0.7,0
				C112,192.4,112,189.4,110.1,189.4L110.1,189.4z"/>
		</g>
	</g>
	<g>
		<g>
			<path d="M89.1,213.2c0.3,1.8,0.9,3.7,1.1,5.5c0.2-0.4,0.5-0.9,0.7-1.3c0,0-0.1,0-0.1,0c0.4-0.1,0.8-0.1,1.2-0.2
				c-0.3-0.1-0.6-0.4-0.9-0.5c-0.6-0.4-1.3-0.7-2.1-0.8c-1.5-0.2-2.6,0.8-2.7,2.3c-0.4,3.9,5.1,3.3,7.5,3c1.9-0.2,1.9-3.2,0-3
				c-1.1,0.1-2.2,0.2-3.3,0.2c-0.3,0-0.9-0.2-1.2,0c-0.6,0.4-0.1,0.6,0.2,0.8c0.7,0.8,1.9,1.1,2.8,0.6c0.4-0.2,0.8-0.8,0.7-1.3
				c-0.2-2.1-0.8-4.2-1.2-6.3C91.7,210.5,88.8,211.3,89.1,213.2L89.1,213.2z"/>
		</g>
	</g>
	<g>
		<g>
			<path d="M98.2,217c0.1-0.4,0.3-0.9,0.6-1.2c0.1-0.1,0.3-0.1,0.3-0.2c0.2-0.1,0.1-0.1-0.3-0.1c0.1,0,0.1,0.1,0.1,0.2
				c0,0.1,0.1,0.4,0.2,0.4c0,0,0,0.1,0,0.1c0.1,0.1,0.2,0,0.2-0.3c0,0.1-0.9,0.4-0.9,0.4c0.3,0,0.5,0,0.8,0c-0.1,0-0.1,0-0.2-0.1
				c0.2,0.1,0.4,0.3,0.7,0.4c0,0-0.1-0.1-0.1-0.1c0.1,0.2,0.3,0.4,0.4,0.7c-0.1-0.3,0-0.1,0,0c0.1-0.1,0.1-0.3,0.1-0.4
				c0.4-1.9-2.5-2.7-2.9-0.8c-0.1,0.6-0.3,1.3-0.1,1.9c0.2,1,1.2,1.5,2.1,1.3c1.5-0.3,3-1.4,2.8-3.1c-0.2-1.7-1.4-3.6-3.3-3.4
				c-1.8,0.2-3.2,1.9-3.6,3.6C94.9,218.1,97.8,218.9,98.2,217L98.2,217z"/>
		</g>
	</g>
	<g>
		<g>
			<path d="M106.2,214.3c1.3-0.5,2.8-2.6,1.4-3.9c-1.4-1.4-3.3,0-3.8,1.5c-0.6,1.4-0.5,3.4,0,4.8c0.7,2,2.8,1.8,4.5,1.6
				c1.9-0.2,1.9-3.2,0-3c-0.5,0.1-1,0.1-1.5,0.1c-0.2,0-0.4,0-0.6,0c0.4,0.1,0.3,0.4,0.2-0.2c-0.1-0.4-0.1-0.9-0.1-1.3
				c0-0.2,0-0.4,0.1-0.6c0.2-0.8,0.3,0.1-0.7-0.4c-0.2-0.3-0.5-0.6-0.7-0.9c0.1-0.2,0.2-0.3,0.3-0.5
				C103.7,212.1,104.4,215,106.2,214.3L106.2,214.3z"/>
		</g>
	</g>
	<g>
		<g>
			<path d="M112,207.7c-0.5,0.1-1,0.1-1.4,0.3c-0.6,0.2-1.1,0.7-1.1,1.4c0,2.1,0.9,3.5,2.8,4.4c0.4,0.2,0.9,0.3,1.3,0.5
				c0.4,0.2,0.5,0.4,0.7,0.1c-0.2,0.4-1.2,0.5-1.7,0.5c-1.9,0.1-1.9,3.1,0,3c1.9-0.1,4.5-0.9,4.6-3.1c0.1-1.1-0.5-2.1-1.4-2.7
				c-0.6-0.4-1.2-0.6-1.9-0.9c-0.9-0.4-1.4-0.7-1.4-1.8c-0.4,0.5-0.7,1-1.1,1.4c0.4-0.2,1-0.2,1.4-0.3
				C114.7,210.2,113.9,207.4,112,207.7L112,207.7z"/>
		</g>
	</g>
	<g>
		<g>
			<path d="M31.4,195.2c-1.6,5-4.3,10.5-4.6,15.7c-0.3,6.9-1,14-0.5,21c0.4,6,5.4,13.7,3.5,19.7c-0.6,1.9-2.7,3-3.1,4.7
				c-0.5,2.3,1.9,2.6,2.6,4.8c0.9,2.6,0.2,7.3-0.2,9.9c-0.4,3.1-1.5,6-2.5,9c-1.9,5.7-1,11.8-1,17.8c0,5.2-0.6,8.9,2,13.4
				c1.2,2.2,2.1,4.8,4,6.7c1.9,1.9,4.5,2.5,6.4,4.4c0.9,0.9,2.3-0.5,1.4-1.4c-1.6-1.6-3.7-2.3-5.4-3.7c-2.3-1.8-4.1-5.5-5.4-8.2
				c-1.4-3.1-1-6-0.9-9.2c0.1-3.5,0.1-7.1,0-10.7c-0.1-6.4,2.6-11.5,3.5-17.7c0.5-3.4,1.3-9.2-0.4-12.3c-0.2-0.4-1.3-1.3-1.4-1.7
				c-0.3-1,0.4-1.3,1.1-2.4c0.9-1.4,1.6-2.9,1.8-4.5c0.7-4.7-2.1-10-3.2-14.6c-1.6-7.2-0.9-15.3-0.3-22.6c0.5-6.1,2.6-11.8,4.5-17.6
				C33.7,194.5,31.8,193.9,31.4,195.2L31.4,195.2z"/>
		</g>
	</g>
	<g>
		<g>
			<path d="M4.7,251.8c0-2.7-0.4-5.7,2.2-7.3c3.9-2.4,6,2.3,6.5,5.3c1,5.7-4.4,7.7-5.5,12.6c-0.3,1.3,1.7,1.8,1.9,0.5
				c0.9-4.1,5.7-6.3,5.9-10.6c0.2-2.8-1.1-8.1-3.6-9.8c-2.2-1.5-5.4-0.5-7.4,1c-2.8,2.1-2.1,5.2-2.1,8.3
				C2.7,253.1,4.7,253.1,4.7,251.8L4.7,251.8z"/>
		</g>
	</g>
	<g>
		<g>
			<path d="M7.9,270c0,0.2,0.1,0.4,0.2,0.6c0,0,0,0.1,0,0.1c0,0.1,0,0.1,0,0c0.1,0,0.1-0.3,0.3-0.4c0.3,0,0.5,0.1,0.8,0.1
				c-0.1-0.1-0.2-0.1-0.2-0.2c0,0-0.1-0.1-0.1-0.1c-0.1-0.1,0.2-0.2-0.1,0.2c0.3-0.4,0.4-1,0-1.4c-0.3-0.3-1.1-0.4-1.4,0
				c-0.5,0.6-0.6,1.3-0.2,2.1c0.3,0.5,0.8,1.1,1.4,1.2c0.7,0.1,1.4-0.5,1.5-1.2c0.1-0.6-0.1-1.1-0.3-1.6
				C9.6,268.2,7.6,268.7,7.9,270L7.9,270z"/>
		</g>
	</g>
	<g>
		<g>
			<path d="M51.5,196.8c0,3.8,0.3,7.6,1.2,11.3c0.5,1.9,3.4,1.1,2.9-0.8c-0.8-3.4-1.1-7-1.1-10.5C54.5,194.8,51.5,194.8,51.5,196.8
				L51.5,196.8z"/>
		</g>
	</g>
</g>
<g>
	<g>
		<g>
			<path d="M216.6,317.4c1.4-2.2,5.2-9.4,0.8-10.8c-4.3-1.4-8.2,7.8-9.2,10.4c-0.9,2.5-4.2,12-0.8,13.6c4.9,2.4,7.9-6.6,9.3-9.4
				c0.5-0.9-0.9-1.7-1.4-0.8c-1.1,2.2-2.2,5.6-4,7.4c-5.4,5.4-2.9-5.6-2.4-7.4c0.9-3.7,2.5-7,4.9-10c1.2-1.5,3.7-3,3.9,0.8
				c0.1,1.8-1.4,4-2.3,5.5C214.7,317.4,216,318.2,216.6,317.4L216.6,317.4z"/>
		</g>
	</g>
	<g>
		<g>
			<path d="M220,312.6c-0.4,2.4-1.6,4.5-2.3,6.8c-0.6,2-0.9,4-1.3,6c-0.2,1,1.1,1.3,1.5,0.4c0.5-1.3,1.8-4.7,3-5.5
				c-0.4-0.2-0.8-0.3-1.1-0.5c0.3,1.8-0.6,3.4-0.5,5.2c0,0.3,0.2,0.7,0.6,0.8c1.8,0.5,3.3-0.3,4.8-1c0.9-0.4,0.1-1.8-0.8-1.4
				c-1.1,0.5-2.3,1.3-3.6,0.9c0.2,0.3,0.4,0.5,0.6,0.8c-0.1-1.9,0.8-3.6,0.5-5.6c-0.1-0.5-0.8-0.7-1.1-0.5c-1.8,1.2-2.9,4.5-3.7,6.5
				c0.5,0.1,1,0.3,1.5,0.4c0.4-2,0.7-4,1.3-6c0.7-2.3,1.9-4.5,2.3-6.8C221.7,312,220.2,311.6,220,312.6L220,312.6z"/>
		</g>
	</g>
	<g>
		<g>
			<path d="M222.9,320c0,0-0.1,3.2,0,4.9c0,0.9,1.2,0.9,1.5,0.1c0.3-0.7,0.4-2.1,0.9-2.6c0.8-0.8,1.6-0.5,2.6-0.3c0-0.5,0-1,0-1.5
				c-1,0.3-5.2,2.7-3.3,4.4c2.4,2.2,7.1-2.7,8.5-4c0.7-0.6-0.1-1.6-0.9-1.2c-0.7,0.4-1.5,0.7-2.2,1.2c-0.7,0.5-0.4,1.4,0.4,1.5
				c0.8,0.1,2.5-0.2,3.3,0.2c0.9,0.5,0.4,0.7-0.2,1.4c-0.4,0.5-0.9,0.9-1.4,1.3c-1.7,1.6-3.7,2.9-5.7,4.2c-0.9,0.5-0.1,1.9,0.8,1.4
				c2.9-1.7,7.3-4.2,8.7-7.5c1.3-3-3.8-2.4-5.4-2.6c0.1,0.5,0.3,1,0.4,1.5c0.7-0.5,1.4-0.9,2.2-1.2c-0.3-0.4-0.6-0.8-0.9-1.2
				c-1,1-2.1,1.9-3.3,2.7c-0.6,0.4-1.4,1.3-2.2,1.2c-1.2-0.1,1.5-1.6,2-1.7c0.8-0.1,0.7-1.4,0-1.5c-1.1-0.2-2.6-0.8-3.6-0.2
				c-1.2,0.8-1.7,2.9-2.1,4.1c0.5,0.1,1,0.3,1.5,0.4c-0.1-1.7,0-3.9,0-4.9C224.5,319,222.9,319,222.9,320
				C222.9,320,222.9,319,222.9,320z"/>
		</g>
	</g>
	<g>
		<g>
			<path d="M232.3,305c0,12.6-0.2,25.1-0.2,37.7c0,1,1.6,1,1.6,0c0-12.6,0.3-25.1,0.2-37.7C233.9,304,232.3,304,232.3,305L232.3,305
				z"/>
		</g>
	</g>
	<g>
		<g>
			<path d="M217.5,307.3c4.4-0.3,9.1-1.6,13.3,0c2,0.7,3.8,1.8,5.6,2.9c1.8,1.1,2,0.7,1.5,3.2c-0.6,2.5-1,2.3-3.2,3.3
				c-9.1,4.1-17.7,9-26.2,14.1c-0.9,0.5-0.1,1.9,0.8,1.4c6.5-3.9,13.1-7.8,19.9-11.2c3-1.5,11.7-3.5,12.3-7.6
				c0.5-3.4-6.4-5.9-8.8-6.9c-5.1-2.3-9.8-0.9-15.1-0.6C216.5,305.8,216.5,307.4,217.5,307.3L217.5,307.3z"/>
		</g>
	</g>
	<g>
		<g>
			<path d="M239.2,321c-0.4-0.4-0.6-0.5-1.2-0.7c-0.4-0.1-0.8,0.1-1,0.5c-0.3,0.9-0.5,1.9-0.3,2.9c0.1,0.6,0.6,0.9,1.2,0.7
				c1.8-0.8,2.9-0.3,4.5-1.5c-0.4-0.2-0.8-0.3-1.1-0.5c0,0.1,0.1,0.3,0.1,0.4c0.2,0.8,1.6,0.7,1.5-0.2c0.1-0.3,0.1-0.7,0.2-1
				c-0.5-0.1-1-0.1-1.4-0.2c0.3,0.7,0.2,1.5,0.4,2.2c0.2,0.9,1.5,0.6,1.5-0.2c0.6-6.5-0.3-13.2,0.3-19.7c0.1-1-1.5-1-1.6,0
				c-0.6,6.6,0.3,13.2-0.3,19.7c0.5-0.1,1-0.1,1.5-0.2c-0.2-0.8-0.1-1.5-0.4-2.2c-0.2-0.6-1.1-0.8-1.4-0.2c-0.4,0.8-0.5,0.9-0.4,1.8
				c0.5-0.1,1-0.1,1.5-0.2c0-0.1-0.1-0.3-0.1-0.4c-0.1-0.5-0.7-0.8-1.1-0.5c-1.2,0.9-3.1,0.8-4.5,1.5c0.4,0.2,0.8,0.5,1.2,0.7
				c-0.2-1.6,0.3-1.1-0.2-1.7C238.8,322.8,239.9,321.7,239.2,321L239.2,321z"/>
		</g>
	</g>
	<g>
		<g>
			<path d="M245.8,317.8c0,1,0,2,0,3c0,0.9,1.2,1,1.5,0.2c1.6-4.1,2.7-1.9,5.1-1.1c2.4,0.9,5,1.1,7.5,1c6-0.1,11.7-1.3,17.4-3.1
				c1-0.3,0.6-1.8-0.4-1.5c-9.3,2.8-19,4.9-27.7-0.1c-0.2-0.1-0.6-0.2-0.8,0c-1.4,1-2.1,2.6-2.7,4.2c0.5,0.1,1,0.1,1.5,0.2
				c0-1,0-2,0-3C247.4,316.8,245.8,316.8,245.8,317.8L245.8,317.8z"/>
		</g>
	</g>
	<g>
		<g>
			<path d="M260.1,315.8c0,0.6-0.1,1.1,0.3,1.6c0.3,0.4,0.8,0.7,1.2,1c0.9,0.5,1.7-0.8,0.8-1.4c-0.2-0.1-0.5-0.3-0.7-0.5
				c-0.2-0.2-0.1-0.5-0.1-0.8C261.7,314.8,260.1,314.8,260.1,315.8L260.1,315.8z"/>
		</g>
	</g>
	<g>
		<g>
			<path d="M247,314.1c1,0,1-1.6,0-1.6C246,312.5,246,314.1,247,314.1L247,314.1z"/>
		</g>
	</g>
	<g>
		<g>
			<path d="M259.9,309.6c1,0,1-1.6,0-1.6C258.9,308.1,258.9,309.6,259.9,309.6L259.9,309.6z"/>
		</g>
	</g>
</g>
</svg>
