<?xml version="1.0" encoding="utf-8"?>
<!-- Generator: Adobe Illustrator 19.1.0, SVG Export Plug-In . SVG Version: 6.00 Build 0)  -->
<!DOCTYPE svg PUBLIC "-//W3C//DTD SVG 1.1//EN" "http://www.w3.org/Graphics/SVG/1.1/DTD/svg11.dtd">
<svg version="1.1" id="Layer_1" xmlns="http://www.w3.org/2000/svg" xmlns:xlink="http://www.w3.org/1999/xlink" x="0px" y="0px"
	 viewBox="0 0 900 300" style="enable-background:new 0 0 900 300;" xml:space="preserve">
<g>
	<g>
		<path d="M204.7,41.8c3.1,60.6,4.4,121.3,9.4,181.7c0.9,10.6,7.4,19.4,18.4,20.9c11,1.5,19.6-5.2,23.3-15.2c0.7-1.7,1.4-3.5,2-5.2
			c0.8-2.3-0.5,1.4-0.6,1.4c0.3-0.1,0.8-1.8,0.9-2.1c1.5-3.3,3.1-6.5,4.8-9.6c0.7-1.2,5.7-7.4,5.4-8.3c0,0.1-2.6,3.1-1,1.3
			c0.7-0.8,1.3-1.6,2-2.3c1.2-1.4,2.5-2.7,3.8-4c0.6-0.6,4.4-4,3-2.8c-1.7,1.4,0.6-0.4,0.9-0.6c0.8-0.5,1.5-1,2.3-1.4
			c0.7-0.4,1.5-0.8,2.3-1.3c4.2-2.4-0.6,0.4-0.6,0.1c0-0.5,4.7-1.3,5.3-1.5c2.2-0.7-1.6,0.3-1.9,0.2c0.5,0.2,2.3-0.2,3-0.2
			c1.5,0,3,0,4.5,0.1c0.6,0,3.2,0.1,0.2,0c-3.2-0.2,0,0.1,0.9,0.3c1.8,0.4,3.5,0.9,5.2,1.4c1,0.3,5.9,2.2,3.3,1.1
			c-2.6-1.1,1.8,0.9,2.6,1.3c3.4,1.7,6.7,3.5,10,5.5c6.2,3.7,12.3,7.7,18.4,11.7c11.7,7.8,22.8,16.5,34.9,23.7
			c16.3,9.9,33.9,16.4,53,17.6c11.1,0.7,21.8-10.3,21.3-21.3c-0.5-12.1-9.4-20.5-21.3-21.3c-1.1-0.1-6.5-0.4-3.5-0.3
			c3.2,0.2-2.4-0.6-3.3-0.8c-3.8-0.9-7.4-2.2-11.1-3.5c-2.8-1,3.5,1.6,0.8,0.4c-0.7-0.3-1.4-0.6-2.1-1c-1.6-0.8-3.3-1.6-4.9-2.4
			c-3.5-1.8-6.8-3.8-10.2-5.9c-12.8-8-24.8-17.3-37.4-25.5c-13.9-9-28.7-18.6-45.1-22.1c-21.6-4.6-41.5,1.4-58,15.9
			c-15.1,13.2-23.8,31.3-30.7,49.8c13.9,1.9,27.9,3.8,41.8,5.7c-5-60.5-6.3-121.2-9.4-181.7c-0.6-11.1-9.4-21.8-21.3-21.3
			C215,21,204.1,29.9,204.7,41.8L204.7,41.8z"/>
	</g>
</g>
<g>
	<g>
		<path d="M580,63c1.2-0.1,2.4-0.1,3.6-0.2c2.9,0.1,5.7-0.5,8.2-1.8c2.6-0.9,4.9-2.3,6.8-4.4c2.1-1.9,3.5-4.2,4.4-6.8
			c1.3-2.5,1.9-5.3,1.8-8.2c-0.3-1.9-0.5-3.8-0.8-5.7c-1-3.6-2.8-6.7-5.5-9.4c-1.4-1.1-2.9-2.2-4.3-3.3c-3.3-1.9-6.9-2.9-10.7-2.9
			c-1.2,0.1-2.4,0.1-3.6,0.2c-2.9-0.1-5.7,0.5-8.2,1.8c-2.6,0.9-4.9,2.3-6.8,4.4c-2.1,1.9-3.5,4.2-4.4,6.8c-1.3,2.5-1.9,5.3-1.8,8.2
			c0.3,1.9,0.5,3.8,0.8,5.7c1,3.6,2.8,6.7,5.5,9.4c1.4,1.1,2.9,2.2,4.3,3.3C572.6,62,576.2,62.9,580,63L580,63z"/>
	</g>
</g>
<g>
	<g>
		<path d="M629.8,125.3c-6.3,15.1,3.9,34.5,15.7,43.9c1.4,1.1,2.9,2.2,4.3,3.3c1.9,1.4,1.8,1.4-0.2-0.2c1.3,0.8,2.7,2.2,3.9,3.2
			c2.5,2.2,5,4.4,7.3,6.7c2.4,2.3,4.6,4.7,6.8,7.2c1.1,1.2,2.2,2.5,3.2,3.8c0.7,0.9,1.4,1.7,2.1,2.6c-1.4-1.9-1.7-2.2-0.8-1
			c4.4,6,8.5,12,11.9,18.6c0.8,1.6,1.6,3.1,2.3,4.7c0.5,1,2.6,5.8,0.7,1.3c1.4,3.2,2.6,6.4,3.7,9.7c5.4,14.9,10.2,30,16.6,44.5
			c4.5,10.2,20.2,13.4,29.1,7.6c10.6-6.8,12.4-18.2,7.6-29.1c-2-4.6,1,2.7-0.6-1.5c-0.6-1.7-1.3-3.3-1.9-5c-1.2-3.3-2.4-6.6-3.5-9.9
			c-2.1-6-4-12-6.2-18c-5.2-14.2-11.2-28.1-20-40.4c-8.1-11.4-17.1-22.3-27.8-31.4c-3.3-2.8-6.7-5.5-10.2-8.1
			c-4.2-3.2,2.4,2.6-0.3-0.3c-0.6-0.6-2-2.4-2.7-2.8c1.7,2.3,2.1,2.9,1.2,1.6c-0.4-0.6-0.8-1.2-1.2-1.8c-0.2-0.4-0.5-0.8-0.7-1.2
			c-1-2.1-0.9-1.6,0.5,1.4c-0.4,0.4-0.2-5.8-0.4-0.9c-0.1,2.2-1.4,7,0.4,2.8c2-4.7,0.3-12.2-2.1-16.4c-2.6-4.4-7.6-8.6-12.7-9.8
			C643.5,107.6,634.4,114.3,629.8,125.3L629.8,125.3z"/>
	</g>
</g>
<g>
	<g>
		<path d="M438.8,245.2c4.8-10.3,9.9-20.5,14.2-31c2-5,3.7-10.1,5.2-15.2c1.5-5.1,3.6-10.5,4.4-15.8c0.4-1.4,0.3-1.2-0.3,0.4
			c-0.3,1-0.8,1.8-1.5,2.5c-2.3,3.4,1.8-1.4-1.3,1.3c-3.2,2.8,2.3-0.7-1.6,1c-3.1,1.4-0.4,0.3,0.4,0.1c4.1-0.8,8.2-1.4,12.3-2.4
			c4.7-1.1,9.5-2,14.1-3.3c3.6-1,7.3-2.5,10.6-4.3c0.8-0.4,1.9-0.9,2.6-1.5c1.7-1.4-4.4,1.1-0.3,0.3c11-2.1,18.2-15.8,14.9-26.2
			c-3.8-11.7-14.4-17.1-26.2-14.9c-3.4,0.7-6.8,2.3-9.9,4c-0.9,0.5-2.2,1.8-3.3,1.9c1.7-0.2,2.8-0.9,0.2-0.4
			c-5.3,1.1-10.6,2.6-15.9,3.7c-4.1,0.9-8.3,1.2-12.3,2.5c-7.2,2.4-13.2,6.2-17.8,12.2c-7.6,9.8-8.8,24.2-12.7,35.7
			c-0.9,2.6-1.9,5.2-2.9,7.8c0.8-1.9,0.8-1.8,0,0c-0.6,1.4-1.3,2.8-1.9,4.2c-2.5,5.3-5.1,10.5-7.6,15.8c-4.7,10.1-3.2,23.4,7.6,29.1
			C419.1,257.8,433.8,256,438.8,245.2L438.8,245.2z"/>
	</g>
</g>
<g>
	<g>
		<path d="M545.8,155.6c1.4,28.8,1.5,63.7,23.6,85.5c7.9,7.8,22.3,8.5,30.1,0c7.8-8.4,8.5-21.7,0-30.1c-0.1-0.1-3.7-3.8-1.5-1.4
			c2,2.3-0.7-1.1-1-1.7c-0.7-1.1-1.2-2.3-1.8-3.5c-1.4-2.5,1.6,4.7,0-0.1c-1.6-5.1-3.1-10.2-4.2-15.4c-0.3-1.6-0.5-3.1-0.8-4.7
			c0.4,2,0.2,2.1,0,0c-0.3-3.2-0.6-6.3-0.8-9.5c-0.4-6.4-0.6-12.7-0.9-19.1c-0.6-11.1-9.4-21.8-21.3-21.3
			C556,134.9,545.2,143.7,545.8,155.6L545.8,155.6z"/>
	</g>
</g>
<g>
	<g>
		<path d="M147.5,90.5c-21.5-4.3-45-9.2-66.4-2c-23.4,7.9-40.4,27.1-48.9,49.8c-8.6,22.8-4.7,47.1,5.4,68.6
			c10.1,21.4,24.9,38.9,47.1,47.9c23.8,9.6,51.3,7.9,76.4,6.8c11.1-0.5,21.8-9.4,21.3-21.3c-0.5-11.1-9.4-21.8-21.3-21.3
			c-9.8,0.4-19.5,0.9-29.3,0.7c-4.9-0.1-9.8-0.3-14.7-0.8c-1.2-0.1-2.5-0.2-3.6-0.4c0.8,0.2,4.4,0.7,0.2,0c-2.5-0.5-5-0.9-7.5-1.5
			c-1.6-0.4-3.3-0.9-4.9-1.4c-0.9-0.3-1.8-0.6-2.7-0.9c-3.5-1.2,0.8,0.2,1.2,0.6c-1.3-1.1-3.4-1.6-4.8-2.5c-0.8-0.5-1.5-0.9-2.3-1.4
			c-0.4-0.2-0.7-0.5-1.1-0.7c-1.5-1.1-1.5-1,0,0.1c0.4,0.3,0.7,0.6,1.1,0.8c-0.5-0.4-1-0.9-1.6-1.3c-0.7-0.6-1.4-1.2-2-1.9
			c-1.3-1.3-2.5-2.7-3.8-4.1c-1.6-1.6,1.1,1.4,1.1,1.5c-0.3-0.7-1.2-1.7-1.7-2.4c-1.6-2.3-3.1-4.8-4.5-7.2
			c-2.3-3.8-4.1-7.8-6.2-11.7c-1.5-2.8,1.1,3.2,0.1,0.2c-0.4-1.1-0.8-2.2-1.2-3.3c-0.9-2.5-1.6-5-2.2-7.6c-0.1-0.5-0.8-3.3-0.7-3.4
			c0,0,0.4,5.2,0.1,0.9c-0.1-1.7-0.2-3.5-0.2-5.2c0-2,0.2-3.9,0.3-5.9c0.1-3-0.8,4.2-0.2,1.3c0.3-1.2,0.4-2.4,0.7-3.6
			c0.4-1.9,1-3.8,1.6-5.7c0.2-0.5,1.1-2.4,1-2.8c0.1,0.4-2.2,4.6-0.4,1c1.8-3.6,3.7-6.9,5.9-10.2c2.2-3.3-0.3,0.7-0.6,0.8
			c0.3,0,1.6-1.9,1.9-2.2c1.3-1.5,2.7-2.9,4.2-4.2c0.3-0.3,2.3-1.8,2.3-2c0,0.3-4.2,2.9-0.7,0.6c2-1.3,4-2.4,6-3.6
			c2-1.3-1.3,0.7-1.5,0.6c0.2,0.1,4.1-1.4,4.4-1.5c1-0.3,2-0.5,3-0.8c0.7-0.2,5.1-0.8,1.8-0.4c-3,0.4-0.3,0.1,0.3,0
			c1.6-0.1,3.1-0.2,4.7-0.2c2.4-0.1,4.8,0,7.1,0.1c0.7,0,6.7,1.1,7.2,0.6c-0.2,0.2-5.3-0.8-0.9-0.1c1.3,0.2,2.6,0.4,3.9,0.6
			c4.9,0.8,9.7,1.8,14.5,2.8c10.9,2.2,23.5-3.1,26.2-14.9C164.8,106.1,159.2,92.8,147.5,90.5L147.5,90.5z"/>
	</g>
</g>
</svg>
