<?xml version="1.0" encoding="utf-8"?>
<!-- Generator: Adobe Illustrator 21.0.0, SVG Export Plug-In . SVG Version: 6.00 Build 0)  -->
<!DOCTYPE svg PUBLIC "-//W3C//DTD SVG 1.1//EN" "http://www.w3.org/Graphics/SVG/1.1/DTD/svg11.dtd">
<svg version="1.1" id="Layer_1" xmlns="http://www.w3.org/2000/svg" xmlns:xlink="http://www.w3.org/1999/xlink" x="0px" y="0px"
	 viewBox="0 0 24.4 31.4" style="enable-background:new 0 0 24.4 31.4;" xml:space="preserve">
<style type="text/css">
	.st0{fill:#FFFFFF;}
	.st1{clip-path:url(#SVGID_2_);}
	.st2{clip-path:url(#SVGID_4_);}
	.st3{clip-path:url(#SVGID_6_);}
	.st4{clip-path:url(#SVGID_8_);}
	.st5{clip-path:url(#SVGID_10_);}
	.st6{clip-path:url(#SVGID_12_);}
	.st7{clip-path:url(#SVGID_14_);}
	.st8{clip-path:url(#SVGID_16_);}
	.st9{clip-path:url(#SVGID_18_);}
	.st10{clip-path:url(#SVGID_20_);}
	.st11{clip-path:url(#SVGID_22_);}
	.st12{clip-path:url(#SVGID_24_);}
	.st13{clip-path:url(#SVGID_26_);}
	.st14{clip-path:url(#SVGID_28_);}
	.st15{clip-path:url(#SVGID_30_);}
	.st16{clip-path:url(#SVGID_32_);}
	.st17{clip-path:url(#SVGID_34_);}
	.st18{clip-path:url(#SVGID_36_);}
	.st19{clip-path:url(#SVGID_38_);}
	.st20{clip-path:url(#SVGID_40_);}
	.st21{clip-path:url(#SVGID_42_);}
	.st22{clip-path:url(#SVGID_44_);}
	.st23{clip-path:url(#SVGID_46_);}
	.st24{clip-path:url(#SVGID_48_);}
	.st25{clip-path:url(#SVGID_50_);}
	.st26{clip-path:url(#SVGID_52_);}
	.st27{clip-path:url(#SVGID_54_);}
	.st28{clip-path:url(#SVGID_56_);}
	.st29{clip-path:url(#SVGID_58_);}
	.st30{clip-path:url(#SVGID_60_);}
	.st31{clip-path:url(#SVGID_62_);}
	.st32{clip-path:url(#SVGID_64_);}
	.st33{clip-path:url(#SVGID_66_);}
	.st34{clip-path:url(#SVGID_68_);}
	.st35{clip-path:url(#SVGID_70_);}
	.st36{clip-path:url(#SVGID_72_);}
	.st37{clip-path:url(#SVGID_74_);}
	.st38{clip-path:url(#SVGID_76_);}
	.st39{clip-path:url(#SVGID_78_);}
	.st40{clip-path:url(#SVGID_80_);}
	.st41{clip-path:url(#SVGID_82_);}
	.st42{clip-path:url(#SVGID_84_);}
	.st43{clip-path:url(#SVGID_86_);}
	.st44{clip-path:url(#SVGID_88_);}
	.st45{clip-path:url(#SVGID_90_);}
	.st46{clip-path:url(#SVGID_92_);}
	.st47{clip-path:url(#SVGID_94_);}
	.st48{clip-path:url(#SVGID_96_);}
	.st49{clip-path:url(#SVGID_98_);}
	.st50{clip-path:url(#SVGID_100_);}
	.st51{clip-path:url(#SVGID_102_);}
	.st52{clip-path:url(#SVGID_104_);}
	.st53{clip-path:url(#SVGID_106_);}
	.st54{clip-path:url(#SVGID_108_);}
	.st55{clip-path:url(#SVGID_110_);}
</style>
<g>
	<g>
		<path class="st0" d="M7.9,23.8c1.9,0,3.7,0.1,5.6-0.1s2-3.1,0-3c-1.3,0.1-2.7,0.4-4,0.4c-1.9-0.1-2.2-0.2-2.6-2
			c-0.3-1.4-2.7-1.5-2.9,0c-0.2,1.6,0.6,3.2,1,4.7c0.6,1.9,1,1.7,2.6,2.7c0-0.9,0-1.7,0-2.6H7.5c-1.4,0.4-1.4,2.5,0,2.9
			C8.1,27,8.6,27,9.2,27.1c-0.3-0.6-0.7-1.2-1-1.8c0,0,0,0,0,0.1c-0.7,0.8-0.5,2.3,0.7,2.5c0.3,0.1,0.7,0.1,1,0.2
			c-0.1-0.9-0.2-1.8-0.4-2.7c-0.6,0.3-1.2,0.3-1.8,0.6c-0.9,0.5-1,2.1,0,2.6c0.6,0.2,1.4,0.4,1.9,0.7c-0.1-0.8-0.2-1.6-0.3-2.4
			c-0.3,0.2-0.6,0.4-0.8,0.7c-0.6,0.5-0.6,1.6,0,2.1c1.6,1.4,5.2,1.2,7,0.1c0.6-0.4,0.9-1,0.7-1.7c-0.5-1.9-3.2-2.5-4.8-2.9
			c-0.1,1-0.3,2-0.4,2.9c2.1-0.1,4.2,1,6.3,0.2c0.5-0.2,0.8-0.8,0.7-1.3c0-0.2,0-0.5-0.1-0.7c-0.1,0.5-0.3,1-0.4,1.5
			c0.4-0.4,0.9-0.5,1.3-0.9c0.6-0.6,0.5-1.5,0-2.1c-0.3-0.3-0.5-0.5-0.9-0.7c0.2,0.4,0.5,0.9,0.7,1.3c-0.1,0.8,0.9-0.5,1-0.9
			c0.1-0.7-0.2-1.1-0.6-1.6c0.1,0.5,0.3,1,0.4,1.5c0.1-0.5,0.5-0.8,0.7-1.3s0-1.1-0.4-1.5c-0.1-0.1-0.1-0.1-0.2-0.2
			c-0.5-0.5-1.2-0.6-1.8-0.2c-0.7,0.3-1.2,0.9-1.7,1.5c-0.5,0.5-0.9,1.1-1.5,1.3c-1,0.4-1.5-0.1-2.6-0.6c0.1,0.8,0.2,1.6,0.3,2.4
			c1-0.9,2.3-0.7,2.8-2.1c0.8-2.5-1.3-4.3,0.7-6.7c-0.8-0.1-1.6-0.2-2.4-0.3c0.1,0.4,0.2,0.8,0.3,1.2c0.6-0.6,1.2-1.2,1.8-1.8
			c0.5,0.2-1.2-0.7-1.6-0.8c-1.5-0.5-2.3-0.8-3.2-2.1c-1.1-1.5-3.7,0-2.6,1.5c0.7,1,1.3,2.2,2.4,2.9c1.1,0.6,2.9,1,4.2,1.5
			c1.2,0.4,2-0.8,1.8-1.8c-0.2-0.9-0.3-1.2-0.7-2c-0.4-0.8-1.8-1-2.4-0.3c-1.2,1.5-2.1,2.9-1.9,4.9c0,0.6,0.9,2.4,0.8,2.7
			c-0.1,0.3-1.9,0.9-2.3,1.3c-0.7,0.6-0.5,1.9,0.3,2.4c1.6,0.8,3.2,2,5,1.2c1.6-0.7,2.3-2.6,3.8-3.4c-0.6-0.1-1.2-0.2-1.8-0.2
			c0.1,0.1,0.1,0.1,0.2,0.2c-0.1-0.5-0.3-1-0.4-1.5c-0.2,0.5-0.7,0.8-0.7,1.5c0,0.5,0.1,1.9,0.2,0.7c0.2-0.4,0.5-0.9,0.7-1.3
			c-1,0.6-1.6,1-1.7,2.2c0,0.5,0.3,1.1,0.7,1.3c0.1,0.1,0.2,0.1,0.2,0.2c0-0.7,0-1.4,0-2.1c-0.4,0.3-0.9,0.5-1.3,0.9
			c-0.4,0.4-0.6,1-0.4,1.5v-0.1c0.2-0.4,0.5-0.9,0.7-1.3c0.6-0.3-1.2-0.2-1.7-0.3c-1.1-0.2-2-0.3-3.1-0.3c-1.7,0.1-2.1,2.5-0.4,2.9
			c0.4,0.1,0.8,0.2,1.2,0.3c0.8,0.3,1.8,1.6,1.6,0.5c0.2-0.6,0.5-1.1,0.7-1.7c-0.5,0.3-3,0.7-3.4,0.4c0,0.7,0,1.4,0,2.1
			c0.3-0.2,0.5-0.5,0.8-0.7c0.8-0.6,0.4-1.9-0.3-2.4c-0.5-0.4-1.3-0.5-1.9-0.7c0,0.9,0,1.7,0,2.6c0.5-0.3,1.3-0.3,1.8-0.6
			c1.1-0.5,0.9-2.5-0.4-2.7c-0.3-0.1-0.7-0.1-1-0.2c0.2,0.8,0.4,1.7,0.7,2.5c0.4-0.5,0.6-0.8,0.8-1.4c0.2-0.7-0.3-1.7-1-1.8
			c-0.6-0.1-1.1-0.2-1.7-0.3c0,1,0,1.9,0,2.9c0.3-0.1,0.6-0.2,0.8-0.3c1-0.5,0.9-2,0-2.6c-1-0.6-0.7-0.1-1.3-1.3
			c-0.2-0.4-0.3-1-0.4-1.4c-0.1-0.3-0.4-2-0.5-1.4c-1,0-1.9,0-2.9,0c0.3,1.4,0.6,3.2,2,3.9c2,1.1,5.3,0,7.5-0.1c0-1,0-2,0-3
			c-1.9,0.2-3.7,0.1-5.6,0.1C5.9,20.8,5.9,23.8,7.9,23.8L7.9,23.8z"/>
	</g>
</g>
<g>
	<g>
		<path class="st0" d="M4.7,22.1c-0.2,0.9-0.1,1.8,0.1,2.7c0.1,0.7,0.4,1.6,0.8,2.2c0.5,0.6,1,0.8,1.7,0.7c0.1,0,0.2,0,0.2,0
			c-0.5-0.1-1-0.3-1.5-0.4c0.4,0.4,0.8,0.8,1.2,1.1c0.3,0.3,0,0,0.1,0.2c0.3,0.4,0.6,0.8,1.1,1c1.7,0.9,3.2-1.7,1.5-2.6
			c-0.2-0.1-0.3-0.4-0.5-0.6c-0.2-0.3-0.5-0.5-0.8-0.8c-0.7-0.7-1.2-1-2.2-0.9c0.6,0.2,1.1,0.5,1.7,0.7c-0.4-0.5-0.7-1.8-0.5-2.5
			C8,21,5.1,20.2,4.7,22.1L4.7,22.1z"/>
	</g>
</g>
<g>
	<g>
		<path class="st0" d="M19.8,6.6c0,0.8-0.9,1.4-1,2.2c-0.2,1.1,0.7,2.2,1.8,1.8c0.8-0.2,1.3-0.7,2-1.1c-0.7-0.7-1.4-1.4-2.1-2.1
			c-0.3,0.6-0.8,1.2-1,2c-0.3,0.8-0.3,1.7-0.3,2.6c0,1.9,3,1.9,3,0c0-0.6,0-1.2,0.2-1.7s0.5-0.8,0.8-1.3c0.7-1.4-0.7-2.7-2.1-2.1
			c-0.4,0.2-0.8,0.6-1.3,0.8C20.4,8.4,21,9,21.6,9.6c0.1-0.5,0.5-0.9,0.8-1.3c0.3-0.5,0.4-1.1,0.4-1.7C22.8,4.6,19.8,4.6,19.8,6.6
			L19.8,6.6z"/>
	</g>
</g>
<g>
	<g>
		<path class="st0" d="M10.5,13.7c1.6-0.2,3.2,0,4.8-0.1c1.2-0.1,2.4-0.3,3.6-0.1c-0.3-0.9-0.5-1.9-0.8-2.8c-3.7,2.4-9,2.9-13.2,3.5
			c-1.8,0.3-1.2,2.8,0.4,2.9c2.6,0.2,5,0.2,7.6,0.9c-0.1-0.9-0.2-1.8-0.4-2.7c-1.6,1.2-8.4-0.5-6.3,3.4c1.4,2.5,3.6,3.2,6.3,2.3
			c2-0.7,5.2-0.6,6.2-2.9c0.9-2.3-1.2-3.4-2.8-4.4c-0.3,0.9-0.5,1.9-0.8,2.8c2.1-0.1,1.6,0.5,1.2,2.2c-0.1,0.5-0.4,1.3-0.2,1.8
			c0.3,1,0.9,1.1,1.7,1.6c-0.1-0.8-0.2-1.6-0.3-2.4c-0.1,0.1-0.2,0.1-0.4,0.2c0.8,0.4,1.5,0.9,2.3,1.3c-0.1,0.7,0.8-1.3,0.9-1.7
			c-1-0.1-2-0.3-2.9-0.4c0,1,0.5,2.5-0.6,0.7c-0.6-1-0.5-1.1-0.8-2.1c-0.2-0.7-1.1-1.4-1.8-1c-1.4,0.6-2.9,1.5-4.3,2.3
			c-1.3,0.7-0.7,2.8,0.8,2.8c1,0,2.1-0.2,3.1-0.3c0.5-0.1,2.5-0.2,2-0.3c-0.1-0.9-0.2-1.8-0.4-2.7c-1.6,1-3.5,1.6-5.1,2.5
			c-1.7,1-0.2,3.6,1.5,2.6s3.5-1.6,5.1-2.5c1-0.6,1-2.5-0.4-2.7c-1.9-0.3-4,0.5-5.9,0.5c0.3,0.9,0.5,1.9,0.8,2.8
			c1.1-0.6,2.5-1.5,3.6-2c-0.6-0.3-1.2-0.7-1.8-1c0.7,2.4,1,4.8,4.2,5c3,0.2,3.1-2.1,3.2-4.4c0-1.7-2.6-2.1-2.9-0.4
			c-0.2,0.9-0.8,1.5-1,2.4c-0.2,1.3,1.4,1.7,2.3,1.3c0.4-0.2,0.6-0.4,1-0.6c0.8-0.6,0.5-1.9-0.3-2.4c-0.3-0.2-0.7-0.3-1-0.5
			c0.2,0.4,0.5,0.9,0.7,1.3c0-1.8,1.4-3.6,0.4-5.3c-0.9-1.5-2.9-1.6-4.4-1.5s-2,2-0.8,2.8c0.3,0.2,0.6,0.4,0.8,0.5
			c0.4,0.4,0.7,0.4,0.9-0.2c-0.5,0.7-0.5,0.8,0.2,0.4c-0.1,0-0.3,0-0.4,0.1c-0.8,0.3-1.7,0.2-2.6,0.5c-0.7,0.2-1.6,0.9-2.4,0.9
			C8.3,18.5,9,16,7.6,14.9c-0.8-0.6-2-0.6-2.7,0.1c-2.1,2,0.4,3.7,2.4,3.8c1.5,0.1,5.4,0,6.8-1.1c1-0.7,1-2.4-0.4-2.7
			c-2.9-0.8-5.4-0.8-8.3-1c0.1,1,0.3,2,0.4,2.9c4.6-0.7,10-1.2,13.9-3.8c1.3-0.9,0.7-2.6-0.8-2.8c-1.2-0.1-2.4,0.1-3.6,0.1
			c-1.6,0.1-3.2-0.1-4.8,0.1C8.6,10.9,8.5,13.9,10.5,13.7L10.5,13.7z"/>
	</g>
</g>
<g>
	<g>
		<path class="st0" d="M7.1,14.4c3.5,0,7.1-0.1,10.6-0.2c-0.1-1-0.3-2-0.4-2.9c-3.2,0.6-6.9,0.7-10,1.7c-1.3,0.4-1.6,2.6,0,2.9
			c3.3,0.6,6.8,0.5,10.2,0.6c-0.1-1-0.3-2-0.4-2.9c-4,1.5-8.5,2.7-12.3,4.8c-0.9,0.5-1.1,2.1,0,2.6c4,1.7,9-1.4,13.1,0
			c0-1,0-1.9,0-2.9c-3.7,1.6-7.8,2.2-11.4,4.1c-1.2,0.6-0.8,2.4,0.4,2.7c1.1,0.3,2.5,0.2,3.7,0.2c2.4,0,4.9,0.2,7.2,0
			c-0.1-1-0.3-2-0.4-2.9c-3.1,0.6-6,1.9-8.9,3.3C7,25.9,8,27.8,9.2,28c1.8,0.2,3.6,0.1,5.4,0.1c-0.3-0.9-0.5-1.9-0.8-2.8
			c-0.9,0.4-1.8,0.8-2.7,1c-1.1,0.3-1.4,1.7-0.7,2.5c0.4,0.5,0.9,0.5,1.4,0.8c1.7,0.9,3.2-1.7,1.5-2.6c-0.2-0.1-0.8-0.4-0.8-0.3
			c-0.2,0.8-0.4,1.7-0.7,2.5c1.2-0.3,2.3-0.8,3.4-1.3c1.4-0.7,0.6-2.8-0.8-2.8c-1.8,0-3.6,0.1-5.4-0.1c0.3,0.9,0.5,1.9,0.8,2.8
			c2.6-1.2,5.3-2.5,8.2-3c1.6-0.3,1.3-3.1-0.4-2.9c-2,0.2-4.2,0.1-6.2,0c-1.1,0-2.9,0.2-4-0.1c0.1,0.9,0.2,1.8,0.4,2.7
			c3.4-1.8,7.2-2.3,10.7-3.8c1.3-0.6,1.5-2.4,0-2.9c-1.7-0.5-3.7-0.4-5.5-0.3c-1.5,0.1-3,0.3-4.5,0.4c-0.4,0-3,0-2.4,0.2
			c0,0.9,0,1.7,0,2.6c1.4-0.8,2.9-1.1,4.4-1.6c2.4-0.8,4.8-2,7.2-2.9c1.5-0.6,1.4-2.9-0.4-2.9c-3.1,0-6.3,0.1-9.4-0.4
			c0,1,0,1.9,0,2.9c3.1-1.1,6.8-1.1,10-1.7c1.7-0.3,1.3-3-0.4-2.9c-3.5,0.1-7.1,0.2-10.6,0.2C5.1,11.4,5.1,14.4,7.1,14.4L7.1,14.4z"
			/>
	</g>
</g>
<g>
	<g>
		<path class="st0" d="M9.3,11.3c3.9-0.4,5.6-2.6,7.3-6c-0.9-0.4-1.8-0.8-2.7-1.2c-0.5,1.2-1.4,2.5-2.2,3.6c-0.7,0.9,0,1.9,0.9,2.3
			c3.4,1.4,6.4-2,7.5-4.7c-0.9-0.3-1.9-0.5-2.8-0.8c0,1.6-0.5,3.2-1.4,4.6s1.3,3.2,2.4,1.8c1.9-2.4,2.8-4.7,2.6-7.8
			c0-0.7-0.4-1.3-1.1-1.4c-1.5-0.4-3.1,0.9-4.4,1.5c0.7,0.6,1.5,1.1,2.2,1.7c0-0.1,0-0.1,0-0.2c0.2-1-0.4-1.9-1.4-1.9
			c-3.1-0.1-4.9,2.3-7.2,4c0.7,0.7,1.4,1.4,2.1,2.1c0.8-1.6,2-2.9,2.5-4.7c0.2-0.7-0.1-1.3-0.7-1.7c-0.1-0.1-0.2-0.1-0.2-0.2
			c-0.4-0.3-1.1-0.3-1.5,0c-2.7,1.6-3.8,5.2-6.5,7c0.5,0,1,0,1.5,0C7.3,10.1,6.4,8.8,6,8C5.8,7.5,5.6,7,5.2,6.6
			C4.3,5.8,2.9,6,2.6,7.2C2,9.8,1.9,11.9,2.3,14.6c0.3-0.6,0.7-1.2,1-1.8c0.7,0.1,0.6,0-0.4-0.4c-0.9-0.5-2.3,0.1-2.3,1.3
			c0.1,1.6,0.9,2.5,1.9,3.7c1.3,1.5,3.4-0.7,2.1-2.1c-0.5-0.4-0.8-1-1-1.6C3,14,2.2,14.5,1.5,14.9c0.9,0.5,1.6,1.1,2.7,0.7
			c0.8-0.3,1.2-1,1-1.8C4.9,11.7,5,10,5.5,8C4.7,8.2,3.8,8.4,3,8.7c1,0.8,0.5,2.3,1.6,3.1c0.4,0.3,1.1,0.3,1.5,0
			c2.7-1.7,3.9-5.4,6.5-7c-0.5,0-1,0-1.5,0C11.2,4.9,11.3,5,11.4,5c-0.2-0.6-0.5-1.1-0.7-1.7c-0.4,1.5-1.5,2.6-2.2,4
			c-0.6,1.2,0.7,3,2.1,2.1c1.6-1.2,3.4-3.6,5.6-3.6c-0.5-0.6-1-1.3-1.4-1.9c0,0.1,0,0.1,0,0.2c-0.3,1.3,1,2.3,2.2,1.7
			c0.5-0.2,0.9-0.4,1.4-0.6c0.6-0.3,1.5-0.4,0.7-0.6c-0.4-0.5-0.7-1-1.1-1.4c0,2.2-0.4,3.8-1.9,5.6c0.8,0.6,1.6,1.2,2.4,1.8
			c1.1-1.8,1.7-4,1.8-6.1c0-1.4-2.2-2.1-2.8-0.8c-0.6,1.4-2.1,4.2-4.2,3.3c0.3,0.7,0.6,1.5,0.9,2.2c1-1.3,1.9-2.8,2.5-4.3
			c0.6-1.6-2-2.7-2.7-1.2C12.9,6,12.1,8.1,9.3,8.3C7.4,8.5,7.4,11.5,9.3,11.3L9.3,11.3z"/>
	</g>
</g>
<g>
	<g>
		<path class="st0" d="M21.1,14.4c0.4-0.4,0.7-0.8,0.9-1.2c0.1-0.2,0.2-0.4,0.3-0.6c0,0,0.3-0.6,0.2-0.5c-0.8-0.2-1.7-0.4-2.5-0.7
			c0.2,0.5-0.2,1.4-0.3,1.9c-0.1,0.6-0.3,1.1-0.2,1.8c0.1,0.7,0.8,1.1,1.4,1.1c0.3,0,0.6-0.1,0.9-0.1c-0.5-0.5-1-1-1.5-1.5
			c0,0.1-0.1,0.4-0.2,0.6c-1,1.7,1.6,3.2,2.6,1.5c0.4-0.6,0.7-1.4,0.6-2.1c-0.1-0.8-0.6-1.5-1.5-1.5c-0.3,0-0.6,0.1-0.9,0.1
			c0.5,0.4,1,0.7,1.4,1.1c0-0.1,0-0.1,0-0.2c0,0.3,0,0.5,0,0.8c0.2-1.4,0.9-2.9,0.5-4.4c-0.3-1-1.7-1.5-2.5-0.7
			c-0.6,0.7-0.7,1.7-1.4,2.4C17.6,13.7,19.7,15.8,21.1,14.4L21.1,14.4z"/>
	</g>
</g>
<g>
	<g>
		<path class="st0" d="M15.9,18.3c0.3-0.6,0.4-0.7,0.1-0.5c0,0,0.1,0,0.1-0.1c0.4-0.1,0.5-0.1,0.2-0.1c-0.1,0-0.1,0-0.2,0
			c-0.2,0-0.6-0.1-0.1,0.1c0.2,0.1,0.5,0.2,0.5,0.5c-0.8,0.5-1.7,1-2.5,1.5c0.1,0.1,0.1,0.1,0,0c0.1,0.1,0.2,0.3,0.3,0.4
			c0.2,0.2,0.4,0.3,0.5,0.4c0.4,0.2,0.9,0.4,1.3,0.5c0.6,0.1,1.2,0.1,1.8-0.2c0.2-0.1,0.3-0.2,0.5-0.4c0.1-0.1,0.2-0.2,0.3-0.4
			c0.2-0.4,0.2-0.5,0.1-0.2c0.5-0.7,0.1-1.7-0.5-2.1c-0.7-0.4-1.6-0.1-2.1,0.5c-0.7,1,0.5-0.3,0.5-0.2c0.1,0.1-0.2-0.1-0.1,0
			c-0.1,0-0.2-0.1-0.2-0.1c-0.2-0.1-0.1,0,0.2,0.2c-0.2-0.1-0.3-0.4-0.5-0.6c-0.5-0.4-1.2-0.6-1.8-0.2s-0.8,1-0.7,1.7
			c0.1,0.5,0.6,1.1,1,1.3c0.5,0.3,1.1,0.3,1.6,0.3c0.7,0,1.3-0.2,1.8-0.6c0.5-0.5,0.8-1.1,0.8-1.8c0-0.8-0.7-1.5-1.5-1.5
			C16.6,16.9,15.9,17.5,15.9,18.3L15.9,18.3z"/>
	</g>
</g>
<g>
	<g>
		<path class="st0" d="M8.2,17.7C8.1,17.8,8.2,17.8,8.2,17.7C8.5,17.5,8.5,17.5,8.2,17.7c0,0-0.1,0-0.2,0.1
			c-0.1,0.1-0.3,0.1-0.4,0.2c-0.4,0.3-0.1-0.1,0,0.1C7.5,18,8.8,19,8.4,18.5c-0.1-0.1,0.1,0.3,0,0c-0.2-0.4-0.3-0.7-0.6-1
			c-0.5-0.6-1.4-0.5-2-0.1c-0.6,0.5-0.7,1.3-0.4,1.9c0.1,0.1,0.1,0.2,0.2,0.3c0.2,0.3,0.3,0.4,0.2,0.3l0,0c0.2,0.3,0.4,0.6,0.8,0.8
			c0.4,0.3,1,0.6,1.5,0.7c0.7,0.1,1.3,0,1.9-0.3c0.8-0.4,1-1.1,1-1.9c0-1.9-3-1.9-3,0c0,0.1,0,0.3,0,0.4c0.1-0.3,0.1-0.5,0.2-0.8
			l-0.1,0.1c0.2-0.2,0.4-0.4,0.5-0.5c-0.1,0.1-0.1,0.1,0,0c-0.1,0-0.2,0-0.2,0.1c0.1-0.2,0.7,0.2,0.1-0.1c-0.1,0-0.2-0.1-0.3-0.1
			c0.2,0.3,0.3,0.3,0.1,0.1C8.2,18.3,8.1,18.1,8,18c0.1,0.1,0.1,0.1,0-0.1c-0.8,0.6-1.6,1.2-2.4,1.8c-0.1-0.1-0.2-0.2-0.1,0
			c-0.2-0.3,0,0,0.1,0.1c0.1,0.2,0.2,0.4,0.3,0.5C6.4,20.7,7,21,7.7,21c0.6,0,1.2-0.4,1.8-0.7c0.5-0.3,1.1-0.6,1.3-1.2
			c0.3-0.7,0.2-1.6-0.5-2.1C9.6,16.7,8.6,16.9,8.2,17.7L8.2,17.7z"/>
	</g>
</g>
<g>
	<g>
		<defs>
			<rect id="SVGID_1_" width="24.4" height="31.4"/>
		</defs>
		<clipPath id="SVGID_2_">
			<use xlink:href="#SVGID_1_"  style="overflow:visible;"/>
		</clipPath>
		<path class="st1" d="M5.3,11.4c0.1,1-0.4,2.1-0.6,3s-0.5,1.9-1,2.7c-0.2,0.4,0.4,0.7,0.6,0.4c0.6-0.9,0.9-1.9,1.1-2.9
			s0.7-2.2,0.7-3.2C6,11,5.3,11,5.3,11.4"/>
	</g>
	<g>
		<defs>
			<rect id="SVGID_3_" width="24.4" height="31.4"/>
		</defs>
		<clipPath id="SVGID_4_">
			<use xlink:href="#SVGID_3_"  style="overflow:visible;"/>
		</clipPath>
		<path class="st2" d="M6.4,11.8c0.9-0.6,1.6-1,2.6-0.5c0.5,0.2,0.9,0.3,1.4,0.3c1.4,0,2.7-0.7,4.1-0.7c1.3,0,2.6,0.2,3.9-0.1
			c1-0.2,1.5-1.3,1.9-2.2c0.2-0.4-0.4-0.8-0.6-0.4C19.3,9,18.9,9.7,18,10c-0.5,0.2-1.3,0.1-1.9,0.1c-1.2,0-2.3-0.1-3.5,0.2
			c-0.5,0.1-1,0.3-1.5,0.4C10,11,9.6,10.6,8.6,10.3C7.7,10,6.7,10.7,6,11.2C5.7,11.4,6,12,6.4,11.8"/>
	</g>
	<g>
		<defs>
			<rect id="SVGID_5_" width="24.4" height="31.4"/>
		</defs>
		<clipPath id="SVGID_6_">
			<use xlink:href="#SVGID_5_"  style="overflow:visible;"/>
		</clipPath>
		<path class="st3" d="M22.7,9.4c0,0.4,0.2,0.5,0.3,0.9c0.1,0.7-0.5,1-0.8,1.5c-0.3,0.6,0.1,1,0.6,1.4c0.1,0.1,0.3,0.2,0.4,0.3
			c0.7,0.9,0.2,0.9,0,1.5c-0.1,0.2-0.2,0.4-0.1,0.7c0.1,0.5,0.6,0.3,0.3,0.9c-0.2,0.4-0.7,0.7-1.1,0.6c-0.4,0-0.4,0.7,0,0.7
			c0.8,0.1,1.4-0.4,1.8-1.1c0.2-0.3,0.3-0.5,0.2-0.8c-0.1-0.5-0.6,0.2-0.4-0.8c0-0.2,0.3-0.5,0.4-0.7c0.5-1.4-1.5-1.4-1.4-2.4
			c0-0.4,0.7-0.8,0.8-1.2c0.2-0.6-0.3-0.8-0.4-1.4C23.4,8.9,22.7,8.9,22.7,9.4"/>
	</g>
	<g>
		<defs>
			<rect id="SVGID_7_" width="24.4" height="31.4"/>
		</defs>
		<clipPath id="SVGID_8_">
			<use xlink:href="#SVGID_7_"  style="overflow:visible;"/>
		</clipPath>
		<path class="st4" d="M19.5,14.2c0,1.1-0.1,2.3,0.2,3.3c0.3,1.2,0.6,2.4,0.6,3.7c0,0.4,0.7,0.4,0.7,0c0-1.1-0.1-2.1-0.4-3.2
			c-0.4-1.3-0.3-2.5-0.4-3.9C20.1,13.8,19.4,13.8,19.5,14.2"/>
	</g>
	<g>
		<defs>
			<rect id="SVGID_9_" width="24.4" height="31.4"/>
		</defs>
		<clipPath id="SVGID_10_">
			<use xlink:href="#SVGID_9_"  style="overflow:visible;"/>
		</clipPath>
		<path class="st5" d="M15.4,25.9c-1.2,0-2.5,0-3.7,0.1c-0.5,0-1,0.2-1.5,0.1c-0.4-0.1-0.6-0.3-0.9-0.4c-0.4-0.2-0.8,0.4-0.4,0.6
			c0,0,0.4,0.3,0.6,0.4c0.5,0.2,1,0.2,1.5,0.1c1.5-0.1,2.9-0.2,4.4-0.2C15.8,26.6,15.8,25.9,15.4,25.9"/>
	</g>
	<g>
		<defs>
			<rect id="SVGID_11_" width="24.4" height="31.4"/>
		</defs>
		<clipPath id="SVGID_12_">
			<use xlink:href="#SVGID_11_"  style="overflow:visible;"/>
		</clipPath>
		<path class="st6" d="M15.7,26.6h0.1C15.8,26.6,15.8,26.6,15.7,26.6c0,0,0.1,0.1,0.1,0.2s0.1,0.2,0.2,0.3c0.2,0.2,0.5,0.1,0.6-0.2
			c0.1-0.8-0.4-1.6-1-2c-0.4-0.3-0.8,0.2-0.5,0.5c0.4,0.3,0.9,0.8,0.8,1.3c0.2-0.1,0.4-0.1,0.6-0.2c0.1,0.1,0-0.1,0-0.2
			s-0.1-0.2-0.2-0.3c-0.1-0.2-0.4-0.2-0.6-0.2C15.2,25.9,15.2,26.6,15.7,26.6"/>
	</g>
	<g>
		<defs>
			<rect id="SVGID_13_" width="24.4" height="31.4"/>
		</defs>
		<clipPath id="SVGID_14_">
			<use xlink:href="#SVGID_13_"  style="overflow:visible;"/>
		</clipPath>
		<path class="st7" d="M11.5,27.6v0.1c0,0.2,0.2,0.4,0.3,0.3c0.2,0,0.4-0.2,0.3-0.3v-0.1c0-0.2-0.2-0.4-0.3-0.3
			C11.6,27.2,11.5,27.4,11.5,27.6"/>
	</g>
	<g>
		<defs>
			<rect id="SVGID_15_" width="24.4" height="31.4"/>
		</defs>
		<clipPath id="SVGID_16_">
			<use xlink:href="#SVGID_15_"  style="overflow:visible;"/>
		</clipPath>
		<path class="st8" d="M14.9,29.2L14.9,29.2c0,0.2,0.2,0.4,0.4,0.4s0.4-0.2,0.3-0.3c0,0,0,0,0-0.1c0-0.2-0.2-0.4-0.3-0.3
			C15.1,28.8,14.9,29,14.9,29.2"/>
	</g>
	<g>
		<defs>
			<rect id="SVGID_17_" width="24.4" height="31.4"/>
		</defs>
		<clipPath id="SVGID_18_">
			<use xlink:href="#SVGID_17_"  style="overflow:visible;"/>
		</clipPath>
		<path class="st9" d="M14.5,28.6C14.5,28.6,14.5,28.5,14.5,28.6c-0.2-0.2-0.4-0.2-0.5,0c-0.1,0.1-0.1,0.4,0,0.5l0,0
			c0.1,0.1,0.4,0.1,0.5,0C14.7,28.9,14.7,28.7,14.5,28.6"/>
	</g>
	<g>
		<defs>
			<rect id="SVGID_19_" width="24.4" height="31.4"/>
		</defs>
		<clipPath id="SVGID_20_">
			<use xlink:href="#SVGID_19_"  style="overflow:visible;"/>
		</clipPath>
		<path class="st10" d="M14.4,31c0.4,0,0.4-0.7,0-0.7C13.9,30.3,13.9,31,14.4,31"/>
	</g>
	<g>
		<defs>
			<rect id="SVGID_21_" width="24.4" height="31.4"/>
		</defs>
		<clipPath id="SVGID_22_">
			<use xlink:href="#SVGID_21_"  style="overflow:visible;"/>
		</clipPath>
		<path class="st11" d="M12.1,31.2c0.4,0,0.4-0.7,0-0.7C11.6,30.5,11.6,31.2,12.1,31.2"/>
	</g>
	<g>
		<defs>
			<rect id="SVGID_23_" width="24.4" height="31.4"/>
		</defs>
		<clipPath id="SVGID_24_">
			<use xlink:href="#SVGID_23_"  style="overflow:visible;"/>
		</clipPath>
		<path class="st12" d="M13.4,31.3c0.4,0,0.4-0.7,0-0.7C12.9,30.6,12.9,31.3,13.4,31.3"/>
	</g>
	<g>
		<defs>
			<rect id="SVGID_25_" width="24.4" height="31.4"/>
		</defs>
		<clipPath id="SVGID_26_">
			<use xlink:href="#SVGID_25_"  style="overflow:visible;"/>
		</clipPath>
		<path class="st13" d="M10.5,31.4c0.4,0,0.4-0.7,0-0.7C10,30.7,10,31.4,10.5,31.4"/>
	</g>
	<g>
		<defs>
			<rect id="SVGID_27_" width="24.4" height="31.4"/>
		</defs>
		<clipPath id="SVGID_28_">
			<use xlink:href="#SVGID_27_"  style="overflow:visible;"/>
		</clipPath>
		<path class="st14" d="M10.4,30.5c0.4,0,0.4-0.7,0-0.7C9.9,29.8,9.9,30.5,10.4,30.5"/>
	</g>
	<g>
		<defs>
			<rect id="SVGID_29_" width="24.4" height="31.4"/>
		</defs>
		<clipPath id="SVGID_30_">
			<use xlink:href="#SVGID_29_"  style="overflow:visible;"/>
		</clipPath>
		<path class="st15" d="M9,30.6c0.4,0,0.4-0.7,0-0.7C8.5,29.9,8.5,30.6,9,30.6"/>
	</g>
	<g>
		<defs>
			<rect id="SVGID_31_" width="24.4" height="31.4"/>
		</defs>
		<clipPath id="SVGID_32_">
			<use xlink:href="#SVGID_31_"  style="overflow:visible;"/>
		</clipPath>
		<path class="st16" d="M11.5,25.3c0.4,0,0.4-0.7,0-0.7C11.1,24.6,11.1,25.3,11.5,25.3"/>
	</g>
	<g>
		<defs>
			<rect id="SVGID_33_" width="24.4" height="31.4"/>
		</defs>
		<clipPath id="SVGID_34_">
			<use xlink:href="#SVGID_33_"  style="overflow:visible;"/>
		</clipPath>
		<path class="st17" d="M13.2,21.7c0,0.4,0.1,0.6-0.2,0.8c-0.4,0.2-0.9,0.5-1.4,0.4c-0.8-0.2-0.2-1.6,0-2.1c0.1-0.4-0.6-0.6-0.7-0.2
			c-0.3,1-1,2.7,0.6,3c0.6,0.1,1.3-0.2,1.8-0.5c0.6-0.4,0.6-0.7,0.6-1.4C13.9,21.2,13.2,21.2,13.2,21.7"/>
	</g>
	<g>
		<defs>
			<rect id="SVGID_35_" width="24.4" height="31.4"/>
		</defs>
		<clipPath id="SVGID_36_">
			<use xlink:href="#SVGID_35_"  style="overflow:visible;"/>
		</clipPath>
		<path class="st18" d="M10.9,15.9c-0.4-0.6-1.3-0.9-1.9-1c-0.6-0.1-1.1,0-1.6,0.2c-0.6,0.2-1,0.6-1.5,0.9c-0.4,0.2,0,0.8,0.4,0.6
			s0.7-0.5,1.1-0.7s0.9-0.3,1.3-0.3c0.5,0,1.5,0.2,1.8,0.6C10.5,16.7,11.1,16.3,10.9,15.9"/>
	</g>
	<g>
		<defs>
			<rect id="SVGID_37_" width="24.4" height="31.4"/>
		</defs>
		<clipPath id="SVGID_38_">
			<use xlink:href="#SVGID_37_"  style="overflow:visible;"/>
		</clipPath>
		<path class="st19" d="M14.7,16.9c0.9,0,2-0.2,2.8,0c0.6,0.2,1.1,0.3,1.8,0.3c0.4,0,0.5-0.7,0-0.7c-0.4,0-0.8,0-1.2-0.1
			c-0.2-0.1-0.4-0.2-0.6-0.3c-0.8-0.2-1.9,0-2.8,0.1C14.2,16.2,14.2,16.9,14.7,16.9"/>
	</g>
	<g>
		<defs>
			<rect id="SVGID_39_" width="24.4" height="31.4"/>
		</defs>
		<clipPath id="SVGID_40_">
			<use xlink:href="#SVGID_39_"  style="overflow:visible;"/>
		</clipPath>
		<path class="st20" d="M18.7,17.9c0.1,1.6-0.2,3.1-2,3.2c-0.7,0-1.4-0.2-1.9-0.7c-0.3-0.3-1.2-1.8-0.8-2.1c0.3-0.3-0.2-0.8-0.5-0.5
			c-0.7,0.6-0.1,1.6,0.2,2.3c0.4,0.8,1.2,1.6,2.2,1.7c0.8,0.2,1.9,0,2.5-0.5c1-0.9,1-2.1,1-3.3C19.4,17.4,18.7,17.4,18.7,17.9"/>
	</g>
	<g>
		<defs>
			<rect id="SVGID_41_" width="24.4" height="31.4"/>
		</defs>
		<clipPath id="SVGID_42_">
			<use xlink:href="#SVGID_41_"  style="overflow:visible;"/>
		</clipPath>
		<path class="st21" d="M13.3,17.7c-0.5,0-1,0-1.4,0.1c-0.3,0-0.6,0-0.9,0.1c-0.4,0.2,0,0.8,0.4,0.6c0.1-0.1,0.6,0,0.8,0
			c0.4,0,0.8,0,1.2,0C13.7,18.3,13.8,17.6,13.3,17.7"/>
	</g>
	<g>
		<defs>
			<rect id="SVGID_43_" width="24.4" height="31.4"/>
		</defs>
		<clipPath id="SVGID_44_">
			<use xlink:href="#SVGID_43_"  style="overflow:visible;"/>
		</clipPath>
		<path class="st22" d="M10.7,18.2c0,0.6-0.2,1.3-0.6,1.8c-0.6,0.9-1.7,1.1-2.7,0.9C6.6,20.8,6,20,5.9,19.2c-0.1-0.4,0-0.9-0.2-1.3
			s-0.8,0-0.6,0.4c0.2,0.4,0.1,1.1,0.3,1.6c0.1,0.3,0.3,0.5,0.4,0.8c0.6,0.8,1.4,1,2.3,1c0.9-0.1,1.8-0.1,2.3-0.8
			c0.6-0.7,1-1.7,1-2.6C11.4,17.7,10.7,17.7,10.7,18.2"/>
	</g>
	<g>
		<defs>
			<rect id="SVGID_45_" width="24.4" height="31.4"/>
		</defs>
		<clipPath id="SVGID_46_">
			<use xlink:href="#SVGID_45_"  style="overflow:visible;"/>
		</clipPath>
		<path class="st23" d="M5.4,17.7c-0.8,0-1.7-0.1-2.3,0.5c-0.3,0.3,0.2,0.8,0.5,0.5c0.4-0.4,1.3-0.2,1.8-0.3
			C5.8,18.4,5.8,17.7,5.4,17.7"/>
	</g>
	<g>
		<defs>
			<rect id="SVGID_47_" width="24.4" height="31.4"/>
		</defs>
		<clipPath id="SVGID_48_">
			<use xlink:href="#SVGID_47_"  style="overflow:visible;"/>
		</clipPath>
		<path class="st24" d="M19.2,18.3c0.9,0,1.9-0.2,2.7,0.3c0.4,0.2,0.7-0.4,0.4-0.6c-0.9-0.6-2-0.4-3.1-0.3
			C18.8,17.6,18.8,18.3,19.2,18.3"/>
	</g>
	<g>
		<defs>
			<rect id="SVGID_49_" width="24.4" height="31.4"/>
		</defs>
		<clipPath id="SVGID_50_">
			<use xlink:href="#SVGID_49_"  style="overflow:visible;"/>
		</clipPath>
		<path class="st25" d="M21.5,19.5c0,0.4,0,0.8,0,1.2c0,0.4,0.7,0.4,0.7,0s0-0.8,0-1.2C22.1,19.1,21.4,19.1,21.5,19.5"/>
	</g>
	<g>
		<defs>
			<rect id="SVGID_51_" width="24.4" height="31.4"/>
		</defs>
		<clipPath id="SVGID_52_">
			<use xlink:href="#SVGID_51_"  style="overflow:visible;"/>
		</clipPath>
		<path class="st26" d="M10.9,25.3c0.4,0,0.4-0.7,0-0.7C10.4,24.6,10.4,25.3,10.9,25.3"/>
	</g>
	<g>
		<defs>
			<rect id="SVGID_53_" width="24.4" height="31.4"/>
		</defs>
		<clipPath id="SVGID_54_">
			<use xlink:href="#SVGID_53_"  style="overflow:visible;"/>
		</clipPath>
		<path class="st27" d="M9.4,25.3c0.4,0,0.4-0.7,0-0.7C8.9,24.6,8.9,25.3,9.4,25.3"/>
	</g>
	<g>
		<defs>
			<rect id="SVGID_55_" width="24.4" height="31.4"/>
		</defs>
		<clipPath id="SVGID_56_">
			<use xlink:href="#SVGID_55_"  style="overflow:visible;"/>
		</clipPath>
		<path class="st28" d="M12.9,27.9c0.4,0,0.4-0.7,0-0.7C12.5,27.2,12.5,27.9,12.9,27.9"/>
	</g>
	<g>
		<defs>
			<rect id="SVGID_57_" width="24.4" height="31.4"/>
		</defs>
		<clipPath id="SVGID_58_">
			<use xlink:href="#SVGID_57_"  style="overflow:visible;"/>
		</clipPath>
		<path class="st29" d="M16.8,28.8c0.4,0,0.4-0.7,0-0.7C16.3,28.1,16.3,28.8,16.8,28.8"/>
	</g>
	<g>
		<defs>
			<rect id="SVGID_59_" width="24.4" height="31.4"/>
		</defs>
		<clipPath id="SVGID_60_">
			<use xlink:href="#SVGID_59_"  style="overflow:visible;"/>
		</clipPath>
		<path class="st30" d="M14,30c0.4,0,0.4-0.7,0-0.7C13.5,29.3,13.5,30,14,30"/>
	</g>
	<g>
		<defs>
			<rect id="SVGID_61_" width="24.4" height="31.4"/>
		</defs>
		<clipPath id="SVGID_62_">
			<use xlink:href="#SVGID_61_"  style="overflow:visible;"/>
		</clipPath>
		<path class="st31" d="M7.9,26.7c0.4,0,0.4-0.7,0-0.7S7.5,26.7,7.9,26.7"/>
	</g>
	<g>
		<defs>
			<rect id="SVGID_63_" width="24.4" height="31.4"/>
		</defs>
		<clipPath id="SVGID_64_">
			<use xlink:href="#SVGID_63_"  style="overflow:visible;"/>
		</clipPath>
		<path class="st32" d="M18.2,26.2c0.4,0,0.4-0.7,0-0.7C17.8,25.5,17.8,26.2,18.2,26.2"/>
	</g>
	<g>
		<defs>
			<rect id="SVGID_65_" width="24.4" height="31.4"/>
		</defs>
		<clipPath id="SVGID_66_">
			<use xlink:href="#SVGID_65_"  style="overflow:visible;"/>
		</clipPath>
		<path class="st33" d="M18.7,24.1c0.4,0,0.4-0.7,0-0.7C18.2,23.4,18.2,24.1,18.7,24.1"/>
	</g>
	<g>
		<defs>
			<rect id="SVGID_67_" width="24.4" height="31.4"/>
		</defs>
		<clipPath id="SVGID_68_">
			<use xlink:href="#SVGID_67_"  style="overflow:visible;"/>
		</clipPath>
		<path class="st34" d="M5.6,25.2c0.4,0,0.4-0.7,0-0.7C5.1,24.5,5.1,25.2,5.6,25.2"/>
	</g>
	<g>
		<defs>
			<rect id="SVGID_69_" width="24.4" height="31.4"/>
		</defs>
		<clipPath id="SVGID_70_">
			<use xlink:href="#SVGID_69_"  style="overflow:visible;"/>
		</clipPath>
		<path class="st35" d="M5.7,26.9c0.4,0,0.4-0.7,0-0.7C5.2,26.2,5.2,26.9,5.7,26.9"/>
	</g>
	<g>
		<defs>
			<rect id="SVGID_71_" width="24.4" height="31.4"/>
		</defs>
		<clipPath id="SVGID_72_">
			<use xlink:href="#SVGID_71_"  style="overflow:visible;"/>
		</clipPath>
		<path class="st36" d="M6.6,27.9c0.4,0,0.4-0.7,0-0.7C6.2,27.2,6.2,27.9,6.6,27.9"/>
	</g>
	<g>
		<defs>
			<rect id="SVGID_73_" width="24.4" height="31.4"/>
		</defs>
		<clipPath id="SVGID_74_">
			<use xlink:href="#SVGID_73_"  style="overflow:visible;"/>
		</clipPath>
		<path class="st37" d="M22,4.2c0-1-0.4-1.5-1.1-2.2c-0.6-0.5-1.1-1.2-1.8-1.6c-0.5-0.3-1-0.5-1.6-0.2C17.2,0.4,17,0.8,16.7,1
			c-0.6,0.5-1.4,0.4-2.2,0.4c-0.6-0.1-1.3,0-1.9,0c-0.6,0-1.2-0.2-1.7-0.1c-0.7,0.1-1.4,0.5-1.8,1.1c-0.3,0.4-0.7,0.9-1,1.3
			c-0.3,0.5-0.4,1-0.7,1.5C6.5,6.6,4.7,4,4.1,3.2C4,3.1,3.6,3.1,3.5,3.3C3.2,4,3.2,4.6,2.9,5.3C2.7,6,2.2,6.1,1.8,6.7
			C1.4,7.1,1.4,7.9,1.4,8.4c0,0.4,0,0.9,0,1.3c0,0.3,0.1,0.8,0.1,1.1c-0.2,0.6-0.7,0.2-1.1,0.5S0,11.9,0,12.3c0,0.7,0.2,1.2,0.4,1.8
			c0.3,0.6,0.3,1.2,0.7,1.8c0.3,0.3,0.8-0.1,0.5-0.5S1,13.9,0.8,13.5c-0.1-0.3-0.4-1-0.2-1.2C1,11.7,1,12,1.4,11.9
			c0.6-0.2,0.8-0.3,0.7-1C2.1,10.1,2,9.4,2,8.6c0-0.5,0.1-1.3,0.4-1.7C2.6,6.7,2.8,6.6,3,6.4c0.7-0.7,0.6-1.9,1.1-2.8
			c-0.2,0-0.4,0-0.5,0.1c0.8,1,2.2,3.4,3.9,2.5C7.9,6,8.1,5.3,8.3,4.9C8.8,3.7,9.9,2.1,11.2,2c0.4,0,1,0.1,1.4,0.1
			c0.6,0,1.3,0,1.9,0c0.8,0.1,1.6,0.1,2.3-0.3c0.3-0.2,0.5-0.5,0.8-0.7c0.7-0.5,1.1-0.2,1.6,0.3c0.8,0.8,2,1.6,2,2.8
			C21.3,4.6,22,4.6,22,4.2"/>
	</g>
	<g>
		<defs>
			<rect id="SVGID_75_" width="24.4" height="31.4"/>
		</defs>
		<clipPath id="SVGID_76_">
			<use xlink:href="#SVGID_75_"  style="overflow:visible;"/>
		</clipPath>
		<path class="st38" d="M17.8,27.6c0.4,0,0.4-0.7,0-0.7C17.3,26.9,17.3,27.6,17.8,27.6"/>
	</g>
	<g>
		<defs>
			<rect id="SVGID_77_" width="24.4" height="31.4"/>
		</defs>
		<clipPath id="SVGID_78_">
			<use xlink:href="#SVGID_77_"  style="overflow:visible;"/>
		</clipPath>
		<path class="st39" d="M19.2,25.2c0.4,0,0.4-0.7,0-0.7C18.8,24.5,18.8,25.2,19.2,25.2"/>
	</g>
	<g>
		<defs>
			<rect id="SVGID_79_" width="24.4" height="31.4"/>
		</defs>
		<clipPath id="SVGID_80_">
			<use xlink:href="#SVGID_79_"  style="overflow:visible;"/>
		</clipPath>
		<path class="st40" d="M19.5,22.7c0.4,0,0.4-0.7,0-0.7C19,22,19,22.7,19.5,22.7"/>
	</g>
	<g>
		<defs>
			<rect id="SVGID_81_" width="24.4" height="31.4"/>
		</defs>
		<clipPath id="SVGID_82_">
			<use xlink:href="#SVGID_81_"  style="overflow:visible;"/>
		</clipPath>
		<path class="st41" d="M20.2,23.6c0.4,0,0.4-0.7,0-0.7C19.8,22.9,19.8,23.6,20.2,23.6"/>
	</g>
	<g>
		<defs>
			<rect id="SVGID_83_" width="24.4" height="31.4"/>
		</defs>
		<clipPath id="SVGID_84_">
			<use xlink:href="#SVGID_83_"  style="overflow:visible;"/>
		</clipPath>
		<path class="st42" d="M19.2,26.4c0.4,0,0.4-0.7,0-0.7C18.8,25.7,18.8,26.4,19.2,26.4"/>
	</g>
	<g>
		<defs>
			<rect id="SVGID_85_" width="24.4" height="31.4"/>
		</defs>
		<clipPath id="SVGID_86_">
			<use xlink:href="#SVGID_85_"  style="overflow:visible;"/>
		</clipPath>
		<path class="st43" d="M18.1,28.8c0.4,0,0.4-0.7,0-0.7C17.7,28.1,17.7,28.8,18.1,28.8"/>
	</g>
	<g>
		<defs>
			<rect id="SVGID_87_" width="24.4" height="31.4"/>
		</defs>
		<clipPath id="SVGID_88_">
			<use xlink:href="#SVGID_87_"  style="overflow:visible;"/>
		</clipPath>
		<path class="st44" d="M16.8,29.5c0.4,0,0.4-0.7,0-0.7C16.3,28.8,16.3,29.5,16.8,29.5"/>
	</g>
	<g>
		<defs>
			<rect id="SVGID_89_" width="24.4" height="31.4"/>
		</defs>
		<clipPath id="SVGID_90_">
			<use xlink:href="#SVGID_89_"  style="overflow:visible;"/>
		</clipPath>
		<path class="st45" d="M15.7,30.7c0.4,0,0.4-0.7,0-0.7C15.3,30,15.3,30.7,15.7,30.7"/>
	</g>
	<g>
		<defs>
			<rect id="SVGID_91_" width="24.4" height="31.4"/>
		</defs>
		<clipPath id="SVGID_92_">
			<use xlink:href="#SVGID_91_"  style="overflow:visible;"/>
		</clipPath>
		<path class="st46" d="M4.1,21.9c0.4,0,0.4-0.7,0-0.7C3.7,21.2,3.7,21.9,4.1,21.9"/>
	</g>
	<g>
		<defs>
			<rect id="SVGID_93_" width="24.4" height="31.4"/>
		</defs>
		<clipPath id="SVGID_94_">
			<use xlink:href="#SVGID_93_"  style="overflow:visible;"/>
		</clipPath>
		<path class="st47" d="M4.4,24.8c0.4,0,0.4-0.7,0-0.7C4,24.1,4,24.8,4.4,24.8"/>
	</g>
	<g>
		<defs>
			<rect id="SVGID_95_" width="24.4" height="31.4"/>
		</defs>
		<clipPath id="SVGID_96_">
			<use xlink:href="#SVGID_95_"  style="overflow:visible;"/>
		</clipPath>
		<path class="st48" d="M4.4,23.5c0.4,0,0.4-0.7,0-0.7S4,23.5,4.4,23.5"/>
	</g>
	<g>
		<defs>
			<rect id="SVGID_97_" width="24.4" height="31.4"/>
		</defs>
		<clipPath id="SVGID_98_">
			<use xlink:href="#SVGID_97_"  style="overflow:visible;"/>
		</clipPath>
		<path class="st49" d="M8.4,28c0.4,0,0.4-0.7,0-0.7C7.9,27.3,7.9,28,8.4,28"/>
	</g>
	<g>
		<defs>
			<rect id="SVGID_99_" width="24.4" height="31.4"/>
		</defs>
		<clipPath id="SVGID_100_">
			<use xlink:href="#SVGID_99_"  style="overflow:visible;"/>
		</clipPath>
		<path class="st50" d="M7.8,30.1c0.4,0,0.4-0.7,0-0.7C7.3,29.4,7.3,30.1,7.8,30.1"/>
	</g>
	<g>
		<defs>
			<rect id="SVGID_101_" width="24.4" height="31.4"/>
		</defs>
		<clipPath id="SVGID_102_">
			<use xlink:href="#SVGID_101_"  style="overflow:visible;"/>
		</clipPath>
		<path class="st51" d="M4.9,25.8c0.4,0,0.4-0.7,0-0.7C4.4,25.1,4.4,25.8,4.9,25.8"/>
	</g>
	<g>
		<defs>
			<rect id="SVGID_103_" width="24.4" height="31.4"/>
		</defs>
		<clipPath id="SVGID_104_">
			<use xlink:href="#SVGID_103_"  style="overflow:visible;"/>
		</clipPath>
		<path class="st52" d="M5.3,23.1c0.4,0,0.4-0.7,0-0.7S4.9,23.1,5.3,23.1"/>
	</g>
	<g>
		<defs>
			<rect id="SVGID_105_" width="24.4" height="31.4"/>
		</defs>
		<clipPath id="SVGID_106_">
			<use xlink:href="#SVGID_105_"  style="overflow:visible;"/>
		</clipPath>
		<path class="st53" d="M5.3,21.6c0.4,0,0.4-0.7,0-0.7S4.9,21.6,5.3,21.6"/>
	</g>
	<g>
		<defs>
			<rect id="SVGID_107_" width="24.4" height="31.4"/>
		</defs>
		<clipPath id="SVGID_108_">
			<use xlink:href="#SVGID_107_"  style="overflow:visible;"/>
		</clipPath>
		<path class="st54" d="M8.5,29.3c0.4,0,0.4-0.7,0-0.7C8.1,28.6,8.1,29.3,8.5,29.3"/>
	</g>
	<g>
		<defs>
			<rect id="SVGID_109_" width="24.4" height="31.4"/>
		</defs>
		<clipPath id="SVGID_110_">
			<use xlink:href="#SVGID_109_"  style="overflow:visible;"/>
		</clipPath>
		<path class="st55" d="M7.3,29.2c0.4,0,0.4-0.7,0-0.7C6.8,28.5,6.8,29.2,7.3,29.2"/>
	</g>
</g>
</svg>
