<?xml version="1.0" encoding="utf-8"?>
<!-- Generator: Adobe Illustrator 19.1.0, SVG Export Plug-In . SVG Version: 6.00 Build 0)  -->
<!DOCTYPE svg PUBLIC "-//W3C//DTD SVG 1.1//EN" "http://www.w3.org/Graphics/SVG/1.1/DTD/svg11.dtd">
<svg version="1.1" id="Layer_1" xmlns="http://www.w3.org/2000/svg" xmlns:xlink="http://www.w3.org/1999/xlink" x="0px" y="0px"
	 viewBox="0 0 100 50" style="enable-background:new 0 0 100 50;" xml:space="preserve">
<style type="text/css">
	.st0{fill:#010101;}
</style>
<g>
	<g>
		<g>
			<path class="st0" d="M15.4,17.9c1.7-2.7,6.3-11.4,1-13.1c-5.2-1.7-10,9.5-11.2,12.6c-1.1,3-5.1,14.6-1,16.5
				c6,2.9,9.6-8,11.3-11.4c0.6-1.1-1.1-2.1-1.7-1c-1.3,2.7-2.7,6.8-4.9,9c-6.6,6.6-3.5-6.8-2.9-9c1.1-4.5,3-8.5,6-12.2
				c1.5-1.8,4.5-3.6,4.7,1c0.1,2.2-1.7,4.9-2.8,6.7C13.1,17.9,14.7,18.9,15.4,17.9L15.4,17.9z"/>
		</g>
	</g>
	<g>
		<g>
			<path class="st0" d="M19.6,12.1c-0.5,2.9-1.9,5.5-2.8,8.3c-0.7,2.4-1.1,4.9-1.6,7.3c-0.2,1.2,1.3,1.6,1.8,0.5
				c0.6-1.6,2.2-5.7,3.6-6.7c-0.5-0.2-1-0.4-1.3-0.6c0.4,2.2-0.7,4.1-0.6,6.3c0,0.4,0.2,0.9,0.7,1c2.2,0.6,4-0.4,5.8-1.2
				c1.1-0.5,0.1-2.2-1-1.7c-1.3,0.6-2.8,1.6-4.4,1.1c0.2,0.4,0.5,0.6,0.7,1c-0.1-2.3,1-4.4,0.6-6.8c-0.1-0.6-1-0.9-1.3-0.6
				c-2.2,1.5-3.5,5.5-4.5,7.9c0.6,0.1,1.2,0.4,1.8,0.5c0.5-2.4,0.9-4.9,1.6-7.3c0.9-2.8,2.3-5.5,2.8-8.3
				C21.6,11.4,19.8,10.9,19.6,12.1L19.6,12.1z"/>
		</g>
	</g>
	<g>
		<g>
			<path class="st0" d="M23.1,21.1c0,0-0.1,3.9,0,6c0,1.1,1.5,1.1,1.8,0.1c0.4-0.9,0.5-2.6,1.1-3.2c1-1,1.9-0.6,3.2-0.4
				c0-0.6,0-1.2,0-1.8c-1.2,0.4-6.3,3.3-4,5.4c2.9,2.7,8.6-3.3,10.3-4.9c0.9-0.7-0.1-1.9-1.1-1.5c-0.9,0.5-1.8,0.9-2.7,1.5
				c-0.9,0.6-0.5,1.7,0.5,1.8c1,0.1,3-0.2,4,0.2c1.1,0.6,0.5,0.9-0.2,1.7c-0.5,0.6-1.1,1.1-1.7,1.6c-2.1,1.9-4.5,3.5-6.9,5.1
				c-1.1,0.6-0.1,2.3,1,1.7c3.5-2.1,8.9-5.1,10.6-9.1c1.6-3.6-4.6-2.9-6.6-3.2c0.1,0.6,0.4,1.2,0.5,1.8c0.9-0.6,1.7-1.1,2.7-1.5
				c-0.4-0.5-0.7-1-1.1-1.5c-1.2,1.2-2.6,2.3-4,3.3c-0.7,0.5-1.7,1.6-2.7,1.5c-1.5-0.1,1.8-1.9,2.4-2.1c1-0.1,0.9-1.7,0-1.8
				c-1.3-0.2-3.2-1-4.4-0.2c-1.5,1-2.1,3.5-2.6,5c0.6,0.1,1.2,0.4,1.8,0.5c-0.1-2.1,0-4.7,0-6C25,19.9,23.1,19.9,23.1,21.1
				C23.1,21.1,23.1,19.9,23.1,21.1z"/>
		</g>
	</g>
	<g>
		<g>
			<path class="st0" d="M34.5,2.9c0,15.3-0.2,30.5-0.2,45.8c0,1.2,1.9,1.2,1.9,0c0-15.3,0.4-30.5,0.2-45.8
				C36.5,1.7,34.5,1.7,34.5,2.9L34.5,2.9z"/>
		</g>
	</g>
	<g>
		<g>
			<path class="st0" d="M16.5,5.7c5.4-0.4,11.1-1.9,16.2,0c2.4,0.9,4.6,2.2,6.8,3.5s2.4,0.9,1.8,3.9c-0.7,3-1.2,2.8-3.9,4
				C26.4,22.1,15.9,28,5.6,34.2c-1.1,0.6-0.1,2.3,1,1.7c7.9-4.7,15.9-9.5,24.2-13.6c3.6-1.8,14.2-4.3,15-9.2
				c0.6-4.1-7.8-7.2-10.7-8.4C28.8,1.9,23.1,3.6,16.7,4C15.3,3.8,15.3,5.8,16.5,5.7L16.5,5.7z"/>
		</g>
	</g>
	<g>
		<g>
			<path class="st0" d="M42.9,22.3c-0.5-0.5-0.7-0.6-1.5-0.9c-0.5-0.1-1,0.1-1.2,0.6c-0.4,1.1-0.6,2.3-0.4,3.5
				c0.1,0.7,0.7,1.1,1.5,0.9c2.2-1,3.5-0.4,5.5-1.8c-0.5-0.2-1-0.4-1.3-0.6c0,0.1,0.1,0.4,0.1,0.5c0.2,1,1.9,0.9,1.8-0.2
				c0.1-0.4,0.1-0.9,0.2-1.2c-0.6-0.1-1.2-0.1-1.7-0.2c0.4,0.9,0.2,1.8,0.5,2.7c0.2,1.1,1.8,0.7,1.8-0.2c0.7-7.9-0.4-16.1,0.4-24
				c0.1-1.2-1.8-1.2-1.9,0c-0.7,8,0.4,16.1-0.4,24c0.6-0.1,1.2-0.1,1.8-0.2c-0.2-1-0.1-1.8-0.5-2.7c-0.2-0.7-1.3-1-1.7-0.2
				c-0.5,1-0.6,1.1-0.5,2.2c0.6-0.1,1.2-0.1,1.8-0.2c0-0.1-0.1-0.4-0.1-0.5c-0.1-0.6-0.9-1-1.3-0.6c-1.5,1.1-3.8,1-5.5,1.8
				c0.5,0.2,1,0.6,1.5,0.9c-0.2-1.9,0.4-1.3-0.2-2.1C42.4,24.5,43.8,23.2,42.9,22.3L42.9,22.3z"/>
		</g>
	</g>
	<g>
		<g>
			<path class="st0" d="M50.9,18.4c0,1.2,0,2.4,0,3.6c0,1.1,1.5,1.2,1.8,0.2c1.9-5,3.3-2.3,6.2-1.3c2.9,1.1,6.1,1.3,9.1,1.2
				c7.3-0.1,14.2-1.6,21.2-3.8c1.2-0.4,0.7-2.2-0.5-1.8c-11.3,3.4-23.1,6-33.7-0.1c-0.2-0.1-0.7-0.2-1,0c-1.7,1.2-2.6,3.2-3.3,5.1
				c0.6,0.1,1.2,0.1,1.8,0.2c0-1.2,0-2.4,0-3.6C52.9,17.2,50.9,17.2,50.9,18.4L50.9,18.4z"/>
		</g>
	</g>
	<g>
		<g>
			<path class="st0" d="M68.3,16c0,0.7-0.1,1.3,0.4,1.9c0.4,0.5,1,0.9,1.5,1.2c1.1,0.6,2.1-1,1-1.7c-0.2-0.1-0.6-0.4-0.9-0.6
				c-0.2-0.2-0.1-0.6-0.1-1C70.3,14.8,68.3,14.8,68.3,16L68.3,16z"/>
		</g>
	</g>
	<g>
		<g>
			<path class="st0" d="M52.4,13.9c1.2,0,1.2-1.9,0-1.9S51.2,13.9,52.4,13.9L52.4,13.9z"/>
		</g>
	</g>
	<g>
		<g>
			<path class="st0" d="M68.1,8.5c1.2,0,1.2-1.9,0-1.9C66.9,6.6,66.9,8.5,68.1,8.5L68.1,8.5z"/>
		</g>
	</g>
</g>
</svg>
