<?xml version="1.0" encoding="utf-8"?>
<!-- Generator: Adobe Illustrator 21.0.0, SVG Export Plug-In . SVG Version: 6.00 Build 0)  -->
<!DOCTYPE svg PUBLIC "-//W3C//DTD SVG 1.1//EN" "http://www.w3.org/Graphics/SVG/1.1/DTD/svg11.dtd">
<svg version="1.1" xmlns="http://www.w3.org/2000/svg" xmlns:xlink="http://www.w3.org/1999/xlink" x="0px" y="0px"
	 viewBox="0 0 32 32" style="enable-background:new 0 0 32 32;" xml:space="preserve">
<style type="text/css">
	.st0{fill:#FFFFFF;}
</style>
<g id="Layer_1">
	<rect x="0.6" y="0.6" class="st0" width="30.7" height="30.7"/>
	<g>
		<g>
			<path d="M29.2,3v26H3V3H29.2 M32.2,0H0v32h32.2V0L32.2,0z"/>
		</g>
	</g>
	<g>
		<path d="M26.2,15.7c0,6-4.6,10.2-10.2,10.2c-5.7,0-10.2-4.1-10.2-10.2C5.8,9.6,10.3,5.4,16,5.4C21.7,5.4,26.2,9.6,26.2,15.7z
			 M23.9,15.7c0-4.9-3.4-8.2-7.9-8.2c-4.5,0-8,3.3-8,8.2c0,4.8,3.5,8.1,8,8.1C20.6,23.8,23.9,20.5,23.9,15.7z M21.5,17.4
			c-0.6,2.2-2.7,3.8-5.5,3.8c-3.4,0-5.5-2.4-5.5-5.6c0-3.4,2.2-5.6,5.6-5.6c2.7,0,4.9,1.6,5.3,4l-2.8,0.7c-0.2-1.3-1.1-2.3-2.5-2.3
			c-1.4,0-2.5,1.1-2.5,3.2c0,2,1,3.2,2.5,3.2c1.3,0,2.3-0.6,2.6-2.1L21.5,17.4z"/>
	</g>
</g>
<g id="Layer_2">
</g>
<g id="Layer_3">
</g>
</svg>
