<?xml version="1.0" encoding="utf-8"?>
<!-- Generator: Adobe Illustrator 21.0.0, SVG Export Plug-In . SVG Version: 6.00 Build 0)  -->
<!DOCTYPE svg PUBLIC "-//W3C//DTD SVG 1.1//EN" "http://www.w3.org/Graphics/SVG/1.1/DTD/svg11.dtd">
<svg version="1.1" id="Layer_1" xmlns="http://www.w3.org/2000/svg" xmlns:xlink="http://www.w3.org/1999/xlink" x="0px" y="0px"
	 viewBox="0 0 100 100" style="enable-background:new 0 0 100 100;" xml:space="preserve">
<style type="text/css">
	.st0{fill:#FFFFFF;}
	.st1{clip-path:url(#SVGID_2_);fill:none;stroke:#000000;stroke-width:4;}
	.st2{clip-path:url(#SVGID_2_);fill:#FFFFFF;}
	.st3{clip-path:url(#SVGID_2_);fill:none;stroke:#000000;stroke-width:3;}
	.st4{clip-path:url(#SVGID_4_);fill:none;stroke:#000000;stroke-width:2;stroke-miterlimit:10;}
	.st5{clip-path:url(#SVGID_6_);fill:none;stroke:#000000;stroke-width:2;}
	.st6{fill:none;stroke:#FFFFFF;stroke-width:2;stroke-linecap:round;stroke-linejoin:round;}
	.st7{fill:none;stroke:#000000;stroke-width:3;stroke-linecap:round;stroke-linejoin:round;}
	.st8{fill:none;stroke:#000000;stroke-width:2;stroke-linecap:round;stroke-linejoin:round;}
</style>
<rect x="2" y="2" class="st0" width="96" height="96"/>
<g>
	<defs>
		<rect id="SVGID_1_" width="100" height="100"/>
	</defs>
	<clipPath id="SVGID_2_">
		<use xlink:href="#SVGID_1_"  style="overflow:visible;"/>
	</clipPath>
	<rect x="2" y="2" class="st1" width="96" height="96"/>
	<path class="st2" d="M23.8,33.3c0,0-2,0-2,2v41.4h56.4V35.3c0,0,0-2-2-2H23.8z"/>
	<path class="st3" d="M23.8,33.3c0,0-2,0-2,2v41.4h56.4V35.3c0,0,0-2-2-2H23.8z"/>
	<path class="st2" d="M35.7,37c0,0-9,0-9,9v16.7c0,0,0,9,9,9h20.2c0,0,9,0,9-9V46c0,0,0-9-9-9H35.7z"/>
</g>
<g>
	<defs>
		<path id="SVGID_3_" d="M35.7,37c0,0-9,0-9,9v16.7c0,0,0,9,9,9h20.2c0,0,9,0,9-9V46c0,0,0-9-9-9H35.7z"/>
	</defs>
	<clipPath id="SVGID_4_">
		<use xlink:href="#SVGID_3_"  style="overflow:visible;"/>
	</clipPath>
	<path class="st4" d="M-443.7-181.8L453.4,336 M-441.7-185.1l897.1,517.8 M-439.8-188.4l897.1,517.8 M-437.9-191.8l897.1,517.8
		 M-436-195.1l897.1,517.8 M-434.1-198.4L463,319.5 M-432.1-201.7l897.1,517.8 M-430.2-205l897.1,517.8 M-428.3-208.3l897.1,517.8
		 M-426.4-211.6l897.1,517.8 M-424.5-215l897.1,517.8 M-422.5-218.3l897.1,517.8 M-420.6-221.6l897.1,517.8 M-418.7-224.9L478.4,293
		 M-416.8-228.2l897.1,517.8 M-414.9-231.5l897.1,517.8 M-412.9-234.8L484.1,283 M-411-238.2l897.1,517.8 M-409.1-241.5L488,276.4
		 M-407.2-244.8l897.1,517.8 M-405.3-248.1l897.1,517.8 M-403.3-251.4l897.1,517.8 M-401.4-254.7l897.1,517.8 M-399.5-258
		l897.1,517.8 M-397.6-261.4l897.1,517.8 M-395.6-264.7l897.1,517.8 M-393.7-268l897.1,517.8 M-391.8-271.3l897.1,517.8
		 M-389.9-274.6l897.1,517.8 M-388-277.9l897.1,517.8 M-386-281.2L511,236.6 M-384.1-284.5L513,233.3"/>
</g>
<g>
	<defs>
		<rect id="SVGID_5_" width="100" height="100"/>
	</defs>
	<clipPath id="SVGID_6_">
		<use xlink:href="#SVGID_5_"  style="overflow:visible;"/>
	</clipPath>
	<path class="st5" d="M35.7,37c0,0-9,0-9,9v16.7c0,0,0,9,9,9h20.2c0,0,9,0,9-9V46c0,0,0-9-9-9H35.7z"/>
</g>
<polygon points="73.3,47 68.7,44.3 68.7,49.7 "/>
<rect x="68.7" y="60.9" width="1.9" height="5"/>
<rect x="71.4" y="60.9" width="1.9" height="5"/>
<polygon points="55.6,55 40,46 40,64 "/>
<polygon class="st6" points="55.6,55 40,46 40,64 "/>
<rect x="68.7" y="52.8" width="4.6" height="4.6"/>
<line class="st7" x1="42.2" y1="33" x2="31.8" y2="19.7"/>
<line class="st7" x1="45.5" y1="32.7" x2="53.9" y2="19.5"/>
<polyline class="st8" points="21.3,8.2 23.1,13.7 26.8,11.9 29.4,16.5 "/>
</svg>
