<?xml version="1.0" encoding="utf-8"?>
<!-- Generator: Adobe Illustrator 21.0.0, SVG Export Plug-In . SVG Version: 6.00 Build 0)  -->
<!DOCTYPE svg PUBLIC "-//W3C//DTD SVG 1.1//EN" "http://www.w3.org/Graphics/SVG/1.1/DTD/svg11.dtd">
<svg version="1.1" id="Layer_1" xmlns="http://www.w3.org/2000/svg" xmlns:xlink="http://www.w3.org/1999/xlink" x="0px" y="0px"
	 viewBox="0 0 100 100" style="enable-background:new 0 0 100 100;" xml:space="preserve">
<style type="text/css">
	.st0{fill:#FFFFFF;}
	.st1{clip-path:url(#SVGID_2_);fill:none;stroke:#000000;stroke-width:4;}
	.st2{clip-path:url(#SVGID_4_);fill:none;stroke:#000000;stroke-width:2;stroke-miterlimit:10;}
	.st3{fill:none;stroke:#000000;stroke-width:3;stroke-linejoin:round;}
	.st4{fill:none;stroke:#000000;stroke-width:1.44;stroke-linecap:round;}
	.st5{clip-path:url(#SVGID_6_);}
	.st6{clip-path:url(#SVGID_6_);fill:none;stroke:#000000;stroke-width:0.72;}
	.st7{fill:none;stroke:#000000;}
</style>
<rect x="2" y="2" class="st0" width="96" height="96"/>
<g>
	<defs>
		<rect id="SVGID_1_" width="100" height="100"/>
	</defs>
	<clipPath id="SVGID_2_">
		<use xlink:href="#SVGID_1_"  style="overflow:visible;"/>
	</clipPath>
	<rect x="2" y="2" class="st1" width="96" height="96"/>
</g>
<g>
	<defs>
		<rect id="SVGID_3_" x="33" y="18.7" width="45.7" height="71.1"/>
	</defs>
	<clipPath id="SVGID_4_">
		<use xlink:href="#SVGID_3_"  style="overflow:visible;"/>
	</clipPath>
	<path class="st2" d="M-248-79.3l897.1,517.8 M-246.1-82.6L651,435.2 M-244.2-86l897.1,517.8 M-242.2-89.3l897.1,517.8 M-240.3-92.6
		l897.1,517.8 M-238.4-95.9L658.7,422 M-236.5-99.2l897.1,517.8 M-234.6-102.5l897.1,517.8 M-232.6-105.8L664.4,412 M-230.7-109.2
		l897.1,517.8 M-228.8-112.5l897.1,517.8 M-226.9-115.8l897.1,517.8 M-224.9-119.1l897.1,517.9 M-223-122.4L674,395.4 M-221.1-125.7
		L676,392.1 M-219.2-129l897.1,517.8 M-217.3-132.4l897.1,517.8 M-215.3-135.7l897.1,517.8 M-213.4-139l897.1,517.9 M-211.5-142.3
		l897.1,517.8 M-209.6-145.6l897.1,517.8 M-207.7-148.9l897.1,517.8 M-205.7-152.2l897.1,517.8 M-203.8-155.5l897.1,517.9
		 M-201.9-158.9L695.2,359 M-200-162.2l897.1,517.8 M-198.1-165.5L699,352.4 M-196.1-168.8L700.9,349 M-194.2-172.1l897.1,517.8
		 M-192.3-175.4l897.1,517.8 M-190.4-178.7l897.1,517.8 M-188.5-182.1l897.1,517.8"/>
	<path class="st2" d="M-309.1,26.5L588,544.3 M-307.2,23.2L589.9,541 M-305.2,19.9l897.1,517.9 M-303.3,16.5l897.1,517.8
		 M-301.4,13.2l897.1,517.8 M-299.5,9.9l897.1,517.8 M-297.6,6.6l897.1,517.9 M-295.6,3.3l897.1,517.8 M-293.7,0l897.1,517.8
		 M-291.8-3.3l897.1,517.9 M-289.9-6.7l897.1,517.9 M-288-10l897.1,517.8 M-286-13.3L611,504.6 M-284.1-16.6L613,501.3 M-282.2-19.9
		l897.1,517.8 M-280.3-23.2l897.1,517.8 M-278.4-26.5l897.1,517.8 M-276.4-29.9L620.6,488 M-274.5-33.2l897.1,517.9 M-272.6-36.5
		l897.1,517.8 M-270.7-39.8l897.1,517.8 M-268.8-43.1l897.1,517.8 M-266.8-46.4l897.1,517.8 M-264.9-49.7l897.1,517.9 M-263-53.1
		l897.1,517.8 M-261.1-56.4L636,461.5 M-259.1-59.7l897.1,517.8 M-257.2-63l897.1,517.8 M-255.3-66.3l897.1,517.8 M-253.4-69.6
		l897.1,517.9 M-251.5-72.9l897.1,517.8 M-249.5-76.2l897.1,517.8"/>
</g>
<rect x="26.5" y="14.5" class="st0" width="47" height="71.1"/>
<rect x="26.5" y="14.5" class="st3" width="47" height="71.1"/>
<line class="st4" x1="50.1" y1="20" x2="45.4" y2="7.7"/>
<g>
	<defs>
		<rect id="SVGID_5_" width="100" height="100"/>
	</defs>
	<clipPath id="SVGID_6_">
		<use xlink:href="#SVGID_5_"  style="overflow:visible;"/>
	</clipPath>
	<path class="st5" d="M48.7,7.3c0.4,1-0.5,2.3-2.1,2.9c-1.5,0.6-3.1,0.4-3.5-0.6c-0.4-1,0.5-2.3,2.1-2.9C46.7,6.1,48.3,6.3,48.7,7.3
		"/>
	<path class="st6" d="M48.7,7.3c0.4,1-0.5,2.3-2.1,2.9c-1.5,0.6-3.1,0.4-3.5-0.6c-0.4-1,0.5-2.3,2.1-2.9C46.7,6.1,48.3,6.3,48.7,7.3
		z"/>
</g>
<line class="st7" x1="52.9" y1="19.5" x2="48.1" y2="20.9"/>
</svg>
