<?xml version="1.0" encoding="utf-8"?>
<!-- Generator: Adobe Illustrator 21.0.0, SVG Export Plug-In . SVG Version: 6.00 Build 0)  -->
<!DOCTYPE svg PUBLIC "-//W3C//DTD SVG 1.1//EN" "http://www.w3.org/Graphics/SVG/1.1/DTD/svg11.dtd">
<svg version="1.1" id="Layer_1" xmlns="http://www.w3.org/2000/svg" xmlns:xlink="http://www.w3.org/1999/xlink" x="0px" y="0px"
	 viewBox="0 0 100 100" style="enable-background:new 0 0 100 100;" xml:space="preserve">
<style type="text/css">
	.st0{fill:#FFFFFF;}
	.st1{clip-path:url(#SVGID_2_);fill:none;stroke:#000000;stroke-width:4;}
	.st2{clip-path:url(#SVGID_4_);fill:none;stroke:#000000;stroke-width:2;stroke-miterlimit:10;}
	.st3{clip-path:url(#SVGID_4_);fill:none;stroke:#231F20;stroke-width:2;stroke-miterlimit:10;}
	.st4{fill:none;stroke:#000000;stroke-width:3;stroke-linecap:round;stroke-linejoin:round;}
	.st5{clip-path:url(#SVGID_6_);fill:none;stroke:#000000;stroke-width:2;stroke-miterlimit:10;}
	.st6{clip-path:url(#SVGID_6_);fill:none;stroke:#231F20;stroke-width:2;stroke-miterlimit:10;}
</style>
<rect x="2" y="2" class="st0" width="96" height="96"/>
<g>
	<defs>
		<rect id="SVGID_1_" width="100" height="100"/>
	</defs>
	<clipPath id="SVGID_2_">
		<use xlink:href="#SVGID_1_"  style="overflow:visible;"/>
	</clipPath>
	<rect x="2" y="2" class="st1" width="96" height="96"/>
</g>
<rect x="21.7" y="12.9" transform="matrix(0.9659 -0.2588 0.2588 0.9659 -10.6418 13.8722)" class="st0" width="51.3" height="68.9"/>
<g>
	<defs>
		
			<rect id="SVGID_3_" x="21.7" y="12.9" transform="matrix(0.9659 -0.2588 0.2588 0.9659 -10.6417 13.8722)" width="51.3" height="68.9"/>
	</defs>
	<clipPath id="SVGID_4_">
		<use xlink:href="#SVGID_3_"  style="overflow:visible;"/>
	</clipPath>
	<path class="st2" d="M-127.7-13.1l897.1,517.8 M-125.8-16.4l897.1,517.9 M-123.9-19.7l897.1,517.9 M-122-23.1l897.1,517.8
		 M-120-26.4L777,491.5 M-118.1-29.7L779,488.2 M-116.2-33l897.1,517.8 M-114.3-36.3l897.1,517.8 M-112.4-39.6l897.1,517.9
		 M-110.4-42.9l897.1,517.8 M-108.5-46.2l897.1,517.9 M-106.6-49.6l897.1,517.8 M-104.7-52.9L792.4,465 M-102.8-56.2l897.1,517.8
		 M-100.8-59.5l897.1,517.8 M-98.9-62.8L798.2,455 M-97-66.1l897.1,517.8 M-95.1-69.4L802,448.4 M-93.2-72.8l897.1,517.9
		 M-91.2-76.1l897.1,517.9 M-89.3-79.4l897.1,517.8 M-87.4-82.7l897.1,517.9 M-85.5-86l897.1,517.8 M-83.5-89.3l897.1,517.9
		 M-81.6-92.6l897.1,517.8 M-79.7-96l897.1,517.8 M-77.8-99.3l897.1,517.8 M-75.9-102.6l897.1,517.9 M-73.9-105.9L823.1,412
		 M-72-109.2L825,408.6 M-70.1-112.5L827,405.3 M-68.2-115.8L828.9,402"/>
	<path class="st3" d="M-180.3,97.8l888.5,512.9 M-178.4,94.5l888.5,512.9 M-176.5,91.2L712,604.1 M-174.6,87.9l888.5,512.9
		 M-172.6,84.6l888.5,512.9 M-170.7,81.2l888.5,512.9 M-168.8,77.9l888.5,512.9 M-166.9,74.6l888.5,512.9 M-165,71.3l888.5,512.9
		 M-163,68l888.5,512.9 M-161.1,64.7l888.5,512.9 M-159.2,61.4l888.5,512.9 M-157.3,58l888.5,512.9 M-155.4,54.7l888.5,512.9
		 M-153.4,51.4l888.5,512.9 M-151.5,48.1L737,561 M-149.6,44.8l888.5,512.9 M-147.7,41.5l888.5,512.9 M-145.8,38.2l888.5,512.9
		 M-143.8,34.8l888.5,512.9 M-141.9,31.5l888.5,512.9 M-140,28.2l888.5,512.9 M-138.1,24.9l888.5,512.9 M-136.2,21.6l888.5,512.9
		 M-134.2,18.3l888.5,512.9 M-132.3,15l888.5,512.9 M-130.4,11.6l888.5,512.9 M-128.5,8.3L760,521.2 M-126.6,5l888.5,512.9
		 M-124.6,1.7l888.5,512.9 M-122.7-1.6l888.5,512.9 M-120.8-4.9L767.7,508"/>
</g>
<rect x="21.7" y="12.9" transform="matrix(0.9659 -0.2588 0.2588 0.9659 -10.6418 13.8722)" class="st4" width="51.3" height="68.9"/>
<polygon class="st0" points="31.5,87.2 13.7,20.7 59.8,16.4 77.6,82.9 "/>
<polygon class="st4" points="31.5,87.2 13.7,20.7 59.8,16.4 77.6,82.9 "/>
<polygon class="st0" points="31.5,87.2 13.7,20.7 56.4,20.7 74.2,87.2 "/>
<g>
	<defs>
		<polygon id="SVGID_5_" points="31.5,87.2 74.2,87.2 56.4,20.7 13.7,20.7 		"/>
	</defs>
	<clipPath id="SVGID_6_">
		<use xlink:href="#SVGID_5_"  style="overflow:visible;"/>
	</clipPath>
	<path class="st5" d="M-127.7-13.1l897.1,517.8 M-125.8-16.4l897.1,517.9 M-123.9-19.7l897.1,517.9 M-122-23.1l897.1,517.8
		 M-120-26.4L777,491.5 M-118.1-29.7L779,488.2 M-116.2-33l897.1,517.8 M-114.3-36.3l897.1,517.8 M-112.4-39.6l897.1,517.9
		 M-110.4-42.9l897.1,517.8 M-108.5-46.2l897.1,517.9 M-106.6-49.6l897.1,517.8 M-104.7-52.9L792.4,465 M-102.8-56.2l897.1,517.8
		 M-100.8-59.5l897.1,517.8 M-98.9-62.8L798.2,455 M-97-66.1l897.1,517.8 M-95.1-69.4L802,448.4 M-93.2-72.8l897.1,517.9
		 M-91.2-76.1l897.1,517.9 M-89.3-79.4l897.1,517.8 M-87.4-82.7l897.1,517.9 M-85.5-86l897.1,517.8 M-83.5-89.3l897.1,517.9
		 M-81.6-92.6l897.1,517.8 M-79.7-96l897.1,517.8 M-77.8-99.3l897.1,517.8 M-75.9-102.6l897.1,517.9 M-73.9-105.9L823.1,412
		 M-72-109.2L825,408.6 M-70.1-112.5L827,405.3 M-68.2-115.8L828.9,402"/>
	<path class="st6" d="M-180.3,97.8l888.5,512.9 M-178.4,94.5l888.5,512.9 M-176.5,91.2L712,604.1 M-174.6,87.9l888.5,512.9
		 M-172.6,84.6l888.5,512.9 M-170.7,81.2l888.5,512.9 M-168.8,77.9l888.5,512.9 M-166.9,74.6l888.5,512.9 M-165,71.3l888.5,512.9
		 M-163,68l888.5,512.9 M-161.1,64.7l888.5,512.9 M-159.2,61.4l888.5,512.9 M-157.3,58l888.5,512.9 M-155.4,54.7l888.5,512.9
		 M-153.4,51.4l888.5,512.9 M-151.5,48.1L737,561 M-149.6,44.8l888.5,512.9 M-147.7,41.5l888.5,512.9 M-145.8,38.2l888.5,512.9
		 M-143.8,34.8l888.5,512.9 M-141.9,31.5l888.5,512.9 M-140,28.2l888.5,512.9 M-138.1,24.9l888.5,512.9 M-136.2,21.6l888.5,512.9
		 M-134.2,18.3l888.5,512.9 M-132.3,15l888.5,512.9 M-130.4,11.6l888.5,512.9 M-128.5,8.3L760,521.2 M-126.6,5l888.5,512.9
		 M-124.6,1.7l888.5,512.9 M-122.7-1.6l888.5,512.9 M-120.8-4.9L767.7,508"/>
</g>
<polygon class="st4" points="31.5,87.2 13.7,20.7 56.4,20.7 74.2,87.2 "/>
<polygon class="st0" points="31.5,87.1 13.7,20.7 50.8,26.2 68.6,92.7 "/>
<polygon class="st4" points="31.5,87.1 13.7,20.7 50.8,26.2 68.6,92.7 "/>
</svg>
