<?xml version="1.0" encoding="utf-8"?>
<!-- Generator: Adobe Illustrator 21.0.0, SVG Export Plug-In . SVG Version: 6.00 Build 0)  -->
<!DOCTYPE svg PUBLIC "-//W3C//DTD SVG 1.1//EN" "http://www.w3.org/Graphics/SVG/1.1/DTD/svg11.dtd">
<svg version="1.1" id="Layer_1" xmlns="http://www.w3.org/2000/svg" xmlns:xlink="http://www.w3.org/1999/xlink" x="0px" y="0px"
	 viewBox="0 0 100 100" style="enable-background:new 0 0 100 100;" xml:space="preserve">
<style type="text/css">
	.st0{fill:#FFFFFF;}
	.st1{clip-path:url(#SVGID_2_);fill:none;stroke:#000000;stroke-width:4;}
	.st2{clip-path:url(#SVGID_4_);}
	.st3{fill:#231F20;}
	.st4{font-family:'SuisseIntl-Black';}
	.st5{font-size:38.6791px;}
	.st6{clip-path:url(#SVGID_6_);}
</style>
<rect x="2" y="2" class="st0" width="96" height="96"/>
<g>
	<defs>
		<rect id="SVGID_1_" width="100" height="100"/>
	</defs>
	<clipPath id="SVGID_2_">
		<use xlink:href="#SVGID_1_"  style="overflow:visible;"/>
	</clipPath>
	<rect x="2" y="2" class="st1" width="96" height="96"/>
</g>
<polygon class="st0" points="45.2,63.8 45.2,14.7 26.4,14.7 26.4,80 75.7,80 75.7,63.8 "/>
<g>
	<defs>
		<polygon id="SVGID_3_" points="26.4,14.7 26.4,80 75.7,80 75.7,63.8 45.2,63.8 45.2,14.7 		"/>
	</defs>
	<clipPath id="SVGID_4_">
		<use xlink:href="#SVGID_3_"  style="overflow:visible;"/>
	</clipPath>
	<g class="st2">
		<path d="M56.8,37.2v11.4H22.1v-46h13.3v34.6H56.8z"/>
		<path d="M99.4,37.2v11.4H64.7v-46h13.3v34.6H99.4z"/>
	</g>
	<g class="st2">
		<text transform="matrix(1 0 0 1 99.3232 48.6665)" class="st3 st4 st5"> </text>
	</g>
	<g class="st2">
		<path d="M15.2,74V67H40V74h-8.4v21.1h-8.1V74H15.2z"/>
		<path d="M42.8,81c0-9.2,6.1-14.6,14.7-14.6c8.6,0,14.7,5.4,14.7,14.6c0,9.2-6.1,14.6-14.7,14.6C48.9,95.6,42.8,90.2,42.8,81z
			 M63.8,81c0-5.5-3.1-7.9-6.3-7.9c-3.2,0-6.3,2.3-6.3,7.9s3.1,7.8,6.3,7.8C60.8,88.8,63.8,86.5,63.8,81z"/>
		<path d="M102.1,76.5c0,7.6-5.5,9.4-12.8,9.4H86v9.1h-8.1V67h11.4C96.6,67,102.1,68.9,102.1,76.5z M86,79.4H90
			c2.3,0,3.7-0.9,3.7-2.9c0-2.1-1.4-2.9-3.7-2.9H86V79.4z"/>
	</g>
</g>
<g>
	<defs>
		<polygon id="SVGID_5_" points="26.4,14.7 26.4,80 75.7,80 75.7,63.8 45.2,63.8 45.2,14.7 		"/>
	</defs>
	<clipPath id="SVGID_6_">
		<use xlink:href="#SVGID_5_"  style="overflow:visible;"/>
	</clipPath>
	<g class="st6">
		<path d="M53.4,38.1V18.9l-8.4,8.7l-6-6.2L58.7,1.7l19.7,19.7l-6,6.2l-8.4-8.7v19.2h11.8v10.5H41.6V38.1H53.4z"/>
	</g>
</g>
</svg>
