<?xml version="1.0" encoding="utf-8"?>
<!-- Generator: Adobe Illustrator 21.0.0, SVG Export Plug-In . SVG Version: 6.00 Build 0)  -->
<!DOCTYPE svg PUBLIC "-//W3C//DTD SVG 1.1//EN" "http://www.w3.org/Graphics/SVG/1.1/DTD/svg11.dtd">
<svg version="1.1" id="Layer_1" xmlns="http://www.w3.org/2000/svg" xmlns:xlink="http://www.w3.org/1999/xlink" x="0px" y="0px"
	 viewBox="0 0 100 100" style="enable-background:new 0 0 100 100;" xml:space="preserve">
<style type="text/css">
	.st0{fill:#FFFFFF;}
	.st1{clip-path:url(#SVGID_2_);fill:none;stroke:#000000;stroke-width:4;}
	.st2{clip-path:url(#SVGID_2_);fill:none;stroke:#000000;stroke-width:3;}
	.st3{clip-path:url(#SVGID_2_);fill:#FFFFFF;stroke:#000000;stroke-miterlimit:10;}
	.st4{clip-path:url(#SVGID_2_);fill:#FFFFFF;}
</style>
<rect x="2" y="2" class="st0" width="96" height="96"/>
<g>
	<defs>
		<rect id="SVGID_1_" width="100" height="100"/>
	</defs>
	<clipPath id="SVGID_2_">
		<use xlink:href="#SVGID_1_"  style="overflow:visible;"/>
	</clipPath>
	<rect x="2" y="2" class="st1" width="96" height="96"/>
	<path class="st2" d="M52.3,60.2c0,0-45.1-17.6-42-33l45.7,29.9L52.3,60.2z"/>
	<path class="st3" d="M56.6,54.9c0,0-10.4-47.3-26-46.7L53,58L56.6,54.9z"/>
	<path class="st2" d="M56.6,54.9c0,0-10.4-47.3-26-46.7L53,58L56.6,54.9z"/>
	<path class="st2" d="M68.4,60.1c0,0-3.5-3.7-9.6-2.7"/>
	<path class="st2" d="M68.2,57c0,0-4-3.1-9.9-1.4"/>
	<path class="st2" d="M58.7,68.8c0,0-4.2-1.7-4.3-6.2"/>
	<path class="st2" d="M62.6,67.3c0,0-4.8-0.4-5.7-4.9"/>
	<path class="st4" d="M55.1,69.9c-3.3,4.1-1.3,11.2,4.5,15.9c5.8,4.7,13.2,5.2,16.5,1.1c3.3-4.1,1.3-11.2-4.5-15.9
		C65.8,66.2,58.4,65.8,55.1,69.9"/>
	<ellipse transform="matrix(0.6293 -0.7772 0.7772 0.6293 -36.5758 80.0235)" class="st2" cx="65.6" cy="78.4" rx="9.6" ry="13.5"/>
	<path class="st4" d="M60.2,74.1c-1.7,2-0.6,5.6,2.3,8c2.9,2.4,6.7,2.7,8.3,0.6s0.6-5.6-2.3-8C65.6,72.4,61.9,72.1,60.2,74.1"/>
	<ellipse transform="matrix(0.6293 -0.7772 0.7772 0.6293 -36.6554 80.0054)" class="st2" cx="65.5" cy="78.4" rx="4.8" ry="6.9"/>
	<path class="st4" d="M52,55.7c-1.6,2-1.3,5,0.7,6.6c2,1.6,5,1.3,6.6-0.7c1.6-2,1.3-5-0.7-6.6C56.6,53.4,53.6,53.7,52,55.7"/>
	<ellipse transform="matrix(0.6293 -0.7772 0.7772 0.6293 -24.9834 64.9915)" class="st2" cx="55.6" cy="58.7" rx="4.7" ry="4.7"/>
	<path class="st4" d="M66.2,48.8c-2.8,3.5-1.8,9,2.3,12.3c4.1,3.3,9.7,3.2,12.5-0.3c2.8-3.5,1.8-9-2.3-12.3S69,45.3,66.2,48.8"/>
	<ellipse transform="matrix(0.6293 -0.7772 0.7772 0.6293 -15.3063 77.4978)" class="st2" cx="73.6" cy="54.8" rx="8.1" ry="9.5"/>
	<path class="st4" d="M70.2,51.8c-1.2,1.5-0.6,3.9,1.2,5.4c1.9,1.5,4.3,1.6,5.5,0.1c1.2-1.5,0.6-3.9-1.2-5.4
		C73.8,50.4,71.4,50.3,70.2,51.8"/>
	<ellipse transform="matrix(0.6294 -0.7771 0.7771 0.6294 -15.1258 77.3897)" class="st2" cx="73.6" cy="54.6" rx="3.4" ry="4.4"/>
</g>
</svg>
