<?xml version="1.0" encoding="utf-8"?>
<!-- Generator: Adobe Illustrator 21.0.0, SVG Export Plug-In . SVG Version: 6.00 Build 0)  -->
<!DOCTYPE svg PUBLIC "-//W3C//DTD SVG 1.1//EN" "http://www.w3.org/Graphics/SVG/1.1/DTD/svg11.dtd">
<svg version="1.1" id="Layer_1" xmlns="http://www.w3.org/2000/svg" xmlns:xlink="http://www.w3.org/1999/xlink" x="0px" y="0px"
	 viewBox="0 0 100 100" style="enable-background:new 0 0 100 100;" xml:space="preserve">
<style type="text/css">
	.st0{fill:#FFFFFF;}
	.st1{clip-path:url(#SVGID_2_);fill:#FFFFFF;stroke:#000000;stroke-width:4;}
	.st2{clip-path:url(#SVGID_2_);}
	.st3{clip-path:url(#SVGID_2_);fill:#FFFFFF;stroke:#000000;stroke-width:3;}
	.st4{fill:none;stroke:#000000;stroke-width:3;}
	.st5{clip-path:url(#SVGID_4_);fill:#FFFFFF;}
	.st6{clip-path:url(#SVGID_6_);fill:none;stroke:#000000;stroke-width:0.7;stroke-miterlimit:10;}
	.st7{clip-path:url(#SVGID_8_);fill:#FFFFFF;}
	.st8{clip-path:url(#SVGID_10_);fill:none;stroke:#000000;stroke-width:0.7;stroke-miterlimit:10;}
</style>
<rect x="2" y="2" class="st0" width="96" height="96"/>
<g>
	<defs>
		<rect id="SVGID_1_" width="100" height="100"/>
	</defs>
	<use xlink:href="#SVGID_1_"  style="overflow:visible;"/>
	<clipPath id="SVGID_2_">
		<use xlink:href="#SVGID_1_"  style="overflow:visible;"/>
	</clipPath>
	<rect x="2" y="2" class="st1" width="96" height="96"/>
	<path class="st2" d="M60.9,19.4L47.8,8.6l-8.4,1c-0.6,3-3,5.4-6.2,5.8c-3.2,0.4-6.2-1.4-7.5-4.2L17,12.3L7,26l7.8,7.9l4.5-3.5
		l4,32.2l11.4-1.4l7.9-1L54,58.8l-4-32.2l5.2,2.3L60.9,19.4z"/>
	<path class="st3" d="M60.9,19.4L47.8,8.6l-8.4,1c-0.6,3-3,5.4-6.2,5.8c-3.2,0.4-6.2-1.4-7.5-4.2L17,12.3L7,26l7.8,7.9l4.5-3.5
		l4,32.2l11.4-1.4l7.9-1L54,58.8l-4-32.2l5.2,2.3L60.9,19.4z"/>
</g>
<rect x="46.2" y="48.4" transform="matrix(0.3907 -0.9205 0.9205 0.3907 -18.6376 101.7164)" class="st0" width="42.7" height="33"/>
<rect x="46.2" y="48.4" transform="matrix(0.3907 -0.9205 0.9205 0.3907 -18.6376 101.7164)" class="st4" width="42.7" height="33"/>
<g>
	<defs>
		<rect id="SVGID_3_" width="100" height="100"/>
	</defs>
	<clipPath id="SVGID_4_">
		<use xlink:href="#SVGID_3_"  style="overflow:visible;"/>
	</clipPath>
	<path class="st5" d="M24.2,44.7c0,0,0.8,8.9,6.4,10.3c5.6,1.5,2.2-1.7,2.2-1.7L24.2,44.7z"/>
</g>
<g>
	<defs>
		<path id="SVGID_5_" d="M30.5,55c5.6,1.5,2.2-1.7,2.2-1.7l-8.5-8.6C24.2,44.7,24.9,53.5,30.5,55"/>
	</defs>
	<clipPath id="SVGID_6_">
		<use xlink:href="#SVGID_5_"  style="overflow:visible;"/>
	</clipPath>
	<path class="st6" d="M-22.1,258.1l209.7-394.4 M-23.6,257.3l209.7-394.4 M-25.1,256.5l209.7-394.4 M-26.6,255.7l209.7-394.4
		 M-28,254.9l209.7-394.4 M-29.5,254.1l209.7-394.4 M-31,253.3l209.7-394.4 M-32.4,252.6l209.7-394.4 M-33.9,251.8l209.7-394.4
		 M-35.4,251l209.7-394.4 M-36.9,250.2l209.7-394.4 M-38.3,249.4L171.4-145 M-39.8,248.6l209.7-394.4 M-41.3,247.8l209.7-394.4
		 M-42.7,247.1l209.7-394.4 M-44.2,246.3l209.7-394.4 M-45.7,245.5L164-148.9 M-47.2,244.7l209.7-394.4 M-48.6,243.9l209.7-394.4
		 M-50.1,243.1l209.7-394.4 M-51.6,242.4l209.7-394.4 M-53,241.6l209.7-394.4 M-54.5,240.8l209.7-394.4 M-56,240l209.7-394.4
		 M-57.5,239.2l209.7-394.4 M-58.9,238.4L150.8-156 M-60.4,237.6l209.7-394.4 M-61.9,236.9l209.7-394.4 M-63.3,236.1l209.7-394.4
		 M-64.8,235.3l209.7-394.4 M-66.3,234.5l209.7-394.4 M-67.8,233.7l209.7-394.4"/>
	<path class="st6" d="M-84,260.7l211.7-398.2 M-85.5,259.9l211.7-398.2 M-87,259.2l211.7-398.2 M-88.5,258.4l211.7-398.2
		 M-89.9,257.6l211.7-398.2 M-91.4,256.8l211.7-398.2 M-92.9,256l211.7-398.2 M-94.3,255.2L117.4-143 M-95.8,254.5l211.7-398.2
		 M-97.3,253.7l211.7-398.2 M-98.8,252.9L113-145.4 M-100.2,252.1l211.7-398.2 M-101.7,251.3L110-146.9 M-103.2,250.5l211.7-398.2
		 M-104.6,249.7l211.7-398.2 M-106.1,249l211.7-398.2 M-107.6,248.2l211.7-398.2 M-109.1,247.4l211.7-398.2 M-110.5,246.6
		l211.7-398.2 M-112,245.8L99.7-152.4 M-113.5,245L98.2-153.2 M-114.9,244.2L96.8-154 M-116.4,243.5L95.3-154.8 M-117.9,242.7
		L93.8-155.6 M-119.4,241.9L92.4-156.4 M-120.8,241.1L90.9-157.1 M-122.3,240.3L89.4-157.9 M-123.8,239.5L87.9-158.7 M-125.2,238.7
		L86.5-159.5 M-126.7,238L85-160.3 M-128.2,237.2L83.5-161.1 M-129.7,236.4L82.1-161.9"/>
</g>
<g>
	<defs>
		<rect id="SVGID_7_" width="100" height="100"/>
	</defs>
	<clipPath id="SVGID_8_">
		<use xlink:href="#SVGID_7_"  style="overflow:visible;"/>
	</clipPath>
	<path class="st7" d="M33.1,49.6c0,0,2.6-10.5-3.2-14.3c-5.8-3.9-3.2,1.1-3.2,1.1L33.1,49.6z"/>
</g>
<g>
	<defs>
		<path id="SVGID_9_" d="M26.8,36.4l6.4,13.2c0,0,2.6-10.5-3.2-14.3c-1.6-1.1-2.6-1.5-3.1-1.5C25.4,33.8,26.8,36.4,26.8,36.4"/>
	</defs>
	<clipPath id="SVGID_10_">
		<use xlink:href="#SVGID_9_"  style="overflow:visible;"/>
	</clipPath>
	<path class="st8" d="M-22.1,258.1l209.7-394.4 M-23.6,257.3l209.7-394.4 M-25.1,256.5l209.7-394.4 M-26.6,255.7l209.7-394.4
		 M-28,254.9l209.7-394.4 M-29.5,254.1l209.7-394.4 M-31,253.3l209.7-394.4 M-32.4,252.6l209.7-394.4 M-33.9,251.8l209.7-394.4
		 M-35.4,251l209.7-394.4 M-36.9,250.2l209.7-394.4 M-38.3,249.4L171.4-145 M-39.8,248.6l209.7-394.4 M-41.3,247.8l209.7-394.4
		 M-42.7,247.1l209.7-394.4 M-44.2,246.3l209.7-394.4 M-45.7,245.5L164-148.9 M-47.2,244.7l209.7-394.4 M-48.6,243.9l209.7-394.4
		 M-50.1,243.1l209.7-394.4 M-51.6,242.4l209.7-394.4 M-53,241.6l209.7-394.4 M-54.5,240.8l209.7-394.4 M-56,240l209.7-394.4
		 M-57.5,239.2l209.7-394.4 M-58.9,238.4L150.8-156 M-60.4,237.6l209.7-394.4 M-61.9,236.9l209.7-394.4 M-63.3,236.1l209.7-394.4
		 M-64.8,235.3l209.7-394.4 M-66.3,234.5l209.7-394.4 M-67.8,233.7l209.7-394.4"/>
	<path class="st8" d="M-84,260.7l211.7-398.2 M-85.5,259.9l211.7-398.2 M-87,259.2l211.7-398.2 M-88.5,258.4l211.7-398.2
		 M-89.9,257.6l211.7-398.2 M-91.4,256.8l211.7-398.2 M-92.9,256l211.7-398.2 M-94.3,255.2L117.4-143 M-95.8,254.5l211.7-398.2
		 M-97.3,253.7l211.7-398.2 M-98.8,252.9L113-145.4 M-100.2,252.1l211.7-398.2 M-101.7,251.3L110-146.9 M-103.2,250.5l211.7-398.2
		 M-104.6,249.7l211.7-398.2 M-106.1,249l211.7-398.2 M-107.6,248.2l211.7-398.2 M-109.1,247.4l211.7-398.2 M-110.5,246.6
		l211.7-398.2 M-112,245.8L99.7-152.4 M-113.5,245L98.2-153.2 M-114.9,244.2L96.8-154 M-116.4,243.5L95.3-154.8 M-117.9,242.7
		L93.8-155.6 M-119.4,241.9L92.4-156.4 M-120.8,241.1L90.9-157.1 M-122.3,240.3L89.4-157.9 M-123.8,239.5L87.9-158.7 M-125.2,238.7
		L86.5-159.5 M-126.7,238L85-160.3 M-128.2,237.2L83.5-161.1 M-129.7,236.4L82.1-161.9"/>
</g>
</svg>
