<?xml version="1.0" encoding="utf-8"?>
<!-- Generator: Adobe Illustrator 21.0.0, SVG Export Plug-In . SVG Version: 6.00 Build 0)  -->
<!DOCTYPE svg PUBLIC "-//W3C//DTD SVG 1.1//EN" "http://www.w3.org/Graphics/SVG/1.1/DTD/svg11.dtd">
<svg version="1.1" id="Layer_1" xmlns="http://www.w3.org/2000/svg" xmlns:xlink="http://www.w3.org/1999/xlink" x="0px" y="0px"
	 viewBox="0 0 100 100" style="enable-background:new 0 0 100 100;" xml:space="preserve">
<style type="text/css">
	.st0{fill:#FFFFFF;}
	.st1{clip-path:url(#SVGID_2_);fill:none;stroke:#000000;stroke-width:4;}
	.st2{clip-path:url(#SVGID_4_);fill:#FFFFFF;}
	.st3{clip-path:url(#SVGID_6_);fill:none;stroke:#000000;stroke-width:3;}
	.st4{clip-path:url(#SVGID_8_);fill:#FFFFFF;}
	.st5{clip-path:url(#SVGID_10_);fill:none;stroke:#000000;stroke-width:2.0005;stroke-miterlimit:10;}
	.st6{clip-path:url(#SVGID_12_);fill:none;stroke:#000000;stroke-width:1.9685;}
	.st7{fill:none;stroke:#FFFFFF;stroke-width:2;stroke-linecap:round;stroke-linejoin:round;}
	.st8{fill:none;stroke:#000000;stroke-width:3;stroke-linecap:round;stroke-linejoin:round;}
	.st9{fill:none;stroke:#000000;stroke-width:2;stroke-linecap:round;stroke-linejoin:round;}
</style>
<rect x="2" y="2" class="st0" width="96" height="96"/>
<g>
	<g>
		<g>
			<defs>
				<rect id="SVGID_1_" width="100" height="100"/>
			</defs>
			<clipPath id="SVGID_2_">
				<use xlink:href="#SVGID_1_"  style="overflow:visible;"/>
			</clipPath>
			<rect x="2" y="2" class="st1" width="96" height="96"/>
		</g>
	</g>
	<g>
		<g>
			<defs>
				<rect id="SVGID_3_" width="100" height="100"/>
			</defs>
			<clipPath id="SVGID_4_">
				<use xlink:href="#SVGID_3_"  style="overflow:visible;"/>
			</clipPath>
			<path class="st2" d="M23.8,33.3c0,0-2,0-2,2v41.4h56.4V35.3c0,0,0-2-2-2H23.8z"/>
		</g>
	</g>
	<g>
		<g>
			<defs>
				<rect id="SVGID_5_" width="100" height="100"/>
			</defs>
			<clipPath id="SVGID_6_">
				<use xlink:href="#SVGID_5_"  style="overflow:visible;"/>
			</clipPath>
			<path class="st3" d="M23.8,33.3c0,0-2,0-2,2v41.4h56.4V35.3c0,0,0-2-2-2H23.8z"/>
		</g>
	</g>
	<g>
		<g>
			<defs>
				<rect id="SVGID_7_" width="100" height="100"/>
			</defs>
			<clipPath id="SVGID_8_">
				<use xlink:href="#SVGID_7_"  style="overflow:visible;"/>
			</clipPath>
			<path class="st4" d="M35.7,37c0,0-9,0-9,9v16.7c0,0,0,9,9,9h20.2c0,0,9,0,9-9V46c0,0,0-9-9-9H35.7z"/>
		</g>
	</g>
</g>
<g>
	<g>
		<g>
			<defs>
				<path id="SVGID_9_" d="M35.7,37.4c0,0-9,0-9,9v16.7c0,0,0,9,9,9h20.2c0,0,9,0,9-9V46.4c0,0,0-9-9-9H35.7z"/>
			</defs>
			<clipPath id="SVGID_10_">
				<use xlink:href="#SVGID_9_"  style="overflow:visible;"/>
			</clipPath>
			<path class="st5" d="M-443.7-181.5l897.1,518 M-441.7-184.8l897.1,518 M-439.8-188.1l897.1,518 M-437.9-191.5l897.1,518
				 M-436-194.8l897.1,518 M-434.1-198.1L463,320.1 M-432.1-201.4L465,316.7 M-430.2-204.7l897.1,518 M-428.3-208l897.1,518
				 M-426.4-211.4l897.1,518 M-424.5-214.7l897.1,518 M-422.5-218l897.1,518 M-420.6-221.3l897.1,518 M-418.7-224.6l897.1,518.1
				 M-416.8-227.9l897.1,518 M-414.9-231.2l897.1,518 M-412.9-234.5l897,518 M-411-237.9l897.1,518 M-409.1-241.2L488,276.9
				 M-407.2-244.5l897.1,518 M-405.3-247.8l897.1,518 M-403.3-251.1l897.1,518 M-401.4-254.4l897.1,518 M-399.5-257.7l897.1,518
				 M-397.6-261.1l897.1,518 M-395.6-264.4l897.1,518 M-393.7-267.7l897.1,518 M-391.8-271l897.1,518 M-389.9-274.4l897.1,518
				 M-388-277.7l897.1,518 M-386-281l897,518 M-384.1-284.3L513,233.9"/>
		</g>
	</g>
</g>
<g>
	<g>
		<g>
			<defs>
				<rect id="SVGID_11_" width="100" height="100"/>
			</defs>
			<clipPath id="SVGID_12_">
				<use xlink:href="#SVGID_11_"  style="overflow:visible;"/>
			</clipPath>
			<path class="st6" d="M35.7,38.1c0,0-9,0-9,8.7V63c0,0,0,8.7,9,8.7h20.2c0,0,9,0,9-8.7V46.8c0,0,0-8.7-9-8.7H35.7z"/>
		</g>
	</g>
</g>
<polygon points="73.3,47 68.7,44.3 68.7,49.7 "/>
<rect x="68.7" y="60.9" width="1.9" height="5"/>
<rect x="71.4" y="60.9" width="1.9" height="5"/>
<polygon points="55.6,55 40,46 40,64 "/>
<polygon class="st7" points="55.6,55.4 40,46.4 40,64.4 "/>
<rect x="68.7" y="52.8" width="4.6" height="4.6"/>
<line class="st8" x1="42.2" y1="33" x2="31.8" y2="19.7"/>
<line class="st8" x1="45.5" y1="32.7" x2="53.9" y2="19.5"/>
<polyline class="st9" points="21.3,8.2 23.1,13.7 26.8,11.9 29.4,16.5 "/>
</svg>
