<?xml version="1.0" encoding="utf-8"?>
<!-- Generator: Adobe Illustrator 21.0.0, SVG Export Plug-In . SVG Version: 6.00 Build 0)  -->
<!DOCTYPE svg PUBLIC "-//W3C//DTD SVG 1.1//EN" "http://www.w3.org/Graphics/SVG/1.1/DTD/svg11.dtd">
<svg version="1.1" id="Layer_1" xmlns="http://www.w3.org/2000/svg" xmlns:xlink="http://www.w3.org/1999/xlink" x="0px" y="0px"
	 viewBox="0 0 624 540" style="enable-background:new 0 0 624 540;" xml:space="preserve">
<style type="text/css">
	.st0{fill:#FFFFFF;}
	.st1{fill:none;stroke:#231F20;stroke-width:2.4;stroke-miterlimit:10;}
	.st2{font-family:'SuisseIntl-Bold';}
	.st3{font-size:13px;}
	.st4{fill:none;stroke:#000000;stroke-width:2;}
	.st5{fill:#FFFFFF;stroke:#000000;stroke-miterlimit:10;}
	.st6{clip-path:url(#SVGID_2_);fill:none;stroke:#000000;stroke-width:2.497;}
	.st7{fill:none;stroke:#000000;stroke-width:2.497;}
	.st8{fill:none;stroke:#000000;stroke-width:2.497;stroke-dasharray:11.965,11.965;}
	.st9{font-size:12.466px;}
	.st10{fill:none;stroke:#000000;stroke-width:2;stroke-linecap:round;stroke-linejoin:round;stroke-dasharray:0,4.004;}
	.st11{fill:none;stroke:#000000;stroke-width:2;stroke-linecap:round;stroke-linejoin:round;stroke-dasharray:0,3.958;}
	.st12{fill:none;stroke:#000000;stroke-width:2;stroke-linecap:round;stroke-linejoin:round;}
	.st13{fill:none;stroke:#000000;stroke-width:2;stroke-linecap:round;stroke-linejoin:round;stroke-dasharray:0,3.984;}
	.st14{fill:none;stroke:#000000;stroke-width:2;stroke-linecap:round;stroke-linejoin:round;stroke-dasharray:0,4.062;}
	.st15{fill:none;stroke:#000000;stroke-width:2.4;stroke-miterlimit:10;}
	.st16{font-family:'CircularStd-Black';}
	.st17{font-size:12px;}
	.st18{clip-path:url(#SVGID_4_);fill:none;stroke:#000000;stroke-width:2.497;}
</style>
<rect x="-0.5" y="0.5" class="st0" width="624" height="539"/>
<line class="st1" x1="385.9" y1="20.7" x2="456.1" y2="20.7"/>
<g>
	<text transform="matrix(1 0 0 1 385.9102 15.062)"><tspan x="0" y="0" class="st2 st3">t</tspan><tspan x="5.1" y="0" class="st2 st3">r</tspan><tspan x="10.3" y="0" class="st2 st3">anslation</tspan></text>
	<path class="st4" d="M589.9,54.5c-1,6.2,0.9,11.6,4.4,12.1s7-4.1,8.1-10.2"/>
	<path class="st5" d="M599.1,53c-0.9,5.6,1.4,10.6,5.2,11.1c3.8,0.6,7.5-3.5,8.4-9c0.9-5.6-1.4-10.6-5.2-11.1
		C603.8,43.4,600,47.5,599.1,53"/>
	<path class="st4" d="M599.1,53c-0.9,5.6,1.4,10.6,5.2,11.1c3.8,0.6,7.5-3.5,8.4-9c0.9-5.6-1.4-10.6-5.2-11.1
		C603.8,43.4,600,47.5,599.1,53z"/>
	<path class="st0" d="M580.4,55c-0.7,4.2,2.1,8.1,6.2,8.7s8-2.2,8.6-6.4c0.7-4.2-2.1-8.1-6.2-8.7S581.1,50.9,580.4,55"/>
	<ellipse transform="matrix(0.1565 -0.9877 0.9877 0.1565 440.341 628.0223)" class="st4" cx="587.8" cy="56.2" rx="7.6" ry="7.5"/>
	<path class="st4" d="M600.2,124.8c0,0,5.4-13.5,4-29.5c-1.4-16-5.4-28.7-9-28.4S600.2,124.8,600.2,124.8z"/>
	<path class="st4" d="M559.8,109.7c0,0,1.9-12.1,12.3-25c10.4-13,20.2-19.3,22.8-17C597.7,70,559.8,109.7,559.8,109.7z"/>
	<path class="st5" d="M591.3,67.3c0,2,1.6,3.5,3.6,3.5c1.9,0,3.5-1.7,3.5-3.6c0-2-1.6-3.5-3.6-3.5C592.9,63.7,591.3,65.4,591.3,67.3
		"/>
	<path class="st4" d="M591.3,67.3c0,2,1.6,3.5,3.6,3.5c1.9,0,3.5-1.7,3.5-3.6c0-2-1.6-3.5-3.6-3.5C592.9,63.7,591.3,65.4,591.3,67.3
		z"/>
	<path class="st0" d="M569,91.1c0-3,0-12-14.8-20.3C534.9,60.1,499,54.6,447.4,54.6c-86.5,0-129.9,35-134.5,39
		c0,98.2,0.1,196.3,0.1,294.4c7,1.2,48.9,9.1,129.3,32.6c56.7,16.5,95.2,17.2,114.2,2.1c9.1-7.2,13.3-17.9,12.5-31.6l0-0.8
		c0-0.6-0.1-1-0.1-1.3"/>
</g>
<g>
	<defs>
		<path id="SVGID_1_" d="M447.4,53.3C354.8,53.3,311.7,93,311.7,93l0.1,296.1c0,0,41.2,6.8,130.2,32.7
			c139.5,40.7,128.2-27.2,128.2-32.9V91.1C570.2,84.5,569.8,53.3,447.4,53.3C447.4,53.3,447.4,53.3,447.4,53.3"/>
	</defs>
	<clipPath id="SVGID_2_">
		<use xlink:href="#SVGID_1_"  style="overflow:visible;"/>
	</clipPath>
	<path class="st6" d="M570.2,401.6c0,0,0-0.2,0-0.2c0-18.8-16.1-50.5-123.6-50.9c-48.5-0.2-83.4,10.9-104,20.1
		c-22.4,10.1-33.2,20.1-33.7,20.5"/>
</g>
<g>
	<path class="st7" d="M569,91.1c0-3,0-12-14.8-20.3C534.9,60.1,499,54.6,447.4,54.6c-86.5,0-129.9,35-134.5,39
		c0,98.2,0.1,196.3,0.1,294.4c7,1.2,48.9,9.1,129.3,32.6c56.7,16.5,95.2,17.2,114.2,2.1c9.1-7.2,13.3-17.9,12.5-31.6l0-0.8
		c0-0.6-0.1-1-0.1-1.3"/>
</g>
<line class="st8" x1="569" y1="90.1" x2="569" y2="389.2"/>
<text transform="matrix(0 1 -1 0 573.4844 100.0394)" class="st2 st9">→</text>
<g>
	<path class="st10" d="M437.9,145c-14.7-5.3-66.1-25.9-47.9-48.3"/>
	<path class="st11" d="M394.1,92.4c29.2-27.4,127-80.4,72.2-81.7"/>
	<path class="st12" d="M464.3,10.8L464.3,10.8 M391.3,95.2L391.3,95.2 M441.7,146.4L441.7,146.4"/>
	<line class="st4" x1="464.3" y1="6.3" x2="464.3" y2="15.3"/>
	<path class="st13" d="M433.7,356c6.1,15.5,25.2,76.1-35.7,107.1"/>
	<path class="st14" d="M392.5,465.8c-105.6,52.4-32.2,57.4-18.6,57.9"/>
	<path class="st12" d="M375.9,523.8L375.9,523.8 M396.1,464.1L396.1,464.1 M432.1,352.4L432.1,352.4"/>
	<line class="st4" x1="375.9" y1="528.3" x2="375.9" y2="519.3"/>
	<line class="st15" x1="385.4" y1="533.6" x2="434.1" y2="533.6"/>
	<text transform="matrix(1 0 0 1 385.4302 528.0293)" class="st2 st3">original</text>
</g>
<text transform="matrix(1 0 0 1 443.3662 151.188)" class="st16 st17">✕</text>
<g>
	<path class="st0" d="M55.5,91.1c0-3,0-12,14.9-20.3C89.6,60.1,125.5,54.6,177,54.6c86.5,0,129.9,35,134.5,39
		c0,98.2-0.1,196.3-0.1,294.4c-7,1.2-48.9,9.1-129.3,32.6c-56.7,16.5-95.2,17.2-114.2,2.1c-9.1-7.2-13.3-17.9-12.5-31.6l0-0.8
		c0-0.6,0.1-1,0.1-1.3"/>
</g>
<g>
	<defs>
		<path id="SVGID_3_" d="M54.2,91.1v297.8c0,0.7-0.2,2.2-0.2,4.4v2.3c0.4,17.7,11,60.4,128.4,26.2c89-26,130.2-32.7,130.2-32.7
			L312.7,93c0,0-43-39.6-135.7-39.6C54.6,53.3,54.2,84.5,54.2,91.1"/>
	</defs>
	<clipPath id="SVGID_4_">
		<use xlink:href="#SVGID_3_"  style="overflow:visible;"/>
	</clipPath>
	<path class="st18" d="M54.2,401.6c0,0,0-0.2,0-0.2c0-18.8,16.1-50.5,123.6-50.9c48.5-0.2,83.4,10.9,104,20.1
		c22.5,10.1,33.2,20.1,33.7,20.5"/>
</g>
<g>
	<path class="st7" d="M55.5,91.1c0-3,0-12,14.9-20.3C89.6,60.1,125.5,54.6,177,54.6c86.5,0,129.9,35,134.5,39
		c0,98.2-0.1,196.3-0.1,294.4c-7,1.2-48.9,9.1-129.3,32.6c-56.7,16.5-95.2,17.2-114.2,2.1c-9.1-7.2-13.3-17.9-12.5-31.6l0-0.8
		c0-0.6,0.1-1,0.1-1.3"/>
	<line class="st8" x1="55.5" y1="90.1" x2="55.5" y2="389.2"/>
</g>
</svg>
