<?xml version="1.0" encoding="utf-8"?>
<!-- Generator: Adobe Illustrator 20.1.0, SVG Export Plug-In . SVG Version: 6.00 Build 0)  -->
<!DOCTYPE svg PUBLIC "-//W3C//DTD SVG 1.1//EN" "http://www.w3.org/Graphics/SVG/1.1/DTD/svg11.dtd">
<svg version="1.1" id="Layer_1" xmlns="http://www.w3.org/2000/svg" xmlns:xlink="http://www.w3.org/1999/xlink" x="0px" y="0px"
	 viewBox="0 0 540 143" style="enable-background:new 0 0 540 143;" xml:space="preserve">
<style type="text/css">
	.st0{clip-path:url(#SVGID_2_);fill:#172B36;}
	.st1{fill:#172B36;}
	.st2{clip-path:url(#SVGID_4_);fill:#7D1F3D;}
	.st3{clip-path:url(#SVGID_4_);fill:#6B082E;}
	.st4{clip-path:url(#SVGID_4_);fill:#78243D;}
</style>
<g>
	<g>
		<defs>
			<rect id="SVGID_1_" y="0.2" width="540" height="142.7"/>
		</defs>
		<clipPath id="SVGID_2_">
			<use xlink:href="#SVGID_1_"  style="overflow:visible;"/>
		</clipPath>
		<path class="st0" d="M206,78.4c0-12.1-9-21.7-20.6-21.7c-11.9,0-20.4,9.7-20.4,21.5v0.2c0,12.1,9,21.7,20.6,21.7
			c11.9,0,20.4-9.7,20.4-21.5V78.4z M185.4,104.7c-14.8,0-25.6-12-25.6-26.1v-0.2c0-14.1,10.9-26.3,25.8-26.3
			c14.8,0,25.6,12,25.6,26.1v0.2C211.2,92.5,200.3,104.7,185.4,104.7"/>
		<path class="st0" d="M258.1,103.5V73.7c0-10.3-5.8-17.1-15.9-17.1c-9.8,0-17.3,7.5-17.3,17.9v29h-4.8V53.3h4.8v9.3
			c3.3-5.9,8.9-10.5,18-10.5c12.6,0,20,8.7,20,20.7v30.7H258.1z"/>
		<path class="st0" d="M297.3,104.7c-14.4,0-25.5-12-25.5-26.1v-0.2c0-14.1,11.2-26.3,25.5-26.3c9.4,0,15.3,4.3,20,9.2l-3.4,3.5
			c-4.3-4.4-9.2-8.3-16.7-8.3c-11.4,0-20.2,9.5-20.2,21.5v0.2c0,12.1,9.1,21.7,20.6,21.7c7.1,0,12.5-3.6,16.8-8.4l3.3,3
			C312.6,100.5,306.5,104.7,297.3,104.7"/>
	</g>
	<rect x="334.7" y="8.9" class="st1" width="3.1" height="124.6"/>
	<g>
		<defs>
			<rect id="SVGID_3_" y="0.2" width="540" height="142.7"/>
		</defs>
		<clipPath id="SVGID_4_">
			<use xlink:href="#SVGID_3_"  style="overflow:visible;"/>
		</clipPath>
		<path class="st2" d="M380.3,45.7h-13.5v46.8h13.5c14.4,0,23.8-9.7,23.8-23.3C404.2,55.6,394.8,45.7,380.3,45.7 M380.3,103.5h-25.6
			V34.6h25.6c21.6,0,36.5,14.9,36.5,34.3S401.9,103.5,380.3,103.5"/>
		<path class="st2" d="M454.6,45.7h-17.5v23.1h17.6c8.6,0,14.1-4.5,14.1-11.6C468.8,49.6,463.6,45.7,454.6,45.7 M469,103.5l-16.9-24
			h-15.1v24H425V34.6h30.6c15.8,0,25.5,8.4,25.5,21.8c0,11.4-6.8,18.3-16.4,21l18.5,26.1H469z"/>
		<path class="st2" d="M517.9,63.6c14.5,3.5,22.1,8.8,22.1,20.3c0,13-10.1,20.7-24.5,20.7c-10.5,0-20.4-3.6-28.6-11l7.3-8.7
			c6.6,5.7,13.1,9,21.7,9c7.4,0,12.2-3.4,12.2-8.8c0-5-2.7-7.7-15.5-10.6c-14.6-3.5-22.8-7.9-22.8-20.7c0-12,9.8-20.1,23.4-20.1
			c10,0,17.9,3.1,24.9,8.7l-6.5,9.1c-6.2-4.6-12.3-7.1-18.6-7.1c-7.1,0-11.2,3.6-11.2,8.3C501.7,58,504.8,60.4,517.9,63.6"/>
		<path class="st3" d="M111.8,40.8c0,1.1,0.9,2,2,2c1.1,0,2-0.9,2-2c0-1.1-0.9-2-2-2C112.7,38.8,111.8,39.7,111.8,40.8"/>
		<path class="st3" d="M113.8,31.6c1.7,0,3-1.4,3-3c0-1.7-1.4-3-3-3c-1.7,0-3,1.4-3,3C110.8,30.3,112.1,31.6,113.8,31.6"/>
		<path class="st3" d="M113.8,19.5c1.7,0,3-1.4,3-3c0-1.7-1.4-3-3-3c-1.7,0-3,1.4-3,3C110.8,18.1,112.1,19.5,113.8,19.5"/>
		<path class="st3" d="M103.7,16.4c0-1.1-0.9-2-2-2c-1.1,0-2,0.9-2,2c0,1.1,0.9,2,2,2C102.8,18.4,103.7,17.5,103.7,16.4"/>
		<path class="st3" d="M138.1,43.8c1.7,0,3-1.4,3-3c0-1.7-1.4-3-3-3c-1.7,0-3,1.4-3,3C135.1,42.5,136.4,43.8,138.1,43.8"/>
		<path class="st3" d="M126,45.4c2.5,0,4.6-2,4.6-4.6c0-2.5-2-4.6-4.6-4.6c-2.5,0-4.6,2-4.6,4.6C121.4,43.3,123.5,45.4,126,45.4"/>
		<path class="st3" d="M126,32.7c2.2,0,4-1.8,4-4.1c0-2.2-1.8-4.1-4-4.1c-2.2,0-4,1.8-4,4.1C121.9,30.8,123.7,32.7,126,32.7"/>
		<path class="st3" d="M101.7,8.3c2.2,0,4-1.8,4-4.1c0-2.2-1.8-4.1-4-4.1c-2.2,0-4,1.8-4,4.1C97.6,6.5,99.4,8.3,101.7,8.3"/>
		<path class="st3" d="M89.5,5.7c0.8,0,1.5-0.7,1.5-1.5s-0.7-1.5-1.5-1.5c-0.8,0-1.5,0.7-1.5,1.5S88.7,5.7,89.5,5.7"/>
		<path class="st3" d="M83.1,116.5c2.2-0.2,4.1,1.7,3.9,3.9c-0.2,1.7-1.5,3-3.2,3.2c-2.2,0.2-4.1-1.7-3.9-3.9
			C80.1,118,81.5,116.6,83.1,116.5 M95.3,104.3c2.2-0.2,4.1,1.7,3.9,3.9c-0.2,1.7-1.5,3-3.2,3.2c-2.2,0.2-4.1-1.7-3.9-3.9
			C92.3,105.8,93.6,104.4,95.3,104.3 M96,123.3c-2.2,0.3-4-1.6-3.7-3.8c0.2-1.5,1.4-2.7,2.9-2.9c2.2-0.3,4,1.6,3.7,3.8
			C98.7,121.9,97.5,123.1,96,123.3 M107.4,116.5c2.2-0.2,4.1,1.7,3.9,3.9c-0.2,1.7-1.5,3-3.2,3.2c-2.2,0.2-4.1-1.7-3.9-3.9
			C104.4,118,105.7,116.6,107.4,116.5 M110.8,107.4c0.2,2-1.4,3.7-3.4,3.4c-1.4-0.2-2.4-1.3-2.6-2.6c-0.2-2,1.4-3.7,3.4-3.4
			C109.5,105,110.6,106,110.8,107.4 M107.4,92.1c2.2-0.2,4.1,1.7,3.9,3.9c-0.2,1.7-1.5,3-3.2,3.2c-2.2,0.2-4.1-1.7-3.9-3.9
			C104.4,93.6,105.7,92.2,107.4,92.1 M119.5,103.8c2.6-0.3,4.7,1.9,4.4,4.5c-0.2,1.9-1.7,3.4-3.6,3.6c-2.6,0.3-4.7-1.9-4.4-4.5
			C116.1,105.5,117.6,104,119.5,103.8 M119.5,92.1c2.2-0.2,4.1,1.7,3.9,3.9c-0.2,1.7-1.5,3-3.2,3.2c-2.2,0.2-4.1-1.7-3.9-3.9
			C116.5,93.6,117.9,92.2,119.5,92.1 M119.5,79.9c2.2-0.2,4.1,1.7,3.9,3.9c-0.2,1.7-1.5,3-3.2,3.2c-2.2,0.2-4.1-1.6-3.9-3.9
			C116.5,81.4,117.9,80.1,119.5,79.9 M60.7,126.5c0.2,2.1,1.8,3.8,3.9,4.1c1.4,0.2,2.8-0.3,3.7-1.2c0.9-0.9,2.1-1.4,3.5-1.2
			c1.8,0.3,3.2,1.7,3.4,3.5c0.2,1.4-0.4,2.7-1.3,3.6c-0.2,0.2-0.3,0.3-0.4,0.5c-0.6,1-0.9,2.2-0.6,3.5c0.4,1.9,1.9,3.3,3.8,3.6
			c2.8,0.4,5.2-1.8,5.2-4.5c0-1.2-0.4-2.3-1.2-3.1c-0.8-0.8-1.4-1.9-1.3-3.1c0-2.1,1.7-3.9,3.8-4c2.3-0.1,4.3,1.7,4.3,4.1
			c0,1.2-0.5,2.3-1.3,3c-0.7,0.8-1.2,1.9-1.2,3.1c0,2.5,2.1,4.6,4.6,4.6c2.5,0,4.5-2,4.5-4.6c0-1.3-0.5-2.5-1.5-3.4l0,0
			c-0.6-0.7-1-1.6-1-2.6c0-2.1,1.7-4,3.8-4.1c2.4-0.1,4.3,1.7,4.3,4.1c0,1.1-0.5,2.2-1.2,2.9l0,0c-0.9,0.9-1.4,2.3-1.3,3.7
			c0.2,2.1,1.9,3.8,4,4c2.8,0.3,5.1-1.8,5.1-4.5c0-0.8-0.3-1.6-0.7-2.3c-0.2-0.3-0.4-0.6-0.7-0.9c-0.9-0.9-1.4-2.1-1.1-3.5
			c0.3-1.7,1.9-3.3,3.6-3.4c1.3-0.1,2.4,0.3,3.2,1.2l0,0c0.8,0.8,1.9,1.3,3.2,1.3c2.5,0,4.6-2,4.6-4.6c0-0.9-0.3-1.7-0.7-2.4
			c-0.2-0.3-0.5-0.6-0.7-0.9c-1-1.1-1.5-2.8-0.8-4.5c0.4-0.9,1.1-1.7,2.1-2.1c1.6-0.6,3.2-0.3,4.3,0.7l0,0c0,0,0,0,0,0
			c0.1,0.1,0.2,0.2,0.3,0.3c1,0.9,2.4,1.4,3.9,1.1c1.8-0.3,3.3-1.7,3.7-3.6c0.3-1.4-0.1-2.8-0.9-3.8c0-0.1-0.1-0.1-0.1-0.1
			c-1-0.9-1.6-2.2-1.4-3.7c0.2-1.8,1.7-3.2,3.5-3.5c1.2-0.2,2.4,0.2,3.2,1l0,0l0.2,0.1c0.9,0.9,2.2,1.5,3.6,1.4c2.2-0.2,4-2,4.2-4.3
			c0.2-2.6-1.9-4.8-4.5-4.8c-1.3,0-2.4,0.5-3.2,1.4l0,0l-0.2,0.2c0,0,0,0-0.1,0l0,0l0,0c-0.7,0.6-1.7,0.9-2.7,0.9
			c-2-0.1-3.7-1.8-3.8-3.8c-0.1-2.3,1.7-4.3,4-4.3c1.1,0,2.1,0.4,2.8,1.2v0c0.9,0.9,2.2,1.5,3.6,1.4c2.2-0.2,4-2,4.2-4.3
			c0.2-2.6-1.9-4.8-4.5-4.8c-1.2,0-2.4,0.5-3.2,1.3c0,0-0.1,0.1-0.2,0.1l0,0c-0.1,0.1-0.3,0.3-0.5,0.4l0,0l0,0
			c-0.6,0.4-1.4,0.7-2.2,0.7c-2.1,0-4-1.7-4.1-3.9c-0.1-2.3,1.7-4.3,4-4.3c0.8,0,1.5,0.2,2.1,0.6l0,0l0,0c0.2,0.1,0.4,0.3,0.6,0.4
			l0,0c0.1,0,0.1,0.1,0.2,0.1c1,1,2.4,1.5,3.9,1.2c1.9-0.3,3.4-1.9,3.7-3.8c0.4-2.8-1.7-5.3-4.5-5.3c-1.2,0-2.4,0.5-3.2,1.3
			c-0.1,0.1-0.1,0.1-0.2,0.2l-0.1,0.1c0,0-0.1,0-0.1,0.1l-0.1,0l0,0c-0.7,0.5-1.6,0.9-2.5,0.9c-2.1,0-3.9-1.7-4-3.9
			c-0.1-2.3,1.7-4.3,4-4.3c1.1,0,2.1,0.4,2.8,1.1c0,0,0.1,0.1,0.1,0.1c1,1,2.4,1.5,3.9,1.2c1.9-0.3,3.4-1.9,3.7-3.8
			c0.4-2.8-1.7-5.3-4.5-5.3c-1.3,0-2.4,0.5-3.2,1.3c0,0-0.1,0.1-0.1,0.1l-0.1,0.1c-0.8,0.7-1.8,1.1-3,1c-2-0.1-3.6-1.8-3.7-3.7
			c-0.1-1.3,0.4-2.4,1.2-3.2c0.3-0.3,0.5-0.6,0.7-0.9c0.4-0.7,0.6-1.5,0.6-2.3c0-2.7-2.4-4.9-5.2-4.5c-2.1,0.3-3.8,2.1-4,4.2
			c0,0.7,0.1,1.4,0.3,2c0.2,0.6,0.6,1.1,1.1,1.6c0.7,0.7,1.1,1.7,1.1,2.8c0,1.1-0.4,2.1-1.2,2.8c-0.5,0.5-0.9,1-1.1,1.6
			c-0.2,0.5-0.3,1-0.3,1.6c0,0.8,0.2,1.6,0.6,2.3c0.2,0.3,0.4,0.6,0.7,0.9c0.9,0.8,1.4,2.1,1.2,3.4c-0.2,1.9-1.8,3.4-3.6,3.5
			c-1,0.1-1.9-0.2-2.7-0.7l-0.4-0.3c-0.1-0.1-0.2-0.2-0.3-0.3c-0.8-0.8-1.9-1.3-3.1-1.3c-2.5,0-4.5,2-4.5,4.6c0,0.9,0.3,1.8,0.8,2.5
			c0.2,0.3,0.4,0.5,0.6,0.7c0.8,0.8,1.3,2.1,1.2,3.4c-0.2,1.9-1.8,3.4-3.6,3.5c-1.3,0.1-2.5-0.4-3.3-1.2h0c-0.9-0.9-2.1-1.4-3.4-1.3
			c-2.3,0.1-4.2,2.1-4.2,4.5c0,1.2,0.4,2.3,1.3,3.2l0,0c1,1,1.4,2.6,1,4.2c-0.3,1.1-1.5,2.3-2.6,2.6c-1.5,0.4-2.9,0.1-3.9-0.8v0
			c0,0,0,0,0-0.1c-0.1-0.1-0.3-0.2-0.4-0.4c-0.8-0.7-1.9-1.1-3-1.1c-2.5,0-4.6,2-4.6,4.6c0,1.1,0.4,2.1,1,2.8
			c0.1,0.1,0.2,0.2,0.3,0.3c0.9,0.8,1.4,2.1,1.2,3.5c-0.2,1.8-1.7,3.3-3.5,3.5c-1.2,0.2-2.4-0.2-3.2-1l0,0c0,0,0,0,0,0
			c-0.1-0.1-0.2-0.2-0.3-0.3c-0.8-0.7-1.9-1.2-3.1-1.2c-2.5,0-4.6,2-4.6,4.6c0,0.3,0,0.6,0.1,0.8c0.1,0.7,0.3,1.3,0.8,1.8
			c0.1,0.1,0.2,0.2,0.3,0.3l0.1,0.2c0.1,0.1,0.1,0.1,0.2,0.2l0.1,0.1l0,0c0.7,0.8,1.1,2,0.9,3.2c-0.2,1.8-1.7,3.2-3.4,3.5
			c-1.4,0.2-2.7-0.3-3.5-1.2c-0.8-0.8-1.9-1.3-3.1-1.3C62.6,121.5,60.5,123.8,60.7,126.5"/>
		<path class="st3" d="M65.3,133.7c-2.5,0-4.6,2-4.6,4.6c0,2.5,2,4.6,4.6,4.6c2.5,0,4.6-2,4.6-4.6C69.8,135.7,67.8,133.7,65.3,133.7
			"/>
		<path class="st3" d="M77.4,105.8c2.2,0,4-1.8,4-4.1c0-2.2-1.8-4.1-4-4.1c-2.2,0-4,1.8-4,4.1C73.4,104,75.2,105.8,77.4,105.8"/>
		<path class="st3" d="M65.3,116.9c1.7,0,3-1.4,3-3c0-1.7-1.4-3-3-3c-1.7,0-3,1.4-3,3C62.2,115.6,63.6,116.9,65.3,116.9"/>
		<path class="st3" d="M89.5,93.6c2.2,0,4-1.8,4-4.1c0-2.2-1.8-4.1-4-4.1c-2.2,0-4,1.8-4,4.1C85.5,91.8,87.3,93.6,89.5,93.6"/>
		<path class="st3" d="M110.8,65.2c0,1.7,1.4,3,3,3c1.7,0,3-1.4,3-3c0-1.7-1.4-3-3-3C112.1,62.1,110.8,63.5,110.8,65.2"/>
		<path class="st3" d="M138.1,57c2.2,0,4-1.8,4-4.1c0-2.2-1.8-4.1-4-4.1c-2.2,0-4,1.8-4,4.1C134.1,55.2,135.9,57,138.1,57"/>
		<path class="st3" d="M113.8,56c1.7,0,3-1.4,3-3c0-1.7-1.4-3-3-3c-1.7,0-3,1.4-3,3C110.8,54.6,112.1,56,113.8,56"/>
		<path class="st3" d="M101.7,80.4c1.7,0,3-1.4,3-3c0-1.7-1.4-3-3-3c-1.7,0-3,1.4-3,3C98.6,79,100,80.4,101.7,80.4"/>
		<path class="st4" d="M30.9,102.2c0-1.1-0.9-2-2-2c-1.1,0-2,0.9-2,2c0,1.1,0.9,2,2,2C30,104.2,30.9,103.3,30.9,102.2"/>
		<path class="st4" d="M28.8,111.4c-1.7,0-3,1.4-3,3c0,1.7,1.4,3,3,3c1.7,0,3-1.4,3-3C31.9,112.7,30.5,111.4,28.8,111.4"/>
		<path class="st4" d="M28.8,123.5c-1.7,0-3,1.4-3,3c0,1.7,1.4,3,3,3c1.7,0,3-1.4,3-3C31.9,124.9,30.5,123.5,28.8,123.5"/>
		<path class="st4" d="M39,126.6c0,1.1,0.9,2,2,2c1.1,0,2-0.9,2-2s-0.9-2-2-2C39.9,124.6,39,125.5,39,126.6"/>
		<path class="st4" d="M4.6,99.2c-1.7,0-3,1.4-3,3c0,1.7,1.4,3,3,3s3-1.4,3-3C7.6,100.5,6.2,99.2,4.6,99.2"/>
		<path class="st4" d="M16.7,97.6c-2.5,0-4.6,2-4.6,4.6c0,2.5,2,4.6,4.6,4.6c2.5,0,4.6-2,4.6-4.6C21.3,99.7,19.2,97.6,16.7,97.6"/>
		<path class="st4" d="M16.7,110.3c-2.2,0-4,1.8-4,4.1c0,2.2,1.8,4.1,4,4.1s4-1.8,4-4.1C20.7,112.2,18.9,110.3,16.7,110.3"/>
		<path class="st4" d="M41,134.7c-2.2,0-4,1.8-4,4.1c0,2.2,1.8,4.1,4,4.1c2.2,0,4-1.8,4-4.1C45,136.5,43.2,134.7,41,134.7"/>
		<path class="st4" d="M53.1,137.3c-0.8,0-1.5,0.7-1.5,1.5c0,0.8,0.7,1.5,1.5,1.5c0.8,0,1.5-0.7,1.5-1.5
			C54.6,137.9,54,137.3,53.1,137.3"/>
		<path class="st2" d="M59.6,26.5c-2.2,0.2-4.1-1.7-3.9-3.9c0.2-1.7,1.5-3,3.2-3.2c2.2-0.2,4.1,1.7,3.9,3.9
			C62.6,25,61.2,26.4,59.6,26.5 M47.4,38.7c-2.2,0.2-4.1-1.7-3.9-3.9c0.2-1.7,1.5-3,3.2-3.2c2.2-0.2,4.1,1.7,3.9,3.9
			C50.4,37.2,49.1,38.6,47.4,38.7 M46.6,19.7c2.2-0.3,4,1.6,3.7,3.8c-0.2,1.5-1.4,2.7-2.9,2.9c-2.2,0.3-4-1.6-3.7-3.8
			C43.9,21.1,45.1,19.9,46.6,19.7 M35.3,26.5c-2.2,0.2-4.1-1.7-3.9-3.9c0.2-1.7,1.5-3,3.2-3.2c2.2-0.2,4.1,1.7,3.9,3.9
			C38.3,25,36.9,26.4,35.3,26.5 M31.9,35.6c-0.2-2,1.4-3.7,3.4-3.4c1.4,0.2,2.4,1.3,2.6,2.6c0.2,2-1.4,3.7-3.4,3.4
			C33.2,38,32.1,37,31.9,35.6 M35.3,50.9c-2.2,0.2-4.1-1.7-3.9-3.9c0.2-1.7,1.5-3,3.2-3.2c2.2-0.2,4.1,1.7,3.9,3.9
			C38.3,49.4,36.9,50.8,35.3,50.9 M23.2,39.2c-2.6,0.3-4.7-1.9-4.4-4.5c0.2-1.9,1.7-3.4,3.6-3.6c2.6-0.3,4.7,1.9,4.4,4.5
			C26.6,37.5,25.1,39.1,23.2,39.2 M23.1,50.9c-2.2,0.2-4.1-1.7-3.9-3.9c0.2-1.7,1.5-3,3.2-3.2c2.2-0.2,4.1,1.7,3.9,3.9
			C26.1,49.4,24.8,50.8,23.1,50.9 M23.1,63.1c-2.2,0.2-4.1-1.7-3.9-3.9c0.2-1.7,1.5-3,3.2-3.2c2.2-0.2,4.1,1.6,3.9,3.9
			C26.1,61.6,24.8,62.9,23.1,63.1 M81.9,16.5c-0.2-2.1-1.9-3.8-3.9-4.1c-1.4-0.2-2.8,0.3-3.7,1.2c-0.9,0.9-2.1,1.4-3.5,1.2
			c-1.8-0.3-3.2-1.7-3.4-3.5c-0.2-1.4,0.4-2.7,1.3-3.6c0.2-0.2,0.3-0.3,0.4-0.5c0.6-1,0.9-2.2,0.6-3.5c-0.4-1.9-1.9-3.3-3.8-3.6
			c-2.8-0.4-5.2,1.8-5.2,4.5c0,1.2,0.4,2.3,1.2,3.1c0.8,0.8,1.4,1.9,1.3,3.1c0,2.1-1.7,3.9-3.8,4c-2.3,0.1-4.3-1.7-4.3-4.1
			c0-1.2,0.5-2.3,1.3-3c0.7-0.8,1.2-1.9,1.2-3.1c0-2.5-2-4.6-4.6-4.6c-2.5,0-4.5,2-4.5,4.6c0,1.3,0.5,2.5,1.5,3.4l0,0
			c0.6,0.7,1,1.6,1,2.6c0,2.1-1.7,4-3.8,4.1C45,15,43,13.2,43,10.8c0-1.1,0.5-2.2,1.2-2.9l0,0c0.9-0.9,1.4-2.3,1.3-3.7
			c-0.2-2.1-1.9-3.8-4-4c-2.8-0.3-5.1,1.8-5.1,4.5c0,0.8,0.3,1.6,0.7,2.3c0.2,0.3,0.4,0.6,0.7,0.9c0.9,0.9,1.4,2.1,1.1,3.5
			c-0.3,1.7-1.9,3.3-3.6,3.4C34,15,32.8,14.5,32,13.7l0,0c-0.8-0.8-1.9-1.3-3.2-1.3c-2.5,0-4.6,2-4.6,4.6c0,0.9,0.3,1.7,0.7,2.4
			c0.2,0.3,0.5,0.6,0.7,0.9c1,1.1,1.5,2.8,0.8,4.5c-0.4,0.9-1.1,1.7-2.1,2.1c-1.6,0.6-3.2,0.3-4.3-0.7l0,0c0,0,0,0,0,0
			c-0.1-0.1-0.2-0.2-0.3-0.3c-1-0.9-2.4-1.4-3.9-1.1c-1.8,0.3-3.3,1.7-3.7,3.6c-0.3,1.4,0.1,2.8,0.9,3.8c0,0.1,0.1,0.1,0.1,0.1
			c1,0.9,1.6,2.2,1.4,3.7c-0.2,1.8-1.7,3.2-3.5,3.5c-1.2,0.2-2.4-0.2-3.2-1l0,0l-0.2-0.1c-0.9-0.9-2.2-1.5-3.6-1.4
			c-2.2,0.2-4,2-4.2,4.3c-0.2,2.6,1.9,4.8,4.5,4.8c1.3,0,2.4-0.5,3.2-1.4l0,0L8,44.3c0,0,0,0,0.1,0l0,0l0,0c0.7-0.6,1.7-0.9,2.7-0.9
			c2,0.1,3.7,1.8,3.8,3.8c0.1,2.3-1.7,4.3-4,4.3c-1.1,0-2.1-0.4-2.8-1.2v0c-0.9-0.9-2.2-1.5-3.6-1.4c-2.2,0.2-4,2-4.2,4.3
			C-0.1,55.8,1.9,58,4.5,58c1.2,0,2.4-0.5,3.2-1.3c0,0,0.1-0.1,0.2-0.1l0,0c0.1-0.1,0.3-0.3,0.5-0.4l0,0l0,0
			c0.6-0.4,1.4-0.7,2.2-0.7c2.1,0,4,1.7,4.1,3.9c0.1,2.3-1.7,4.3-4,4.3c-0.8,0-1.5-0.2-2.1-0.6l0,0l0,0c-0.2-0.1-0.4-0.3-0.6-0.4
			l0,0c-0.1,0-0.1-0.1-0.2-0.1c-1-1-2.4-1.5-3.9-1.2c-1.9,0.3-3.4,1.9-3.7,3.8c-0.4,2.8,1.7,5.3,4.5,5.3c1.2,0,2.4-0.5,3.2-1.3
			c0.1-0.1,0.1-0.1,0.2-0.2L8,68.7c0,0,0.1,0,0.1-0.1l0.1,0l0,0c0.7-0.5,1.6-0.9,2.5-0.9c2.1,0,3.9,1.7,4,3.9c0.1,2.3-1.7,4.3-4,4.3
			c-1.1,0-2.1-0.4-2.8-1.1c0,0-0.1-0.1-0.1-0.1c-1-1-2.4-1.5-3.9-1.2c-1.9,0.3-3.4,1.9-3.7,3.8c-0.4,2.8,1.7,5.3,4.5,5.3
			c1.3,0,2.4-0.5,3.2-1.3c0,0,0.1-0.1,0.1-0.1l0.1-0.1c0.8-0.7,1.8-1.1,3-1c2,0.1,3.6,1.8,3.7,3.7c0.1,1.3-0.4,2.4-1.2,3.2
			c-0.3,0.3-0.5,0.6-0.7,0.9c-0.4,0.7-0.6,1.5-0.6,2.3c0,2.7,2.4,4.9,5.2,4.5c2.1-0.3,3.8-2.1,4-4.2c0-0.7-0.1-1.4-0.3-2
			c-0.2-0.6-0.6-1.1-1.1-1.6c-0.7-0.7-1.1-1.7-1.1-2.8c0-1.1,0.4-2.1,1.2-2.8c0.5-0.5,0.9-1,1.1-1.6c0.2-0.5,0.3-1,0.3-1.6
			c0-0.8-0.2-1.6-0.6-2.3c-0.2-0.3-0.4-0.6-0.7-0.9c-0.9-0.8-1.4-2.1-1.2-3.4c0.2-1.9,1.8-3.4,3.6-3.5c1-0.1,1.9,0.2,2.7,0.7
			l0.4,0.3c0.1,0.1,0.2,0.2,0.3,0.3c0.8,0.8,1.9,1.3,3.1,1.3c2.5,0,4.5-2,4.5-4.6c0-0.9-0.3-1.8-0.8-2.5c-0.2-0.3-0.4-0.5-0.6-0.7
			c-0.8-0.8-1.3-2.1-1.2-3.4c0.2-1.9,1.8-3.4,3.6-3.5c1.3-0.1,2.5,0.4,3.3,1.2h0c0.9,0.9,2.1,1.4,3.4,1.3c2.3-0.1,4.2-2.1,4.2-4.5
			c0-1.2-0.4-2.3-1.3-3.2l0,0c-1-1-1.4-2.6-1-4.2c0.3-1.1,1.5-2.3,2.6-2.6c1.5-0.4,2.9-0.1,3.9,0.8v0c0,0,0,0,0,0.1
			c0.1,0.1,0.3,0.2,0.4,0.4c0.8,0.7,1.9,1.1,3,1.1c2.5,0,4.6-2,4.6-4.6c0-1.1-0.4-2.1-1-2.8c-0.1-0.1-0.2-0.2-0.3-0.3
			c-0.9-0.8-1.4-2.1-1.2-3.5c0.2-1.8,1.7-3.3,3.5-3.5c1.2-0.2,2.4,0.2,3.2,1l0,0c0,0,0,0,0,0c0.1,0.1,0.2,0.2,0.3,0.3
			c0.8,0.7,1.9,1.2,3.1,1.2c2.5,0,4.6-2,4.6-4.6c0-0.3,0-0.6-0.1-0.8c-0.1-0.7-0.3-1.3-0.8-1.8c-0.1-0.1-0.2-0.2-0.3-0.3L68.6,26
			c-0.1-0.1-0.1-0.1-0.2-0.2l-0.1-0.1l0,0c-0.7-0.8-1.1-2-0.9-3.2c0.2-1.8,1.7-3.2,3.4-3.5c1.4-0.2,2.7,0.3,3.5,1.2
			c0.8,0.8,1.9,1.3,3.1,1.3C80.1,21.5,82.2,19.2,81.9,16.5"/>
		<path class="st4" d="M77.4,9.3c2.5,0,4.6-2,4.6-4.6c0-2.5-2-4.6-4.6-4.6s-4.6,2-4.6,4.6C72.9,7.3,74.9,9.3,77.4,9.3"/>
		<path class="st4" d="M65.3,37.2c-2.2,0-4,1.8-4,4.1c0,2.2,1.8,4.1,4,4.1c2.2,0,4-1.8,4-4.1C69.3,39,67.5,37.2,65.3,37.2"/>
		<path class="st4" d="M77.4,26.1c-1.7,0-3,1.4-3,3c0,1.7,1.4,3,3,3c1.7,0,3-1.4,3-3C80.4,27.4,79.1,26.1,77.4,26.1"/>
		<path class="st4" d="M53.1,49.4c-2.2,0-4,1.8-4,4.1c0,2.2,1.8,4.1,4,4.1c2.2,0,4-1.8,4-4.1C57.2,51.2,55.4,49.4,53.1,49.4"/>
		<path class="st4" d="M31.9,77.8c0-1.7-1.4-3-3-3c-1.7,0-3,1.4-3,3s1.4,3,3,3C30.5,80.9,31.9,79.5,31.9,77.8"/>
		<path class="st4" d="M4.6,86c-2.2,0-4,1.8-4,4.1c0,2.2,1.8,4.1,4,4.1s4-1.8,4-4.1C8.6,87.8,6.8,86,4.6,86"/>
		<path class="st4" d="M28.8,87c-1.7,0-3,1.4-3,3c0,1.7,1.4,3,3,3c1.7,0,3-1.4,3-3C31.9,88.3,30.5,87,28.8,87"/>
		<path class="st4" d="M41,62.6c-1.7,0-3,1.4-3,3c0,1.7,1.4,3,3,3c1.7,0,3-1.4,3-3C44,64,42.7,62.6,41,62.6"/>
	</g>
</g>
</svg>
