<?xml version="1.0" encoding="utf-8"?>
<!-- Generator: Adobe Illustrator 20.1.0, SVG Export Plug-In . SVG Version: 6.00 Build 0)  -->
<!DOCTYPE svg PUBLIC "-//W3C//DTD SVG 1.1//EN" "http://www.w3.org/Graphics/SVG/1.1/DTD/svg11.dtd">
<svg version="1.1" id="Layer_1" xmlns="http://www.w3.org/2000/svg" xmlns:xlink="http://www.w3.org/1999/xlink" x="0px" y="0px"
	 viewBox="0 0 78.5 73.3" style="enable-background:new 0 0 78.5 73.3;" xml:space="preserve">
<style type="text/css">
	.st0{fill:#FFFFFF;stroke:#231F20;stroke-width:0.657;}
	.st1{clip-path:url(#SVGID_2_);fill:#FFFFFF;}
	
		.st2{clip-path:url(#SVGID_2_);fill:none;stroke:#231F20;stroke-width:0.709;stroke-linecap:round;stroke-linejoin:round;stroke-miterlimit:10;}
	.st3{clip-path:url(#SVGID_2_);fill:none;stroke:#231F20;stroke-width:0.657;}
	.st4{fill:none;stroke:#231F20;stroke-width:0.476;stroke-linecap:round;}
	.st5{fill:none;stroke:#231F20;stroke-width:0.317;stroke-linecap:round;}
	.st6{clip-path:url(#SVGID_4_);fill:none;stroke:#FFFFFF;stroke-width:0.986;stroke-linecap:round;stroke-miterlimit:10;}
	.st7{fill:none;stroke:#231F20;stroke-width:0.634;stroke-linecap:round;}
	.st8{clip-path:url(#SVGID_6_);fill:none;stroke:#231F20;stroke-width:0.634;}
	.st9{fill:#231F20;}
	.st10{clip-path:url(#SVGID_8_);fill:none;stroke:#231F20;stroke-width:0.476;stroke-miterlimit:10;}
	.st11{clip-path:url(#SVGID_8_);fill:#FFFFFF;}
	.st12{clip-path:url(#SVGID_8_);fill:none;stroke:#231F20;stroke-width:0.476;stroke-linecap:round;stroke-miterlimit:10;}
	.st13{clip-path:url(#SVGID_8_);fill:none;stroke:#231F20;stroke-width:0.634;}
	.st14{clip-path:url(#SVGID_8_);fill:none;stroke:#231F20;stroke-width:0.476;}
	.st15{clip-path:url(#SVGID_10_);fill:none;stroke:#231F20;stroke-width:0.338;}
	.st16{fill:none;stroke:#231F20;stroke-width:0.952;stroke-linecap:round;}
	.st17{clip-path:url(#SVGID_12_);fill:#FFFFFF;}
	.st18{clip-path:url(#SVGID_12_);fill:none;stroke:#231F20;stroke-width:0.634;}
	.st19{fill:none;stroke:#231F20;stroke-width:0.657;}
	.st20{clip-path:url(#SVGID_14_);fill:none;stroke:#231F20;stroke-width:0.329;stroke-linecap:round;}
</style>
<rect x="27.7" y="46.6" class="st0" width="5.5" height="26.3"/>
<g>
	<g>
		<defs>
			<rect id="SVGID_1_" x="0" y="0" width="78.5" height="73.3"/>
		</defs>
		<clipPath id="SVGID_2_">
			<use xlink:href="#SVGID_1_"  style="overflow:visible;"/>
		</clipPath>
		<path class="st1" d="M40.9,43.8c0.4,0,0.7,0,1.1,0.1c-0.1-0.3-0.1-0.6-0.2-1c-0.1-2.5,1.8-4.5,4.2-4.7c1.3-0.1,2.4,0.4,3.3,1.2
			c0.5-0.6,1.3-1,2.2-1.1c1.8-0.1,3.3,1.3,3.3,3c0,0.1,0,0.1,0,0.2c1.3,0.6,2.2,2,2.3,3.5c0.1,2.3-1.7,4.3-4,4.4
			c-0.6,0-1.2-0.1-1.7-0.3c-0.6,1.2-1.8,2-3.3,2.1c-1.6,0.1-3-0.8-3.7-2.2c-0.6,1.3-1.8,2.2-3.3,2.2c-2.1,0.1-3.9-1.5-4-3.6
			S38.8,43.9,40.9,43.8"/>
		<path class="st2" d="M40.9,43.8c0.4,0,0.7,0,1.1,0.1c-0.1-0.3-0.1-0.6-0.2-1c-0.1-2.5,1.8-4.5,4.2-4.7c1.3-0.1,2.4,0.4,3.3,1.2
			c0.5-0.6,1.3-1,2.2-1.1c1.8-0.1,3.3,1.3,3.3,3c0,0.1,0,0.1,0,0.2c1.3,0.6,2.2,2,2.3,3.5c0.1,2.3-1.7,4.3-4,4.4
			c-0.6,0-1.2-0.1-1.7-0.3c-0.6,1.2-1.8,2-3.3,2.1c-1.6,0.1-3-0.8-3.7-2.2c-0.6,1.3-1.8,2.2-3.3,2.2c-2.1,0.1-3.9-1.5-4-3.6
			S38.8,43.9,40.9,43.8z"/>
		<path class="st1" d="M17.2,0.4c-1.4-0.1-2.6,0.3-3.6,1.1C13,0.9,12.1,0.5,11,0.4C9.3,0.2,7.8,1.1,7,2.6c-0.1,0-0.2,0-0.3,0
			c-1.6,0-2.9,1.2-3.2,2.6C3,5.1,2.5,5,2.1,5.2C0.8,5.5,0.1,6.7,0.4,8c0.3,1.2,1.6,2,2.8,1.6c0,0,0,0,0,0c0.3,1.6,1.6,2.9,3.3,3.1
			c0.6,1,1.7,1.7,2.9,1.8c1.9,0.2,3.7-1.1,4.1-3c0.2,0.1,0.5,0.1,0.8,0.1c1.3,0.1,2.5-0.4,3.4-1.4c2.2-0.4,3.9-2.2,4.1-4.5
			C22.1,3.1,20,0.6,17.2,0.4"/>
		<path class="st2" d="M17.2,0.4c-1.4-0.1-2.6,0.3-3.6,1.1C13,0.9,12.1,0.5,11,0.4C9.3,0.2,7.8,1.1,7,2.6c-0.1,0-0.2,0-0.3,0
			c-1.6,0-2.9,1.2-3.2,2.6C3,5.1,2.5,5,2.1,5.2C0.8,5.5,0.1,6.7,0.4,8c0.3,1.2,1.6,2,2.8,1.6c0,0,0,0,0,0c0.3,1.6,1.6,2.9,3.3,3.1
			c0.6,1,1.7,1.7,2.9,1.8c1.9,0.2,3.7-1.1,4.1-3c0.2,0.1,0.5,0.1,0.8,0.1c1.3,0.1,2.5-0.4,3.4-1.4c2.2-0.4,3.9-2.2,4.1-4.5
			C22.1,3.1,20,0.6,17.2,0.4z"/>
		<path class="st1" d="M74.4,16.2c-0.4,0-0.7,0-1.1,0.1c0.1-0.3,0.1-0.6,0.1-1c0-2.5-1.9-4.5-4.4-4.5c-1.3,0-2.4,0.5-3.2,1.3
			c-0.6-0.6-1.4-1-2.3-1c-1.8,0-3.2,1.4-3.2,3.1c0,0.1,0,0.1,0,0.2c-1.3,0.7-2.2,2-2.2,3.6c0,2.3,1.8,4.2,4.1,4.2
			c0.6,0,1.2-0.1,1.7-0.3c0.7,1.1,1.9,1.9,3.3,1.9c1.6,0,3-0.9,3.6-2.3c0.6,1.2,1.9,2.1,3.3,2.1c2.1,0,3.8-1.6,3.8-3.7
			C78.2,17.9,76.5,16.2,74.4,16.2"/>
		<path class="st2" d="M74.4,16.2c-0.4,0-0.7,0-1.1,0.1c0.1-0.3,0.1-0.6,0.1-1c0-2.5-1.9-4.5-4.4-4.5c-1.3,0-2.4,0.5-3.2,1.3
			c-0.6-0.6-1.4-1-2.3-1c-1.8,0-3.2,1.4-3.2,3.1c0,0.1,0,0.1,0,0.2c-1.3,0.7-2.2,2-2.2,3.6c0,2.3,1.8,4.2,4.1,4.2
			c0.6,0,1.2-0.1,1.7-0.3c0.7,1.1,1.9,1.9,3.3,1.9c1.6,0,3-0.9,3.6-2.3c0.6,1.2,1.9,2.1,3.3,2.1c2.1,0,3.8-1.6,3.8-3.7
			C78.2,17.9,76.5,16.2,74.4,16.2z"/>
		<path class="st1" d="M18.2,7.4c0,0-0.9,0-0.9,0.9v37.5c0,0,0,0.9,0.9,0.9h24.5c0,0,0.9,0,0.9-0.9V8.3c0,0,0-0.9-0.9-0.9H18.2z"/>
		<path class="st3" d="M18.2,7.4c0,0-0.9,0-0.9,0.9v37.5c0,0,0,0.9,0.9,0.9h24.5c0,0,0.9,0,0.9-0.9V8.3c0,0,0-0.9-0.9-0.9H18.2z"/>
	</g>
	<line class="st4" x1="42.6" y1="47" x2="18.6" y2="47"/>
	<line class="st5" x1="32.6" y1="47.7" x2="28.4" y2="47.7"/>
	<line class="st5" x1="30.4" y1="48.3" x2="28.4" y2="48.3"/>
	<g>
		<defs>
			<rect id="SVGID_3_" x="0" y="0" width="78.5" height="73.3"/>
		</defs>
		<clipPath id="SVGID_4_">
			<use xlink:href="#SVGID_3_"  style="overflow:visible;"/>
		</clipPath>
		<path class="st6" d="M22.3,44.1c0,0-1.1,3.2,7.1,11.1c4.8,4.6,3.5,8.4,0.4,8.6c-5.1-0.4-4.5-12-3.3-17.2"/>
	</g>
	<line class="st7" x1="26.3" y1="30.9" x2="18.9" y2="30.9"/>
	<g>
		<defs>
			<rect id="SVGID_5_" x="0" y="0" width="78.5" height="73.3"/>
		</defs>
		<clipPath id="SVGID_6_">
			<use xlink:href="#SVGID_5_"  style="overflow:visible;"/>
		</clipPath>
		<path class="st8" d="M28.4,24.2c0,0-0.9,0-0.9,0.9v17c0,0,0,0.9,0.9,0.9h11.7c0,0,0.9,0,0.9-0.9V25c0,0,0-0.9-0.9-0.9H28.4z"/>
	</g>
	<g>
		<path class="st9" d="M30.4,26c1,0,1.7,0.8,1.7,1.7s-0.8,1.7-1.7,1.7c-1,0-1.7-0.8-1.7-1.7S29.4,26,30.4,26z M30.4,29.1
			c0.7,0,1.3-0.6,1.3-1.4s-0.6-1.4-1.3-1.4s-1.3,0.6-1.3,1.4S29.7,29.1,30.4,29.1z"/>
		<path class="st9" d="M34.3,26c1,0,1.7,0.8,1.7,1.7s-0.8,1.7-1.7,1.7c-1,0-1.7-0.8-1.7-1.7S33.3,26,34.3,26z M34.3,29.1
			c0.7,0,1.3-0.6,1.3-1.4s-0.6-1.4-1.3-1.4S33,27,33,27.8S33.5,29.1,34.3,29.1z"/>
	</g>
	<g>
		<path class="st9" d="M38.2,26c1,0,1.7,0.8,1.7,1.7s-0.8,1.7-1.7,1.7c-1,0-1.7-0.8-1.7-1.7S37.2,26,38.2,26z M38.2,29.1
			c0.7,0,1.3-0.6,1.3-1.4s-0.6-1.4-1.3-1.4s-1.3,0.6-1.3,1.4S37.4,29.1,38.2,29.1z"/>
	</g>
	<g>
		<path class="st9" d="M30.4,30c1,0,1.7,0.8,1.7,1.7s-0.8,1.7-1.7,1.7c-1,0-1.7-0.8-1.7-1.7S29.4,30,30.4,30z M30.4,33.1
			c0.7,0,1.3-0.6,1.3-1.4s-0.6-1.4-1.3-1.4s-1.3,0.6-1.3,1.4S29.7,33.1,30.4,33.1z"/>
		<path class="st9" d="M34.3,30c1,0,1.7,0.8,1.7,1.7s-0.8,1.7-1.7,1.7c-1,0-1.7-0.8-1.7-1.7S33.3,30,34.3,30z M34.3,33.1
			c0.7,0,1.3-0.6,1.3-1.4s-0.6-1.4-1.3-1.4S33,31,33,31.7S33.5,33.1,34.3,33.1z"/>
		<path class="st9" d="M38.2,30c1,0,1.7,0.8,1.7,1.7s-0.8,1.7-1.7,1.7c-1,0-1.7-0.8-1.7-1.7S37.2,30,38.2,30z M38.2,33.1
			c0.7,0,1.3-0.6,1.3-1.4s-0.6-1.4-1.3-1.4s-1.3,0.6-1.3,1.4S37.4,33.1,38.2,33.1z"/>
	</g>
	<g>
		<path class="st9" d="M30.4,33.9c1,0,1.7,0.8,1.7,1.7s-0.8,1.7-1.7,1.7c-1,0-1.7-0.8-1.7-1.7S29.4,33.9,30.4,33.9z M30.4,37
			c0.7,0,1.3-0.6,1.3-1.4s-0.6-1.4-1.3-1.4s-1.3,0.6-1.3,1.4S29.7,37,30.4,37z"/>
		<path class="st9" d="M34.3,33.9c1,0,1.7,0.8,1.7,1.7s-0.8,1.7-1.7,1.7c-1,0-1.7-0.8-1.7-1.7S33.3,33.9,34.3,33.9z M34.3,37
			c0.7,0,1.3-0.6,1.3-1.4s-0.6-1.4-1.3-1.4S33,34.9,33,35.6S33.5,37,34.3,37z"/>
		<path class="st9" d="M38.2,33.9c1,0,1.7,0.8,1.7,1.7s-0.8,1.7-1.7,1.7c-1,0-1.7-0.8-1.7-1.7S37.2,33.9,38.2,33.9z M38.2,37
			c0.7,0,1.3-0.6,1.3-1.4s-0.6-1.4-1.3-1.4s-1.3,0.6-1.3,1.4S37.4,37,38.2,37z"/>
	</g>
	<g>
		<path class="st9" d="M34.3,37.8c1,0,1.7,0.8,1.7,1.7s-0.8,1.7-1.7,1.7c-1,0-1.7-0.8-1.7-1.7S33.3,37.8,34.3,37.8z M34.3,40.9
			c0.7,0,1.3-0.6,1.3-1.4s-0.6-1.4-1.3-1.4S33,38.8,33,39.6S33.5,40.9,34.3,40.9z"/>
	</g>
	<g>
		<defs>
			<rect id="SVGID_7_" x="0" y="0" width="78.5" height="73.3"/>
		</defs>
		<clipPath id="SVGID_8_">
			<use xlink:href="#SVGID_7_"  style="overflow:visible;"/>
		</clipPath>
		<path class="st10" d="M20.4,40.8L20,40.1c-0.6-1.1-0.6-2.3,0-3.4l0.4-0.7c0.3-0.6,1.2-1,2.3-1c1,0,2,0.4,2.3,1l0.3,0.5
			c0.6,1.2,0.6,2.5,0,3.7L25,40.8c-0.3,0.6-1.2,1-2.3,1C21.6,41.8,20.7,41.4,20.4,40.8z"/>
		<path class="st11" d="M20.4,29.9L20,29.2c-0.6-1.1-0.6-2.3,0-3.4l0.4-0.7c0.3-0.6,1.2-1,2.3-1c1,0,2,0.4,2.3,1l0.3,0.5
			c0.6,1.2,0.6,2.5,0,3.7L25,29.9c-0.3,0.6-1.2,1-2.3,1C21.6,30.9,20.7,30.4,20.4,29.9"/>
		<path class="st10" d="M20.4,29.9L20,29.2c-0.6-1.1-0.6-2.3,0-3.4l0.4-0.7c0.3-0.6,1.2-1,2.3-1c1,0,2,0.4,2.3,1l0.3,0.5
			c0.6,1.2,0.6,2.5,0,3.7L25,29.9c-0.3,0.6-1.2,1-2.3,1C21.6,30.9,20.7,30.4,20.4,29.9z"/>
		<path class="st11" d="M23.9,26.4v12.9c0,0.4-0.2,0.7-0.5,0.7h-2.3c-0.3,0-0.5-0.3-0.5-0.7V26.4"/>
		<path class="st11" d="M20.6,38.7L20.6,38.7c-0.5-4-0.5-7.9,0-11.8l0-0.1"/>
		<path class="st12" d="M20.6,38.7L20.6,38.7c-0.5-4-0.5-7.9,0-11.8l0-0.1"/>
		<path class="st12" d="M24.3,39.4L24.3,39.4c-0.5-4.3-0.8-8.3-0.3-12.5"/>
		<path class="st11" d="M22.6,39.9H22c-0.4,0-0.8,0.4-0.8,0.8v0.4c0,0.4,0.2,0.7,0.4,0.9v1.5c0,0.4,0.2-0.1,0.6-0.1
			c0.3,0,0.6,0.5,0.6,0.2v-1.5c0.3-0.2,0.4-0.5,0.4-0.8v-0.7C23.3,40.3,23,39.9,22.6,39.9"/>
		<path class="st12" d="M22.6,39.9H22c-0.4,0-0.8,0.4-0.8,0.8v0.4c0,0.4,0.2,0.7,0.4,0.9v1.5c0,0.4,0.2-0.1,0.6-0.1
			c0.3,0,0.6,0.5,0.6,0.2v-1.5c0.3-0.2,0.4-0.5,0.4-0.8v-0.7C23.3,40.3,23,39.9,22.6,39.9z"/>
		<path class="st11" d="M21.7,42l0.2-0.1c0.3-0.2,0.6-0.2,0.9,0l0.3,0.1"/>
		<path class="st12" d="M21.7,42l0.2-0.1c0.3-0.2,0.6-0.2,0.9,0l0.3,0.1"/>
		<path class="st12" d="M22.3,44.1c0,0-1.1,3.2,7.1,11.1c4.8,4.6,3.5,8.4,0.4,8.6c-5.1-0.4-4.5-12-3.3-17.2"/>
		<path class="st11" d="M16.9,7.4c0,0-0.9,0-0.9,0.9V14c0,0,0,0.9,0.9,0.9H44c0,0,0.9,0,0.9-0.9V8.3c0,0,0-0.9-0.9-0.9H16.9z"/>
		<path class="st13" d="M16.9,7.4c0,0-0.9,0-0.9,0.9V14c0,0,0,0.9,0.9,0.9H44c0,0,0.9,0,0.9-0.9V8.3c0,0,0-0.9-0.9-0.9H16.9z"/>
		<path class="st11" d="M19.7,17.3c0,0-0.9,0-0.9,0.9v3.3c0,0,0,0.9,0.9,0.9h6.3c0,0,0.9,0,0.9-0.9v-3.3c0,0,0-0.9-0.9-0.9H19.7z"/>
		<path class="st14" d="M19.7,17.3c0,0-0.9,0-0.9,0.9v3.3c0,0,0,0.9,0.9,0.9h6.3c0,0,0.9,0,0.9-0.9v-3.3c0,0,0-0.9-0.9-0.9H19.7z"/>
	</g>
	<line class="st4" x1="42.6" y1="15.2" x2="18.6" y2="15.2"/>
	<line class="st5" x1="42.6" y1="15.9" x2="18.6" y2="15.9"/>
	<g>
		<defs>
			<rect id="SVGID_9_" x="0" y="0" width="78.5" height="73.3"/>
		</defs>
		<clipPath id="SVGID_10_">
			<use xlink:href="#SVGID_9_"  style="overflow:visible;"/>
		</clipPath>
		<path class="st15" d="M41,21.4v-3.1c0-0.6-0.5-1.1-1.1-1.1c-0.6,0-1.1,0.5-1.1,1.1v3.1c0,0.6,0.5,1.1,1.1,1.1
			C40.5,22.5,41,22,41,21.4z"/>
	</g>
	<line class="st7" x1="39.9" y1="18.2" x2="39.9" y2="19.9"/>
	<line class="st16" x1="25.7" y1="47" x2="27.1" y2="47"/>
	<g>
		<defs>
			<rect id="SVGID_11_" x="0" y="0" width="78.5" height="73.3"/>
		</defs>
		<clipPath id="SVGID_12_">
			<use xlink:href="#SVGID_11_"  style="overflow:visible;"/>
		</clipPath>
		<path class="st17" d="M20.9,8.8c0,0-0.9,0-0.9,0.9v2.8c0,0,0,0.9,0.9,0.9H40c0,0,0.9,0,0.9-0.9V9.7c0,0,0-0.9-0.9-0.9H20.9z"/>
		<path class="st18" d="M20.9,8.8c0,0-0.9,0-0.9,0.9v2.8c0,0,0,0.9,0.9,0.9H40c0,0,0.9,0,0.9-0.9V9.7c0,0,0-0.9-0.9-0.9H20.9z"/>
	</g>
	<g>
		<path class="st9" d="M24.6,11c0-0.7,0.6-1.2,1.2-1.2c0.7,0,1,0.4,1.1,0.8l-0.5,0.2c0-0.2-0.2-0.4-0.6-0.4c-0.3,0-0.7,0.2-0.7,0.7
			c0,0.4,0.3,0.7,0.7,0.7c0.4,0,0.6-0.3,0.6-0.4l0.5,0.1c-0.1,0.3-0.4,0.8-1.1,0.8C25.2,12.2,24.6,11.7,24.6,11z"/>
		<path class="st9" d="M28.8,11.4c0,0.5-0.4,0.9-0.9,0.9c-0.5,0-0.9-0.4-0.9-0.9c0-0.5,0.4-0.9,0.9-0.9
			C28.5,10.5,28.8,10.8,28.8,11.4z M28.4,11.4c0-0.3-0.2-0.4-0.4-0.4c-0.2,0-0.4,0.1-0.4,0.4c0,0.3,0.2,0.4,0.4,0.4
			C28.2,11.8,28.4,11.6,28.4,11.4z"/>
		<path class="st9" d="M29.7,12.2h-0.5v-1.6h0.5v0.2c0.1-0.2,0.3-0.2,0.5-0.2c0.4,0,0.6,0.3,0.6,0.6v1h-0.5v-0.9
			c0-0.2-0.1-0.3-0.3-0.3c-0.2,0-0.3,0.1-0.3,0.3V12.2z"/>
		<path class="st9" d="M31.7,10.5H32V11h-0.3v0.6c0,0.1,0.1,0.2,0.2,0.2c0.1,0,0.1,0,0.1,0v0.4c0,0-0.1,0-0.3,0
			c-0.3,0-0.5-0.2-0.5-0.5V11h-0.3v-0.4H31c0.2,0,0.3-0.1,0.3-0.3v-0.2h0.4V10.5z"/>
		<path class="st9" d="M32.8,11.2l0.4-0.1c0.1,0,0.1-0.1,0.1-0.1c0-0.1-0.1-0.2-0.2-0.2c-0.2,0-0.3,0.1-0.3,0.2L32.3,11
			c0-0.2,0.2-0.5,0.7-0.5c0.5,0,0.7,0.3,0.7,0.6v0.8c0,0.1,0,0.2,0,0.3h-0.4c0,0,0-0.1,0-0.2c-0.1,0.1-0.2,0.2-0.5,0.2
			c-0.4,0-0.6-0.2-0.6-0.5C32.3,11.4,32.5,11.3,32.8,11.2z M33.3,11.5L33.3,11.5l-0.3,0c-0.1,0-0.2,0.1-0.2,0.2
			c0,0.1,0.1,0.2,0.2,0.2C33.1,11.9,33.3,11.8,33.3,11.5z"/>
		<path class="st9" d="M34.6,11.4c0,0.3,0.2,0.4,0.4,0.4c0.2,0,0.3-0.1,0.3-0.2l0.4,0.1c-0.1,0.3-0.3,0.6-0.8,0.6
			c-0.5,0-0.9-0.4-0.9-0.9c0-0.5,0.4-0.9,0.9-0.9c0.4,0,0.7,0.3,0.8,0.6l-0.4,0.1c0-0.1-0.1-0.2-0.3-0.2
			C34.7,10.9,34.6,11.1,34.6,11.4z"/>
		<path class="st9" d="M36.6,10.5H37V11h-0.3v0.6c0,0.1,0.1,0.2,0.2,0.2c0.1,0,0.1,0,0.1,0v0.4c0,0-0.1,0-0.3,0
			c-0.3,0-0.5-0.2-0.5-0.5V11h-0.3v-0.4h0.1c0.2,0,0.3-0.1,0.3-0.3v-0.2h0.4V10.5z"/>
	</g>
	<line class="st19" x1="41.6" y1="46.6" x2="25.2" y2="46.6"/>
	<g>
		<defs>
			<rect id="SVGID_13_" x="0" y="0" width="78.5" height="73.3"/>
		</defs>
		<clipPath id="SVGID_14_">
			<use xlink:href="#SVGID_13_"  style="overflow:visible;"/>
		</clipPath>
		<path class="st20" d="M20.1,18.8c0.5,0,1,0,1.5-0.1c0.5,0,0.8,0.4,1.3,0.4c0.3,0,0.6-0.1,0.9-0.1c0.3,0,0.7,0,1,0"/>
	</g>
</g>
</svg>
