<?xml version="1.0" encoding="utf-8"?>
<!-- Generator: Adobe Illustrator 21.0.0, SVG Export Plug-In . SVG Version: 6.00 Build 0)  -->
<!DOCTYPE svg PUBLIC "-//W3C//DTD SVG 1.1//EN" "http://www.w3.org/Graphics/SVG/1.1/DTD/svg11.dtd">
<svg version="1.1" id="Layer_1" xmlns="http://www.w3.org/2000/svg" xmlns:xlink="http://www.w3.org/1999/xlink" x="0px" y="0px"
	 viewBox="0 0 78.5 73.3" style="enable-background:new 0 0 78.5 73.3;" xml:space="preserve">
<style type="text/css">
	.st0{fill:#FFFFFF;stroke:#000000;stroke-width:0.657;}
	.st1{clip-path:url(#SVGID_2_);fill:#FFFFFF;}
	
		.st2{clip-path:url(#SVGID_4_);fill:none;stroke:#000000;stroke-width:0.709;stroke-linecap:round;stroke-linejoin:round;stroke-miterlimit:10;}
	.st3{clip-path:url(#SVGID_6_);fill:#FFFFFF;}
	
		.st4{clip-path:url(#SVGID_8_);fill:none;stroke:#000000;stroke-width:0.709;stroke-linecap:round;stroke-linejoin:round;stroke-miterlimit:10;}
	.st5{clip-path:url(#SVGID_10_);fill:#FFFFFF;}
	
		.st6{clip-path:url(#SVGID_12_);fill:none;stroke:#000000;stroke-width:0.709;stroke-linecap:round;stroke-linejoin:round;stroke-miterlimit:10;}
	.st7{clip-path:url(#SVGID_14_);fill:#FFFFFF;}
	.st8{clip-path:url(#SVGID_16_);fill:none;stroke:#000000;stroke-width:0.657;}
	.st9{fill:none;stroke:#000000;stroke-width:0.476;stroke-linecap:round;}
	.st10{fill:none;stroke:#000000;stroke-width:0.317;stroke-linecap:round;}
	.st11{clip-path:url(#SVGID_18_);fill:none;stroke:#FFFFFF;stroke-width:0.986;stroke-linecap:round;stroke-miterlimit:10;}
	.st12{fill:none;stroke:#000000;stroke-width:0.634;stroke-linecap:round;}
	.st13{clip-path:url(#SVGID_20_);fill:none;stroke:#000000;stroke-width:0.634;}
	.st14{clip-path:url(#SVGID_22_);fill:none;stroke:#000000;stroke-width:0.476;stroke-miterlimit:10;}
	.st15{clip-path:url(#SVGID_24_);fill:#FFFFFF;}
	.st16{clip-path:url(#SVGID_26_);fill:none;stroke:#000000;stroke-width:0.476;stroke-miterlimit:10;}
	.st17{clip-path:url(#SVGID_28_);fill:#FFFFFF;}
	.st18{clip-path:url(#SVGID_30_);fill:#FFFFFF;}
	.st19{clip-path:url(#SVGID_32_);fill:none;stroke:#000000;stroke-width:0.476;stroke-linecap:round;stroke-miterlimit:10;}
	.st20{clip-path:url(#SVGID_34_);fill:none;stroke:#000000;stroke-width:0.476;stroke-linecap:round;stroke-miterlimit:10;}
	.st21{clip-path:url(#SVGID_36_);fill:#FFFFFF;}
	.st22{clip-path:url(#SVGID_38_);fill:none;stroke:#000000;stroke-width:0.476;stroke-linecap:round;stroke-miterlimit:10;}
	.st23{clip-path:url(#SVGID_40_);fill:#FFFFFF;}
	.st24{clip-path:url(#SVGID_42_);fill:none;stroke:#000000;stroke-width:0.476;stroke-linecap:round;stroke-miterlimit:10;}
	.st25{clip-path:url(#SVGID_44_);fill:none;stroke:#000000;stroke-width:0.476;stroke-linecap:round;stroke-miterlimit:10;}
	.st26{clip-path:url(#SVGID_46_);fill:#FFFFFF;}
	.st27{clip-path:url(#SVGID_48_);fill:none;stroke:#000000;stroke-width:0.634;}
	.st28{clip-path:url(#SVGID_50_);fill:#FFFFFF;}
	.st29{clip-path:url(#SVGID_52_);fill:none;stroke:#000000;stroke-width:0.476;}
	.st30{clip-path:url(#SVGID_54_);fill:none;stroke:#000000;stroke-width:0.338;}
	.st31{fill:none;stroke:#000000;stroke-width:0.952;stroke-linecap:round;}
	.st32{clip-path:url(#SVGID_56_);fill:#FFFFFF;}
	.st33{clip-path:url(#SVGID_58_);fill:none;stroke:#000000;stroke-width:0.634;}
	.st34{clip-path:url(#SVGID_60_);fill:none;stroke:#231F20;stroke-width:0.329;stroke-linecap:round;}
	.st35{font-family:'SuisseIntl-Bold';}
	.st36{font-size:3px;}
	.st37{font-size:1px;}
</style>
<g>
	<rect x="27.9" y="46.6" class="st0" width="5.5" height="26.3"/>
	<g>
		<g>
			<g>
				<defs>
					<rect id="SVGID_1_" x="0" y="0.3" width="78.5" height="73.3"/>
				</defs>
				<clipPath id="SVGID_2_">
					<use xlink:href="#SVGID_1_"  style="overflow:visible;"/>
				</clipPath>
				<path class="st1" d="M40.9,44.1c0.4,0,0.7,0,1.1,0.1c-0.1-0.3-0.1-0.6-0.2-1c-0.1-2.5,1.8-4.5,4.2-4.7c1.3-0.1,2.4,0.4,3.3,1.2
					c0.5-0.6,1.3-1,2.2-1.1c1.8-0.1,3.3,1.3,3.3,3c0,0.1,0,0.1,0,0.2c1.3,0.6,2.2,2,2.3,3.5c0.1,2.3-1.7,4.3-4,4.4
					c-0.6,0-1.2-0.1-1.7-0.3c-0.6,1.2-1.8,2-3.3,2.1c-1.6,0.1-3-0.8-3.7-2.2c-0.6,1.3-1.8,2.2-3.3,2.2c-2.1,0.1-3.9-1.5-4-3.6
					S38.8,44.2,40.9,44.1"/>
			</g>
			<g>
				<defs>
					<rect id="SVGID_3_" x="0" y="0.3" width="78.5" height="73.3"/>
				</defs>
				<clipPath id="SVGID_4_">
					<use xlink:href="#SVGID_3_"  style="overflow:visible;"/>
				</clipPath>
				<path class="st2" d="M40.9,44.1c0.4,0,0.7,0,1.1,0.1c-0.1-0.3-0.1-0.6-0.2-1c-0.1-2.5,1.8-4.5,4.2-4.7c1.3-0.1,2.4,0.4,3.3,1.2
					c0.5-0.6,1.3-1,2.2-1.1c1.8-0.1,3.3,1.3,3.3,3c0,0.1,0,0.1,0,0.2c1.3,0.6,2.2,2,2.3,3.5c0.1,2.3-1.7,4.3-4,4.4
					c-0.6,0-1.2-0.1-1.7-0.3c-0.6,1.2-1.8,2-3.3,2.1c-1.6,0.1-3-0.8-3.7-2.2c-0.6,1.3-1.8,2.2-3.3,2.2c-2.1,0.1-3.9-1.5-4-3.6
					S38.8,44.2,40.9,44.1z"/>
			</g>
			<g>
				<defs>
					<rect id="SVGID_5_" x="0" y="0.3" width="78.5" height="73.3"/>
				</defs>
				<clipPath id="SVGID_6_">
					<use xlink:href="#SVGID_5_"  style="overflow:visible;"/>
				</clipPath>
				<path class="st3" d="M17.2,0.7c-1.4-0.1-2.6,0.3-3.6,1.1c-0.6-0.6-1.5-1-2.6-1.1C9.3,0.5,7.8,1.4,7,2.9c-0.1,0-0.2,0-0.3,0
					c-1.6,0-2.9,1.2-3.2,2.6c-0.5-0.1-1-0.2-1.4,0C0.8,5.8,0.1,7,0.4,8.3c0.3,1.2,1.6,2,2.8,1.6l0,0c0.3,1.6,1.6,2.9,3.3,3.1
					c0.6,1,1.7,1.7,2.9,1.8c1.9,0.2,3.7-1.1,4.1-3c0.2,0.1,0.5,0.1,0.8,0.1c1.3,0.1,2.5-0.4,3.4-1.4c2.2-0.4,3.9-2.2,4.1-4.5
					C22.1,3.4,20,0.9,17.2,0.7"/>
			</g>
			<g>
				<defs>
					<rect id="SVGID_7_" x="0" y="0.3" width="78.5" height="73.3"/>
				</defs>
				<clipPath id="SVGID_8_">
					<use xlink:href="#SVGID_7_"  style="overflow:visible;"/>
				</clipPath>
				<path class="st4" d="M17.2,0.7c-1.4-0.1-2.6,0.3-3.6,1.1c-0.6-0.6-1.5-1-2.6-1.1C9.3,0.5,7.8,1.4,7,2.9c-0.1,0-0.2,0-0.3,0
					c-1.6,0-2.9,1.2-3.2,2.6c-0.5-0.1-1-0.2-1.4,0C0.8,5.8,0.1,7,0.4,8.3c0.3,1.2,1.6,2,2.8,1.6l0,0c0.3,1.6,1.6,2.9,3.3,3.1
					c0.6,1,1.7,1.7,2.9,1.8c1.9,0.2,3.7-1.1,4.1-3c0.2,0.1,0.5,0.1,0.8,0.1c1.3,0.1,2.5-0.4,3.4-1.4c2.2-0.4,3.9-2.2,4.1-4.5
					C22.1,3.4,20,0.9,17.2,0.7z"/>
			</g>
			<g>
				<defs>
					<rect id="SVGID_9_" x="0" y="0.3" width="78.5" height="73.3"/>
				</defs>
				<clipPath id="SVGID_10_">
					<use xlink:href="#SVGID_9_"  style="overflow:visible;"/>
				</clipPath>
				<path class="st5" d="M74.4,16.5c-0.4,0-0.7,0-1.1,0.1c0.1-0.3,0.1-0.6,0.1-1c0-2.5-1.9-4.5-4.4-4.5c-1.3,0-2.4,0.5-3.2,1.3
					c-0.6-0.6-1.4-1-2.3-1c-1.8,0-3.2,1.4-3.2,3.1c0,0.1,0,0.1,0,0.2c-1.3,0.7-2.2,2-2.2,3.6c0,2.3,1.8,4.2,4.1,4.2
					c0.6,0,1.2-0.1,1.7-0.3c0.7,1.1,1.9,1.9,3.3,1.9c1.6,0,3-0.9,3.6-2.3c0.6,1.2,1.9,2.1,3.3,2.1c2.1,0,3.8-1.6,3.8-3.7
					C78.2,18.2,76.5,16.5,74.4,16.5"/>
			</g>
			<g>
				<defs>
					<rect id="SVGID_11_" x="0" y="0.3" width="78.5" height="73.3"/>
				</defs>
				<clipPath id="SVGID_12_">
					<use xlink:href="#SVGID_11_"  style="overflow:visible;"/>
				</clipPath>
				<path class="st6" d="M74.4,16.5c-0.4,0-0.7,0-1.1,0.1c0.1-0.3,0.1-0.6,0.1-1c0-2.5-1.9-4.5-4.4-4.5c-1.3,0-2.4,0.5-3.2,1.3
					c-0.6-0.6-1.4-1-2.3-1c-1.8,0-3.2,1.4-3.2,3.1c0,0.1,0,0.1,0,0.2c-1.3,0.7-2.2,2-2.2,3.6c0,2.3,1.8,4.2,4.1,4.2
					c0.6,0,1.2-0.1,1.7-0.3c0.7,1.1,1.9,1.9,3.3,1.9c1.6,0,3-0.9,3.6-2.3c0.6,1.2,1.9,2.1,3.3,2.1c2.1,0,3.8-1.6,3.8-3.7
					C78.2,18.2,76.5,16.5,74.4,16.5z"/>
			</g>
			<g>
				<defs>
					<rect id="SVGID_13_" x="0" y="0.3" width="78.5" height="73.3"/>
				</defs>
				<clipPath id="SVGID_14_">
					<use xlink:href="#SVGID_13_"  style="overflow:visible;"/>
				</clipPath>
				<path class="st7" d="M18.2,7.7c0,0-0.9,0-0.9,0.9v37.5c0,0,0,0.9,0.9,0.9h24.5c0,0,0.9,0,0.9-0.9V8.6c0,0,0-0.9-0.9-0.9H18.2z"
					/>
			</g>
			<g>
				<defs>
					<rect id="SVGID_15_" x="0" y="0.3" width="78.5" height="73.3"/>
				</defs>
				<clipPath id="SVGID_16_">
					<use xlink:href="#SVGID_15_"  style="overflow:visible;"/>
				</clipPath>
				<path class="st8" d="M18.2,7.7c0,0-0.9,0-0.9,0.9v37.5c0,0,0,0.9,0.9,0.9h24.5c0,0,0.9,0,0.9-0.9V8.6c0,0,0-0.9-0.9-0.9H18.2z"
					/>
			</g>
		</g>
		<line class="st9" x1="42.8" y1="47" x2="18.8" y2="47"/>
		<line class="st10" x1="32.8" y1="47.7" x2="28.6" y2="47.7"/>
		<line class="st10" x1="30.6" y1="48.3" x2="28.6" y2="48.3"/>
		<g>
			<g>
				<defs>
					<rect id="SVGID_17_" x="0.2" width="78.5" height="73.3"/>
				</defs>
				<clipPath id="SVGID_18_">
					<use xlink:href="#SVGID_17_"  style="overflow:visible;"/>
				</clipPath>
				<path class="st11" d="M22.5,44.1c0,0-1.1,3.2,7.1,11.1c4.8,4.6,3.5,8.4,0.4,8.6c-5.1-0.4-4.5-12-3.3-17.2"/>
			</g>
		</g>
		<line class="st12" x1="26.5" y1="30.9" x2="19.1" y2="30.9"/>
		<g>
			<g>
				<defs>
					<rect id="SVGID_19_" x="0.2" width="78.5" height="73.3"/>
				</defs>
				<clipPath id="SVGID_20_">
					<use xlink:href="#SVGID_19_"  style="overflow:visible;"/>
				</clipPath>
				<path class="st13" d="M28.6,24.1c0,0-0.9,0.1-0.9,1v17c0,0,0,0.9,0.9,0.9h11.7c0,0,0.9,0,0.9-0.9V25c0,0,0-0.9-0.9-0.9H28.6
					L28.6,24.1z"/>
			</g>
		</g>
		<g>
			<path d="M30.6,26c1,0,1.7,0.8,1.7,1.7s-0.8,1.7-1.7,1.7c-1,0-1.7-0.8-1.7-1.7S29.6,26,30.6,26z M30.6,29.1c0.7,0,1.3-0.6,1.3-1.4
				s-0.6-1.4-1.3-1.4s-1.3,0.6-1.3,1.4S29.9,29.1,30.6,29.1z"/>
			<path d="M34.5,26c1,0,1.7,0.8,1.7,1.7s-0.8,1.7-1.7,1.7c-1,0-1.7-0.8-1.7-1.7S33.5,26,34.5,26z M34.5,29.1c0.7,0,1.3-0.6,1.3-1.4
				s-0.6-1.4-1.3-1.4s-1.3,0.7-1.3,1.5S33.7,29.1,34.5,29.1z"/>
		</g>
		<g>
			<path d="M38.4,26c1,0,1.7,0.8,1.7,1.7s-0.8,1.7-1.7,1.7c-1,0-1.7-0.8-1.7-1.7S37.4,26,38.4,26z M38.4,29.1c0.7,0,1.3-0.6,1.3-1.4
				s-0.6-1.4-1.3-1.4s-1.3,0.6-1.3,1.4S37.6,29.1,38.4,29.1z"/>
		</g>
		<g>
			<path d="M30.6,30c1,0,1.7,0.8,1.7,1.7s-0.8,1.7-1.7,1.7c-1,0-1.7-0.8-1.7-1.7S29.6,30,30.6,30z M30.6,33.1c0.7,0,1.3-0.6,1.3-1.4
				s-0.6-1.4-1.3-1.4s-1.3,0.6-1.3,1.4C29.3,32.5,29.9,33.1,30.6,33.1z"/>
			<path d="M34.5,30c1,0,1.7,0.8,1.7,1.7s-0.8,1.7-1.7,1.7c-1,0-1.7-0.8-1.7-1.7S33.5,30,34.5,30z M34.5,33.1c0.7,0,1.3-0.6,1.3-1.4
				s-0.6-1.4-1.3-1.4s-1.3,0.7-1.3,1.4S33.7,33.1,34.5,33.1z"/>
			<path d="M38.4,30c1,0,1.7,0.8,1.7,1.7s-0.8,1.7-1.7,1.7c-1,0-1.7-0.8-1.7-1.7S37.4,30,38.4,30z M38.4,33.1c0.7,0,1.3-0.6,1.3-1.4
				s-0.6-1.4-1.3-1.4s-1.3,0.6-1.3,1.4C37.1,32.5,37.6,33.1,38.4,33.1z"/>
		</g>
		<g>
			<path d="M30.6,33.9c1,0,1.7,0.8,1.7,1.7s-0.8,1.7-1.7,1.7c-1,0-1.7-0.8-1.7-1.7S29.6,33.9,30.6,33.9z M30.6,37
				c0.7,0,1.3-0.6,1.3-1.4s-0.6-1.4-1.3-1.4s-1.3,0.6-1.3,1.4S29.9,37,30.6,37z"/>
			<path d="M34.5,33.9c1,0,1.7,0.8,1.7,1.7s-0.8,1.7-1.7,1.7c-1,0-1.7-0.8-1.7-1.7S33.5,33.9,34.5,33.9z M34.5,37
				c0.7,0,1.3-0.6,1.3-1.4s-0.6-1.4-1.3-1.4s-1.3,0.7-1.3,1.4S33.7,37,34.5,37z"/>
			<path d="M38.4,33.9c1,0,1.7,0.8,1.7,1.7s-0.8,1.7-1.7,1.7c-1,0-1.7-0.8-1.7-1.7S37.4,33.9,38.4,33.9z M38.4,37
				c0.7,0,1.3-0.6,1.3-1.4s-0.6-1.4-1.3-1.4s-1.3,0.6-1.3,1.4S37.6,37,38.4,37z"/>
		</g>
		<g>
			<path d="M34.5,37.8c1,0,1.7,0.8,1.7,1.7s-0.8,1.7-1.7,1.7c-1,0-1.7-0.8-1.7-1.7S33.5,37.8,34.5,37.8z M34.5,40.9
				c0.7,0,1.3-0.6,1.3-1.4s-0.6-1.4-1.3-1.4s-1.3,0.7-1.3,1.5S33.7,40.9,34.5,40.9z"/>
		</g>
		<g>
			<g>
				<defs>
					<rect id="SVGID_21_" x="0.2" width="78.5" height="73.3"/>
				</defs>
				<clipPath id="SVGID_22_">
					<use xlink:href="#SVGID_21_"  style="overflow:visible;"/>
				</clipPath>
				<path class="st14" d="M20.6,40.8l-0.4-0.7c-0.6-1.1-0.6-2.3,0-3.4l0.4-0.7c0.3-0.6,1.2-1,2.3-1c1,0,2,0.4,2.3,1l0.3,0.5
					c0.6,1.2,0.6,2.5,0,3.7l-0.3,0.6c-0.3,0.6-1.2,1-2.3,1C21.8,41.8,20.9,41.4,20.6,40.8z"/>
			</g>
			<g>
				<defs>
					<rect id="SVGID_23_" x="0.2" width="78.5" height="73.3"/>
				</defs>
				<clipPath id="SVGID_24_">
					<use xlink:href="#SVGID_23_"  style="overflow:visible;"/>
				</clipPath>
				<path class="st15" d="M20.6,29.9l-0.4-0.7c-0.6-1.1-0.6-2.3,0-3.4l0.4-0.7c0.3-0.6,1.2-1,2.3-1c1,0,2,0.4,2.3,1l0.3,0.5
					c0.6,1.2,0.6,2.5,0,3.7l-0.3,0.6c-0.3,0.6-1.2,1-2.3,1C21.8,30.9,20.9,30.4,20.6,29.9"/>
			</g>
			<g>
				<defs>
					<rect id="SVGID_25_" x="0.2" width="78.5" height="73.3"/>
				</defs>
				<clipPath id="SVGID_26_">
					<use xlink:href="#SVGID_25_"  style="overflow:visible;"/>
				</clipPath>
				<path class="st16" d="M20.6,29.9l-0.4-0.7c-0.6-1.1-0.6-2.3,0-3.4l0.4-0.7c0.3-0.6,1.2-1,2.3-1c1,0,2,0.4,2.3,1l0.3,0.5
					c0.6,1.2,0.6,2.5,0,3.7l-0.3,0.6c-0.3,0.6-1.2,1-2.3,1C21.8,30.9,20.9,30.4,20.6,29.9z"/>
			</g>
			<g>
				<defs>
					<rect id="SVGID_27_" x="0.2" width="78.5" height="73.3"/>
				</defs>
				<clipPath id="SVGID_28_">
					<use xlink:href="#SVGID_27_"  style="overflow:visible;"/>
				</clipPath>
				<path class="st17" d="M24.1,26.4v12.9c0,0.4-0.2,0.7-0.5,0.7h-2.3c-0.3,0-0.5-0.3-0.5-0.7V26.4"/>
			</g>
			<g>
				<defs>
					<rect id="SVGID_29_" x="0.2" width="78.5" height="73.3"/>
				</defs>
				<clipPath id="SVGID_30_">
					<use xlink:href="#SVGID_29_"  style="overflow:visible;"/>
				</clipPath>
				<path class="st18" d="M20.8,38.7L20.8,38.7c-0.5-4-0.5-7.9,0-11.8v-0.1"/>
			</g>
			<g>
				<defs>
					<rect id="SVGID_31_" x="0.2" width="78.5" height="73.3"/>
				</defs>
				<clipPath id="SVGID_32_">
					<use xlink:href="#SVGID_31_"  style="overflow:visible;"/>
				</clipPath>
				<path class="st19" d="M20.8,38.7L20.8,38.7c-0.5-4-0.5-7.9,0-11.8v-0.1"/>
			</g>
			<g>
				<defs>
					<rect id="SVGID_33_" x="0.2" width="78.5" height="73.3"/>
				</defs>
				<clipPath id="SVGID_34_">
					<use xlink:href="#SVGID_33_"  style="overflow:visible;"/>
				</clipPath>
				<path class="st20" d="M24.5,39.4L24.5,39.4c-0.5-4.3-0.8-8.3-0.3-12.5"/>
			</g>
			<g>
				<defs>
					<rect id="SVGID_35_" x="0.2" width="78.5" height="73.3"/>
				</defs>
				<clipPath id="SVGID_36_">
					<use xlink:href="#SVGID_35_"  style="overflow:visible;"/>
				</clipPath>
				<path class="st21" d="M22.8,39.9h-0.6c-0.4,0-0.8,0.4-0.8,0.8v0.4c0,0.4,0.2,0.7,0.4,0.9v1.5c0,0.4,0.2-0.1,0.6-0.1
					c0.3,0,0.6,0.5,0.6,0.2v-1.5c0.3-0.2,0.4-0.5,0.4-0.8v-0.7C23.5,40.3,23.2,39.9,22.8,39.9"/>
			</g>
			<g>
				<defs>
					<rect id="SVGID_37_" x="0.2" width="78.5" height="73.3"/>
				</defs>
				<clipPath id="SVGID_38_">
					<use xlink:href="#SVGID_37_"  style="overflow:visible;"/>
				</clipPath>
				<path class="st22" d="M22.8,39.9h-0.6c-0.4,0-0.8,0.4-0.8,0.8v0.4c0,0.4,0.2,0.7,0.4,0.9v1.5c0,0.4,0.2-0.1,0.6-0.1
					c0.3,0,0.6,0.5,0.6,0.2v-1.5c0.3-0.2,0.4-0.5,0.4-0.8v-0.7C23.5,40.3,23.2,39.9,22.8,39.9z"/>
			</g>
			<g>
				<defs>
					<rect id="SVGID_39_" x="0.2" width="78.5" height="73.3"/>
				</defs>
				<clipPath id="SVGID_40_">
					<use xlink:href="#SVGID_39_"  style="overflow:visible;"/>
				</clipPath>
				<path class="st23" d="M21.9,42l0.2-0.1c0.3-0.2,0.6-0.2,0.9,0l0.3,0.1"/>
			</g>
			<g>
				<defs>
					<rect id="SVGID_41_" x="0.2" width="78.5" height="73.3"/>
				</defs>
				<clipPath id="SVGID_42_">
					<use xlink:href="#SVGID_41_"  style="overflow:visible;"/>
				</clipPath>
				<path class="st24" d="M21.9,42l0.2-0.1c0.3-0.2,0.6-0.2,0.9,0l0.3,0.1"/>
			</g>
			<g>
				<defs>
					<rect id="SVGID_43_" x="0.2" width="78.5" height="73.3"/>
				</defs>
				<clipPath id="SVGID_44_">
					<use xlink:href="#SVGID_43_"  style="overflow:visible;"/>
				</clipPath>
				<path class="st25" d="M22.5,44.1c0,0-1.1,3.2,7.1,11.1c4.8,4.6,3.5,8.4,0.4,8.6c-5.1-0.4-4.6-11.6-3.4-16.8"/>
			</g>
			<g>
				<defs>
					<rect id="SVGID_45_" x="0.2" width="78.5" height="73.3"/>
				</defs>
				<clipPath id="SVGID_46_">
					<use xlink:href="#SVGID_45_"  style="overflow:visible;"/>
				</clipPath>
				<path class="st26" d="M17.1,7.4c0,0-0.9,0-0.9,0.9V14c0,0,0,0.9,0.9,0.9h27.1c0,0,0.9,0,0.9-0.9V8.3c0,0,0-0.9-0.9-0.9H17.1z"/>
			</g>
			<g>
				<defs>
					<rect id="SVGID_47_" x="0.2" width="78.5" height="73.3"/>
				</defs>
				<clipPath id="SVGID_48_">
					<use xlink:href="#SVGID_47_"  style="overflow:visible;"/>
				</clipPath>
				<path class="st27" d="M17.1,7.4c0,0-0.9,0-0.9,0.9V14c0,0,0,0.9,0.9,0.9h27.1c0,0,0.9,0,0.9-0.9V8.3c0,0,0-0.9-0.9-0.9H17.1z"/>
			</g>
			<g>
				<defs>
					<rect id="SVGID_49_" x="0.2" width="78.5" height="73.3"/>
				</defs>
				<clipPath id="SVGID_50_">
					<use xlink:href="#SVGID_49_"  style="overflow:visible;"/>
				</clipPath>
				<path class="st28" d="M19.9,17.3c0,0-0.9,0-0.9,0.9v3.3c0,0,0,0.9,0.9,0.9h6.3c0,0,0.9,0,0.9-0.9v-3.3c0,0,0-0.9-0.9-0.9H19.9z"
					/>
			</g>
			<g>
				<defs>
					<rect id="SVGID_51_" x="0.2" width="78.5" height="73.3"/>
				</defs>
				<clipPath id="SVGID_52_">
					<use xlink:href="#SVGID_51_"  style="overflow:visible;"/>
				</clipPath>
				<path class="st29" d="M19.9,17.3c0,0-0.9,0-0.9,0.9v3.3c0,0,0,0.9,0.9,0.9h6.3c0,0,0.9,0,0.9-0.9v-3.3c0,0,0-0.9-0.9-0.9H19.9z"
					/>
			</g>
		</g>
		<line class="st9" x1="42.8" y1="15.2" x2="18.8" y2="15.2"/>
		<line class="st10" x1="42.8" y1="15.9" x2="18.8" y2="15.9"/>
		<g>
			<g>
				<defs>
					<rect id="SVGID_53_" x="0.2" width="78.5" height="73.3"/>
				</defs>
				<clipPath id="SVGID_54_">
					<use xlink:href="#SVGID_53_"  style="overflow:visible;"/>
				</clipPath>
				<path class="st30" d="M41.2,21.4v-3.1c0-0.6-0.5-1.1-1.1-1.1S39,17.7,39,18.3v3.1c0,0.6,0.5,1.1,1.1,1.1S41.2,22,41.2,21.4z"/>
			</g>
		</g>
		<line class="st12" x1="40.1" y1="18.2" x2="40.1" y2="19.9"/>
		<line class="st31" x1="25.9" y1="47.1" x2="27.3" y2="47.1"/>
		<g>
			<g>
				<defs>
					<rect id="SVGID_55_" x="0.2" width="78.5" height="73.3"/>
				</defs>
				<clipPath id="SVGID_56_">
					<use xlink:href="#SVGID_55_"  style="overflow:visible;"/>
				</clipPath>
				<path class="st32" d="M21.1,8.8c0,0-0.9,0-0.9,0.9v2.8c0,0,0,0.9,0.9,0.9h19.1c0,0,0.9,0,0.9-0.9V9.7c0,0,0-0.9-0.9-0.9H21.1z"
					/>
			</g>
			<g>
				<defs>
					<rect id="SVGID_57_" x="0.2" width="78.5" height="73.3"/>
				</defs>
				<clipPath id="SVGID_58_">
					<use xlink:href="#SVGID_57_"  style="overflow:visible;"/>
				</clipPath>
				<path class="st33" d="M21.1,8.8c0,0-0.9,0-0.9,0.9v2.8c0,0,0,0.9,0.9,0.9h19.1c0,0,0.9,0,0.9-0.9V9.7c0,0,0-0.9-0.9-0.9H21.1z"
					/>
			</g>
		</g>
		<g>
			<g>
				<defs>
					<rect id="SVGID_59_" x="0.2" width="78.5" height="73.3"/>
				</defs>
				<clipPath id="SVGID_60_">
					<use xlink:href="#SVGID_59_"  style="overflow:visible;"/>
				</clipPath>
				<path class="st34" d="M20.3,18.8c0.5,0,1,0,1.5-0.1c0.5,0,0.8,0.4,1.3,0.4c0.3,0,0.6-0.1,0.9-0.1s0.7,0,1,0"/>
			</g>
		</g>
	</g>
	<text transform="matrix(1 0 0 1 24.1923 12.1416)"><tspan x="0" y="0" class="st35 st36">C</tspan><tspan x="2.2" y="0" class="st35 st37"> </tspan><tspan x="2.5" y="0" class="st35 st36">o</tspan><tspan x="4.3" y="0" class="st35 st37"> </tspan><tspan x="4.5" y="0" class="st35 st36">n</tspan><tspan x="6.4" y="0" class="st35 st37"> </tspan><tspan x="6.6" y="0" class="st35 st36">t</tspan><tspan x="7.8" y="0" class="st35 st37"> </tspan><tspan x="8" y="0" class="st35 st36">a</tspan><tspan x="9.8" y="0" class="st35 st37"> </tspan><tspan x="10" y="0" class="st35 st36">c</tspan><tspan x="11.8" y="0" class="st35 st37"> </tspan><tspan x="12" y="0" class="st35 st36">t</tspan></text>
</g>
</svg>
