<?xml version="1.0" standalone="no"?>
<!DOCTYPE svg PUBLIC "-//W3C//DTD SVG 20010904//EN"
 "http://www.w3.org/TR/2001/REC-SVG-20010904/DTD/svg10.dtd">
<svg version="1.0" xmlns="http://www.w3.org/2000/svg"
 width="700.000000pt" height="700.000000pt" viewBox="0 0 700.000000 700.000000"
 preserveAspectRatio="xMidYMid meet">
<metadata>
Created by potrace 1.11, written by Peter Selinger 2001-2013
</metadata>
<g transform="translate(0.000000,700.000000) scale(0.100000,-0.100000)"
fill="#000000" stroke="none">
<path d="M0 3500 l0 -3500 3500 0 3500 0 0 3500 0 3500 -3500 0 -3500 0 0
-3500z m6390 0 l0 -2840 -2865 0 -2865 0 0 2840 0 2840 2865 0 2865 0 0 -2840z"/>
<path d="M3315 5723 c-462 -40 -882 -204 -1234 -482 -103 -81 -268 -252 -353
-366 -225 -302 -366 -659 -420 -1065 -7 -52 -12 -192 -12 -310 0 -118 5 -258
12 -310 102 -768 518 -1363 1177 -1685 223 -109 423 -171 685 -212 163 -25
541 -25 695 0 388 65 695 187 988 396 490 349 809 900 882 1527 17 149 20 401
5 542 -76 713 -457 1317 -1053 1666 -270 158 -598 262 -931 295 -101 10 -347
12 -441 4z m463 -448 c397 -59 707 -211 968 -472 261 -261 424 -604 485 -1018
17 -116 17 -453 0 -570 -18 -127 -47 -257 -78 -350 -231 -705 -848 -1135
-1630 -1135 -835 0 -1512 524 -1698 1315 -67 290 -66 639 4 935 150 629 607
1095 1231 1256 203 52 518 69 718 39z"/>
<path d="M3345 4713 c-399 -50 -725 -270 -889 -600 -85 -171 -124 -336 -133
-556 -26 -642 328 -1127 917 -1254 106 -22 459 -26 555 -5 351 77 623 250 792
505 49 75 116 219 128 273 l6 31 -288 82 c-158 45 -295 84 -304 87 -13 3 -20
-10 -34 -58 -39 -141 -142 -275 -255 -330 -133 -66 -336 -83 -462 -40 -170 59
-295 205 -350 411 -29 111 -36 336 -13 456 41 221 151 384 307 458 141 67 338
61 480 -15 132 -70 242 -223 277 -386 5 -24 11 -46 14 -48 5 -5 596 121 604
130 13 13 -39 175 -86 271 -151 305 -451 514 -830 579 -87 15 -347 20 -436 9z"/>
</g>
</svg>
