<?xml version="1.0" standalone="no"?>
<!DOCTYPE svg PUBLIC "-//W3C//DTD SVG 20010904//EN"
 "http://www.w3.org/TR/2001/REC-SVG-20010904/DTD/svg10.dtd">
<svg version="1.0" xmlns="http://www.w3.org/2000/svg"
 width="700.000000pt" height="700.000000pt" viewBox="0 0 700.000000 700.000000"
 preserveAspectRatio="xMidYMid meet">
<metadata>
Created by potrace 1.11, written by Peter Selinger 2001-2013
</metadata>
<g transform="translate(0.000000,700.000000) scale(0.100000,-0.100000)"
fill="#000000" stroke="none">
<path d="M0 3500 l0 -3500 3500 0 3500 0 0 3500 0 3500 -3500 0 -3500 0 0
-3500z m6390 0 l0 -2840 -2865 0 -2865 0 0 2840 0 2840 2865 0 2865 0 0 -2840z"/>
<path d="M3224 5805 c-316 -35 -667 -154 -929 -315 -204 -125 -446 -346 -582
-530 -237 -320 -380 -688 -428 -1096 -47 -406 7 -834 151 -1198 213 -534 650
-963 1196 -1174 607 -234 1300 -209 1873 68 222 107 381 219 563 395 254 245
435 532 546 865 158 478 156 1042 -6 1525 -107 321 -277 596 -517 836 -187
187 -346 299 -586 415 -385 185 -832 258 -1281 209z m557 -471 c361 -50 683
-210 938 -464 135 -135 223 -258 310 -435 137 -279 192 -527 192 -870 0 -441
-110 -795 -343 -1113 -309 -419 -801 -652 -1380 -652 -294 0 -542 55 -793 175
-505 243 -839 707 -931 1295 -21 139 -22 446 0 592 58 399 221 734 486 998
387 387 930 556 1521 474z"/>
<path d="M3285 4796 c-175 -29 -312 -77 -451 -159 -124 -72 -289 -237 -361
-361 -131 -223 -180 -436 -170 -746 6 -188 28 -308 83 -449 110 -277 335 -511
600 -621 346 -144 803 -127 1139 42 205 104 391 282 490 470 38 71 85 189 85
212 0 9 -88 35 -287 85 -159 40 -296 74 -305 77 -14 4 -21 -7 -34 -53 -64
-220 -201 -349 -415 -390 -355 -67 -607 128 -669 520 -16 99 -8 328 15 417 45
173 148 318 272 382 87 45 148 60 248 59 103 0 160 -13 246 -56 132 -67 245
-218 282 -380 8 -33 18 -59 23 -59 20 3 599 147 603 151 9 7 -29 145 -60 219
-81 195 -258 389 -454 498 -84 47 -209 95 -317 122 -89 22 -130 26 -293 30
-127 2 -216 -1 -270 -10z"/>
</g>
</svg>
