<?xml version="1.0" encoding="utf-8"?>
<!-- Generator: Adobe Illustrator 21.0.0, SVG Export Plug-In . SVG Version: 6.00 Build 0)  -->
<!DOCTYPE svg PUBLIC "-//W3C//DTD SVG 1.1//EN" "http://www.w3.org/Graphics/SVG/1.1/DTD/svg11.dtd">
<svg version="1.1" id="Layer_1" xmlns="http://www.w3.org/2000/svg" xmlns:xlink="http://www.w3.org/1999/xlink" x="0px" y="0px"
	 viewBox="0 0 960 540" style="enable-background:new 0 0 960 540;" xml:space="preserve">
<style type="text/css">
	.st0{fill:#FFFFFF;}
	.st1{clip-path:url(#SVGID_2_);fill:none;stroke:#000000;stroke-width:2.15;}
	.st2{clip-path:url(#SVGID_4_);fill:none;stroke:#000000;stroke-width:2.15;}
	.st3{clip-path:url(#SVGID_6_);}
	.st4{clip-path:url(#SVGID_8_);fill:none;stroke:#000000;stroke-width:2.15;stroke-miterlimit:10;}
	.st5{clip-path:url(#SVGID_8_);fill:none;stroke:#231F20;stroke-width:2.15;stroke-miterlimit:10;}
	.st6{clip-path:url(#SVGID_6_);fill:none;stroke:#231F20;stroke-width:2.15;}
</style>
<g>
	<rect class="st0" width="960" height="540"/>
</g>
<g>
	<g>
		<g>
			<g>
				<defs>
					<rect id="SVGID_1_" x="248.4" y="117.1" width="295.7" height="305.7"/>
				</defs>
				<clipPath id="SVGID_2_">
					<use xlink:href="#SVGID_1_"  style="overflow:visible;"/>
				</clipPath>
				<circle class="st1" cx="399.2" cy="270" r="142.8"/>
			</g>
		</g>
		<g>
			<g>
				<defs>
					<rect id="SVGID_3_" x="409.9" y="117.1" width="295.7" height="305.7"/>
				</defs>
				<clipPath id="SVGID_4_">
					<use xlink:href="#SVGID_3_"  style="overflow:visible;"/>
				</clipPath>
				<circle class="st2" cx="560.8" cy="270" r="142.8"/>
			</g>
		</g>
		<g>
			<g>
				<defs>
					<rect id="SVGID_5_" x="409.9" y="142" width="134.2" height="256.1"/>
				</defs>
				<clipPath id="SVGID_6_">
					<use xlink:href="#SVGID_5_"  style="overflow:visible;"/>
				</clipPath>
				<g class="st3">
					<defs>
						<path id="SVGID_7_" d="M480,152.3c-37.4,25.7-62,68.9-62,117.7s24.6,92,62,117.7c37.4-25.7,62-68.9,62-117.7
							S517.4,178,480,152.3"/>
					</defs>
					<clipPath id="SVGID_8_">
						<use xlink:href="#SVGID_7_"  style="overflow:visible;"/>
					</clipPath>
					<path class="st4" d="M314.4,546.5L1600-739.3 M309.6,541.7L1595.2-744.1 M304.8,536.9L1590.4-748.9 M300,532.1L1585.6-753.7
						 M295.2,527.2L1580.8-758.5 M290.4,522.4L1576-763.3 M285.6,517.6L1571.2-768.1 M280.9,512.8L1566.4-772.9 M276.1,508
						L1561.6-777.7 M271.3,503.2L1556.8-782.5 M266.5,498.4L1552-787.3 M261.7,493.6L1547.2-792.1 M256.9,488.8L1542.5-797
						 M252.1,484L1537.7-801.8 M247.3,479.2L1532.9-806.6 M242.5,474.4L1528.1-811.4 M237.7,469.5L1523.3-816.2 M232.9,464.7
						L1518.5-821 M228.1,459.9L1513.7-825.8 M223.3,455.1L1508.9-830.6 M218.6,450.3L1504.1-835.4 M213.8,445.5L1499.3-840.2
						 M209,440.7L1494.5-845 M204.2,435.9L1489.7-849.8 M199.4,431.1L1485-854.6 M194.6,426.3L1480.2-859.5 M189.8,421.5
						L1475.4-864.3 M185,416.7L1470.6-869.1 M180.2,411.9L1465.8-873.9 M175.4,407L1461-878.7 M170.6,402.2L1456.2-883.5
						 M165.8,397.4L1451.4-888.3"/>
					<path class="st5" d="M455.3,712.3l1298-1298.2 M450.6,707.5l1298-1298.2 M445.8,702.7l1298-1298.2 M441,697.9L1739-600.3
						 M436.2,693.1l1298-1298.2 M431.4,688.3l1298-1298.2 M426.6,683.4l1298-1298.2 M421.8,678.6l1298-1298.2 M417,673.8L1715-624.3
						 M412.2,669l1298-1298.2 M407.4,664.2L1705.4-634 M402.6,659.4l1298-1298.2 M397.8,654.6l1298-1298.2 M393.1,649.8L1691-648.4
						 M388.3,645l1298-1298.2 M383.5,640.2L1681.5-658 M378.7,635.4l1298-1298.2 M373.9,630.6l1298-1298.2 M369.1,625.7l1298-1298.2
						 M364.3,620.9l1298-1298.2 M359.5,616.1L1657.5-682 M354.7,611.3l1298-1298.2 M349.9,606.5l1298-1298.2 M345.1,601.7
						l1298-1298.2 M340.3,596.9l1298-1298.2 M335.5,592.1l1298-1298.2 M330.8,587.3l1298-1298.2 M326,582.5L1624-715.7 M321.2,577.7
						l1298-1298.2 M316.4,572.9l1298-1298.2 M311.6,568l1298-1298.2 M306.8,563.2l1298-1298.2"/>
				</g>
				<path class="st6" d="M480,152.3c-37.4,25.7-62,68.9-62,117.7s24.6,92,62,117.7c37.4-25.7,62-68.9,62-117.7S517.4,178,480,152.3z
					"/>
			</g>
		</g>
	</g>
</g>
</svg>
