<?xml version="1.0" encoding="utf-8"?>
<!-- Generator: Adobe Illustrator 21.0.0, SVG Export Plug-In . SVG Version: 6.00 Build 0)  -->
<!DOCTYPE svg PUBLIC "-//W3C//DTD SVG 1.1//EN" "http://www.w3.org/Graphics/SVG/1.1/DTD/svg11.dtd">
<svg version="1.1" id="Layer_1" xmlns="http://www.w3.org/2000/svg" xmlns:xlink="http://www.w3.org/1999/xlink" x="0px" y="0px"
	 viewBox="0 0 960 540" style="enable-background:new 0 0 960 540;" xml:space="preserve">
<style type="text/css">
	.st0{fill:#FFFFFF;}
	.st1{fill:none;stroke:#000000;stroke-width:2;}
	.st2{fill:none;stroke:#000000;stroke-width:2;stroke-linecap:round;stroke-linejoin:round;stroke-dasharray:0,5.953;}
	.st3{fill:none;stroke:#231F20;stroke-width:2;stroke-linecap:round;stroke-linejoin:round;}
	.st4{clip-path:url(#SVGID_2_);fill:none;stroke:#231F20;stroke-width:2;stroke-miterlimit:10;}
	.st5{clip-path:url(#SVGID_5_);fill:none;stroke:#000000;stroke-width:2;stroke-miterlimit:10;}
	.st6{clip-path:url(#SVGID_7_);fill:none;stroke:#000000;stroke-width:2;stroke-miterlimit:10;}
	.st7{clip-path:url(#SVGID_9_);fill:none;stroke:#000000;stroke-width:2;stroke-miterlimit:10;}
	.st8{clip-path:url(#SVGID_11_);fill:none;stroke:#000000;stroke-width:2;stroke-miterlimit:10;}
	.st9{fill:none;stroke:#000000;stroke-miterlimit:10;}
	.st10{fill:none;stroke:#000000;stroke-width:1.5;stroke-linecap:round;stroke-linejoin:round;stroke-dasharray:0,3.003;}
	.st11{fill:none;stroke:#000000;stroke-width:1.5;stroke-linecap:round;stroke-linejoin:round;}
</style>
<g>
	<rect class="st0" width="960" height="540"/>
</g>
<g>
	<g>
		<rect x="51.3" y="399.7" class="st1" width="7.9" height="55.6"/>
		<line class="st2" x1="51.3" y1="30.3" x2="51.3" y2="402.3"/>
		<path class="st3" d="M51.3,404.3L51.3,404.3 M51.3,23.3L51.3,23.3"/>
		<line class="st1" x1="59.2" y1="23.3" x2="59.2" y2="404.3"/>
		<path class="st0" d="M47.8,405.8h118.6c0,0,18,0,18-18V41.3c0,0,0-18-18-18H47.8v14.4h115.4c7.7,0,7.7,7.7,7.7,7.7v338.5
			c0,7.7-7.7,7.7-7.7,7.7H47.8V405.8z"/>
		<path class="st1" d="M47.8,405.8h118.6c0,0,18,0,18-18V41.3c0,0,0-18-18-18H47.8v14.4h115.4c7.7,0,7.7,7.7,7.7,7.7v338.5
			c0,7.7-7.7,7.7-7.7,7.7H47.8V405.8z"/>
		<path class="st0" d="M55.3,516.7c10.1,0,18.3-8.2,18.3-18.3L68,441.2c0-7-5.7-12.7-12.7-12.7s-12.7,5.7-12.7,12.7L37,498.4
			C37,508.5,45.2,516.7,55.3,516.7"/>
		<path class="st1" d="M55.3,516.7c10.1,0,18.3-8.2,18.3-18.3L68,441.2c0-7-5.7-12.7-12.7-12.7s-12.7,5.7-12.7,12.7L37,498.4
			C37,508.5,45.2,516.7,55.3,516.7z"/>
	</g>
</g>
<polygon points="275.9,277.4 250.4,277.4 250.4,260.8 275.9,260.8 275.9,236.9 294.5,236.9 294.5,260.8 319.8,260.8 319.8,277.4 
	294.5,277.4 294.5,301.4 275.9,301.4 "/>
<g>
	<g>
		<g>
			<g>
				<g>
					<polygon class="st0" points="405,398 572.8,398 573.8,398 573.8,397 573.8,144 573.8,143 572.8,143 405,143 404.6,143 
						404.4,143.1 386.7,155.8 386.2,156.1 386.2,156.6 386.2,384.3 386.2,384.8 386.7,385.1 404.4,397.8 404.6,398 					"/>
					<g>
						<g>
							<defs>
								<polygon id="SVGID_1_" points="405,397 572.8,397 572.8,144 405,144 387.2,156.6 387.2,384.3 								"/>
							</defs>
							<clipPath id="SVGID_2_">
								<use xlink:href="#SVGID_1_"  style="overflow:visible;"/>
							</clipPath>
							<path class="st4" d="M794.5,160.5L-412.9,1368.1 M799,165L-408.5,1372.6 M803.4,169.5L-404,1377.1 M807.9,173.9
								L-399.5,1381.5 M812.4,178.4L-395.1,1386 M816.8,182.9L-390.6,1390.5 M821.3,187.4L-386.2,1395 M825.7,191.8L-381.7,1399.4
								 M830.2,196.3L-377.3,1403.9 M834.6,200.8L-372.8,1408.4 M839.1,205.3L-368.3,1412.8 M843.6,209.7L-363.9,1417.3 M848,214.2
								L-359.4,1421.8 M852.5,218.7L-355,1426.3 M856.9,223.1L-350.5,1430.7 M861.4,227.6L-346.1,1435.2 M865.8,232.1L-341.6,1439.7
								 M870.3,236.6L-337.1,1444.2 M874.8,241L-332.7,1448.6 M879.2,245.5L-328.2,1453.1 M883.7,250L-323.8,1457.6 M888.1,254.5
								L-319.3,1462 M892.6,258.9L-314.8,1466.5 M897.1,263.4L-310.4,1471 M901.5,267.9L-305.9,1475.5 M906,272.3L-301.5,1479.9
								 M910.4,276.8L-297,1484.4 M914.9,281.3L-292.6,1488.9 M919.3,285.8L-288.1,1493.4 M923.8,290.2L-283.6,1497.8 M928.3,294.7
								L-279.2,1502.3 M932.7,299.2L-274.7,1506.8"/>
						</g>
						<g>
							<defs>
								<polygon id="SVGID_4_" points="405,397 572.8,397 572.8,144 405,144 387.2,156.6 387.2,384.3 								"/>
							</defs>
							<clipPath id="SVGID_5_">
								<use xlink:href="#SVGID_4_"  style="overflow:visible;"/>
							</clipPath>
							<path class="st5" d="M651.8,17.8L-555.6,1225.4 M656.3,22.3L-551.1,1229.9 M660.8,26.8L-546.7,1234.4 M665.2,31.3
								L-542.2,1238.9 M669.7,35.7L-537.8,1243.3 M674.1,40.2L-533.3,1247.8 M678.6,44.7L-528.9,1252.3 M683,49.2L-524.4,1256.7
								 M687.5,53.6L-519.9,1261.2 M692,58.1L-515.5,1265.7 M696.4,62.6L-511,1270.2 M700.9,67L-506.6,1274.6 M705.3,71.5
								L-502.1,1279.1 M709.8,76L-497.7,1283.6 M714.2,80.5L-493.2,1288.1 M718.7,84.9L-488.7,1292.5 M723.2,89.4L-484.3,1297
								 M727.6,93.9L-479.8,1301.5 M732.1,98.4L-475.4,1305.9 M736.5,102.8L-470.9,1310.4 M741,107.3L-466.4,1314.9 M745.5,111.8
								L-462,1319.4 M749.9,116.2L-457.5,1323.8 M754.4,120.7L-453.1,1328.3 M758.8,125.2L-448.6,1332.8 M763.3,129.7L-444.2,1337.3
								 M767.7,134.1L-439.7,1341.7 M772.2,138.6L-435.2,1346.2 M776.7,143.1L-430.8,1350.7 M781.1,147.6L-426.3,1355.1 M785.6,152
								L-421.9,1359.6 M790,156.5L-417.4,1364.1"/>
						</g>
						<g>
							<defs>
								<polygon id="SVGID_6_" points="405,397 572.8,397 572.8,144 405,144 387.2,156.6 387.2,384.3 								"/>
							</defs>
							<clipPath id="SVGID_7_">
								<use xlink:href="#SVGID_6_"  style="overflow:visible;"/>
							</clipPath>
							<path class="st6" d="M497.4-113.5l-1195.9,1196 M501.8-109L-694,1087 M506.3-104.5l-1195.9,1196 M510.8-100.1L-685.1,1096
								 M515.2-95.6l-1195.9,1196 M519.7-91.1l-1195.9,1196 M524.1-86.7l-1195.9,1196 M528.6-82.2l-1195.9,1196 M533-77.7
								l-1195.9,1196 M537.5-73.2l-1195.9,1196 M542-68.8l-1195.9,1196 M546.4-64.3l-1195.9,1196 M550.9-59.8L-645,1136.2
								 M555.3-55.3l-1195.9,1196 M559.8-50.9l-1195.9,1196 M564.2-46.4l-1195.9,1196 M568.7-41.9l-1195.9,1196 M573.2-37.5
								l-1195.9,1196 M577.6-33L-618.3,1163 M582.1-28.5l-1195.9,1196 M586.5-24L-609.3,1172 M591-19.6l-1195.9,1196 M595.4-15.1
								l-1195.9,1196 M599.9-10.6L-596,1185.4 M604.4-6.1l-1195.9,1196 M608.8-1.7l-1195.9,1196 M613.3,2.8l-1195.9,1196 M617.7,7.3
								l-1195.9,1196 M622.2,11.7l-1195.9,1196 M626.7,16.2l-1195.9,1196 M631.1,20.7l-1195.9,1196 M635.6,25.2l-1195.9,1196"/>
						</g>
					</g>
					<polygon class="st1" points="405,398 572.8,398 573.8,398 573.8,397 573.8,144 573.8,143 572.8,143 405,143 404.6,143 
						404.4,143.1 386.7,155.8 386.2,156.1 386.2,156.6 386.2,384.3 386.2,384.8 386.7,385.1 404.4,397.8 404.6,398 					"/>
					<rect x="405" y="144" class="st0" width="167.8" height="253"/>
					<line class="st1" x1="405" y1="143" x2="405" y2="397.8"/>
					<line class="st1" x1="420.9" y1="143" x2="420.9" y2="399"/>
					<g>
						<g>
							<defs>
								<rect id="SVGID_8_" x="405" y="143" width="15.9" height="254.9"/>
							</defs>
							<clipPath id="SVGID_9_">
								<use xlink:href="#SVGID_8_"  style="overflow:visible;"/>
							</clipPath>
							<path class="st7" d="M558.3,235.9L-989.8,917.1 M560.8,241.6l-1548,681.3 M563.3,247.4l-1548,681.3 M565.9,253.2
								L-982.2,934.5 M568.4,259l-1548,681.3 M570.9,264.8l-1548,681.3 M573.5,270.6L-974.6,951.8 M576,276.3L-972,957.6
								 M578.5,282.1l-1548,681.3 M581.1,287.9L-967,969.2 M583.6,293.7L-964.4,975 M586.1,299.5l-1548,681.3 M588.7,305.3
								L-959.4,986.5 M591.2,311l-1548,681.3 M593.8,316.8L-954.3,998.1 M596.3,322.6l-1548.1,681.3 M598.8,328.4l-1548.1,681.3
								 M601.4,334.2l-1548.1,681.3 M603.9,340l-1548.1,681.3 M606.4,345.8l-1548,681.2 M609,351.5l-1548.1,681.3 M611.5,357.3
								l-1548.1,681.3 M614,363.1l-1548,681.3 M616.6,368.9l-1548.1,681.3 M619.1,374.7L-929,1056 M621.6,380.5l-1548.1,681.3
								 M624.2,386.2l-1548.1,681.3 M626.7,392l-1548.1,681.3 M629.2,397.8l-1548.1,681.3 M631.8,403.6l-1548.1,681.3 M634.3,409.4
								l-1548.1,681.3 M636.8,415.2l-1548.1,681.3"/>
						</g>
						<g>
							<defs>
								<rect id="SVGID_10_" x="405" y="143" width="15.9" height="254.9"/>
							</defs>
							<clipPath id="SVGID_11_">
								<use xlink:href="#SVGID_10_"  style="overflow:visible;"/>
							</clipPath>
							<path class="st8" d="M492,44.6l-1563,687.9 M494.5,50.4l-1563,687.9 M497,56.1L-1066,744 M499.6,61.9l-1563,687.9
								 M502.1,67.7l-1563,687.9 M504.6,73.5l-1563,687.9 M507.2,79.3l-1563,687.9 M509.7,85.1l-1563,687.9 M512.2,90.8l-1563,687.9
								 M514.8,96.6l-1563,687.9 M517.3,102.4l-1563,687.9 M519.8,108.2l-1563,687.9 M522.4,114l-1563,687.9 M524.9,119.8
								l-1563,687.9 M527.5,125.5l-1563,687.9 M530,131.3l-1563,687.9 M532.5,137.1l-1563,687.9 M535.1,142.9l-1563,687.9
								 M537.6,148.7l-1563,687.9 M540.1,154.5l-1563,687.9 M542.7,160.3l-1563,687.9 M545.2,166l-1563,687.9 M547.7,171.8
								l-1563,687.9 M550.3,177.6l-1563,687.9 M552.8,183.4l-1563,687.9 M555.3,189.2l-1563,687.9 M557.9,195l-1563,687.9
								 M560.4,200.7l-1563,687.9 M562.9,206.5l-1563,687.9 M565.5,212.3l-1563,687.9 M568,218.1L-995,906 M570.5,223.9l-1563,687.9
								"/>
						</g>
						<g>
							<rect id="SVGID_3_" x="405" y="143" class="st9" width="15.9" height="254.9"/>
						</g>
					</g>
				</g>
			</g>
		</g>
	</g>
	<line class="st10" x1="488.9" y1="404" x2="488.9" y2="135.3"/>
	<path class="st11" d="M488.9,133.8L488.9,133.8 M488.9,407L488.9,407"/>
</g>
</svg>
