<?xml version="1.0" encoding="utf-8"?>
<!-- Generator: Adobe Illustrator 21.0.0, SVG Export Plug-In . SVG Version: 6.00 Build 0)  -->
<!DOCTYPE svg PUBLIC "-//W3C//DTD SVG 1.1//EN" "http://www.w3.org/Graphics/SVG/1.1/DTD/svg11.dtd">
<svg version="1.1" id="Layer_1" xmlns="http://www.w3.org/2000/svg" xmlns:xlink="http://www.w3.org/1999/xlink" x="0px" y="0px"
	 viewBox="0 0 960 540" style="enable-background:new 0 0 960 540;" xml:space="preserve">
<style type="text/css">
	.st0{fill:#FFFFFF;}
	.st1{clip-path:url(#SVGID_2_);fill:none;stroke:#000000;stroke-width:2;stroke-miterlimit:10;}
	.st2{clip-path:url(#SVGID_2_);fill:none;stroke:#231F20;stroke-width:2;stroke-miterlimit:10;}
	.st3{fill:none;stroke:#000000;stroke-width:2;}
	.st4{fill:none;stroke:#FFFFFF;stroke-width:4;stroke-linecap:round;stroke-linejoin:round;}
	.st5{clip-path:url(#SVGID_4_);fill:none;stroke:#231F20;stroke-width:2;stroke-miterlimit:10;}
	.st6{clip-path:url(#SVGID_4_);fill:none;stroke:#000000;stroke-width:2;stroke-miterlimit:10;}
	.st7{clip-path:url(#SVGID_6_);fill:none;stroke:#000000;stroke-width:2;stroke-miterlimit:10;}
</style>
<g>
	<rect class="st0" width="960" height="540"/>
</g>
<g>
	<g>
		<polygon class="st0" points="523.6,394 607.5,394 608.5,394 608.5,393 608.5,140 608.5,139 607.5,139 523.6,139 523.3,139 
			523,139.1 505.3,151.8 504.9,152.1 504.9,152.6 504.9,380.3 504.9,380.8 505.3,381.1 523,393.8 523.3,394 		"/>
		<g>
			<defs>
				<polygon id="SVGID_1_" points="523.6,393 607.5,393 607.5,140 523.6,140 505.9,152.6 505.9,380.3 				"/>
			</defs>
			<clipPath id="SVGID_2_">
				<use xlink:href="#SVGID_1_"  style="overflow:visible;"/>
			</clipPath>
			<path class="st1" d="M547.9,564.7l-0.1-1284.1 M543.1,564.7L543-719.4 M538.3,564.7l-0.1-1284.1 M533.5,564.7l-0.1-1284.1
				 M528.7,564.7l-0.1-1284.1 M523.9,564.7l-0.1-1284.1 M519.1,564.7L519-719.4 M514.3,564.7l-0.1-1284.1 M509.5,564.6l-0.1-1284.1
				 M504.7,564.6l-0.1-1284.1 M499.9,564.6l-0.1-1284.1 M495.1,564.6L495-719.4 M490.3,564.6l-0.1-1284.1 M485.5,564.6l-0.1-1284.1
				 M480.7,564.6l-0.1-1284.1 M476,564.6l-0.1-1284.1 M471.2,564.6l-0.1-1284.1 M466.4,564.6l-0.1-1284.1 M461.6,564.6l-0.1-1284.1
				 M456.8,564.6l-0.1-1284.1 M452,564.6l-0.1-1284.1 M447.2,564.5l-0.1-1284.1 M442.4,564.5l-0.1-1284.1 M437.6,564.5l-0.1-1284.1
				 M432.8,564.5l-0.1-1284.1 M428,564.5l-0.1-1284.1 M423.2,564.5l-0.1-1284.1 M418.4,564.5l-0.1-1284.1 M413.6,564.5l-0.1-1284.1
				 M408.8,564.5l-0.1-1284.1 M404,564.5L404-719.6 M399.2,564.5l-0.1-1284.1"/>
			<path class="st2" d="M701.1,577.1L701-719.3 M696.3,577.1l-0.1-1296.5 M691.5,577.1l-0.1-1296.5 M686.7,577.1l-0.1-1296.5
				 M681.9,577.1l-0.1-1296.5 M677.1,577.1l-0.1-1296.5 M672.3,577.1l-0.1-1296.5 M667.6,577.1l-0.1-1296.5 M662.8,577.1
				l-0.1-1296.5 M658,577.1l-0.1-1296.5 M653.2,577.1l-0.1-1296.5 M648.4,577l-0.1-1296.5 M643.6,577l-0.1-1296.5 M638.8,577
				l-0.1-1296.5 M634,577l-0.1-1296.5 M629.2,577l-0.1-1296.5 M624.4,577l-0.1-1296.5 M619.6,577l-0.1-1296.5 M614.8,577
				l-0.1-1296.5 M610,577l-0.1-1296.5 M605.2,577l-0.1-1296.5 M600.4,577l-0.1-1296.5 M595.6,577l-0.1-1296.5 M590.8,576.9
				l-0.1-1296.5 M586,576.9L586-719.5 M581.3,576.9l-0.1-1296.5 M576.5,576.9l-0.1-1296.5 M571.7,576.9l-0.1-1296.5 M566.9,576.9
				l-0.1-1296.5 M562.1,576.9L562-719.6 M557.3,576.9l-0.1-1296.5 M552.5,576.9l-0.1-1296.5"/>
		</g>
		<polygon class="st3" points="523.6,394 607.5,394 608.5,394 608.5,393 608.5,140 608.5,139 607.5,139 523.6,139 523.3,139 
			523,139.1 505.3,151.8 504.9,152.1 504.9,152.6 504.9,380.3 504.9,380.8 505.3,381.1 523,393.8 523.3,394 		"/>
		<rect x="523.6" y="140" class="st0" width="83.9" height="253"/>
		<line class="st3" x1="523.6" y1="139" x2="523.6" y2="393.8"/>
		<path d="M572,106.3c-8.9,15.4-17.8,30.8-26.7,46.2h53.3C589.8,137.1,580.9,121.7,572,106.3"/>
		<path class="st4" d="M572,106.3c-8.9,15.4-17.8,30.8-26.7,46.2h53.3C589.8,137.1,580.9,121.7,572,106.3z"/>
		<polygon class="st0" points="405,394 488.9,394 489.9,394 489.9,393 489.9,140 489.9,139 488.9,139 405,139 404.6,139 
			404.4,139.1 386.7,151.8 386.2,152.1 386.2,152.6 386.2,380.3 386.2,380.8 386.7,381.1 404.4,393.8 404.6,394 		"/>
		<g>
			<defs>
				<polygon id="SVGID_3_" points="405,393 488.9,393 488.9,140 405,140 387.2,152.6 387.2,380.3 				"/>
			</defs>
			<clipPath id="SVGID_4_">
				<use xlink:href="#SVGID_3_"  style="overflow:visible;"/>
			</clipPath>
			<path class="st5" d="M794.5,156.5L-412.9,1364.1 M799,161L-408.5,1368.6 M803.4,165.5L-404,1373.1 M807.9,169.9L-399.5,1377.5
				 M812.4,174.4L-395.1,1382 M816.8,178.9L-390.6,1386.5 M821.3,183.4L-386.2,1391 M825.7,187.8L-381.7,1395.4 M830.2,192.3
				L-377.3,1399.9 M834.6,196.8L-372.8,1404.4 M839.1,201.3L-368.3,1408.8 M843.6,205.7L-363.9,1413.3 M848,210.2L-359.4,1417.8
				 M852.5,214.7L-355,1422.3 M856.9,219.1L-350.5,1426.7 M861.4,223.6L-346.1,1431.2 M865.8,228.1L-341.6,1435.7 M870.3,232.6
				L-337.1,1440.2 M874.8,237L-332.7,1444.6 M879.2,241.5L-328.2,1449.1 M883.7,246L-323.8,1453.6 M888.1,250.5L-319.3,1458
				 M892.6,254.9L-314.8,1462.5 M897.1,259.4L-310.4,1467 M901.5,263.9L-305.9,1471.5 M906,268.3L-301.5,1475.9 M910.4,272.8
				L-297,1480.4 M914.9,277.3L-292.6,1484.9 M919.3,281.8L-288.1,1489.4 M923.8,286.2L-283.6,1493.8 M928.3,290.7L-279.2,1498.3
				 M932.7,295.2L-274.7,1502.8"/>
			<path class="st6" d="M651.8,13.8L-555.6,1221.4 M656.3,18.3L-551.1,1225.9 M660.8,22.8L-546.7,1230.4 M665.2,27.3L-542.2,1234.9
				 M669.7,31.7L-537.8,1239.3 M674.1,36.2L-533.3,1243.8 M678.6,40.7L-528.9,1248.3 M683,45.2L-524.4,1252.7 M687.5,49.6
				L-519.9,1257.2 M692,54.1L-515.5,1261.7 M696.4,58.6L-511,1266.2 M700.9,63L-506.6,1270.6 M705.3,67.5L-502.1,1275.1 M709.8,72
				L-497.7,1279.6 M714.2,76.5L-493.2,1284.1 M718.7,80.9L-488.7,1288.5 M723.2,85.4L-484.3,1293 M727.6,89.9L-479.8,1297.5
				 M732.1,94.4L-475.4,1301.9 M736.5,98.8L-470.9,1306.4 M741,103.3L-466.4,1310.9 M745.5,107.8L-462,1315.4 M749.9,112.2
				L-457.5,1319.8 M754.4,116.7L-453.1,1324.3 M758.8,121.2L-448.6,1328.8 M763.3,125.7L-444.2,1333.3 M767.7,130.1L-439.7,1337.7
				 M772.2,134.6L-435.2,1342.2 M776.7,139.1L-430.8,1346.7 M781.1,143.6L-426.3,1351.1 M785.6,148L-421.9,1355.6 M790,152.5
				L-417.4,1360.1"/>
			<path class="st6" d="M497.4-117.5l-1195.9,1196 M501.8-113L-694,1083 M506.3-108.5l-1195.9,1196 M510.8-104.1L-685.1,1092
				 M515.2-99.6l-1195.9,1196 M519.7-95.1l-1195.9,1196 M524.1-90.7l-1195.9,1196 M528.6-86.2l-1195.9,1196 M533-81.7l-1195.9,1196
				 M537.5-77.2l-1195.9,1196 M542-72.8l-1195.9,1196 M546.4-68.3l-1195.9,1196 M550.9-63.8L-645,1132.2 M555.3-59.3l-1195.9,1196
				 M559.8-54.9l-1195.9,1196 M564.2-50.4l-1195.9,1196 M568.7-45.9l-1195.9,1196 M573.2-41.5l-1195.9,1196 M577.6-37L-618.3,1159
				 M582.1-32.5l-1195.9,1196 M586.5-28L-609.3,1168 M591-23.6l-1195.9,1196 M595.4-19.1l-1195.9,1196 M599.9-14.6L-596,1181.4
				 M604.4-10.1l-1195.9,1196 M608.8-5.7l-1195.9,1196 M613.3-1.2l-1195.9,1196 M617.7,3.3l-1195.9,1196 M622.2,7.7l-1195.9,1196
				 M626.7,12.2l-1195.9,1196 M631.1,16.7l-1195.9,1196 M635.6,21.2l-1195.9,1196"/>
		</g>
		<polygon class="st3" points="405,394 488.9,394 489.9,394 489.9,393 489.9,140 489.9,139 488.9,139 405,139 404.6,139 
			404.4,139.1 386.7,151.8 386.2,152.1 386.2,152.6 386.2,380.3 386.2,380.8 386.7,381.1 404.4,393.8 404.6,394 		"/>
		<rect x="405" y="140" class="st0" width="83.9" height="253"/>
		<line class="st3" x1="405" y1="139" x2="405" y2="393.8"/>
		<line class="st3" x1="420.9" y1="139" x2="420.9" y2="395"/>
		<g>
			<path class="st0" d="M568.9,129.2v-5.8h6.2v5.8l-1.5,8.7h-3.2L568.9,129.2z M569.3,139.5h5.5v5.3h-5.5V139.5z"/>
		</g>
	</g>
</g>
<path d="M253.5,249.2h63.1v16.7h-63.1V249.2z M253.5,273h63.1v16.6h-63.1V273z"/>
<g>
	<defs>
		<rect id="SVGID_5_" x="405" y="139" width="15.9" height="254.9"/>
	</defs>
	<clipPath id="SVGID_6_">
		<use xlink:href="#SVGID_5_"  style="overflow:visible;"/>
	</clipPath>
	<path class="st7" d="M558.3,231.9L-989.8,913.1 M560.8,237.6L-987.2,918.9 M563.3,243.4L-984.7,924.7 M565.9,249.2L-982.2,930.5
		 M568.4,255L-979.6,936.3 M570.9,260.8L-977.1,942.1 M573.5,266.6L-974.6,947.8 M576,272.3L-972,953.6 M578.5,278.1L-969.5,959.4
		 M581.1,283.9L-967,965.2 M583.6,289.7L-964.4,971 M586.1,295.5L-961.9,976.8 M588.7,301.3L-959.4,982.5 M591.2,307L-956.8,988.3
		 M593.8,312.8L-954.3,994.1 M596.3,318.6L-951.8,999.9 M598.8,324.4l-1548.1,681.3 M601.4,330.2l-1548.1,681.3 M603.9,336
		l-1548.1,681.3 M606.4,341.8L-941.6,1023 M609,347.5l-1548.1,681.3 M611.5,353.3l-1548.1,681.3 M614,359.1L-934,1040.4
		 M616.6,364.9l-1548.1,681.3 M619.1,370.7L-929,1052 M621.6,376.5l-1548.1,681.3 M624.2,382.2l-1548.1,681.3 M626.7,388
		l-1548.1,681.3 M629.2,393.8l-1548.1,681.3 M631.8,399.6l-1548.1,681.3 M634.3,405.4l-1548.1,681.3 M636.8,411.2l-1548.1,681.3"/>
	<path class="st7" d="M492,40.6l-1563,687.9 M494.5,46.4l-1563,687.9 M497,52.1L-1066,740 M499.6,57.9l-1563,687.9 M502.1,63.7
		l-1563,687.9 M504.6,69.5l-1563,687.9 M507.2,75.3l-1563,687.9 M509.7,81.1l-1563,687.9 M512.2,86.8l-1563,687.9 M514.8,92.6
		l-1563,687.9 M517.3,98.4l-1563,687.9 M519.8,104.2l-1563,687.9 M522.4,110l-1563,687.9 M524.9,115.8l-1563,687.9 M527.5,121.5
		l-1563,687.9 M530,127.3l-1563,687.9 M532.5,133.1l-1563,687.9 M535.1,138.9l-1563,687.9 M537.6,144.7l-1563,687.9 M540.1,150.5
		l-1563,687.9 M542.7,156.3l-1563,687.9 M545.2,162l-1563,687.9 M547.7,167.8l-1563,687.9 M550.3,173.6l-1563,687.9 M552.8,179.4
		l-1563,687.9 M555.3,185.2l-1563,687.9 M557.9,191l-1563,687.9 M560.4,196.7l-1563,687.9 M562.9,202.5l-1563,687.9 M565.5,208.3
		l-1563,687.9 M568,214.1L-995,902 M570.5,219.9l-1563,687.9"/>
</g>
</svg>
