<?xml version="1.0" encoding="utf-8"?>
<!-- Generator: Adobe Illustrator 21.0.0, SVG Export Plug-In . SVG Version: 6.00 Build 0)  -->
<!DOCTYPE svg PUBLIC "-//W3C//DTD SVG 1.1//EN" "http://www.w3.org/Graphics/SVG/1.1/DTD/svg11.dtd">
<svg version="1.1" id="Layer_1" xmlns="http://www.w3.org/2000/svg" xmlns:xlink="http://www.w3.org/1999/xlink" x="0px" y="0px"
	 viewBox="0 0 960 540" style="enable-background:new 0 0 960 540;" xml:space="preserve">
<style type="text/css">
	.st0{fill:#FFFFFF;}
	.st1{clip-path:url(#SVGID_2_);fill:none;stroke:#000000;stroke-width:1.541;}
	.st2{clip-path:url(#SVGID_2_);fill:none;stroke:#231F20;stroke-width:1.541;}
	.st3{fill:none;stroke:#FFFFFF;stroke-width:6;}
	.st4{clip-path:url(#SVGID_4_);}
	.st5{clip-path:url(#SVGID_6_);fill:#FFFFFF;}
	.st6{clip-path:url(#SVGID_6_);}
	.st7{clip-path:url(#SVGID_8_);fill:none;stroke:#000000;stroke-width:2;stroke-miterlimit:10;}
	.st8{clip-path:url(#SVGID_8_);fill:none;stroke:#231F20;stroke-width:2;stroke-miterlimit:10;}
	.st9{clip-path:url(#SVGID_6_);fill:none;stroke:#000000;stroke-width:2;}
	.st10{clip-path:url(#SVGID_6_);fill:none;stroke:#FFFFFF;stroke-width:4;stroke-linecap:round;stroke-linejoin:round;}
	.st11{clip-path:url(#SVGID_10_);fill:#FFFFFF;}
	.st12{clip-path:url(#SVGID_10_);}
	.st13{clip-path:url(#SVGID_12_);fill:none;stroke:#000000;stroke-width:2;stroke-miterlimit:10;}
	.st14{clip-path:url(#SVGID_12_);fill:none;stroke:#231F20;stroke-width:2;stroke-miterlimit:10;}
	.st15{clip-path:url(#SVGID_10_);fill:none;stroke:#000000;stroke-width:2;}
	.st16{clip-path:url(#SVGID_10_);fill:none;stroke:#231F20;stroke-width:2;}
	.st17{clip-path:url(#SVGID_14_);fill:#FFFFFF;}
	.st18{clip-path:url(#SVGID_14_);}
	.st19{clip-path:url(#SVGID_16_);fill:none;stroke:#000000;stroke-width:2;stroke-miterlimit:10;}
	.st20{clip-path:url(#SVGID_14_);fill:none;stroke:#000000;stroke-width:2;}
	.st21{clip-path:url(#SVGID_18_);}
	.st22{clip-path:url(#SVGID_20_);fill:none;stroke:#000000;stroke-width:2;stroke-miterlimit:10;}
</style>
<g>
	<rect class="st0" width="960" height="540"/>
</g>
<g>
	<g>
		<defs>
			<rect id="SVGID_1_" x="447.2" y="21.5" width="223.9" height="106.3"/>
		</defs>
		<clipPath id="SVGID_2_">
			<use xlink:href="#SVGID_1_"  style="overflow:visible;"/>
		</clipPath>
		<path class="st1" d="M657.3,125.7c0-53.8-44.2-96.4-98.8-96.4s-98.8,42.9-98.8,96.7"/>
		<polyline class="st2" points="661.6,121.1 657.3,125.7 653,121.1 		"/>
		<line class="st2" x1="456.2" y1="126" x2="463.1" y2="126"/>
	</g>
	<path class="st0" d="M559.1,45.2c5.3,0,10.1-2.5,13.1-6.4c2.2-2.8,3.5-6.4,3.5-10.3c0-9.2-7.5-16.7-16.7-16.7
		c-9.2,0-16.7,7.5-16.7,16.7C542.4,37.8,549.9,45.2,559.1,45.2"/>
	<path class="st3" d="M559.1,45.2c5.3,0,10.1-2.5,13.1-6.4c2.2-2.8,3.5-6.4,3.5-10.3c0-9.2-7.5-16.7-16.7-16.7
		c-9.2,0-16.7,7.5-16.7,16.7C542.4,37.8,549.9,45.2,559.1,45.2z"/>
	<g>
		<defs>
			<rect id="SVGID_3_" x="529.2" y="40.9" width="106.5" height="37.8"/>
		</defs>
		<clipPath id="SVGID_4_">
			<use xlink:href="#SVGID_3_"  style="overflow:visible;"/>
		</clipPath>
		<g class="st4">
			<path d="M541.6,54.7h-3.2v-2.3c2.3-0.1,3.3-0.7,3.9-2.3h2.4v14h-3.2V54.7z"/>
			<path d="M549,56.6c-1-0.7-1.5-1.5-1.5-2.9c0-2.1,2.1-3.8,5.3-3.8c3.2,0,5.3,1.6,5.3,3.8c0,1.5-0.5,2.3-1.5,2.9
				c1.4,0.9,1.9,2.1,1.9,3.4c0,2.8-2.5,4.4-5.7,4.4c-3.2,0-5.7-1.6-5.7-4.4C547.1,58.7,547.5,57.5,549,56.6z M552.8,57.8
				c-1.6,0-2.5,0.9-2.5,2.1c0,1.2,0.9,2.2,2.5,2.2s2.5-1,2.5-2.2C555.3,58.7,554.4,57.8,552.8,57.8z M552.8,52.3
				c-1.4,0-2.2,0.7-2.2,1.7c0,1,0.7,1.7,2.2,1.7S555,55,555,54C555,53,554.2,52.3,552.8,52.3z"/>
			<path d="M566.3,49.9c3.9,0,6,2.7,6,7.2c0,4.5-2.1,7.3-6,7.3c-3.9,0-6-2.8-6-7.3C560.3,52.7,562.4,49.9,566.3,49.9z M566.3,52.3
				c-1.6,0-2.7,1.5-2.7,4.8c0,3.4,1.1,4.9,2.7,4.9c1.6,0,2.7-1.5,2.7-4.9C569,53.8,567.9,52.3,566.3,52.3z"/>
			<path d="M580.2,53.3c0,1.9-1.5,3.4-3.4,3.4c-1.9,0-3.4-1.5-3.4-3.4c0-1.9,1.5-3.4,3.4-3.4C578.7,49.9,580.2,51.4,580.2,53.3z
				 M578.3,53.3c0-0.8-0.6-1.5-1.5-1.5c-0.8,0-1.4,0.7-1.4,1.5c0,0.8,0.6,1.5,1.4,1.5C577.7,54.8,578.3,54.1,578.3,53.3z"/>
		</g>
	</g>
	<g>
		<defs>
			<rect id="SVGID_5_" x="486.9" y="91.3" width="181.7" height="304.7"/>
		</defs>
		<clipPath id="SVGID_6_">
			<use xlink:href="#SVGID_5_"  style="overflow:visible;"/>
		</clipPath>
		<polygon class="st5" points="523.7,394 607.6,394 608.6,394 608.6,393 608.6,140 608.6,139 607.6,139 523.7,139 523.3,139 
			523.1,139.1 505.4,151.8 504.9,152.1 504.9,152.6 504.9,380.3 504.9,380.8 505.4,381.1 523.1,393.8 523.3,394 		"/>
		<g class="st6">
			<defs>
				<polygon id="SVGID_7_" points="523.7,393 607.6,393 607.6,140 523.7,140 505.9,152.6 505.9,380.3 				"/>
			</defs>
			<clipPath id="SVGID_8_">
				<use xlink:href="#SVGID_7_"  style="overflow:visible;"/>
			</clipPath>
			<path class="st7" d="M547.9,564.7l-0.1-1284.1 M543.1,564.7l-0.1-1284.1 M538.3,564.7l-0.1-1284.1 M533.5,564.7l-0.1-1284.1
				 M528.8,564.7l-0.1-1284.1 M524,564.7l-0.1-1284.1 M519.2,564.7l-0.1-1284.1 M514.4,564.7l-0.1-1284.1 M509.6,564.6l-0.1-1284.1
				 M504.8,564.6l-0.1-1284.1 M500,564.6l-0.1-1284.1 M495.2,564.6l-0.1-1284.1 M490.4,564.6l-0.1-1284.1 M485.6,564.6l-0.1-1284.1
				 M480.8,564.6l-0.1-1284.1 M476,564.6l-0.1-1284.1 M471.2,564.6l-0.1-1284.1 M466.4,564.6l-0.1-1284.1 M461.6,564.6l-0.1-1284.1
				 M456.8,564.6l-0.1-1284.1 M452,564.6L452-719.5 M447.3,564.5l-0.1-1284.1 M442.5,564.5l-0.1-1284.1 M437.7,564.5l-0.1-1284.1
				 M432.9,564.5l-0.1-1284.1 M428.1,564.5L428-719.5 M423.3,564.5l-0.1-1284.1 M418.5,564.5l-0.1-1284.1 M413.7,564.5l-0.1-1284.1
				 M408.9,564.5l-0.1-1284.1 M404.1,564.5L404-719.6 M399.3,564.5l-0.1-1284.1"/>
			<path class="st8" d="M701.2,577.1l-0.1-1296.5 M696.4,577.1l-0.1-1296.5 M691.6,577.1l-0.1-1296.5 M686.8,577.1l-0.1-1296.5
				 M682,577.1l-0.1-1296.5 M677.2,577.1l-0.1-1296.5 M672.4,577.1l-0.1-1296.5 M667.6,577.1l-0.1-1296.5 M662.8,577.1l-0.1-1296.5
				 M658,577.1l-0.1-1296.5 M653.2,577.1l-0.1-1296.5 M648.4,577l-0.1-1296.5 M643.6,577l-0.1-1296.5 M638.8,577l-0.1-1296.5
				 M634.1,577L634-719.5 M629.3,577l-0.1-1296.5 M624.5,577l-0.1-1296.5 M619.7,577l-0.1-1296.5 M614.9,577l-0.1-1296.5 M610.1,577
				L610-719.5 M605.3,577l-0.1-1296.5 M600.5,577l-0.1-1296.5 M595.7,577l-0.1-1296.5 M590.9,576.9l-0.1-1296.5 M586.1,576.9
				L586-719.5 M581.3,576.9l-0.1-1296.5 M576.5,576.9l-0.1-1296.5 M571.7,576.9l-0.1-1296.5 M566.9,576.9l-0.1-1296.5 M562.1,576.9
				l-0.1-1296.5 M557.3,576.9l-0.1-1296.5 M552.6,576.9l-0.1-1296.5"/>
		</g>
		<polygon class="st9" points="523.7,394 607.6,394 608.6,394 608.6,393 608.6,140 608.6,139 607.6,139 523.7,139 523.3,139 
			523.1,139.1 505.4,151.8 504.9,152.1 504.9,152.6 504.9,380.3 504.9,380.8 505.4,381.1 523.1,393.8 523.3,394 		"/>
		<rect x="523.7" y="140" class="st5" width="83.9" height="253"/>
		<line class="st9" x1="523.7" y1="139" x2="523.7" y2="393.8"/>
		<path class="st6" d="M572.1,106.3c-8.9,15.4-17.8,30.8-26.7,46.2h53.3C589.9,137.1,581,121.7,572.1,106.3"/>
		<path class="st10" d="M572.1,106.3c-8.9,15.4-17.8,30.8-26.7,46.2h53.3C589.9,137.1,581,121.7,572.1,106.3z"/>
		<g class="st6">
			<path class="st0" d="M569,129.2v-5.8h6.2v5.8l-1.5,8.7h-3.2L569,129.2z M569.4,139.5h5.5v5.3h-5.5V139.5z"/>
		</g>
	</g>
	<g>
		<defs>
			<rect id="SVGID_9_" x="597.6" y="119" width="155.6" height="277"/>
		</defs>
		<clipPath id="SVGID_10_">
			<use xlink:href="#SVGID_9_"  style="overflow:visible;"/>
		</clipPath>
		<polygon class="st11" points="642.3,394 726.2,394 727.2,394 727.2,393 727.2,140 727.2,139 726.2,139 642.3,139 642,139 
			641.7,139.1 624,151.8 623.6,152.1 623.6,152.6 623.6,380.3 623.6,380.8 624,381.1 641.7,393.8 642,394 		"/>
		<g class="st12">
			<defs>
				<polygon id="SVGID_11_" points="642.3,393 726.2,393 726.2,140 642.3,140 624.6,152.6 624.6,380.3 				"/>
			</defs>
			<clipPath id="SVGID_12_">
				<use xlink:href="#SVGID_11_"  style="overflow:visible;"/>
			</clipPath>
			<path class="st13" d="M666.6,564.7l-0.1-1284.1 M661.8,564.7l-0.1-1284.1 M657,564.7l-0.1-1284.1 M652.2,564.7l-0.1-1284.1
				 M647.4,564.7l-0.1-1284.1 M642.6,564.7l-0.1-1284.1 M637.8,564.7l-0.1-1284.1 M633,564.7l-0.1-1284.1 M628.2,564.6l-0.1-1284.1
				 M623.4,564.6l-0.1-1284.1 M618.6,564.6l-0.1-1284.1 M613.8,564.6l-0.1-1284.1 M609,564.6L609-719.4 M604.2,564.6l-0.1-1284.1
				 M599.4,564.6l-0.1-1284.1 M594.7,564.6l-0.1-1284.1 M589.9,564.6l-0.1-1284.1 M585.1,564.6L585-719.5 M580.3,564.6l-0.1-1284.1
				 M575.5,564.6l-0.1-1284.1 M570.7,564.6l-0.1-1284.1 M565.9,564.5l-0.1-1284.1 M561.1,564.5L561-719.5 M556.3,564.5l-0.1-1284.1
				 M551.5,564.5l-0.1-1284.1 M546.7,564.5l-0.1-1284.1 M541.9,564.5l-0.1-1284.1 M537.1,564.5L537-719.6 M532.3,564.5l-0.1-1284.1
				 M527.5,564.5l-0.1-1284.1 M522.7,564.5l-0.1-1284.1 M517.9,564.5l-0.1-1284.1"/>
			<path class="st14" d="M819.8,577.1l-0.1-1296.5 M815,577.1l-0.1-1296.5 M810.2,577.1l-0.1-1296.5 M805.4,577.1l-0.1-1296.5
				 M800.6,577.1l-0.1-1296.5 M795.8,577.1l-0.1-1296.5 M791,577.1L791-719.4 M786.3,577.1l-0.1-1296.5 M781.5,577.1l-0.1-1296.5
				 M776.7,577.1l-0.1-1296.5 M771.9,577.1l-0.1-1296.5 M767.1,577L767-719.4 M762.3,577l-0.1-1296.5 M757.5,577l-0.1-1296.5
				 M752.7,577l-0.1-1296.5 M747.9,577l-0.1-1296.5 M743.1,577L743-719.5 M738.3,577l-0.1-1296.5 M733.5,577l-0.1-1296.5 M728.7,577
				l-0.1-1296.5 M723.9,577l-0.1-1296.5 M719.1,577l-0.1-1296.5 M714.3,577l-0.1-1296.5 M709.5,576.9l-0.1-1296.5 M704.8,576.9
				l-0.1-1296.5 M700,576.9l-0.1-1296.5 M695.2,576.9l-0.1-1296.5 M690.4,576.9l-0.1-1296.5 M685.6,576.9l-0.1-1296.5 M680.8,576.9
				l-0.1-1296.5 M676,576.9l-0.1-1296.5 M671.2,576.9l-0.1-1296.5"/>
		</g>
		<polygon class="st15" points="642.3,394 726.2,394 727.2,394 727.2,393 727.2,140 727.2,139 726.2,139 642.3,139 642,139 
			641.7,139.1 624,151.8 623.6,152.1 623.6,152.6 623.6,380.3 623.6,380.8 624,381.1 641.7,393.8 642,394 		"/>
		<rect x="642.3" y="140" class="st11" width="83.9" height="253"/>
		<line class="st16" x1="642.3" y1="139" x2="642.3" y2="393.8"/>
		<rect x="642.3" y="140" class="st11" width="83.9" height="253"/>
		<line class="st15" x1="642.3" y1="139" x2="642.3" y2="393.8"/>
		<line class="st15" x1="711.3" y1="139" x2="711.3" y2="395"/>
	</g>
	<g>
		<defs>
			<rect id="SVGID_13_" x="384.2" y="129" width="113.6" height="275"/>
		</defs>
		<clipPath id="SVGID_14_">
			<use xlink:href="#SVGID_13_"  style="overflow:visible;"/>
		</clipPath>
		<polygon class="st17" points="405,394 488.9,394 489.9,394 489.9,393 489.9,140 489.9,139 488.9,139 405,139 404.6,139 
			404.4,139.1 386.7,151.8 386.2,152.1 386.2,152.6 386.2,380.3 386.2,380.8 386.7,381.1 404.4,393.8 404.6,394 		"/>
		<g class="st18">
			<defs>
				<polygon id="SVGID_15_" points="405,393 488.9,393 488.9,140 405,140 387.2,152.6 387.2,380.3 				"/>
			</defs>
			<clipPath id="SVGID_16_">
				<use xlink:href="#SVGID_15_"  style="overflow:visible;"/>
			</clipPath>
			<path class="st19" d="M651.8,13.8L-555.6,1221.4 M656.3,18.3L-551.1,1225.9 M660.8,22.8L-546.7,1230.4 M665.2,27.3L-542.2,1234.9
				 M669.7,31.7L-537.8,1239.3 M674.1,36.2L-533.3,1243.8 M678.6,40.7L-528.9,1248.3 M683,45.2L-524.4,1252.7 M687.5,49.6
				L-519.9,1257.2 M692,54.1L-515.5,1261.7 M696.4,58.6L-511,1266.2 M700.9,63L-506.6,1270.6 M705.3,67.5L-502.1,1275.1 M709.8,72
				L-497.7,1279.6 M714.2,76.5L-493.2,1284.1 M718.7,80.9L-488.7,1288.5 M723.2,85.4L-484.3,1293 M727.6,89.9L-479.8,1297.5
				 M732.1,94.4L-475.4,1301.9 M736.5,98.8L-470.9,1306.4 M741,103.3L-466.4,1310.9 M745.5,107.8L-462,1315.4 M749.9,112.2
				L-457.5,1319.8 M754.4,116.7L-453.1,1324.3 M758.8,121.2L-448.6,1328.8 M763.3,125.7L-444.2,1333.3 M767.7,130.1L-439.7,1337.7
				 M772.2,134.6L-435.2,1342.2 M776.7,139.1L-430.8,1346.7 M781.1,143.6L-426.3,1351.1 M785.6,148L-421.9,1355.6 M790,152.5
				L-417.4,1360.1"/>
			<path class="st19" d="M497.4-117.5l-1195.9,1196 M501.8-113L-694,1083 M506.3-108.5l-1195.9,1196 M510.8-104.1L-685.1,1092
				 M515.2-99.6l-1195.9,1196 M519.7-95.1l-1195.9,1196 M524.1-90.7l-1195.9,1196 M528.6-86.2l-1195.9,1196 M533-81.7l-1195.9,1196
				 M537.5-77.2l-1195.9,1196 M542-72.8l-1195.9,1196 M546.4-68.3l-1195.9,1196 M550.9-63.8L-645,1132.2 M555.3-59.3l-1195.9,1196
				 M559.8-54.9l-1195.9,1196 M564.2-50.4l-1195.9,1196 M568.7-45.9l-1195.9,1196 M573.2-41.5l-1195.9,1196 M577.6-37L-618.3,1159
				 M582.1-32.5l-1195.9,1196 M586.5-28L-609.3,1168 M591-23.6l-1195.9,1196 M595.4-19.1l-1195.9,1196 M599.9-14.6L-596,1181.4
				 M604.4-10.1l-1195.9,1196 M608.8-5.7l-1195.9,1196 M613.3-1.2l-1195.9,1196 M617.7,3.3l-1195.9,1196 M622.2,7.7l-1195.9,1196
				 M626.7,12.2l-1195.9,1196 M631.1,16.7l-1195.9,1196 M635.6,21.2l-1195.9,1196"/>
		</g>
		<polygon class="st20" points="405,394 488.9,394 489.9,394 489.9,393 489.9,140 489.9,139 488.9,139 405,139 404.6,139 
			404.4,139.1 386.7,151.8 386.2,152.1 386.2,152.6 386.2,380.3 386.2,380.8 386.7,381.1 404.4,393.8 404.6,394 		"/>
	</g>
	<g>
		<defs>
			<rect id="SVGID_17_" x="536.8" y="10.1" width="82.1" height="38.8"/>
		</defs>
		<clipPath id="SVGID_18_">
			<use xlink:href="#SVGID_17_"  style="overflow:visible;"/>
		</clipPath>
		<g class="st21">
			<path d="M562.5,28.5h4.3c0-4.7-3.7-8.5-8.4-8.5c-4.7,0-8.5,3.8-8.5,8.5s3.7,8.5,8.5,8.5c1.5,0,3-0.4,4.3-1.1l1.1,2.2
				c-1.6,0.9-3.4,1.4-5.4,1.4c-6,0-10.9-4.9-10.9-11c0-6,4.9-10.9,10.9-10.9c6.1,0,11,4.9,11,10.9h3.9l-5.3,6.2L562.5,28.5z"/>
		</g>
	</g>
</g>
<g>
	<defs>
		<rect id="SVGID_19_" x="712.3" y="139" width="15.9" height="254.9"/>
	</defs>
	<clipPath id="SVGID_20_">
		<use xlink:href="#SVGID_19_"  style="overflow:visible;"/>
	</clipPath>
	<path class="st22" d="M865.6,231.9L-682.4,913.1 M868.2,237.6L-679.9,918.9 M870.7,243.4L-677.4,924.7 M873.2,249.2L-674.8,930.5
		 M875.8,255L-672.3,936.3 M878.3,260.8L-669.8,942.1 M880.8,266.6L-667.2,947.8 M883.4,272.3L-664.7,953.6 M885.9,278.1
		L-662.2,959.4 M888.4,283.9L-659.6,965.2 M891,289.7L-657.1,971 M893.5,295.5L-654.6,976.8 M896,301.3L-652,982.5 M898.6,307
		L-649.5,988.3 M901.1,312.8L-647,994.1 M903.6,318.6L-644.4,999.9 M906.2,324.4l-1548.1,681.3 M908.7,330.2l-1548.1,681.3
		 M911.2,336l-1548.1,681.3 M913.8,341.8L-634.3,1023 M916.3,347.5l-1548.1,681.3 M918.8,353.3l-1548.1,681.3 M921.4,359.1
		l-1548.1,681.3 M923.9,364.9l-1548.1,681.3 M926.4,370.7L-621.6,1052 M929,376.5l-1548.1,681.3 M931.5,382.2l-1548.1,681.3
		 M934,388L-614,1069.3 M936.6,393.8l-1548.1,681.3 M939.1,399.6L-609,1080.9 M941.6,405.4l-1548.1,681.3 M944.2,411.2
		l-1548.1,681.3"/>
	<path class="st22" d="M799.3,40.6l-1563,687.9 M801.9,46.4l-1563,687.9 M804.4,52.1L-758.6,740 M806.9,57.9l-1563,687.9
		 M809.5,63.7l-1563,687.9 M812,69.5L-751,757.4 M814.5,75.3l-1563,687.9 M817.1,81.1L-746,768.9 M819.6,86.8l-1563,687.9
		 M822.1,92.6l-1563,687.9 M824.7,98.4l-1563,687.9 M827.2,104.2l-1563,687.9 M829.7,110l-1563,687.9 M832.3,115.8l-1563,687.9
		 M834.8,121.5l-1563,687.9 M837.3,127.3l-1563,687.9 M839.9,133.1L-723.2,821 M842.4,138.9l-1563,687.9 M844.9,144.7l-1563,687.9
		 M847.5,150.5l-1563,687.9 M850,156.3L-713,844.1 M852.5,162l-1563,687.9 M855.1,167.8L-708,855.7 M857.6,173.6l-1563,687.9
		 M860.1,179.4l-1563,687.9 M862.7,185.2L-700.4,873 M865.2,191l-1563,687.9 M867.7,196.7l-1563,687.9 M870.3,202.5l-1563,687.9
		 M872.8,208.3l-1563,687.9 M875.3,214.1L-687.7,902 M877.9,219.9l-1563,687.9"/>
</g>
</svg>
