<?xml version="1.0" encoding="utf-8"?>
<!-- Generator: Adobe Illustrator 21.0.0, SVG Export Plug-In . SVG Version: 6.00 Build 0)  -->
<!DOCTYPE svg PUBLIC "-//W3C//DTD SVG 1.1//EN" "http://www.w3.org/Graphics/SVG/1.1/DTD/svg11.dtd">
<svg version="1.1" id="Layer_1" xmlns="http://www.w3.org/2000/svg" xmlns:xlink="http://www.w3.org/1999/xlink" x="0px" y="0px"
	 viewBox="0 0 960 540" style="enable-background:new 0 0 960 540;" xml:space="preserve">
<style type="text/css">
	.st0{fill:#FFFFFF;}
	.st1{clip-path:url(#SVGID_2_);fill:#FFFFFF;}
	.st2{clip-path:url(#SVGID_2_);}
	.st3{clip-path:url(#SVGID_4_);fill:none;stroke:#000000;stroke-width:2;stroke-miterlimit:10;}
	.st4{clip-path:url(#SVGID_4_);fill:none;stroke:#231F20;stroke-width:2;stroke-miterlimit:10;}
	.st5{clip-path:url(#SVGID_2_);fill:none;stroke:#000000;stroke-width:2;}
	.st6{clip-path:url(#SVGID_2_);fill:none;stroke:#FFFFFF;stroke-width:4;stroke-linecap:round;stroke-linejoin:round;}
	.st7{clip-path:url(#SVGID_6_);fill:#FFFFFF;}
	.st8{clip-path:url(#SVGID_6_);}
	.st9{clip-path:url(#SVGID_8_);fill:none;stroke:#000000;stroke-width:2;stroke-miterlimit:10;}
	.st10{clip-path:url(#SVGID_8_);fill:none;stroke:#231F20;stroke-width:2;stroke-miterlimit:10;}
	.st11{clip-path:url(#SVGID_6_);fill:none;stroke:#000000;stroke-width:2;}
	.st12{clip-path:url(#SVGID_6_);fill:none;stroke:#231F20;stroke-width:2;}
	.st13{clip-path:url(#SVGID_10_);fill:none;stroke:#000000;stroke-width:2;stroke-miterlimit:10;}
	.st14{fill:none;stroke:#000000;stroke-width:2;}
</style>
<g>
	<rect class="st0" width="960" height="540"/>
</g>
<g>
	<g>
		<defs>
			<rect id="SVGID_1_" x="486.9" y="91.3" width="181.7" height="304.7"/>
		</defs>
		<clipPath id="SVGID_2_">
			<use xlink:href="#SVGID_1_"  style="overflow:visible;"/>
		</clipPath>
		<polygon class="st1" points="523.7,394 607.6,394 608.6,394 608.6,393 608.6,140 608.6,139 607.6,139 523.7,139 523.3,139 
			523.1,139.1 505.4,151.8 504.9,152.1 504.9,152.6 504.9,380.3 504.9,380.8 505.4,381.1 523.1,393.8 523.3,394 		"/>
		<g class="st2">
			<defs>
				<polygon id="SVGID_3_" points="523.7,393 607.6,393 607.6,140 523.7,140 505.9,152.6 505.9,380.3 				"/>
			</defs>
			<clipPath id="SVGID_4_">
				<use xlink:href="#SVGID_3_"  style="overflow:visible;"/>
			</clipPath>
			<path class="st3" d="M547.9,564.7l-0.1-1284.1 M543.1,564.7l-0.1-1284.1 M538.3,564.7l-0.1-1284.1 M533.5,564.7l-0.1-1284.1
				 M528.8,564.7l-0.1-1284.1 M524,564.7l-0.1-1284.1 M519.2,564.7l-0.1-1284.1 M514.4,564.7l-0.1-1284.1 M509.6,564.6l-0.1-1284.1
				 M504.8,564.6l-0.1-1284.1 M500,564.6l-0.1-1284.1 M495.2,564.6l-0.1-1284.1 M490.4,564.6l-0.1-1284.1 M485.6,564.6l-0.1-1284.1
				 M480.8,564.6l-0.1-1284.1 M476,564.6l-0.1-1284.1 M471.2,564.6l-0.1-1284.1 M466.4,564.6l-0.1-1284.1 M461.6,564.6l-0.1-1284.1
				 M456.8,564.6l-0.1-1284.1 M452,564.6L452-719.5 M447.3,564.5l-0.1-1284.1 M442.5,564.5l-0.1-1284.1 M437.7,564.5l-0.1-1284.1
				 M432.9,564.5l-0.1-1284.1 M428.1,564.5L428-719.5 M423.3,564.5l-0.1-1284.1 M418.5,564.5l-0.1-1284.1 M413.7,564.5l-0.1-1284.1
				 M408.9,564.5l-0.1-1284.1 M404.1,564.5L404-719.6 M399.3,564.5l-0.1-1284.1"/>
			<path class="st4" d="M701.2,577.1l-0.1-1296.5 M696.4,577.1l-0.1-1296.5 M691.6,577.1l-0.1-1296.5 M686.8,577.1l-0.1-1296.5
				 M682,577.1l-0.1-1296.5 M677.2,577.1l-0.1-1296.5 M672.4,577.1l-0.1-1296.5 M667.6,577.1l-0.1-1296.5 M662.8,577.1l-0.1-1296.5
				 M658,577.1l-0.1-1296.5 M653.2,577.1l-0.1-1296.5 M648.4,577l-0.1-1296.5 M643.6,577l-0.1-1296.5 M638.8,577l-0.1-1296.5
				 M634.1,577L634-719.5 M629.3,577l-0.1-1296.5 M624.5,577l-0.1-1296.5 M619.7,577l-0.1-1296.5 M614.9,577l-0.1-1296.5 M610.1,577
				L610-719.5 M605.3,577l-0.1-1296.5 M600.5,577l-0.1-1296.5 M595.7,577l-0.1-1296.5 M590.9,576.9l-0.1-1296.5 M586.1,576.9
				L586-719.5 M581.3,576.9l-0.1-1296.5 M576.5,576.9l-0.1-1296.5 M571.7,576.9l-0.1-1296.5 M566.9,576.9l-0.1-1296.5 M562.1,576.9
				l-0.1-1296.5 M557.3,576.9l-0.1-1296.5 M552.6,576.9l-0.1-1296.5"/>
		</g>
		<polygon class="st5" points="523.7,394 607.6,394 608.6,394 608.6,393 608.6,140 608.6,139 607.6,139 523.7,139 523.3,139 
			523.1,139.1 505.4,151.8 504.9,152.1 504.9,152.6 504.9,380.3 504.9,380.8 505.4,381.1 523.1,393.8 523.3,394 		"/>
		<rect x="523.7" y="140" class="st1" width="83.9" height="253"/>
		<line class="st5" x1="523.7" y1="139" x2="523.7" y2="393.8"/>
		<path class="st2" d="M572.1,106.3c-8.9,15.4-17.8,30.8-26.7,46.2h53.3C589.9,137.1,581,121.7,572.1,106.3"/>
		<path class="st6" d="M572.1,106.3c-8.9,15.4-17.8,30.8-26.7,46.2h53.3C589.9,137.1,581,121.7,572.1,106.3z"/>
		<g class="st2">
			<path class="st0" d="M569,129.2v-5.8h6.2v5.8l-1.5,8.7h-3.2L569,129.2z M569.4,139.5h5.5v5.3h-5.5V139.5z"/>
		</g>
	</g>
	<g>
		<defs>
			<rect id="SVGID_5_" x="597.6" y="119" width="155.6" height="277"/>
		</defs>
		<clipPath id="SVGID_6_">
			<use xlink:href="#SVGID_5_"  style="overflow:visible;"/>
		</clipPath>
		<polygon class="st7" points="642.3,394 726.2,394 727.2,394 727.2,393 727.2,140 727.2,139 726.2,139 642.3,139 642,139 
			641.7,139.1 624,151.8 623.6,152.1 623.6,152.6 623.6,380.3 623.6,380.8 624,381.1 641.7,393.8 642,394 		"/>
		<g class="st8">
			<defs>
				<polygon id="SVGID_7_" points="642.3,393 726.2,393 726.2,140 642.3,140 624.6,152.6 624.6,380.3 				"/>
			</defs>
			<clipPath id="SVGID_8_">
				<use xlink:href="#SVGID_7_"  style="overflow:visible;"/>
			</clipPath>
			<path class="st9" d="M666.6,564.7l-0.1-1284.1 M661.8,564.7l-0.1-1284.1 M657,564.7l-0.1-1284.1 M652.2,564.7l-0.1-1284.1
				 M647.4,564.7l-0.1-1284.1 M642.6,564.7l-0.1-1284.1 M637.8,564.7l-0.1-1284.1 M633,564.7l-0.1-1284.1 M628.2,564.6l-0.1-1284.1
				 M623.4,564.6l-0.1-1284.1 M618.6,564.6l-0.1-1284.1 M613.8,564.6l-0.1-1284.1 M609,564.6L609-719.4 M604.2,564.6l-0.1-1284.1
				 M599.4,564.6l-0.1-1284.1 M594.7,564.6l-0.1-1284.1 M589.9,564.6l-0.1-1284.1 M585.1,564.6L585-719.5 M580.3,564.6l-0.1-1284.1
				 M575.5,564.6l-0.1-1284.1 M570.7,564.6l-0.1-1284.1 M565.9,564.5l-0.1-1284.1 M561.1,564.5L561-719.5 M556.3,564.5l-0.1-1284.1
				 M551.5,564.5l-0.1-1284.1 M546.7,564.5l-0.1-1284.1 M541.9,564.5l-0.1-1284.1 M537.1,564.5L537-719.6 M532.3,564.5l-0.1-1284.1
				 M527.5,564.5l-0.1-1284.1 M522.7,564.5l-0.1-1284.1 M517.9,564.5l-0.1-1284.1"/>
			<path class="st10" d="M819.8,577.1l-0.1-1296.5 M815,577.1l-0.1-1296.5 M810.2,577.1l-0.1-1296.5 M805.4,577.1l-0.1-1296.5
				 M800.6,577.1l-0.1-1296.5 M795.8,577.1l-0.1-1296.5 M791,577.1L791-719.4 M786.3,577.1l-0.1-1296.5 M781.5,577.1l-0.1-1296.5
				 M776.7,577.1l-0.1-1296.5 M771.9,577.1l-0.1-1296.5 M767.1,577L767-719.4 M762.3,577l-0.1-1296.5 M757.5,577l-0.1-1296.5
				 M752.7,577l-0.1-1296.5 M747.9,577l-0.1-1296.5 M743.1,577L743-719.5 M738.3,577l-0.1-1296.5 M733.5,577l-0.1-1296.5 M728.7,577
				l-0.1-1296.5 M723.9,577l-0.1-1296.5 M719.1,577l-0.1-1296.5 M714.3,577l-0.1-1296.5 M709.5,576.9l-0.1-1296.5 M704.8,576.9
				l-0.1-1296.5 M700,576.9l-0.1-1296.5 M695.2,576.9l-0.1-1296.5 M690.4,576.9l-0.1-1296.5 M685.6,576.9l-0.1-1296.5 M680.8,576.9
				l-0.1-1296.5 M676,576.9l-0.1-1296.5 M671.2,576.9l-0.1-1296.5"/>
		</g>
		<polygon class="st11" points="642.3,394 726.2,394 727.2,394 727.2,393 727.2,140 727.2,139 726.2,139 642.3,139 642,139 
			641.7,139.1 624,151.8 623.6,152.1 623.6,152.6 623.6,380.3 623.6,380.8 624,381.1 641.7,393.8 642,394 		"/>
		<rect x="642.3" y="140" class="st7" width="83.9" height="253"/>
		<line class="st12" x1="642.3" y1="139" x2="642.3" y2="393.8"/>
		<rect x="642.3" y="140" class="st7" width="83.9" height="253"/>
		<line class="st11" x1="642.3" y1="139" x2="642.3" y2="393.8"/>
		<line class="st11" x1="711.3" y1="139" x2="711.3" y2="395"/>
	</g>
</g>
<g>
	<defs>
		<rect id="SVGID_9_" x="712.3" y="139" width="15.9" height="254.9"/>
	</defs>
	<clipPath id="SVGID_10_">
		<use xlink:href="#SVGID_9_"  style="overflow:visible;"/>
	</clipPath>
	<path class="st13" d="M865.6,231.9L-682.4,913.1 M868.2,237.6L-679.9,918.9 M870.7,243.4L-677.4,924.7 M873.2,249.2L-674.8,930.5
		 M875.8,255L-672.3,936.3 M878.3,260.8L-669.8,942.1 M880.8,266.6L-667.2,947.8 M883.4,272.3L-664.7,953.6 M885.9,278.1
		L-662.2,959.4 M888.4,283.9L-659.6,965.2 M891,289.7L-657.1,971 M893.5,295.5L-654.6,976.8 M896,301.3L-652,982.5 M898.6,307
		L-649.5,988.3 M901.1,312.8L-647,994.1 M903.6,318.6L-644.4,999.9 M906.2,324.4l-1548.1,681.3 M908.7,330.2l-1548.1,681.3
		 M911.2,336l-1548.1,681.3 M913.8,341.8L-634.3,1023 M916.3,347.5l-1548.1,681.3 M918.8,353.3l-1548.1,681.3 M921.4,359.1
		l-1548.1,681.3 M923.9,364.9l-1548.1,681.3 M926.4,370.7L-621.6,1052 M929,376.5l-1548.1,681.3 M931.5,382.2l-1548.1,681.3
		 M934,388L-614,1069.3 M936.6,393.8l-1548.1,681.3 M939.1,399.6L-609,1080.9 M941.6,405.4l-1548.1,681.3 M944.2,411.2
		l-1548.1,681.3"/>
	<path class="st13" d="M799.3,40.6l-1563,687.9 M801.9,46.4l-1563,687.9 M804.4,52.1L-758.6,740 M806.9,57.9l-1563,687.9
		 M809.5,63.7l-1563,687.9 M812,69.5L-751,757.4 M814.5,75.3l-1563,687.9 M817.1,81.1L-746,768.9 M819.6,86.8l-1563,687.9
		 M822.1,92.6l-1563,687.9 M824.7,98.4l-1563,687.9 M827.2,104.2l-1563,687.9 M829.7,110l-1563,687.9 M832.3,115.8l-1563,687.9
		 M834.8,121.5l-1563,687.9 M837.3,127.3l-1563,687.9 M839.9,133.1L-723.2,821 M842.4,138.9l-1563,687.9 M844.9,144.7l-1563,687.9
		 M847.5,150.5l-1563,687.9 M850,156.3L-713,844.1 M852.5,162l-1563,687.9 M855.1,167.8L-708,855.7 M857.6,173.6l-1563,687.9
		 M860.1,179.4l-1563,687.9 M862.7,185.2L-700.4,873 M865.2,191l-1563,687.9 M867.7,196.7l-1563,687.9 M870.3,202.5l-1563,687.9
		 M872.8,208.3l-1563,687.9 M875.3,214.1L-687.7,902 M877.9,219.9l-1563,687.9"/>
</g>
<g>
	<g>
		<g>
			<g>
				<rect x="238.4" y="359.8" class="st14" width="32.5" height="21"/>
				<rect x="171.8" y="359.8" class="st14" width="32.5" height="21"/>
				<path class="st0" d="M247.2,373.5l0.5,0c43.1-0.1,78.4-34.4,79.3-77.2v-1v-15.5c-0.5,0.4-1.1,0.8-1.6,1.2
					c-0.8,0.6-1.5,1.1-2.3,1.6c0,0-0.1,0-0.1,0.1c-0.8,0.5-1.5,1-2.3,1.5c-0.1,0-0.1,0.1-0.2,0.1c-0.8,0.5-1.5,0.9-2.3,1.3
					c-0.1,0.1-0.2,0.1-0.3,0.2c-0.7,0.4-1.5,0.8-2.2,1.2c-0.1,0.1-0.2,0.1-0.4,0.2c-0.7,0.4-1.5,0.7-2.2,1.1
					c-0.2,0.1-0.3,0.2-0.5,0.2c-0.7,0.3-1.4,0.6-2.2,1c-0.2,0.1-0.4,0.2-0.6,0.3c-0.7,0.3-1.4,0.6-2.1,0.8c-0.2,0.1-0.5,0.2-0.7,0.3
					c-0.7,0.2-1.3,0.5-2,0.7c-0.3,0.1-0.6,0.2-0.9,0.3c-0.6,0.2-1.3,0.4-2,0.6c-0.3,0.1-0.7,0.2-1,0.3c-0.6,0.2-1.3,0.3-1.9,0.5
					c-0.4,0.1-0.7,0.2-1.1,0.3c-0.6,0.1-1.2,0.3-1.8,0.4c-0.4,0.1-0.9,0.2-1.3,0.2c-0.6,0.1-1.1,0.2-1.7,0.3c-0.5,0.1-1,0.1-1.4,0.2
					c-0.5,0.1-1.1,0.2-1.6,0.2c-0.5,0.1-1.1,0.1-1.7,0.2c-0.5,0-0.9,0.1-1.4,0.1c-0.7,0.1-1.3,0.1-2,0.1c-0.4,0-0.8,0.1-1.1,0.1
					c-1,0-2.1,0.1-3.2,0.1c-4.1,0-8.2-0.3-12.2-0.8c-0.1-1.2-0.1-2.3-0.2-3.5c0-0.4-0.1-0.8-0.1-1.1c-0.1-0.8-0.2-1.6-0.3-2.3
					c-0.1-0.4-0.1-0.9-0.2-1.3c-0.1-0.7-0.2-1.4-0.4-2.1c-0.1-0.5-0.2-0.9-0.3-1.4c-0.1-0.7-0.3-1.4-0.5-2c-0.1-0.4-0.2-0.9-0.3-1.3
					c-0.2-0.7-0.4-1.4-0.6-2.1c-0.1-0.4-0.2-0.8-0.3-1.2c-0.3-0.9-0.5-1.7-0.8-2.5c-0.1-0.3-0.2-0.6-0.3-0.9c-0.3-1-0.7-1.9-1.1-2.9
					c-0.2-0.4-0.4-0.9-0.6-1.3c-0.3-0.6-0.5-1.2-0.8-1.8c-0.2-0.5-0.5-1-0.7-1.4c-0.3-0.5-0.5-1-0.8-1.5c-0.3-0.5-0.5-1-0.8-1.5
					c-0.3-0.5-0.5-0.9-0.8-1.4c-0.3-0.5-0.6-1-0.9-1.5c-0.3-0.4-0.5-0.8-0.8-1.3c-0.3-0.5-0.7-1-1-1.6c-0.2-0.3-0.4-0.6-0.7-1
					c-1.4-2-2.9-4-4.5-5.9c-0.2-0.2-0.4-0.5-0.6-0.7c-0.5-0.6-1-1.1-1.5-1.7c-0.2-0.2-0.4-0.5-0.6-0.7c-0.5-0.6-1.1-1.1-1.6-1.7
					c-0.2-0.2-0.4-0.4-0.6-0.6c-0.6-0.6-1.2-1.1-1.8-1.7c-0.1-0.1-0.3-0.2-0.4-0.4c-3.6-3.3-7.6-6.3-11.9-8.9c0,0-0.1,0-0.1-0.1
					c-0.8-0.5-1.7-1-2.6-1.5c0,0-0.1,0-0.1-0.1c-6.3-3.5-13.1-6.1-20.3-7.7c0,0,0,0,0,0h0c-5.4-1.2-11-1.9-16.8-1.9
					c-42.2,0-76.4,33.8-76.4,75.5s34.2,75.5,76.4,75.5H247.2z"/>
				<path class="st14" d="M247.2,373.5l0.5,0c43.1-0.1,78.4-34.4,79.3-77.2v-1v-15.5c-0.5,0.4-1.1,0.8-1.6,1.2
					c-0.8,0.6-1.5,1.1-2.3,1.6c0,0-0.1,0-0.1,0.1c-0.8,0.5-1.5,1-2.3,1.5c-0.1,0-0.1,0.1-0.2,0.1c-0.8,0.5-1.5,0.9-2.3,1.3
					c-0.1,0.1-0.2,0.1-0.3,0.2c-0.7,0.4-1.5,0.8-2.2,1.2c-0.1,0.1-0.2,0.1-0.4,0.2c-0.7,0.4-1.5,0.7-2.2,1.1
					c-0.2,0.1-0.3,0.2-0.5,0.2c-0.7,0.3-1.4,0.6-2.2,1c-0.2,0.1-0.4,0.2-0.6,0.3c-0.7,0.3-1.4,0.6-2.1,0.8c-0.2,0.1-0.5,0.2-0.7,0.3
					c-0.7,0.2-1.3,0.5-2,0.7c-0.3,0.1-0.6,0.2-0.9,0.3c-0.6,0.2-1.3,0.4-2,0.6c-0.3,0.1-0.7,0.2-1,0.3c-0.6,0.2-1.3,0.3-1.9,0.5
					c-0.4,0.1-0.7,0.2-1.1,0.3c-0.6,0.1-1.2,0.3-1.8,0.4c-0.4,0.1-0.9,0.2-1.3,0.2c-0.6,0.1-1.1,0.2-1.7,0.3c-0.5,0.1-1,0.1-1.4,0.2
					c-0.5,0.1-1.1,0.2-1.6,0.2c-0.5,0.1-1.1,0.1-1.7,0.2c-0.5,0-0.9,0.1-1.4,0.1c-0.7,0.1-1.3,0.1-2,0.1c-0.4,0-0.8,0.1-1.1,0.1
					c-1,0-2.1,0.1-3.2,0.1c-4.1,0-8.2-0.3-12.2-0.8c-0.1-1.2-0.1-2.3-0.2-3.5c0-0.4-0.1-0.8-0.1-1.1c-0.1-0.8-0.2-1.6-0.3-2.3
					c-0.1-0.4-0.1-0.9-0.2-1.3c-0.1-0.7-0.2-1.4-0.4-2.1c-0.1-0.5-0.2-0.9-0.3-1.4c-0.1-0.7-0.3-1.4-0.5-2c-0.1-0.4-0.2-0.9-0.3-1.3
					c-0.2-0.7-0.4-1.4-0.6-2.1c-0.1-0.4-0.2-0.8-0.3-1.2c-0.3-0.9-0.5-1.7-0.8-2.5c-0.1-0.3-0.2-0.6-0.3-0.9c-0.3-1-0.7-1.9-1.1-2.9
					c-0.2-0.4-0.4-0.9-0.6-1.3c-0.3-0.6-0.5-1.2-0.8-1.8c-0.2-0.5-0.5-1-0.7-1.4c-0.3-0.5-0.5-1-0.8-1.5c-0.3-0.5-0.5-1-0.8-1.5
					c-0.3-0.5-0.5-0.9-0.8-1.4c-0.3-0.5-0.6-1-0.9-1.5c-0.3-0.4-0.5-0.8-0.8-1.3c-0.3-0.5-0.7-1-1-1.6c-0.2-0.3-0.4-0.6-0.7-1
					c-1.4-2-2.9-4-4.5-5.9c-0.2-0.2-0.4-0.5-0.6-0.7c-0.5-0.6-1-1.1-1.5-1.7c-0.2-0.2-0.4-0.5-0.6-0.7c-0.5-0.6-1.1-1.1-1.6-1.7
					c-0.2-0.2-0.4-0.4-0.6-0.6c-0.6-0.6-1.2-1.1-1.8-1.7c-0.1-0.1-0.3-0.2-0.4-0.4c-3.6-3.3-7.6-6.3-11.9-8.9c0,0-0.1,0-0.1-0.1
					c-0.8-0.5-1.7-1-2.6-1.5c0,0-0.1,0-0.1-0.1c-6.3-3.5-13.1-6.1-20.3-7.7c0,0,0,0,0,0h0c-5.4-1.2-11-1.9-16.8-1.9
					c-42.2,0-76.4,33.8-76.4,75.5s34.2,75.5,76.4,75.5H247.2z"/>
				<circle class="st14" cx="192.5" cy="298" r="29.1"/>
				<ellipse class="st14" cx="192.5" cy="298" rx="65" ry="66"/>
				<path class="st14" d="M255.3,281.1c4.6,19.1,16.5,33.7,36.1,33.7c19.6,0,35.6-15.9,35.6-35.6"/>
				<circle class="st14" cx="192.5" cy="298" r="35.3"/>
				<path class="st14" d="M339.5,280.3c-0.8-3.3-2.9-6.1-6.4-6.1c-3.5,0-6.3,2.7-6.3,6.1"/>
			</g>
		</g>
	</g>
</g>
<polygon points="405.8,277.4 380.4,277.4 380.4,260.8 405.8,260.8 405.8,236.9 424.4,236.9 424.4,260.8 449.8,260.8 449.8,277.4 
	424.4,277.4 424.4,301.4 405.8,301.4 "/>
</svg>
