<?xml version="1.0" encoding="utf-8"?>
<!-- Generator: Adobe Illustrator 21.0.0, SVG Export Plug-In . SVG Version: 6.00 Build 0)  -->
<!DOCTYPE svg PUBLIC "-//W3C//DTD SVG 1.1//EN" "http://www.w3.org/Graphics/SVG/1.1/DTD/svg11.dtd">
<svg version="1.1" id="Layer_1" xmlns="http://www.w3.org/2000/svg" xmlns:xlink="http://www.w3.org/1999/xlink" x="0px" y="0px"
	 viewBox="0 0 960 540" style="enable-background:new 0 0 960 540;" xml:space="preserve">
<style type="text/css">
	.st0{fill:#FFFFFF;}
	.st1{clip-path:url(#SVGID_2_);fill:#FFFFFF;}
	.st2{clip-path:url(#SVGID_2_);}
	.st3{clip-path:url(#SVGID_4_);fill:none;stroke:#231F20;stroke-width:2;stroke-miterlimit:10;}
	.st4{clip-path:url(#SVGID_2_);fill:none;stroke:#000000;stroke-width:2;}
	.st5{clip-path:url(#SVGID_2_);fill:none;stroke:#231F20;stroke-width:2;}
	.st6{clip-path:url(#SVGID_6_);fill:none;stroke:#000000;stroke-width:2;stroke-miterlimit:10;}
	.st7{clip-path:url(#SVGID_6_);fill:none;stroke:#231F20;stroke-width:2;stroke-miterlimit:10;}
	.st8{opacity:0.5;clip-path:url(#SVGID_8_);}
	.st9{clip-path:url(#SVGID_10_);fill:#FFFFFF;}
	.st10{clip-path:url(#SVGID_10_);fill:none;stroke:#000000;stroke-width:2;}
	.st11{clip-path:url(#SVGID_8_);fill:none;stroke:#000000;stroke-width:2;}
	.st12{clip-path:url(#SVGID_12_);fill:none;stroke:#000000;stroke-width:2;stroke-miterlimit:10;}
	.st13{clip-path:url(#SVGID_12_);fill:none;stroke:#231F20;stroke-width:2;stroke-miterlimit:10;}
</style>
<g>
	<rect class="st0" width="960" height="540"/>
</g>
<g>
	<g>
		<defs>
			<rect id="SVGID_1_" x="478.9" y="113" width="248.3" height="283"/>
		</defs>
		<clipPath id="SVGID_2_">
			<use xlink:href="#SVGID_1_"  style="overflow:visible;"/>
		</clipPath>
		<polygon class="st1" points="608.3,394 692.2,394 693.2,394 693.2,393 693.2,140 693.2,139 692.2,139 608.3,139 608,139 
			607.7,139.1 590,151.8 589.6,152.1 589.6,152.6 589.6,380.3 589.6,380.8 590,381.1 607.7,393.8 608,394 		"/>
		<g class="st2">
			<defs>
				<polygon id="SVGID_3_" points="608.3,393 692.2,393 692.2,140 608.3,140 590.6,152.6 590.6,380.3 				"/>
			</defs>
			<clipPath id="SVGID_4_">
				<use xlink:href="#SVGID_3_"  style="overflow:visible;"/>
			</clipPath>
			<path class="st3" d="M632.6,564.7l-0.1-1284.1 M627.8,564.7l-0.1-1284.1 M623,564.7l-0.1-1284.1 M618.2,564.7l-0.1-1284.1
				 M613.4,564.7l-0.1-1284.1 M608.6,564.7l-0.1-1284.1 M603.8,564.7l-0.1-1284.1 M599,564.7l-0.1-1284.1 M594.2,564.6l-0.1-1284.1
				 M589.4,564.6l-0.1-1284.1 M584.6,564.6l-0.1-1284.1 M579.8,564.6l-0.1-1284.1 M575.1,564.6L575-719.4 M570.3,564.6l-0.1-1284.1
				 M565.5,564.6l-0.1-1284.1 M560.7,564.6l-0.1-1284.1 M555.9,564.6l-0.1-1284.1 M551.1,564.6L551-719.5 M546.3,564.6l-0.1-1284.1
				 M541.5,564.6l-0.1-1284.1 M536.7,564.6l-0.1-1284.1 M531.9,564.5l-0.1-1284.1 M527.1,564.5L527-719.5 M522.3,564.5l-0.1-1284.1
				 M517.5,564.5l-0.1-1284.1 M512.7,564.5l-0.1-1284.1 M507.9,564.5l-0.1-1284.1 M503.1,564.5l-0.1-1284.1 M498.3,564.5
				l-0.1-1284.1 M493.6,564.5l-0.1-1284.1 M488.8,564.5l-0.1-1284.1 M484,564.5l-0.1-1284.1"/>
			<path class="st3" d="M785.8,577.1l-0.1-1296.5 M781,577.1L781-719.3 M776.2,577.1l-0.1-1296.5 M771.4,577.1l-0.1-1296.5
				 M766.7,577.1l-0.1-1296.5 M761.9,577.1l-0.1-1296.5 M757.1,577.1L757-719.4 M752.3,577.1l-0.1-1296.5 M747.5,577.1l-0.1-1296.5
				 M742.7,577.1l-0.1-1296.5 M737.9,577.1l-0.1-1296.5 M733.1,577L733-719.4 M728.3,577l-0.1-1296.5 M723.5,577l-0.1-1296.5
				 M718.7,577l-0.1-1296.5 M713.9,577l-0.1-1296.5 M709.1,577L709-719.5 M704.3,577l-0.1-1296.5 M699.5,577l-0.1-1296.5 M694.7,577
				l-0.1-1296.5 M689.9,577l-0.1-1296.5 M685.2,577l-0.1-1296.5 M680.4,577l-0.1-1296.5 M675.6,576.9l-0.1-1296.5 M670.8,576.9
				l-0.1-1296.5 M666,576.9l-0.1-1296.5 M661.2,576.9l-0.1-1296.5 M656.4,576.9l-0.1-1296.5 M651.6,576.9l-0.1-1296.5 M646.8,576.9
				l-0.1-1296.5 M642,576.9l-0.1-1296.5 M637.2,576.9l-0.1-1296.5"/>
		</g>
		<polygon class="st4" points="608.3,394 692.2,394 693.2,394 693.2,393 693.2,140 693.2,139 692.2,139 608.3,139 608,139 
			607.7,139.1 590,151.8 589.6,152.1 589.6,152.6 589.6,380.3 589.6,380.8 590,381.1 607.7,393.8 608,394 		"/>
		<rect x="608.3" y="140" class="st1" width="83.9" height="253"/>
		<line class="st5" x1="608.3" y1="139" x2="608.3" y2="393.8"/>
		<rect x="608.3" y="140" class="st1" width="83.9" height="253"/>
		<line class="st5" x1="608.3" y1="139" x2="608.3" y2="393.8"/>
		<line class="st4" x1="677.3" y1="139" x2="677.3" y2="395"/>
		<polygon class="st1" points="523.7,394 607.6,394 608.6,394 608.6,393 608.6,140 608.6,139 607.6,139 523.7,139 523.3,139 
			523.1,139.1 505.4,151.8 504.9,152.1 504.9,152.6 504.9,380.3 504.9,380.8 505.4,381.1 523.1,393.8 523.3,394 		"/>
		<g class="st2">
			<defs>
				<polygon id="SVGID_5_" points="523.7,393 607.6,393 607.6,140 523.7,140 505.9,152.6 505.9,380.3 				"/>
			</defs>
			<clipPath id="SVGID_6_">
				<use xlink:href="#SVGID_5_"  style="overflow:visible;"/>
			</clipPath>
			<path class="st6" d="M547.9,564.7l-0.1-1284.1 M543.1,564.7l-0.1-1284.1 M538.3,564.7l-0.1-1284.1 M533.5,564.7l-0.1-1284.1
				 M528.8,564.7l-0.1-1284.1 M524,564.7l-0.1-1284.1 M519.2,564.7l-0.1-1284.1 M514.4,564.7l-0.1-1284.1 M509.6,564.6l-0.1-1284.1
				 M504.8,564.6l-0.1-1284.1 M500,564.6l-0.1-1284.1 M495.2,564.6l-0.1-1284.1 M490.4,564.6l-0.1-1284.1 M485.6,564.6l-0.1-1284.1
				 M480.8,564.6l-0.1-1284.1 M476,564.6l-0.1-1284.1 M471.2,564.6l-0.1-1284.1 M466.4,564.6l-0.1-1284.1 M461.6,564.6l-0.1-1284.1
				 M456.8,564.6l-0.1-1284.1 M452,564.6L452-719.5 M447.3,564.5l-0.1-1284.1 M442.5,564.5l-0.1-1284.1 M437.7,564.5l-0.1-1284.1
				 M432.9,564.5l-0.1-1284.1 M428.1,564.5L428-719.5 M423.3,564.5l-0.1-1284.1 M418.5,564.5l-0.1-1284.1 M413.7,564.5l-0.1-1284.1
				 M408.9,564.5l-0.1-1284.1 M404.1,564.5L404-719.6 M399.3,564.5l-0.1-1284.1"/>
			<path class="st7" d="M701.2,577.1l-0.1-1296.5 M696.4,577.1l-0.1-1296.5 M691.6,577.1l-0.1-1296.5 M686.8,577.1l-0.1-1296.5
				 M682,577.1l-0.1-1296.5 M677.2,577.1l-0.1-1296.5 M672.4,577.1l-0.1-1296.5 M667.6,577.1l-0.1-1296.5 M662.8,577.1l-0.1-1296.5
				 M658,577.1l-0.1-1296.5 M653.2,577.1l-0.1-1296.5 M648.4,577l-0.1-1296.5 M643.6,577l-0.1-1296.5 M638.8,577l-0.1-1296.5
				 M634.1,577L634-719.5 M629.3,577l-0.1-1296.5 M624.5,577l-0.1-1296.5 M619.7,577l-0.1-1296.5 M614.9,577l-0.1-1296.5 M610.1,577
				L610-719.5 M605.3,577l-0.1-1296.5 M600.5,577l-0.1-1296.5 M595.7,577l-0.1-1296.5 M590.9,576.9l-0.1-1296.5 M586.1,576.9
				L586-719.5 M581.3,576.9l-0.1-1296.5 M576.5,576.9l-0.1-1296.5 M571.7,576.9l-0.1-1296.5 M566.9,576.9l-0.1-1296.5 M562.1,576.9
				l-0.1-1296.5 M557.3,576.9l-0.1-1296.5 M552.6,576.9l-0.1-1296.5"/>
		</g>
		<polygon class="st4" points="523.7,394 607.6,394 608.6,394 608.6,393 608.6,140 608.6,139 607.6,139 523.7,139 523.3,139 
			523.1,139.1 505.4,151.8 504.9,152.1 504.9,152.6 504.9,380.3 504.9,380.8 505.4,381.1 523.1,393.8 523.3,394 		"/>
		<rect x="523.7" y="140" class="st1" width="83.9" height="253"/>
		<line class="st4" x1="523.7" y1="139" x2="523.7" y2="393.8"/>
	</g>
	<g>
		<defs>
			<rect id="SVGID_7_" x="594.6" y="131.2" width="39.1" height="271.8"/>
		</defs>
		<clipPath id="SVGID_8_">
			<use xlink:href="#SVGID_7_"  style="overflow:visible;"/>
		</clipPath>
		<g class="st8">
			<g>
				<defs>
					<rect id="SVGID_9_" x="586.6" y="147.2" width="43.1" height="245.8"/>
				</defs>
				<clipPath id="SVGID_10_">
					<use xlink:href="#SVGID_9_"  style="overflow:visible;"/>
				</clipPath>
				<polygon class="st9" points="619.7,383.2 619.7,151.8 615.6,156.7 611.7,151.8 608.1,155.5 604.6,151.8 600.8,158.9 
					596.6,151.8 596.6,383.2 599.9,379.6 603.3,383.2 608.1,377.6 613.5,383.2 616.6,379.4 				"/>
				<polygon class="st10" points="619.7,383.2 619.7,151.8 615.6,156.7 611.7,151.8 608.1,155.5 604.6,151.8 600.8,158.9 
					596.6,151.8 596.6,383.2 599.9,379.6 603.3,383.2 608.1,377.6 613.5,383.2 616.6,379.4 				"/>
			</g>
		</g>
		<polygon class="st11" points="619.7,383.2 619.7,151.8 615.6,156.7 611.7,151.8 608.1,155.5 604.6,151.8 600.8,158.9 596.6,151.8 
			596.6,383.2 599.9,379.6 603.3,383.2 608.1,377.6 613.5,383.2 616.6,379.4 		"/>
	</g>
</g>
<path d="M383.5,249.2h63.1v16.7h-63.1V249.2z M383.5,273h63.1v16.6h-63.1V273z"/>
<g>
	<defs>
		<rect id="SVGID_11_" x="678.3" y="139" width="15.9" height="254.9"/>
	</defs>
	<clipPath id="SVGID_12_">
		<use xlink:href="#SVGID_11_"  style="overflow:visible;"/>
	</clipPath>
	<path class="st12" d="M825.8,187.3l-1195.9,1196 M830.3,191.8l-1195.9,1196 M834.7,196.2l-1195.9,1196 M839.2,200.7l-1195.9,1196
		 M843.6,205.2l-1195.9,1196 M848.1,209.7l-1195.9,1196 M852.5,214.1l-1195.9,1196 M857,218.6l-1195.9,1196 M861.5,223.1
		l-1195.9,1196 M865.9,227.5L-330,1423.6 M870.4,232l-1195.9,1196 M874.8,236.5L-321,1432.5 M879.3,241L-316.6,1437 M883.7,245.4
		l-1195.9,1196 M888.2,249.9l-1195.9,1196 M892.7,254.4l-1195.9,1196 M897.1,258.9l-1195.9,1196 M901.6,263.3l-1195.9,1196
		 M906,267.8l-1195.9,1196 M910.5,272.3l-1195.9,1196 M914.9,276.7l-1195.9,1196 M919.4,281.2l-1195.9,1196 M923.9,285.7
		L-272,1481.7 M928.3,290.2l-1195.9,1196 M932.8,294.6l-1195.9,1196 M937.2,299.1l-1195.9,1196 M941.7,303.6l-1195.9,1196
		 M946.2,308.1l-1195.9,1196 M950.6,312.5l-1195.9,1196 M955.1,317L-240.8,1513 M959.5,321.5l-1195.9,1196 M964,325.9L-231.9,1522"
		/>
	<path class="st12" d="M694.7,33L-512.8,1240.6 M699.1,37.5L-508.3,1245.1 M703.6,42L-503.8,1249.6 M708,46.5L-499.4,1254.1
		 M712.5,50.9L-494.9,1258.5 M717,55.4L-490.5,1263 M721.4,59.9L-486,1267.5 M725.9,64.4L-481.6,1271.9 M730.3,68.8L-477.1,1276.4
		 M734.8,73.3L-472.6,1280.9 M739.3,77.8L-468.2,1285.4 M743.7,82.2L-463.7,1289.8 M748.2,86.7L-459.3,1294.3 M752.6,91.2
		L-454.8,1298.8 M757.1,95.7L-450.4,1303.3 M761.5,100.1L-445.9,1307.7 M766,104.6L-441.4,1312.2 M770.5,109.1L-437,1316.7
		 M774.9,113.6L-432.5,1321.1 M779.4,118L-428.1,1325.6 M783.8,122.5L-423.6,1330.1 M788.3,127L-419.2,1334.6 M792.7,131.4
		L-414.7,1339 M797.2,135.9L-410.2,1343.5 M801.7,140.4L-405.8,1348 M806.1,144.9L-401.3,1352.5 M810.6,149.3L-396.9,1356.9
		 M815,153.8L-392.4,1361.4 M819.5,158.3L-387.9,1365.9 M823.9,162.8L-383.5,1370.3 M828.4,167.2L-379,1374.8 M832.9,171.7
		L-374.6,1379.3"/>
	<path class="st13" d="M552-109.6L-655.4,1098 M556.4-105.2L-651,1102.4 M560.9-100.7L-646.5,1106.9 M565.4-96.2L-642.1,1111.4
		 M569.8-91.7L-637.6,1115.8 M574.3-87.3L-633.2,1120.3 M578.7-82.8L-628.7,1124.8 M583.2-78.3L-624.2,1129.3 M587.7-73.9
		L-619.8,1133.7 M592.1-69.4L-615.3,1138.2 M596.6-64.9L-610.9,1142.7 M601-60.4L-606.4,1147.2 M605.5-56L-602,1151.6 M609.9-51.5
		L-597.5,1156.1 M614.4-47L-593,1160.6 M618.9-42.5L-588.6,1165 M623.3-38.1L-584.1,1169.5 M627.8-33.6L-579.7,1174 M632.2-29.1
		L-575.2,1178.5 M636.7-24.7L-570.8,1182.9 M641.1-20.2L-566.3,1187.4 M645.6-15.7L-561.8,1191.9 M650.1-11.2L-557.4,1196.4
		 M654.5-6.8L-552.9,1200.8 M659-2.3L-548.5,1205.3 M663.4,2.2L-544,1209.8 M667.9,6.7L-539.5,1214.2 M672.3,11.1L-535.1,1218.7
		 M676.8,15.6L-530.6,1223.2 M681.3,20.1L-526.2,1227.7 M685.7,24.5L-521.7,1232.1 M690.2,29L-517.3,1236.6"/>
</g>
</svg>
