<?xml version="1.0" encoding="utf-8"?>
<!-- Generator: Adobe Illustrator 19.1.0, SVG Export Plug-In . SVG Version: 6.00 Build 0)  -->
<!DOCTYPE svg PUBLIC "-//W3C//DTD SVG 1.1//EN" "http://www.w3.org/Graphics/SVG/1.1/DTD/svg11.dtd">
<svg version="1.1" id="Layer_1" xmlns="http://www.w3.org/2000/svg" xmlns:xlink="http://www.w3.org/1999/xlink" x="0px" y="0px"
	 viewBox="0 0 900 300" style="enable-background:new 0 0 900 300;" xml:space="preserve">
<g>
	<g>
		<path d="M234.6,125.9c0.9,7.8,4.4,13.2,10.7,17.8c4.4,3.2,9.6,6.1,15.1,6.1c6.4,0,11.6-3.8,15-8.8c0.9-1.3,1.6-2.6,2.3-4
			c0.4-0.7,0.8-1.3,1.1-2c-0.9,1.1-1.1,1.3-0.5,0.7c0.6-0.6,0.4-0.4-0.8,0.6c-1.2,0.3-2.3,0.7-3.5,1c-0.7-0.2-0.6-0.2,0.4,0.1
			c1.1,0.7,2.9,0.8,4.2,1.2c2.8,0.9,5.5,2.1,8.1,3.3c6.1,2.6,15.1,3.3,19.7-4.5c3-5,3-12.6,3-18.3c0-7.5-0.6-14.6-2.5-21.8
			c-3.7-14.9-26.8-8.6-23.1,6.4c1.2,4.6,1.5,8.8,1.6,13.5c0,2.6,0,5.1-0.3,7.7c-0.3,3.1-0.9,2.8,0.3,0.8c2.4-1.8,4.8-3.7,7.1-5.5
			c-0.3,0.1-0.7,0.2-1,0.3c2.1,0,4.2,0,6.4,0c-1.3-0.3-1.6-0.3-0.9,0c1.3,0.6,0.4,0.3-2.5-1c-1.6-0.7-3.2-1.3-4.8-2
			c-3-1.2-6-2.4-9.1-3.1c-7-1.5-13.7-0.9-19.1,4.2c-1.7,1.6-3,3.6-4.2,5.6c-0.3,0.6-1.9,4.4-2.5,4.4c-1.7,0,8.8-4.5,5.4-2.7
			c1.2-0.6,2.1,1.2,0.3-0.5c-0.4-0.3-2.6-2-2.9-1.9c0.8-0.2,0.8,4,0.6,2.4c-0.8-6.4-5-12-12-12C240.7,113.9,233.8,119.4,234.6,125.9
			L234.6,125.9z"/>
	</g>
</g>
<g>
	<g>
		<path d="M320,68.4c1.7,11.6,3.4,23.2,5.1,34.8c0.8,5.5,1.6,10.9,2.4,16.4c0.7,5,0.6,10.6,2.5,15.2c2.7,6.7,10.5,11.8,17.6,7.1
			c6.9-4.5,11.8-10.7,19.2-14.5c0,0,2.2-0.5,0-0.5c0.5,0,0.9,0.6,1.6,1.2c1.4,1.4,3.4,4.9,5.2,7.5c3.7,5.3,10.5,7.7,16.4,4.3
			c5.3-3.1,8-11,4.3-16.4c-6.9-9.9-14.1-21.4-28-20.3c-6.2,0.5-12.1,3.4-17.3,6.7c-4.9,3.2-8.7,8-13.4,11.2
			c5.9,2.4,11.7,4.8,17.6,7.1c-1.6-3.9-1.6-9.4-2.3-14.2c-0.9-5.8-1.7-11.6-2.6-17.4c-1.7-11.6-3.4-23.2-5.1-34.8
			c-0.9-6.4-9-9.9-14.7-8.4C321.5,55.6,319.1,62,320,68.4L320,68.4z"/>
	</g>
</g>
<g>
	<g>
		<path d="M425.2,98.6c0.4,0.7,0.6,1.4,0.6,2.1c0.5-1.7,0.6-2,0.2-0.8c4.2-0.6-6.8,3.7-1.9,2.1c3.8-1.2,7.8-2.5,11.8-2.9
			c2.4-0.3,6.6,0.3,8,0.1c0.5,0.1,0.9,0.3,1.4,0.4c-1-0.1-1.6-0.5-1.7-1.2c0.6,0,0.9,2.4,0.8,2.1c0.4,3.4-2.5,8.2-6.2,11.1
			c-1.4,1.1-5.4,3.5-7,2.9c-0.7-0.2-2-3-2.5-3.9c-7.4-13.5-28-1.5-20.6,12.1c4,7.4,9.9,13.6,18.5,15.2c8.2,1.6,17-1,23.8-5.6
			c12.6-8.5,21.6-24.5,16.7-39.9c-5.8-18-25.4-19-41.1-15.6c-7.4,1.6-15.4,3.7-19.9,10.3c-4.9,7.2-4.9,16-1.4,23.7
			c2.7,5.9,11.2,7.3,16.4,4.3C426.9,111.4,427.8,104.5,425.2,98.6L425.2,98.6z"/>
	</g>
</g>
<g>
	<g>
		<path d="M472.4,86.5c0.6,4,1.3,7.9,1.7,11.9c0.3,2.4,0.4,6,1.4,8.9c2.7,8,13.6,12.3,20,5.3c4.3-4.7,5.1-11.2,7.6-16.9
			c0.6-1.3,3.2-5.8,3.2-6.1c0.2,1.3-14.3-5.4-3.8-1.2c-5-2-3.7-1-1.8,1.7c3.3,4.5,7.9,6.8,13.5,5.5c6.4-1.5,9.1-6.8,13.3-11.2
			c1.4-1.5,2.4-2.6,3.7-3.4c0.8-0.5,1.8-0.9,2.6-1.4c2.1-1.1,1.6,0.9-0.7,0c-1.8-1-3.5-2.1-5.3-3.1c2.9,2.3-0.2-0.9,0-1
			c0,0,0.7,2.8,0.8,3.2c0.8,2.6,1.9,5,3.2,7.4c2.4,4.4,5.2,8.4,8.3,12.4c3.9,5.2,10.3,7.8,16.4,4.3c5.1-3,8.2-11.2,4.3-16.4
			c-2-2.6-4-5.2-5.8-8c-0.9-1.4-1.6-3-2.5-4.5c-0.3-0.5-0.6-1-0.9-1.5c0.3,0.7,0.3,0.6,0.1-0.1c-2.4-7.4-5.2-14.1-13.6-16.4
			c-13.8-3.7-28.8,10.3-35.2,21.1c1.4-1.4,2.9-2.9,4.3-4.3c0.2-0.1,0.5-0.1,0.7-0.2c4.5,1.8,9,3.7,13.5,5.5
			c-3.7-5.1-5.7-10-12.5-11.7c-6.6-1.7-14.1,1.5-18.9,6c-7.9,7.2-9.9,18.5-13.7,27.9c1-1.8,2.1-3.5,3.1-5.3
			c-0.2,0.3-0.5,0.5-0.7,0.8c6.7,1.8,13.3,3.5,20,5.3c-0.8-2.3,0,0.5-0.4-1.8c-0.4-2.3-0.6-4.7-1-7.1c-0.6-4-1.2-7.9-1.7-11.9
			c-0.9-6.4-9-9.9-14.7-8.4C473.9,73.7,471.4,80.1,472.4,86.5L472.4,86.5z"/>
	</g>
</g>
<g>
	<g>
		<path d="M31.3,192.4c11,11.1,22.4,21.6,34.5,31.4c6.1,4.9,12.3,9.6,19.1,13.4c6.8,3.8,13.9,7,20.8,10.7
			c27.3,14.7,57.4,24.3,87.7,30.6c8.6,1.8,16.8,5.1,25.4,6.7c8.5,1.6,17.5,2.9,26.2,3c15.4,0.2,15.4-23.8,0-23.9
			c-18.2-0.2-35-6.8-52.7-10.3c-18.1-3.5-36.4-9.9-53.5-16.5c-8.2-3.2-15.8-7.4-23.5-11.6c-8.7-4.6-17.7-8.5-25.9-14.1
			c-15.1-10.3-28.4-23.5-41.3-36.4C37.3,164.6,20.4,181.5,31.3,192.4L31.3,192.4z"/>
	</g>
</g>
<g>
	<g>
		<path d="M196.8,183.6c-33.6,7.8-65.9,19.8-97.7,32.8c-15.9,6.5-31.1,14.7-46.5,22.4c-7.1,3.5-13.9,7.5-21.2,10.6
			c-7.5,3.2-14.3,6.6-20.4,12.2c-4.8,4.4-4.4,12.5,0,16.9c4.7,4.7,12.1,4.4,16.9,0c4.8-4.4,10-6,16.1-8.7
			c7.3-3.3,14.3-7.3,21.5-10.8c14.4-7.1,28.6-14.9,43.5-21c30.7-12.5,61.9-23.9,94.2-31.4c6.3-1.5,10-8.7,8.4-14.7
			C209.7,185.5,203.1,182.1,196.8,183.6L196.8,183.6z"/>
	</g>
</g>
</svg>
